%TF.GenerationSoftware,KiCad,Pcbnew,8.0.5*%
%TF.CreationDate,2024-10-22T20:22:57-07:00*%
%TF.ProjectId,door3_panel,646f6f72-335f-4706-916e-656c2e6b6963,rev?*%
%TF.SameCoordinates,Original*%
%TF.FileFunction,Soldermask,Bot*%
%TF.FilePolarity,Negative*%
%FSLAX46Y46*%
G04 Gerber Fmt 4.6, Leading zero omitted, Abs format (unit mm)*
G04 Created by KiCad (PCBNEW 8.0.5) date 2024-10-22 20:22:57*
%MOMM*%
%LPD*%
G01*
G04 APERTURE LIST*
%ADD10C,2.200000*%
%ADD11R,1.700000X1.700000*%
%ADD12O,1.700000X1.700000*%
G04 APERTURE END LIST*
D10*
%TO.C,REF\u002A\u002A*%
X18344264Y-68824265D03*
%TD*%
%TO.C,REF\u002A\u002A*%
X53020000Y-68840000D03*
%TD*%
%TO.C,REF\u002A\u002A*%
X70374264Y-68844265D03*
%TD*%
%TO.C,REF\u002A\u002A*%
X69974264Y-45644265D03*
%TD*%
D11*
%TO.C,J1*%
X60520000Y-51660000D03*
D12*
X60520000Y-54200000D03*
X60520000Y-56740000D03*
X60520000Y-59280000D03*
X60520000Y-61820000D03*
X60520000Y-64360000D03*
X60520000Y-66900000D03*
X60520000Y-69440000D03*
%TD*%
D10*
%TO.C,REF\u002A\u002A*%
X52620000Y-45640000D03*
%TD*%
%TO.C,REF\u002A\u002A*%
X35698528Y-68828530D03*
%TD*%
D11*
%TO.C,J1*%
X43198528Y-51648530D03*
D12*
X43198528Y-54188530D03*
X43198528Y-56728530D03*
X43198528Y-59268530D03*
X43198528Y-61808530D03*
X43198528Y-64348530D03*
X43198528Y-66888530D03*
X43198528Y-69428530D03*
%TD*%
D10*
%TO.C,REF\u002A\u002A*%
X35298528Y-45628530D03*
%TD*%
D11*
%TO.C,J1*%
X77874264Y-51664265D03*
D12*
X77874264Y-54204265D03*
X77874264Y-56744265D03*
X77874264Y-59284265D03*
X77874264Y-61824265D03*
X77874264Y-64364265D03*
X77874264Y-66904265D03*
X77874264Y-69444265D03*
%TD*%
D11*
%TO.C,J1*%
X25844264Y-51644265D03*
D12*
X25844264Y-54184265D03*
X25844264Y-56724265D03*
X25844264Y-59264265D03*
X25844264Y-61804265D03*
X25844264Y-64344265D03*
X25844264Y-66884265D03*
X25844264Y-69424265D03*
%TD*%
D10*
%TO.C,REF\u002A\u002A*%
X17944264Y-45624265D03*
%TD*%
%TO.C,REF\u002A\u002A*%
X52935736Y-38335735D03*
%TD*%
%TO.C,REF\u002A\u002A*%
X70290000Y-38340000D03*
%TD*%
D12*
%TO.C,J1*%
X77790000Y-38940000D03*
X77790000Y-36400000D03*
X77790000Y-33860000D03*
X77790000Y-31320000D03*
X77790000Y-28780000D03*
X77790000Y-26240000D03*
X77790000Y-23700000D03*
D11*
X77790000Y-21160000D03*
%TD*%
D10*
%TO.C,REF\u002A\u002A*%
X69890000Y-15140000D03*
%TD*%
D12*
%TO.C,J1*%
X60435736Y-38935735D03*
X60435736Y-36395735D03*
X60435736Y-33855735D03*
X60435736Y-31315735D03*
X60435736Y-28775735D03*
X60435736Y-26235735D03*
X60435736Y-23695735D03*
D11*
X60435736Y-21155735D03*
%TD*%
D10*
%TO.C,REF\u002A\u002A*%
X52535736Y-15135735D03*
%TD*%
%TO.C,REF\u002A\u002A*%
X35614264Y-38324265D03*
%TD*%
D12*
%TO.C,J1*%
X43114264Y-38924265D03*
X43114264Y-36384265D03*
X43114264Y-33844265D03*
X43114264Y-31304265D03*
X43114264Y-28764265D03*
X43114264Y-26224265D03*
X43114264Y-23684265D03*
D11*
X43114264Y-21144265D03*
%TD*%
D10*
%TO.C,REF\u002A\u002A*%
X35214264Y-15124265D03*
%TD*%
%TO.C,REF\u002A\u002A*%
X18260000Y-38320000D03*
%TD*%
D12*
%TO.C,J1*%
X25760000Y-38920000D03*
X25760000Y-36380000D03*
X25760000Y-33840000D03*
X25760000Y-31300000D03*
X25760000Y-28760000D03*
X25760000Y-26220000D03*
X25760000Y-23680000D03*
D11*
X25760000Y-21140000D03*
%TD*%
D10*
%TO.C,REF\u002A\u002A*%
X17860000Y-15120000D03*
%TD*%
M02*
