%TF.GenerationSoftware,KiCad,Pcbnew,8.0.5*%
%TF.CreationDate,2024-10-22T20:22:57-07:00*%
%TF.ProjectId,door3_panel,646f6f72-335f-4706-916e-656c2e6b6963,rev?*%
%TF.SameCoordinates,Original*%
%TF.FileFunction,Profile,NP*%
%FSLAX46Y46*%
G04 Gerber Fmt 4.6, Leading zero omitted, Abs format (unit mm)*
G04 Created by KiCad (PCBNEW 8.0.5) date 2024-10-22 20:22:57*
%MOMM*%
%LPD*%
G01*
G04 APERTURE LIST*
%TA.AperFunction,Profile*%
%ADD10C,0.050000*%
%TD*%
G04 APERTURE END LIST*
D10*
X62555736Y-43525735D02*
X64555736Y-43525735D01*
X64555736Y-71045735D01*
X62555736Y-71045735D01*
X62555736Y-43525735D01*
X45234264Y-43514265D02*
X47234264Y-43514265D01*
X47234264Y-71034265D01*
X45234264Y-71034265D01*
X45234264Y-43514265D01*
X27880000Y-43510000D02*
X29880000Y-43510000D01*
X29880000Y-71030000D01*
X27880000Y-71030000D01*
X27880000Y-43510000D01*
X12554264Y-12500000D02*
X79820000Y-12500000D01*
X79820000Y-71454265D01*
X12554264Y-71454265D01*
X12554264Y-12500000D01*
X65175736Y-41005735D02*
X79125736Y-41005735D01*
X79125736Y-43005735D01*
X65175736Y-43005735D01*
X65175736Y-41005735D01*
X47821472Y-41001470D02*
X61771472Y-41001470D01*
X61771472Y-43001470D01*
X47821472Y-43001470D01*
X47821472Y-41001470D01*
X62471472Y-13021470D02*
X64471472Y-13021470D01*
X64471472Y-40541470D01*
X62471472Y-40541470D01*
X62471472Y-13021470D01*
X30500000Y-40990000D02*
X44450000Y-40990000D01*
X44450000Y-42990000D01*
X30500000Y-42990000D01*
X30500000Y-40990000D01*
X45150000Y-13010000D02*
X47150000Y-13010000D01*
X47150000Y-40530000D01*
X45150000Y-40530000D01*
X45150000Y-13010000D01*
X13145736Y-40985735D02*
X27095736Y-40985735D01*
X27095736Y-42985735D01*
X13145736Y-42985735D01*
X13145736Y-40985735D01*
X27795736Y-13005735D02*
X29795736Y-13005735D01*
X29795736Y-40525735D01*
X27795736Y-40525735D01*
X27795736Y-13005735D01*
M02*
