%TF.GenerationSoftware,KiCad,Pcbnew,8.0.5*%
%TF.CreationDate,2024-10-22T20:22:57-07:00*%
%TF.ProjectId,door3_panel,646f6f72-335f-4706-916e-656c2e6b6963,rev?*%
%TF.SameCoordinates,Original*%
%TF.FileFunction,Soldermask,Top*%
%TF.FilePolarity,Negative*%
%FSLAX46Y46*%
G04 Gerber Fmt 4.6, Leading zero omitted, Abs format (unit mm)*
G04 Created by KiCad (PCBNEW 8.0.5) date 2024-10-22 20:22:57*
%MOMM*%
%LPD*%
G01*
G04 APERTURE LIST*
G04 Aperture macros list*
%AMRoundRect*
0 Rectangle with rounded corners*
0 $1 Rounding radius*
0 $2 $3 $4 $5 $6 $7 $8 $9 X,Y pos of 4 corners*
0 Add a 4 corners polygon primitive as box body*
4,1,4,$2,$3,$4,$5,$6,$7,$8,$9,$2,$3,0*
0 Add four circle primitives for the rounded corners*
1,1,$1+$1,$2,$3*
1,1,$1+$1,$4,$5*
1,1,$1+$1,$6,$7*
1,1,$1+$1,$8,$9*
0 Add four rect primitives between the rounded corners*
20,1,$1+$1,$2,$3,$4,$5,0*
20,1,$1+$1,$4,$5,$6,$7,0*
20,1,$1+$1,$6,$7,$8,$9,0*
20,1,$1+$1,$8,$9,$2,$3,0*%
G04 Aperture macros list end*
%ADD10RoundRect,0.200000X-0.275000X0.200000X-0.275000X-0.200000X0.275000X-0.200000X0.275000X0.200000X0*%
%ADD11RoundRect,0.225000X-0.250000X0.225000X-0.250000X-0.225000X0.250000X-0.225000X0.250000X0.225000X0*%
%ADD12C,2.200000*%
%ADD13R,0.376682X0.351536*%
%ADD14R,0.351536X0.376682*%
%ADD15R,1.700000X1.700000*%
%ADD16O,1.700000X1.700000*%
G04 APERTURE END LIST*
D10*
%TO.C,R4*%
X14574264Y-52914264D03*
X14574264Y-54564264D03*
%TD*%
D11*
%TO.C,C1*%
X22764264Y-49464265D03*
X22764264Y-51014265D03*
%TD*%
D10*
%TO.C,R3*%
X17064264Y-52904265D03*
X17064264Y-54554265D03*
%TD*%
D12*
%TO.C,REF\u002A\u002A*%
X18344264Y-68824265D03*
%TD*%
D13*
%TO.C,U1*%
X19014264Y-51044265D03*
X19014264Y-50544264D03*
X19014264Y-50044264D03*
X19014264Y-49544263D03*
D14*
X18514263Y-49544263D03*
X18014263Y-49544263D03*
D13*
X17514262Y-49544263D03*
X17514262Y-50044264D03*
X17514262Y-50544264D03*
X17514262Y-51044265D03*
D14*
X18014263Y-51044265D03*
X18514263Y-51044265D03*
%TD*%
D10*
%TO.C,R1*%
X19594264Y-52904265D03*
X19594264Y-54554265D03*
%TD*%
%TO.C,R3*%
X69094264Y-52924265D03*
X69094264Y-54574265D03*
%TD*%
%TO.C,R1*%
X54270000Y-52920000D03*
X54270000Y-54570000D03*
%TD*%
%TO.C,R3*%
X51740000Y-52920000D03*
X51740000Y-54570000D03*
%TD*%
D12*
%TO.C,REF\u002A\u002A*%
X53020000Y-68840000D03*
%TD*%
D11*
%TO.C,C1*%
X74794264Y-49484265D03*
X74794264Y-51034265D03*
%TD*%
%TO.C,C1*%
X57440000Y-49480000D03*
X57440000Y-51030000D03*
%TD*%
D10*
%TO.C,R4*%
X49250000Y-52929999D03*
X49250000Y-54579999D03*
%TD*%
D12*
%TO.C,REF\u002A\u002A*%
X70374264Y-68844265D03*
%TD*%
D13*
%TO.C,U1*%
X53690000Y-51060000D03*
X53690000Y-50559999D03*
X53690000Y-50059999D03*
X53690000Y-49559998D03*
D14*
X53189999Y-49559998D03*
X52689999Y-49559998D03*
D13*
X52189998Y-49559998D03*
X52189998Y-50059999D03*
X52189998Y-50559999D03*
X52189998Y-51060000D03*
D14*
X52689999Y-51060000D03*
X53189999Y-51060000D03*
%TD*%
D10*
%TO.C,R2*%
X56780000Y-52910000D03*
X56780000Y-54560000D03*
%TD*%
D12*
%TO.C,REF\u002A\u002A*%
X69974264Y-45644265D03*
%TD*%
D13*
%TO.C,U1*%
X71044264Y-51064265D03*
X71044264Y-50564264D03*
X71044264Y-50064264D03*
X71044264Y-49564263D03*
D14*
X70544263Y-49564263D03*
X70044263Y-49564263D03*
D13*
X69544262Y-49564263D03*
X69544262Y-50064264D03*
X69544262Y-50564264D03*
X69544262Y-51064265D03*
D14*
X70044263Y-51064265D03*
X70544263Y-51064265D03*
%TD*%
D15*
%TO.C,J1*%
X60520000Y-51660000D03*
D16*
X60520000Y-54200000D03*
X60520000Y-56740000D03*
X60520000Y-59280000D03*
X60520000Y-61820000D03*
X60520000Y-64360000D03*
X60520000Y-66900000D03*
X60520000Y-69440000D03*
%TD*%
D12*
%TO.C,REF\u002A\u002A*%
X52620000Y-45640000D03*
%TD*%
D11*
%TO.C,C1*%
X40118528Y-49468530D03*
X40118528Y-51018530D03*
%TD*%
D10*
%TO.C,R3*%
X34418528Y-52908530D03*
X34418528Y-54558530D03*
%TD*%
D12*
%TO.C,REF\u002A\u002A*%
X35698528Y-68828530D03*
%TD*%
D10*
%TO.C,R2*%
X39458528Y-52898530D03*
X39458528Y-54548530D03*
%TD*%
D15*
%TO.C,J1*%
X43198528Y-51648530D03*
D16*
X43198528Y-54188530D03*
X43198528Y-56728530D03*
X43198528Y-59268530D03*
X43198528Y-61808530D03*
X43198528Y-64348530D03*
X43198528Y-66888530D03*
X43198528Y-69428530D03*
%TD*%
D10*
%TO.C,R1*%
X36948528Y-52908530D03*
X36948528Y-54558530D03*
%TD*%
%TO.C,R4*%
X31928528Y-52918529D03*
X31928528Y-54568529D03*
%TD*%
D12*
%TO.C,REF\u002A\u002A*%
X35298528Y-45628530D03*
%TD*%
D13*
%TO.C,U1*%
X36368528Y-51048530D03*
X36368528Y-50548529D03*
X36368528Y-50048529D03*
X36368528Y-49548528D03*
D14*
X35868527Y-49548528D03*
X35368527Y-49548528D03*
D13*
X34868526Y-49548528D03*
X34868526Y-50048529D03*
X34868526Y-50548529D03*
X34868526Y-51048530D03*
D14*
X35368527Y-51048530D03*
X35868527Y-51048530D03*
%TD*%
D10*
%TO.C,R4*%
X66604264Y-52934264D03*
X66604264Y-54584264D03*
%TD*%
%TO.C,R1*%
X71624264Y-52924265D03*
X71624264Y-54574265D03*
%TD*%
D15*
%TO.C,J1*%
X77874264Y-51664265D03*
D16*
X77874264Y-54204265D03*
X77874264Y-56744265D03*
X77874264Y-59284265D03*
X77874264Y-61824265D03*
X77874264Y-64364265D03*
X77874264Y-66904265D03*
X77874264Y-69444265D03*
%TD*%
D10*
%TO.C,R2*%
X74134264Y-52914265D03*
X74134264Y-54564265D03*
%TD*%
%TO.C,R2*%
X22104264Y-52894265D03*
X22104264Y-54544265D03*
%TD*%
D15*
%TO.C,J1*%
X25844264Y-51644265D03*
D16*
X25844264Y-54184265D03*
X25844264Y-56724265D03*
X25844264Y-59264265D03*
X25844264Y-61804265D03*
X25844264Y-64344265D03*
X25844264Y-66884265D03*
X25844264Y-69424265D03*
%TD*%
D12*
%TO.C,REF\u002A\u002A*%
X17944264Y-45624265D03*
%TD*%
D10*
%TO.C,R4*%
X49165736Y-24075734D03*
X49165736Y-22425734D03*
%TD*%
D11*
%TO.C,C1*%
X57355736Y-20525735D03*
X57355736Y-18975735D03*
%TD*%
D10*
%TO.C,R3*%
X51655736Y-24065735D03*
X51655736Y-22415735D03*
%TD*%
D12*
%TO.C,REF\u002A\u002A*%
X52935736Y-38335735D03*
%TD*%
D14*
%TO.C,U1*%
X53105735Y-20555735D03*
X52605735Y-20555735D03*
D13*
X52105734Y-20555735D03*
X52105734Y-20055734D03*
X52105734Y-19555734D03*
X52105734Y-19055733D03*
D14*
X52605735Y-19055733D03*
X53105735Y-19055733D03*
D13*
X53605736Y-19055733D03*
X53605736Y-19555734D03*
X53605736Y-20055734D03*
X53605736Y-20555735D03*
%TD*%
D10*
%TO.C,R1*%
X54185736Y-24065735D03*
X54185736Y-22415735D03*
%TD*%
D11*
%TO.C,C1*%
X74710000Y-20530000D03*
X74710000Y-18980000D03*
%TD*%
D10*
%TO.C,R3*%
X69010000Y-24070000D03*
X69010000Y-22420000D03*
%TD*%
D12*
%TO.C,REF\u002A\u002A*%
X70290000Y-38340000D03*
%TD*%
D10*
%TO.C,R2*%
X74050000Y-24060000D03*
X74050000Y-22410000D03*
%TD*%
D16*
%TO.C,J1*%
X77790000Y-38940000D03*
X77790000Y-36400000D03*
X77790000Y-33860000D03*
X77790000Y-31320000D03*
X77790000Y-28780000D03*
X77790000Y-26240000D03*
X77790000Y-23700000D03*
D15*
X77790000Y-21160000D03*
%TD*%
D10*
%TO.C,R1*%
X71540000Y-24070000D03*
X71540000Y-22420000D03*
%TD*%
%TO.C,R4*%
X66520000Y-24079999D03*
X66520000Y-22429999D03*
%TD*%
D12*
%TO.C,REF\u002A\u002A*%
X69890000Y-15140000D03*
%TD*%
D14*
%TO.C,U1*%
X70459999Y-20560000D03*
X69959999Y-20560000D03*
D13*
X69459998Y-20560000D03*
X69459998Y-20059999D03*
X69459998Y-19559999D03*
X69459998Y-19059998D03*
D14*
X69959999Y-19059998D03*
X70459999Y-19059998D03*
D13*
X70960000Y-19059998D03*
X70960000Y-19559999D03*
X70960000Y-20059999D03*
X70960000Y-20560000D03*
%TD*%
D10*
%TO.C,R2*%
X56695736Y-24055735D03*
X56695736Y-22405735D03*
%TD*%
D16*
%TO.C,J1*%
X60435736Y-38935735D03*
X60435736Y-36395735D03*
X60435736Y-33855735D03*
X60435736Y-31315735D03*
X60435736Y-28775735D03*
X60435736Y-26235735D03*
X60435736Y-23695735D03*
D15*
X60435736Y-21155735D03*
%TD*%
D12*
%TO.C,REF\u002A\u002A*%
X52535736Y-15135735D03*
%TD*%
D10*
%TO.C,R4*%
X31844264Y-24064264D03*
X31844264Y-22414264D03*
%TD*%
D11*
%TO.C,C1*%
X40034264Y-20514265D03*
X40034264Y-18964265D03*
%TD*%
D10*
%TO.C,R3*%
X34334264Y-24054265D03*
X34334264Y-22404265D03*
%TD*%
D12*
%TO.C,REF\u002A\u002A*%
X35614264Y-38324265D03*
%TD*%
D14*
%TO.C,U1*%
X35784263Y-20544265D03*
X35284263Y-20544265D03*
D13*
X34784262Y-20544265D03*
X34784262Y-20044264D03*
X34784262Y-19544264D03*
X34784262Y-19044263D03*
D14*
X35284263Y-19044263D03*
X35784263Y-19044263D03*
D13*
X36284264Y-19044263D03*
X36284264Y-19544264D03*
X36284264Y-20044264D03*
X36284264Y-20544265D03*
%TD*%
D10*
%TO.C,R1*%
X36864264Y-24054265D03*
X36864264Y-22404265D03*
%TD*%
%TO.C,R2*%
X39374264Y-24044265D03*
X39374264Y-22394265D03*
%TD*%
D16*
%TO.C,J1*%
X43114264Y-38924265D03*
X43114264Y-36384265D03*
X43114264Y-33844265D03*
X43114264Y-31304265D03*
X43114264Y-28764265D03*
X43114264Y-26224265D03*
X43114264Y-23684265D03*
D15*
X43114264Y-21144265D03*
%TD*%
D12*
%TO.C,REF\u002A\u002A*%
X35214264Y-15124265D03*
%TD*%
%TO.C,REF\u002A\u002A*%
X18260000Y-38320000D03*
%TD*%
D10*
%TO.C,R3*%
X16980000Y-24050000D03*
X16980000Y-22400000D03*
%TD*%
D11*
%TO.C,C1*%
X22680000Y-20510000D03*
X22680000Y-18960000D03*
%TD*%
D10*
%TO.C,R4*%
X14490000Y-24059999D03*
X14490000Y-22409999D03*
%TD*%
D14*
%TO.C,U1*%
X18429999Y-20540000D03*
X17929999Y-20540000D03*
D13*
X17429998Y-20540000D03*
X17429998Y-20039999D03*
X17429998Y-19539999D03*
X17429998Y-19039998D03*
D14*
X17929999Y-19039998D03*
X18429999Y-19039998D03*
D13*
X18930000Y-19039998D03*
X18930000Y-19539999D03*
X18930000Y-20039999D03*
X18930000Y-20540000D03*
%TD*%
D10*
%TO.C,R1*%
X19510000Y-24050000D03*
X19510000Y-22400000D03*
%TD*%
%TO.C,R2*%
X22020000Y-24040000D03*
X22020000Y-22390000D03*
%TD*%
D16*
%TO.C,J1*%
X25760000Y-38920000D03*
X25760000Y-36380000D03*
X25760000Y-33840000D03*
X25760000Y-31300000D03*
X25760000Y-28760000D03*
X25760000Y-26220000D03*
X25760000Y-23680000D03*
D15*
X25760000Y-21140000D03*
%TD*%
D12*
%TO.C,REF\u002A\u002A*%
X17860000Y-15120000D03*
%TD*%
M02*
