%TF.GenerationSoftware,KiCad,Pcbnew,8.0.5*%
%TF.CreationDate,2024-10-22T20:22:57-07:00*%
%TF.ProjectId,door3_panel,646f6f72-335f-4706-916e-656c2e6b6963,rev?*%
%TF.SameCoordinates,Original*%
%TF.FileFunction,Copper,L2,Bot*%
%TF.FilePolarity,Positive*%
%FSLAX46Y46*%
G04 Gerber Fmt 4.6, Leading zero omitted, Abs format (unit mm)*
G04 Created by KiCad (PCBNEW 8.0.5) date 2024-10-22 20:22:57*
%MOMM*%
%LPD*%
G01*
G04 APERTURE LIST*
%TA.AperFunction,ComponentPad*%
%ADD10R,1.700000X1.700000*%
%TD*%
%TA.AperFunction,ComponentPad*%
%ADD11O,1.700000X1.700000*%
%TD*%
%TA.AperFunction,ViaPad*%
%ADD12C,0.600000*%
%TD*%
%TA.AperFunction,Conductor*%
%ADD13C,0.200000*%
%TD*%
G04 APERTURE END LIST*
D10*
%TO.P,J1,1,Pin_1*%
%TO.N,VDD*%
X60520000Y-51660000D03*
D11*
%TO.P,J1,2,Pin_2*%
%TO.N,GND*%
X60520000Y-54200000D03*
%TO.P,J1,3,Pin_3*%
%TO.N,SDA*%
X60520000Y-56740000D03*
%TO.P,J1,4,Pin_4*%
%TO.N,SCL*%
X60520000Y-59280000D03*
%TO.P,J1,5,Pin_5*%
%TO.N,SDO*%
X60520000Y-61820000D03*
%TO.P,J1,6,Pin_6*%
%TO.N,CS*%
X60520000Y-64360000D03*
%TO.P,J1,7,Pin_7*%
%TO.N,DRDY*%
X60520000Y-66900000D03*
%TO.P,J1,8,Pin_8*%
%TO.N,INT*%
X60520000Y-69440000D03*
%TD*%
D10*
%TO.P,J1,1,Pin_1*%
%TO.N,VDD*%
X43198528Y-51648530D03*
D11*
%TO.P,J1,2,Pin_2*%
%TO.N,GND*%
X43198528Y-54188530D03*
%TO.P,J1,3,Pin_3*%
%TO.N,SDA*%
X43198528Y-56728530D03*
%TO.P,J1,4,Pin_4*%
%TO.N,SCL*%
X43198528Y-59268530D03*
%TO.P,J1,5,Pin_5*%
%TO.N,SDO*%
X43198528Y-61808530D03*
%TO.P,J1,6,Pin_6*%
%TO.N,CS*%
X43198528Y-64348530D03*
%TO.P,J1,7,Pin_7*%
%TO.N,DRDY*%
X43198528Y-66888530D03*
%TO.P,J1,8,Pin_8*%
%TO.N,INT*%
X43198528Y-69428530D03*
%TD*%
D10*
%TO.P,J1,1,Pin_1*%
%TO.N,VDD*%
X77874264Y-51664265D03*
D11*
%TO.P,J1,2,Pin_2*%
%TO.N,GND*%
X77874264Y-54204265D03*
%TO.P,J1,3,Pin_3*%
%TO.N,SDA*%
X77874264Y-56744265D03*
%TO.P,J1,4,Pin_4*%
%TO.N,SCL*%
X77874264Y-59284265D03*
%TO.P,J1,5,Pin_5*%
%TO.N,SDO*%
X77874264Y-61824265D03*
%TO.P,J1,6,Pin_6*%
%TO.N,CS*%
X77874264Y-64364265D03*
%TO.P,J1,7,Pin_7*%
%TO.N,DRDY*%
X77874264Y-66904265D03*
%TO.P,J1,8,Pin_8*%
%TO.N,INT*%
X77874264Y-69444265D03*
%TD*%
D10*
%TO.P,J1,1,Pin_1*%
%TO.N,VDD*%
X25844264Y-51644265D03*
D11*
%TO.P,J1,2,Pin_2*%
%TO.N,GND*%
X25844264Y-54184265D03*
%TO.P,J1,3,Pin_3*%
%TO.N,SDA*%
X25844264Y-56724265D03*
%TO.P,J1,4,Pin_4*%
%TO.N,SCL*%
X25844264Y-59264265D03*
%TO.P,J1,5,Pin_5*%
%TO.N,SDO*%
X25844264Y-61804265D03*
%TO.P,J1,6,Pin_6*%
%TO.N,CS*%
X25844264Y-64344265D03*
%TO.P,J1,7,Pin_7*%
%TO.N,DRDY*%
X25844264Y-66884265D03*
%TO.P,J1,8,Pin_8*%
%TO.N,INT*%
X25844264Y-69424265D03*
%TD*%
%TO.P,J1,8,Pin_8*%
%TO.N,INT*%
X77790000Y-38940000D03*
%TO.P,J1,7,Pin_7*%
%TO.N,DRDY*%
X77790000Y-36400000D03*
%TO.P,J1,6,Pin_6*%
%TO.N,CS*%
X77790000Y-33860000D03*
%TO.P,J1,5,Pin_5*%
%TO.N,SDO*%
X77790000Y-31320000D03*
%TO.P,J1,4,Pin_4*%
%TO.N,SCL*%
X77790000Y-28780000D03*
%TO.P,J1,3,Pin_3*%
%TO.N,SDA*%
X77790000Y-26240000D03*
%TO.P,J1,2,Pin_2*%
%TO.N,GND*%
X77790000Y-23700000D03*
D10*
%TO.P,J1,1,Pin_1*%
%TO.N,VDD*%
X77790000Y-21160000D03*
%TD*%
D11*
%TO.P,J1,8,Pin_8*%
%TO.N,INT*%
X60435736Y-38935735D03*
%TO.P,J1,7,Pin_7*%
%TO.N,DRDY*%
X60435736Y-36395735D03*
%TO.P,J1,6,Pin_6*%
%TO.N,CS*%
X60435736Y-33855735D03*
%TO.P,J1,5,Pin_5*%
%TO.N,SDO*%
X60435736Y-31315735D03*
%TO.P,J1,4,Pin_4*%
%TO.N,SCL*%
X60435736Y-28775735D03*
%TO.P,J1,3,Pin_3*%
%TO.N,SDA*%
X60435736Y-26235735D03*
%TO.P,J1,2,Pin_2*%
%TO.N,GND*%
X60435736Y-23695735D03*
D10*
%TO.P,J1,1,Pin_1*%
%TO.N,VDD*%
X60435736Y-21155735D03*
%TD*%
D11*
%TO.P,J1,8,Pin_8*%
%TO.N,INT*%
X43114264Y-38924265D03*
%TO.P,J1,7,Pin_7*%
%TO.N,DRDY*%
X43114264Y-36384265D03*
%TO.P,J1,6,Pin_6*%
%TO.N,CS*%
X43114264Y-33844265D03*
%TO.P,J1,5,Pin_5*%
%TO.N,SDO*%
X43114264Y-31304265D03*
%TO.P,J1,4,Pin_4*%
%TO.N,SCL*%
X43114264Y-28764265D03*
%TO.P,J1,3,Pin_3*%
%TO.N,SDA*%
X43114264Y-26224265D03*
%TO.P,J1,2,Pin_2*%
%TO.N,GND*%
X43114264Y-23684265D03*
D10*
%TO.P,J1,1,Pin_1*%
%TO.N,VDD*%
X43114264Y-21144265D03*
%TD*%
D11*
%TO.P,J1,8,Pin_8*%
%TO.N,INT*%
X25760000Y-38920000D03*
%TO.P,J1,7,Pin_7*%
%TO.N,DRDY*%
X25760000Y-36380000D03*
%TO.P,J1,6,Pin_6*%
%TO.N,CS*%
X25760000Y-33840000D03*
%TO.P,J1,5,Pin_5*%
%TO.N,SDO*%
X25760000Y-31300000D03*
%TO.P,J1,4,Pin_4*%
%TO.N,SCL*%
X25760000Y-28760000D03*
%TO.P,J1,3,Pin_3*%
%TO.N,SDA*%
X25760000Y-26220000D03*
%TO.P,J1,2,Pin_2*%
%TO.N,GND*%
X25760000Y-23680000D03*
D10*
%TO.P,J1,1,Pin_1*%
%TO.N,VDD*%
X25760000Y-21140000D03*
%TD*%
D12*
%TO.N,INT*%
X32714263Y-48634265D03*
%TO.N,SDO*%
X33998528Y-50698530D03*
X33188528Y-54578530D03*
%TO.N,SCL*%
X40338528Y-57328530D03*
%TO.N,DRDY*%
X32528528Y-50828530D03*
%TO.N,CS*%
X33118528Y-52318529D03*
%TO.N,SCL*%
X40268528Y-55598530D03*
%TO.N,CS*%
X33128528Y-53648530D03*
%TO.N,SDA*%
X35678528Y-53508530D03*
X35648528Y-52308530D03*
%TO.N,DRDY*%
X31328528Y-50828530D03*
%TO.N,INT*%
X33618528Y-49448529D03*
X67389999Y-48650000D03*
%TO.N,SDO*%
X68674264Y-50714265D03*
X67864264Y-54594265D03*
%TO.N,CS*%
X67794264Y-52334264D03*
X67804264Y-53664265D03*
%TO.N,SCL*%
X74944264Y-55614265D03*
%TO.N,DRDY*%
X67204264Y-50844265D03*
%TO.N,SCL*%
X75014264Y-57344265D03*
%TO.N,INT*%
X68294264Y-49464264D03*
%TO.N,SDO*%
X50510000Y-54590000D03*
%TO.N,CS*%
X50450000Y-53660000D03*
%TO.N,DRDY*%
X15174264Y-50824265D03*
%TO.N,SDA*%
X52970000Y-52320000D03*
%TO.N,SDO*%
X51320000Y-50710000D03*
X15834264Y-54574265D03*
%TO.N,INT*%
X50940000Y-49459999D03*
%TO.N,SDA*%
X18324264Y-53504265D03*
X18294264Y-52304265D03*
X70354264Y-53524265D03*
X70324264Y-52324265D03*
%TO.N,DRDY*%
X66004264Y-50844265D03*
%TO.N,SCL*%
X57590000Y-55610000D03*
%TO.N,CS*%
X15764264Y-52314264D03*
%TO.N,DRDY*%
X49850000Y-50840000D03*
%TO.N,CS*%
X15774264Y-53644265D03*
%TO.N,SCL*%
X22914264Y-55594265D03*
%TO.N,SDO*%
X16644264Y-50694265D03*
%TO.N,CS*%
X50440000Y-52329999D03*
%TO.N,SDA*%
X53000000Y-53520000D03*
%TO.N,INT*%
X50035735Y-48645735D03*
X15359999Y-48630000D03*
%TO.N,DRDY*%
X13974264Y-50824265D03*
X48650000Y-50840000D03*
%TO.N,INT*%
X16264264Y-49444264D03*
%TO.N,SCL*%
X22984264Y-57324265D03*
X57660000Y-57340000D03*
%TO.N,INT*%
X67305735Y-18145735D03*
%TO.N,SDO*%
X68590000Y-20210000D03*
X67780000Y-24090000D03*
%TO.N,SCL*%
X74930000Y-26840000D03*
%TO.N,DRDY*%
X67120000Y-20340000D03*
%TO.N,CS*%
X67710000Y-21829999D03*
%TO.N,SCL*%
X74860000Y-25110000D03*
%TO.N,CS*%
X67720000Y-23160000D03*
%TO.N,SDA*%
X70270000Y-23020000D03*
X70240000Y-21820000D03*
%TO.N,DRDY*%
X65920000Y-20340000D03*
%TO.N,INT*%
X68210000Y-18959999D03*
%TO.N,DRDY*%
X49765736Y-20335735D03*
%TO.N,SDO*%
X50425736Y-24085735D03*
%TO.N,SDA*%
X52915736Y-23015735D03*
X52885736Y-21815735D03*
%TO.N,CS*%
X50355736Y-21825734D03*
X50365736Y-23155735D03*
%TO.N,SCL*%
X57505736Y-25105735D03*
%TO.N,SDO*%
X51235736Y-20205735D03*
%TO.N,INT*%
X49951471Y-18141470D03*
%TO.N,DRDY*%
X48565736Y-20335735D03*
%TO.N,INT*%
X50855736Y-18955734D03*
%TO.N,SCL*%
X57575736Y-26835735D03*
%TO.N,DRDY*%
X32444264Y-20324265D03*
%TO.N,SDO*%
X33104264Y-24074265D03*
%TO.N,SDA*%
X35594264Y-23004265D03*
X35564264Y-21804265D03*
%TO.N,CS*%
X33034264Y-21814264D03*
X33044264Y-23144265D03*
%TO.N,SCL*%
X40184264Y-25094265D03*
%TO.N,SDO*%
X33914264Y-20194265D03*
%TO.N,INT*%
X32629999Y-18130000D03*
%TO.N,DRDY*%
X31244264Y-20324265D03*
%TO.N,INT*%
X33534264Y-18944264D03*
%TO.N,SCL*%
X40254264Y-26824265D03*
%TO.N,INT*%
X15275735Y-18125735D03*
X16180000Y-18939999D03*
%TO.N,SDO*%
X15750000Y-24070000D03*
X16560000Y-20190000D03*
%TO.N,CS*%
X15690000Y-23140000D03*
X15680000Y-21809999D03*
%TO.N,SCL*%
X22830000Y-25090000D03*
X22900000Y-26820000D03*
%TO.N,SDA*%
X18240000Y-23000000D03*
X18210000Y-21800000D03*
%TO.N,DRDY*%
X15090000Y-20320000D03*
X13890000Y-20320000D03*
%TD*%
D13*
%TO.N,SCL*%
X74944264Y-55614265D02*
X74944264Y-57274265D01*
%TO.N,CS*%
X67794264Y-53654265D02*
X67804264Y-53664265D01*
%TO.N,SDA*%
X70324264Y-53494265D02*
X70354264Y-53524265D01*
%TO.N,SDO*%
X68674264Y-50714265D02*
X68674264Y-53784265D01*
%TO.N,DRDY*%
X67204264Y-50844265D02*
X66004264Y-50844265D01*
%TO.N,CS*%
X67794264Y-52334264D02*
X67794264Y-53294265D01*
%TO.N,INT*%
X68204263Y-49464264D02*
X67389999Y-48650000D01*
X68294264Y-49464264D02*
X68204263Y-49464264D01*
%TO.N,SCL*%
X57590000Y-57270000D02*
X57660000Y-57340000D01*
%TO.N,CS*%
X67794264Y-53294265D02*
X67794264Y-53654265D01*
%TO.N,SDA*%
X52970000Y-53490000D02*
X53000000Y-53520000D01*
%TO.N,SCL*%
X74944264Y-57274265D02*
X75014264Y-57344265D01*
%TO.N,SDA*%
X70324264Y-52324265D02*
X70324264Y-53494265D01*
%TO.N,SDO*%
X68674264Y-53784265D02*
X67864264Y-54594265D01*
%TO.N,SCL*%
X57590000Y-55610000D02*
X57590000Y-57270000D01*
%TO.N,SDO*%
X33998528Y-50698530D02*
X33998528Y-53768530D01*
%TO.N,DRDY*%
X32528528Y-50828530D02*
X31328528Y-50828530D01*
%TO.N,SDA*%
X35648528Y-53478530D02*
X35678528Y-53508530D01*
%TO.N,CS*%
X33118528Y-53638530D02*
X33128528Y-53648530D01*
%TO.N,SCL*%
X40268528Y-55598530D02*
X40268528Y-57258530D01*
%TO.N,CS*%
X33118528Y-52318529D02*
X33118528Y-53278530D01*
%TO.N,SDA*%
X35648528Y-52308530D02*
X35648528Y-53478530D01*
%TO.N,INT*%
X33528527Y-49448529D02*
X32714263Y-48634265D01*
%TO.N,SCL*%
X40268528Y-57258530D02*
X40338528Y-57328530D01*
%TO.N,CS*%
X33118528Y-53278530D02*
X33118528Y-53638530D01*
%TO.N,INT*%
X33618528Y-49448529D02*
X33528527Y-49448529D01*
%TO.N,SDO*%
X33998528Y-53768530D02*
X33188528Y-54578530D01*
%TO.N,CS*%
X50440000Y-52329999D02*
X50440000Y-53290000D01*
X50440000Y-53650000D02*
X50450000Y-53660000D01*
X50440000Y-53290000D02*
X50440000Y-53650000D01*
%TO.N,DRDY*%
X49850000Y-50840000D02*
X48650000Y-50840000D01*
%TO.N,SDA*%
X52970000Y-52320000D02*
X52970000Y-53490000D01*
%TO.N,SDO*%
X51320000Y-50710000D02*
X51320000Y-53780000D01*
%TO.N,INT*%
X50849999Y-49459999D02*
X50035735Y-48645735D01*
%TO.N,SDO*%
X51320000Y-53780000D02*
X50510000Y-54590000D01*
%TO.N,INT*%
X50940000Y-49459999D02*
X50849999Y-49459999D01*
%TO.N,SDA*%
X18294264Y-53474265D02*
X18324264Y-53504265D01*
%TO.N,SCL*%
X22914264Y-57254265D02*
X22984264Y-57324265D01*
X22914264Y-55594265D02*
X22914264Y-57254265D01*
%TO.N,DRDY*%
X15174264Y-50824265D02*
X13974264Y-50824265D01*
%TO.N,SDA*%
X18294264Y-52304265D02*
X18294264Y-53474265D01*
%TO.N,SDO*%
X16644264Y-50694265D02*
X16644264Y-53764265D01*
%TO.N,CS*%
X15764264Y-53634265D02*
X15774264Y-53644265D01*
X15764264Y-52314264D02*
X15764264Y-53274265D01*
%TO.N,INT*%
X16174263Y-49444264D02*
X15359999Y-48630000D01*
%TO.N,CS*%
X15764264Y-53274265D02*
X15764264Y-53634265D01*
%TO.N,SDO*%
X16644264Y-53764265D02*
X15834264Y-54574265D01*
%TO.N,INT*%
X16264264Y-49444264D02*
X16174263Y-49444264D01*
%TO.N,SDO*%
X68590000Y-20210000D02*
X68590000Y-23280000D01*
%TO.N,DRDY*%
X67120000Y-20340000D02*
X65920000Y-20340000D01*
%TO.N,SDA*%
X70240000Y-22990000D02*
X70270000Y-23020000D01*
%TO.N,CS*%
X67710000Y-23150000D02*
X67720000Y-23160000D01*
%TO.N,SCL*%
X74860000Y-25110000D02*
X74860000Y-26770000D01*
%TO.N,CS*%
X67710000Y-21829999D02*
X67710000Y-22790000D01*
%TO.N,SDA*%
X70240000Y-21820000D02*
X70240000Y-22990000D01*
%TO.N,INT*%
X68119999Y-18959999D02*
X67305735Y-18145735D01*
%TO.N,SCL*%
X74860000Y-26770000D02*
X74930000Y-26840000D01*
%TO.N,CS*%
X67710000Y-22790000D02*
X67710000Y-23150000D01*
%TO.N,INT*%
X68210000Y-18959999D02*
X68119999Y-18959999D01*
%TO.N,SDO*%
X68590000Y-23280000D02*
X67780000Y-24090000D01*
%TO.N,SDA*%
X52885736Y-22985735D02*
X52915736Y-23015735D01*
%TO.N,SCL*%
X57505736Y-26765735D02*
X57575736Y-26835735D01*
X57505736Y-25105735D02*
X57505736Y-26765735D01*
%TO.N,DRDY*%
X49765736Y-20335735D02*
X48565736Y-20335735D01*
%TO.N,SDA*%
X52885736Y-21815735D02*
X52885736Y-22985735D01*
%TO.N,SDO*%
X51235736Y-20205735D02*
X51235736Y-23275735D01*
%TO.N,CS*%
X50355736Y-23145735D02*
X50365736Y-23155735D01*
X50355736Y-21825734D02*
X50355736Y-22785735D01*
%TO.N,INT*%
X50765735Y-18955734D02*
X49951471Y-18141470D01*
%TO.N,CS*%
X50355736Y-22785735D02*
X50355736Y-23145735D01*
%TO.N,SDO*%
X51235736Y-23275735D02*
X50425736Y-24085735D01*
%TO.N,INT*%
X50855736Y-18955734D02*
X50765735Y-18955734D01*
%TO.N,SDA*%
X35564264Y-22974265D02*
X35594264Y-23004265D01*
%TO.N,SCL*%
X40184264Y-26754265D02*
X40254264Y-26824265D01*
X40184264Y-25094265D02*
X40184264Y-26754265D01*
%TO.N,DRDY*%
X32444264Y-20324265D02*
X31244264Y-20324265D01*
%TO.N,SDA*%
X35564264Y-21804265D02*
X35564264Y-22974265D01*
%TO.N,SDO*%
X33914264Y-20194265D02*
X33914264Y-23264265D01*
%TO.N,CS*%
X33034264Y-23134265D02*
X33044264Y-23144265D01*
X33034264Y-21814264D02*
X33034264Y-22774265D01*
%TO.N,INT*%
X33444263Y-18944264D02*
X32629999Y-18130000D01*
%TO.N,CS*%
X33034264Y-22774265D02*
X33034264Y-23134265D01*
%TO.N,SDO*%
X33914264Y-23264265D02*
X33104264Y-24074265D01*
%TO.N,INT*%
X33534264Y-18944264D02*
X33444263Y-18944264D01*
X16180000Y-18939999D02*
X16089999Y-18939999D01*
X16089999Y-18939999D02*
X15275735Y-18125735D01*
%TO.N,SDO*%
X16560000Y-20190000D02*
X16560000Y-23260000D01*
X16560000Y-23260000D02*
X15750000Y-24070000D01*
%TO.N,CS*%
X15680000Y-22770000D02*
X15680000Y-23130000D01*
X15680000Y-21809999D02*
X15680000Y-22770000D01*
X15680000Y-23130000D02*
X15690000Y-23140000D01*
%TO.N,SCL*%
X22830000Y-26750000D02*
X22900000Y-26820000D01*
X22830000Y-25090000D02*
X22830000Y-26750000D01*
%TO.N,SDA*%
X18210000Y-21800000D02*
X18210000Y-22970000D01*
X18210000Y-22970000D02*
X18240000Y-23000000D01*
%TO.N,DRDY*%
X15090000Y-20320000D02*
X13890000Y-20320000D01*
%TD*%
M02*
