%TF.GenerationSoftware,KiCad,Pcbnew,8.0.5*%
%TF.CreationDate,2024-10-22T20:22:57-07:00*%
%TF.ProjectId,door3_panel,646f6f72-335f-4706-916e-656c2e6b6963,rev?*%
%TF.SameCoordinates,Original*%
%TF.FileFunction,Copper,L1,Top*%
%TF.FilePolarity,Positive*%
%FSLAX46Y46*%
G04 Gerber Fmt 4.6, Leading zero omitted, Abs format (unit mm)*
G04 Created by KiCad (PCBNEW 8.0.5) date 2024-10-22 20:22:57*
%MOMM*%
%LPD*%
G01*
G04 APERTURE LIST*
G04 Aperture macros list*
%AMRoundRect*
0 Rectangle with rounded corners*
0 $1 Rounding radius*
0 $2 $3 $4 $5 $6 $7 $8 $9 X,Y pos of 4 corners*
0 Add a 4 corners polygon primitive as box body*
4,1,4,$2,$3,$4,$5,$6,$7,$8,$9,$2,$3,0*
0 Add four circle primitives for the rounded corners*
1,1,$1+$1,$2,$3*
1,1,$1+$1,$4,$5*
1,1,$1+$1,$6,$7*
1,1,$1+$1,$8,$9*
0 Add four rect primitives between the rounded corners*
20,1,$1+$1,$2,$3,$4,$5,0*
20,1,$1+$1,$4,$5,$6,$7,0*
20,1,$1+$1,$6,$7,$8,$9,0*
20,1,$1+$1,$8,$9,$2,$3,0*%
G04 Aperture macros list end*
%TA.AperFunction,SMDPad,CuDef*%
%ADD10RoundRect,0.200000X-0.275000X0.200000X-0.275000X-0.200000X0.275000X-0.200000X0.275000X0.200000X0*%
%TD*%
%TA.AperFunction,SMDPad,CuDef*%
%ADD11RoundRect,0.225000X-0.250000X0.225000X-0.250000X-0.225000X0.250000X-0.225000X0.250000X0.225000X0*%
%TD*%
%TA.AperFunction,SMDPad,CuDef*%
%ADD12R,0.376682X0.351536*%
%TD*%
%TA.AperFunction,SMDPad,CuDef*%
%ADD13R,0.351536X0.376682*%
%TD*%
%TA.AperFunction,ComponentPad*%
%ADD14R,1.700000X1.700000*%
%TD*%
%TA.AperFunction,ComponentPad*%
%ADD15O,1.700000X1.700000*%
%TD*%
%TA.AperFunction,ViaPad*%
%ADD16C,0.600000*%
%TD*%
%TA.AperFunction,Conductor*%
%ADD17C,0.200000*%
%TD*%
G04 APERTURE END LIST*
D10*
%TO.P,R4,1*%
%TO.N,VDD*%
X14574264Y-52914264D03*
%TO.P,R4,2*%
%TO.N,CS*%
X14574264Y-54564264D03*
%TD*%
D11*
%TO.P,C1,1*%
%TO.N,Net-(U1-C1)*%
X22764264Y-49464265D03*
%TO.P,C1,2*%
%TO.N,GND*%
X22764264Y-51014265D03*
%TD*%
D10*
%TO.P,R3,1*%
%TO.N,VDD*%
X17064264Y-52904265D03*
%TO.P,R3,2*%
%TO.N,SDO*%
X17064264Y-54554265D03*
%TD*%
D12*
%TO.P,U1,1,SCL/SPC*%
%TO.N,SCL*%
X19014264Y-51044265D03*
%TO.P,U1,2,RES*%
%TO.N,GND*%
X19014264Y-50544264D03*
%TO.P,U1,3,GND*%
X19014264Y-50044264D03*
%TO.P,U1,4,C1*%
%TO.N,Net-(U1-C1)*%
X19014264Y-49544263D03*
D13*
%TO.P,U1,5,VDD*%
%TO.N,VDD*%
X18514263Y-49544263D03*
%TO.P,U1,6,VDD_IO*%
X18014263Y-49544263D03*
D12*
%TO.P,U1,7,INT*%
%TO.N,INT*%
X17514262Y-49544263D03*
%TO.P,U1,8,DRDY*%
%TO.N,DRDY*%
X17514262Y-50044264D03*
%TO.P,U1,9,SDO/SA1*%
%TO.N,SDO*%
X17514262Y-50544264D03*
%TO.P,U1,10,CS*%
%TO.N,CS*%
X17514262Y-51044265D03*
D13*
%TO.P,U1,11,SDA/SDI/SDO*%
%TO.N,SDA*%
X18014263Y-51044265D03*
%TO.P,U1,12,RES*%
%TO.N,GND*%
X18514263Y-51044265D03*
%TD*%
D10*
%TO.P,R1,1*%
%TO.N,VDD*%
X19594264Y-52904265D03*
%TO.P,R1,2*%
%TO.N,SDA*%
X19594264Y-54554265D03*
%TD*%
%TO.P,R3,1*%
%TO.N,VDD*%
X69094264Y-52924265D03*
%TO.P,R3,2*%
%TO.N,SDO*%
X69094264Y-54574265D03*
%TD*%
%TO.P,R1,1*%
%TO.N,VDD*%
X54270000Y-52920000D03*
%TO.P,R1,2*%
%TO.N,SDA*%
X54270000Y-54570000D03*
%TD*%
%TO.P,R3,1*%
%TO.N,VDD*%
X51740000Y-52920000D03*
%TO.P,R3,2*%
%TO.N,SDO*%
X51740000Y-54570000D03*
%TD*%
D11*
%TO.P,C1,1*%
%TO.N,Net-(U1-C1)*%
X74794264Y-49484265D03*
%TO.P,C1,2*%
%TO.N,GND*%
X74794264Y-51034265D03*
%TD*%
%TO.P,C1,1*%
%TO.N,Net-(U1-C1)*%
X57440000Y-49480000D03*
%TO.P,C1,2*%
%TO.N,GND*%
X57440000Y-51030000D03*
%TD*%
D10*
%TO.P,R4,1*%
%TO.N,VDD*%
X49250000Y-52929999D03*
%TO.P,R4,2*%
%TO.N,CS*%
X49250000Y-54579999D03*
%TD*%
D12*
%TO.P,U1,1,SCL/SPC*%
%TO.N,SCL*%
X53690000Y-51060000D03*
%TO.P,U1,2,RES*%
%TO.N,GND*%
X53690000Y-50559999D03*
%TO.P,U1,3,GND*%
X53690000Y-50059999D03*
%TO.P,U1,4,C1*%
%TO.N,Net-(U1-C1)*%
X53690000Y-49559998D03*
D13*
%TO.P,U1,5,VDD*%
%TO.N,VDD*%
X53189999Y-49559998D03*
%TO.P,U1,6,VDD_IO*%
X52689999Y-49559998D03*
D12*
%TO.P,U1,7,INT*%
%TO.N,INT*%
X52189998Y-49559998D03*
%TO.P,U1,8,DRDY*%
%TO.N,DRDY*%
X52189998Y-50059999D03*
%TO.P,U1,9,SDO/SA1*%
%TO.N,SDO*%
X52189998Y-50559999D03*
%TO.P,U1,10,CS*%
%TO.N,CS*%
X52189998Y-51060000D03*
D13*
%TO.P,U1,11,SDA/SDI/SDO*%
%TO.N,SDA*%
X52689999Y-51060000D03*
%TO.P,U1,12,RES*%
%TO.N,GND*%
X53189999Y-51060000D03*
%TD*%
D10*
%TO.P,R2,1*%
%TO.N,VDD*%
X56780000Y-52910000D03*
%TO.P,R2,2*%
%TO.N,SCL*%
X56780000Y-54560000D03*
%TD*%
D12*
%TO.P,U1,1,SCL/SPC*%
%TO.N,SCL*%
X71044264Y-51064265D03*
%TO.P,U1,2,RES*%
%TO.N,GND*%
X71044264Y-50564264D03*
%TO.P,U1,3,GND*%
X71044264Y-50064264D03*
%TO.P,U1,4,C1*%
%TO.N,Net-(U1-C1)*%
X71044264Y-49564263D03*
D13*
%TO.P,U1,5,VDD*%
%TO.N,VDD*%
X70544263Y-49564263D03*
%TO.P,U1,6,VDD_IO*%
X70044263Y-49564263D03*
D12*
%TO.P,U1,7,INT*%
%TO.N,INT*%
X69544262Y-49564263D03*
%TO.P,U1,8,DRDY*%
%TO.N,DRDY*%
X69544262Y-50064264D03*
%TO.P,U1,9,SDO/SA1*%
%TO.N,SDO*%
X69544262Y-50564264D03*
%TO.P,U1,10,CS*%
%TO.N,CS*%
X69544262Y-51064265D03*
D13*
%TO.P,U1,11,SDA/SDI/SDO*%
%TO.N,SDA*%
X70044263Y-51064265D03*
%TO.P,U1,12,RES*%
%TO.N,GND*%
X70544263Y-51064265D03*
%TD*%
D14*
%TO.P,J1,1,Pin_1*%
%TO.N,VDD*%
X60520000Y-51660000D03*
D15*
%TO.P,J1,2,Pin_2*%
%TO.N,GND*%
X60520000Y-54200000D03*
%TO.P,J1,3,Pin_3*%
%TO.N,SDA*%
X60520000Y-56740000D03*
%TO.P,J1,4,Pin_4*%
%TO.N,SCL*%
X60520000Y-59280000D03*
%TO.P,J1,5,Pin_5*%
%TO.N,SDO*%
X60520000Y-61820000D03*
%TO.P,J1,6,Pin_6*%
%TO.N,CS*%
X60520000Y-64360000D03*
%TO.P,J1,7,Pin_7*%
%TO.N,DRDY*%
X60520000Y-66900000D03*
%TO.P,J1,8,Pin_8*%
%TO.N,INT*%
X60520000Y-69440000D03*
%TD*%
D11*
%TO.P,C1,1*%
%TO.N,Net-(U1-C1)*%
X40118528Y-49468530D03*
%TO.P,C1,2*%
%TO.N,GND*%
X40118528Y-51018530D03*
%TD*%
D10*
%TO.P,R3,1*%
%TO.N,VDD*%
X34418528Y-52908530D03*
%TO.P,R3,2*%
%TO.N,SDO*%
X34418528Y-54558530D03*
%TD*%
%TO.P,R2,1*%
%TO.N,VDD*%
X39458528Y-52898530D03*
%TO.P,R2,2*%
%TO.N,SCL*%
X39458528Y-54548530D03*
%TD*%
D14*
%TO.P,J1,1,Pin_1*%
%TO.N,VDD*%
X43198528Y-51648530D03*
D15*
%TO.P,J1,2,Pin_2*%
%TO.N,GND*%
X43198528Y-54188530D03*
%TO.P,J1,3,Pin_3*%
%TO.N,SDA*%
X43198528Y-56728530D03*
%TO.P,J1,4,Pin_4*%
%TO.N,SCL*%
X43198528Y-59268530D03*
%TO.P,J1,5,Pin_5*%
%TO.N,SDO*%
X43198528Y-61808530D03*
%TO.P,J1,6,Pin_6*%
%TO.N,CS*%
X43198528Y-64348530D03*
%TO.P,J1,7,Pin_7*%
%TO.N,DRDY*%
X43198528Y-66888530D03*
%TO.P,J1,8,Pin_8*%
%TO.N,INT*%
X43198528Y-69428530D03*
%TD*%
D10*
%TO.P,R1,1*%
%TO.N,VDD*%
X36948528Y-52908530D03*
%TO.P,R1,2*%
%TO.N,SDA*%
X36948528Y-54558530D03*
%TD*%
%TO.P,R4,1*%
%TO.N,VDD*%
X31928528Y-52918529D03*
%TO.P,R4,2*%
%TO.N,CS*%
X31928528Y-54568529D03*
%TD*%
D12*
%TO.P,U1,1,SCL/SPC*%
%TO.N,SCL*%
X36368528Y-51048530D03*
%TO.P,U1,2,RES*%
%TO.N,GND*%
X36368528Y-50548529D03*
%TO.P,U1,3,GND*%
X36368528Y-50048529D03*
%TO.P,U1,4,C1*%
%TO.N,Net-(U1-C1)*%
X36368528Y-49548528D03*
D13*
%TO.P,U1,5,VDD*%
%TO.N,VDD*%
X35868527Y-49548528D03*
%TO.P,U1,6,VDD_IO*%
X35368527Y-49548528D03*
D12*
%TO.P,U1,7,INT*%
%TO.N,INT*%
X34868526Y-49548528D03*
%TO.P,U1,8,DRDY*%
%TO.N,DRDY*%
X34868526Y-50048529D03*
%TO.P,U1,9,SDO/SA1*%
%TO.N,SDO*%
X34868526Y-50548529D03*
%TO.P,U1,10,CS*%
%TO.N,CS*%
X34868526Y-51048530D03*
D13*
%TO.P,U1,11,SDA/SDI/SDO*%
%TO.N,SDA*%
X35368527Y-51048530D03*
%TO.P,U1,12,RES*%
%TO.N,GND*%
X35868527Y-51048530D03*
%TD*%
D10*
%TO.P,R4,1*%
%TO.N,VDD*%
X66604264Y-52934264D03*
%TO.P,R4,2*%
%TO.N,CS*%
X66604264Y-54584264D03*
%TD*%
%TO.P,R1,1*%
%TO.N,VDD*%
X71624264Y-52924265D03*
%TO.P,R1,2*%
%TO.N,SDA*%
X71624264Y-54574265D03*
%TD*%
D14*
%TO.P,J1,1,Pin_1*%
%TO.N,VDD*%
X77874264Y-51664265D03*
D15*
%TO.P,J1,2,Pin_2*%
%TO.N,GND*%
X77874264Y-54204265D03*
%TO.P,J1,3,Pin_3*%
%TO.N,SDA*%
X77874264Y-56744265D03*
%TO.P,J1,4,Pin_4*%
%TO.N,SCL*%
X77874264Y-59284265D03*
%TO.P,J1,5,Pin_5*%
%TO.N,SDO*%
X77874264Y-61824265D03*
%TO.P,J1,6,Pin_6*%
%TO.N,CS*%
X77874264Y-64364265D03*
%TO.P,J1,7,Pin_7*%
%TO.N,DRDY*%
X77874264Y-66904265D03*
%TO.P,J1,8,Pin_8*%
%TO.N,INT*%
X77874264Y-69444265D03*
%TD*%
D10*
%TO.P,R2,1*%
%TO.N,VDD*%
X74134264Y-52914265D03*
%TO.P,R2,2*%
%TO.N,SCL*%
X74134264Y-54564265D03*
%TD*%
%TO.P,R2,1*%
%TO.N,VDD*%
X22104264Y-52894265D03*
%TO.P,R2,2*%
%TO.N,SCL*%
X22104264Y-54544265D03*
%TD*%
D14*
%TO.P,J1,1,Pin_1*%
%TO.N,VDD*%
X25844264Y-51644265D03*
D15*
%TO.P,J1,2,Pin_2*%
%TO.N,GND*%
X25844264Y-54184265D03*
%TO.P,J1,3,Pin_3*%
%TO.N,SDA*%
X25844264Y-56724265D03*
%TO.P,J1,4,Pin_4*%
%TO.N,SCL*%
X25844264Y-59264265D03*
%TO.P,J1,5,Pin_5*%
%TO.N,SDO*%
X25844264Y-61804265D03*
%TO.P,J1,6,Pin_6*%
%TO.N,CS*%
X25844264Y-64344265D03*
%TO.P,J1,7,Pin_7*%
%TO.N,DRDY*%
X25844264Y-66884265D03*
%TO.P,J1,8,Pin_8*%
%TO.N,INT*%
X25844264Y-69424265D03*
%TD*%
D10*
%TO.P,R4,2*%
%TO.N,CS*%
X49165736Y-24075734D03*
%TO.P,R4,1*%
%TO.N,VDD*%
X49165736Y-22425734D03*
%TD*%
D11*
%TO.P,C1,2*%
%TO.N,GND*%
X57355736Y-20525735D03*
%TO.P,C1,1*%
%TO.N,Net-(U1-C1)*%
X57355736Y-18975735D03*
%TD*%
D10*
%TO.P,R3,2*%
%TO.N,SDO*%
X51655736Y-24065735D03*
%TO.P,R3,1*%
%TO.N,VDD*%
X51655736Y-22415735D03*
%TD*%
D13*
%TO.P,U1,12,RES*%
%TO.N,GND*%
X53105735Y-20555735D03*
%TO.P,U1,11,SDA/SDI/SDO*%
%TO.N,SDA*%
X52605735Y-20555735D03*
D12*
%TO.P,U1,10,CS*%
%TO.N,CS*%
X52105734Y-20555735D03*
%TO.P,U1,9,SDO/SA1*%
%TO.N,SDO*%
X52105734Y-20055734D03*
%TO.P,U1,8,DRDY*%
%TO.N,DRDY*%
X52105734Y-19555734D03*
%TO.P,U1,7,INT*%
%TO.N,INT*%
X52105734Y-19055733D03*
D13*
%TO.P,U1,6,VDD_IO*%
%TO.N,VDD*%
X52605735Y-19055733D03*
%TO.P,U1,5,VDD*%
X53105735Y-19055733D03*
D12*
%TO.P,U1,4,C1*%
%TO.N,Net-(U1-C1)*%
X53605736Y-19055733D03*
%TO.P,U1,3,GND*%
%TO.N,GND*%
X53605736Y-19555734D03*
%TO.P,U1,2,RES*%
X53605736Y-20055734D03*
%TO.P,U1,1,SCL/SPC*%
%TO.N,SCL*%
X53605736Y-20555735D03*
%TD*%
D10*
%TO.P,R1,2*%
%TO.N,SDA*%
X54185736Y-24065735D03*
%TO.P,R1,1*%
%TO.N,VDD*%
X54185736Y-22415735D03*
%TD*%
D11*
%TO.P,C1,2*%
%TO.N,GND*%
X74710000Y-20530000D03*
%TO.P,C1,1*%
%TO.N,Net-(U1-C1)*%
X74710000Y-18980000D03*
%TD*%
D10*
%TO.P,R3,2*%
%TO.N,SDO*%
X69010000Y-24070000D03*
%TO.P,R3,1*%
%TO.N,VDD*%
X69010000Y-22420000D03*
%TD*%
%TO.P,R2,2*%
%TO.N,SCL*%
X74050000Y-24060000D03*
%TO.P,R2,1*%
%TO.N,VDD*%
X74050000Y-22410000D03*
%TD*%
D15*
%TO.P,J1,8,Pin_8*%
%TO.N,INT*%
X77790000Y-38940000D03*
%TO.P,J1,7,Pin_7*%
%TO.N,DRDY*%
X77790000Y-36400000D03*
%TO.P,J1,6,Pin_6*%
%TO.N,CS*%
X77790000Y-33860000D03*
%TO.P,J1,5,Pin_5*%
%TO.N,SDO*%
X77790000Y-31320000D03*
%TO.P,J1,4,Pin_4*%
%TO.N,SCL*%
X77790000Y-28780000D03*
%TO.P,J1,3,Pin_3*%
%TO.N,SDA*%
X77790000Y-26240000D03*
%TO.P,J1,2,Pin_2*%
%TO.N,GND*%
X77790000Y-23700000D03*
D14*
%TO.P,J1,1,Pin_1*%
%TO.N,VDD*%
X77790000Y-21160000D03*
%TD*%
D10*
%TO.P,R1,2*%
%TO.N,SDA*%
X71540000Y-24070000D03*
%TO.P,R1,1*%
%TO.N,VDD*%
X71540000Y-22420000D03*
%TD*%
%TO.P,R4,2*%
%TO.N,CS*%
X66520000Y-24079999D03*
%TO.P,R4,1*%
%TO.N,VDD*%
X66520000Y-22429999D03*
%TD*%
D13*
%TO.P,U1,12,RES*%
%TO.N,GND*%
X70459999Y-20560000D03*
%TO.P,U1,11,SDA/SDI/SDO*%
%TO.N,SDA*%
X69959999Y-20560000D03*
D12*
%TO.P,U1,10,CS*%
%TO.N,CS*%
X69459998Y-20560000D03*
%TO.P,U1,9,SDO/SA1*%
%TO.N,SDO*%
X69459998Y-20059999D03*
%TO.P,U1,8,DRDY*%
%TO.N,DRDY*%
X69459998Y-19559999D03*
%TO.P,U1,7,INT*%
%TO.N,INT*%
X69459998Y-19059998D03*
D13*
%TO.P,U1,6,VDD_IO*%
%TO.N,VDD*%
X69959999Y-19059998D03*
%TO.P,U1,5,VDD*%
X70459999Y-19059998D03*
D12*
%TO.P,U1,4,C1*%
%TO.N,Net-(U1-C1)*%
X70960000Y-19059998D03*
%TO.P,U1,3,GND*%
%TO.N,GND*%
X70960000Y-19559999D03*
%TO.P,U1,2,RES*%
X70960000Y-20059999D03*
%TO.P,U1,1,SCL/SPC*%
%TO.N,SCL*%
X70960000Y-20560000D03*
%TD*%
D10*
%TO.P,R2,2*%
%TO.N,SCL*%
X56695736Y-24055735D03*
%TO.P,R2,1*%
%TO.N,VDD*%
X56695736Y-22405735D03*
%TD*%
D15*
%TO.P,J1,8,Pin_8*%
%TO.N,INT*%
X60435736Y-38935735D03*
%TO.P,J1,7,Pin_7*%
%TO.N,DRDY*%
X60435736Y-36395735D03*
%TO.P,J1,6,Pin_6*%
%TO.N,CS*%
X60435736Y-33855735D03*
%TO.P,J1,5,Pin_5*%
%TO.N,SDO*%
X60435736Y-31315735D03*
%TO.P,J1,4,Pin_4*%
%TO.N,SCL*%
X60435736Y-28775735D03*
%TO.P,J1,3,Pin_3*%
%TO.N,SDA*%
X60435736Y-26235735D03*
%TO.P,J1,2,Pin_2*%
%TO.N,GND*%
X60435736Y-23695735D03*
D14*
%TO.P,J1,1,Pin_1*%
%TO.N,VDD*%
X60435736Y-21155735D03*
%TD*%
D10*
%TO.P,R4,2*%
%TO.N,CS*%
X31844264Y-24064264D03*
%TO.P,R4,1*%
%TO.N,VDD*%
X31844264Y-22414264D03*
%TD*%
D11*
%TO.P,C1,2*%
%TO.N,GND*%
X40034264Y-20514265D03*
%TO.P,C1,1*%
%TO.N,Net-(U1-C1)*%
X40034264Y-18964265D03*
%TD*%
D10*
%TO.P,R3,2*%
%TO.N,SDO*%
X34334264Y-24054265D03*
%TO.P,R3,1*%
%TO.N,VDD*%
X34334264Y-22404265D03*
%TD*%
D13*
%TO.P,U1,12,RES*%
%TO.N,GND*%
X35784263Y-20544265D03*
%TO.P,U1,11,SDA/SDI/SDO*%
%TO.N,SDA*%
X35284263Y-20544265D03*
D12*
%TO.P,U1,10,CS*%
%TO.N,CS*%
X34784262Y-20544265D03*
%TO.P,U1,9,SDO/SA1*%
%TO.N,SDO*%
X34784262Y-20044264D03*
%TO.P,U1,8,DRDY*%
%TO.N,DRDY*%
X34784262Y-19544264D03*
%TO.P,U1,7,INT*%
%TO.N,INT*%
X34784262Y-19044263D03*
D13*
%TO.P,U1,6,VDD_IO*%
%TO.N,VDD*%
X35284263Y-19044263D03*
%TO.P,U1,5,VDD*%
X35784263Y-19044263D03*
D12*
%TO.P,U1,4,C1*%
%TO.N,Net-(U1-C1)*%
X36284264Y-19044263D03*
%TO.P,U1,3,GND*%
%TO.N,GND*%
X36284264Y-19544264D03*
%TO.P,U1,2,RES*%
X36284264Y-20044264D03*
%TO.P,U1,1,SCL/SPC*%
%TO.N,SCL*%
X36284264Y-20544265D03*
%TD*%
D10*
%TO.P,R1,2*%
%TO.N,SDA*%
X36864264Y-24054265D03*
%TO.P,R1,1*%
%TO.N,VDD*%
X36864264Y-22404265D03*
%TD*%
%TO.P,R2,2*%
%TO.N,SCL*%
X39374264Y-24044265D03*
%TO.P,R2,1*%
%TO.N,VDD*%
X39374264Y-22394265D03*
%TD*%
D15*
%TO.P,J1,8,Pin_8*%
%TO.N,INT*%
X43114264Y-38924265D03*
%TO.P,J1,7,Pin_7*%
%TO.N,DRDY*%
X43114264Y-36384265D03*
%TO.P,J1,6,Pin_6*%
%TO.N,CS*%
X43114264Y-33844265D03*
%TO.P,J1,5,Pin_5*%
%TO.N,SDO*%
X43114264Y-31304265D03*
%TO.P,J1,4,Pin_4*%
%TO.N,SCL*%
X43114264Y-28764265D03*
%TO.P,J1,3,Pin_3*%
%TO.N,SDA*%
X43114264Y-26224265D03*
%TO.P,J1,2,Pin_2*%
%TO.N,GND*%
X43114264Y-23684265D03*
D14*
%TO.P,J1,1,Pin_1*%
%TO.N,VDD*%
X43114264Y-21144265D03*
%TD*%
D10*
%TO.P,R3,2*%
%TO.N,SDO*%
X16980000Y-24050000D03*
%TO.P,R3,1*%
%TO.N,VDD*%
X16980000Y-22400000D03*
%TD*%
D11*
%TO.P,C1,2*%
%TO.N,GND*%
X22680000Y-20510000D03*
%TO.P,C1,1*%
%TO.N,Net-(U1-C1)*%
X22680000Y-18960000D03*
%TD*%
D10*
%TO.P,R4,2*%
%TO.N,CS*%
X14490000Y-24059999D03*
%TO.P,R4,1*%
%TO.N,VDD*%
X14490000Y-22409999D03*
%TD*%
D13*
%TO.P,U1,12,RES*%
%TO.N,GND*%
X18429999Y-20540000D03*
%TO.P,U1,11,SDA/SDI/SDO*%
%TO.N,SDA*%
X17929999Y-20540000D03*
D12*
%TO.P,U1,10,CS*%
%TO.N,CS*%
X17429998Y-20540000D03*
%TO.P,U1,9,SDO/SA1*%
%TO.N,SDO*%
X17429998Y-20039999D03*
%TO.P,U1,8,DRDY*%
%TO.N,DRDY*%
X17429998Y-19539999D03*
%TO.P,U1,7,INT*%
%TO.N,INT*%
X17429998Y-19039998D03*
D13*
%TO.P,U1,6,VDD_IO*%
%TO.N,VDD*%
X17929999Y-19039998D03*
%TO.P,U1,5,VDD*%
X18429999Y-19039998D03*
D12*
%TO.P,U1,4,C1*%
%TO.N,Net-(U1-C1)*%
X18930000Y-19039998D03*
%TO.P,U1,3,GND*%
%TO.N,GND*%
X18930000Y-19539999D03*
%TO.P,U1,2,RES*%
X18930000Y-20039999D03*
%TO.P,U1,1,SCL/SPC*%
%TO.N,SCL*%
X18930000Y-20540000D03*
%TD*%
D10*
%TO.P,R1,2*%
%TO.N,SDA*%
X19510000Y-24050000D03*
%TO.P,R1,1*%
%TO.N,VDD*%
X19510000Y-22400000D03*
%TD*%
%TO.P,R2,2*%
%TO.N,SCL*%
X22020000Y-24040000D03*
%TO.P,R2,1*%
%TO.N,VDD*%
X22020000Y-22390000D03*
%TD*%
D15*
%TO.P,J1,8,Pin_8*%
%TO.N,INT*%
X25760000Y-38920000D03*
%TO.P,J1,7,Pin_7*%
%TO.N,DRDY*%
X25760000Y-36380000D03*
%TO.P,J1,6,Pin_6*%
%TO.N,CS*%
X25760000Y-33840000D03*
%TO.P,J1,5,Pin_5*%
%TO.N,SDO*%
X25760000Y-31300000D03*
%TO.P,J1,4,Pin_4*%
%TO.N,SCL*%
X25760000Y-28760000D03*
%TO.P,J1,3,Pin_3*%
%TO.N,SDA*%
X25760000Y-26220000D03*
%TO.P,J1,2,Pin_2*%
%TO.N,GND*%
X25760000Y-23680000D03*
D14*
%TO.P,J1,1,Pin_1*%
%TO.N,VDD*%
X25760000Y-21140000D03*
%TD*%
D16*
%TO.N,INT*%
X32714263Y-48634265D03*
%TO.N,SDO*%
X33998528Y-50698530D03*
X33188528Y-54578530D03*
%TO.N,SCL*%
X40338528Y-57328530D03*
%TO.N,DRDY*%
X32528528Y-50828530D03*
%TO.N,CS*%
X33118528Y-52318529D03*
%TO.N,SCL*%
X40268528Y-55598530D03*
%TO.N,CS*%
X33128528Y-53648530D03*
%TO.N,SDA*%
X35678528Y-53508530D03*
X35648528Y-52308530D03*
%TO.N,DRDY*%
X31328528Y-50828530D03*
%TO.N,INT*%
X33618528Y-49448529D03*
X67389999Y-48650000D03*
%TO.N,SDO*%
X68674264Y-50714265D03*
X67864264Y-54594265D03*
%TO.N,CS*%
X67794264Y-52334264D03*
X67804264Y-53664265D03*
%TO.N,SCL*%
X74944264Y-55614265D03*
%TO.N,DRDY*%
X67204264Y-50844265D03*
%TO.N,SCL*%
X75014264Y-57344265D03*
%TO.N,INT*%
X68294264Y-49464264D03*
%TO.N,SDO*%
X50510000Y-54590000D03*
%TO.N,CS*%
X50450000Y-53660000D03*
%TO.N,DRDY*%
X15174264Y-50824265D03*
%TO.N,SDA*%
X52970000Y-52320000D03*
%TO.N,SDO*%
X51320000Y-50710000D03*
X15834264Y-54574265D03*
%TO.N,INT*%
X50940000Y-49459999D03*
%TO.N,SDA*%
X18324264Y-53504265D03*
X18294264Y-52304265D03*
X70354264Y-53524265D03*
X70324264Y-52324265D03*
%TO.N,DRDY*%
X66004264Y-50844265D03*
%TO.N,SCL*%
X57590000Y-55610000D03*
%TO.N,CS*%
X15764264Y-52314264D03*
%TO.N,DRDY*%
X49850000Y-50840000D03*
%TO.N,CS*%
X15774264Y-53644265D03*
%TO.N,SCL*%
X22914264Y-55594265D03*
%TO.N,SDO*%
X16644264Y-50694265D03*
%TO.N,CS*%
X50440000Y-52329999D03*
%TO.N,SDA*%
X53000000Y-53520000D03*
%TO.N,INT*%
X50035735Y-48645735D03*
X15359999Y-48630000D03*
%TO.N,DRDY*%
X13974264Y-50824265D03*
X48650000Y-50840000D03*
%TO.N,INT*%
X16264264Y-49444264D03*
%TO.N,SCL*%
X22984264Y-57324265D03*
X57660000Y-57340000D03*
%TO.N,INT*%
X67305735Y-18145735D03*
%TO.N,SDO*%
X68590000Y-20210000D03*
X67780000Y-24090000D03*
%TO.N,SCL*%
X74930000Y-26840000D03*
%TO.N,DRDY*%
X67120000Y-20340000D03*
%TO.N,CS*%
X67710000Y-21829999D03*
%TO.N,SCL*%
X74860000Y-25110000D03*
%TO.N,CS*%
X67720000Y-23160000D03*
%TO.N,SDA*%
X70270000Y-23020000D03*
X70240000Y-21820000D03*
%TO.N,DRDY*%
X65920000Y-20340000D03*
%TO.N,INT*%
X68210000Y-18959999D03*
%TO.N,DRDY*%
X49765736Y-20335735D03*
%TO.N,SDO*%
X50425736Y-24085735D03*
%TO.N,SDA*%
X52915736Y-23015735D03*
X52885736Y-21815735D03*
%TO.N,CS*%
X50355736Y-21825734D03*
X50365736Y-23155735D03*
%TO.N,SCL*%
X57505736Y-25105735D03*
%TO.N,SDO*%
X51235736Y-20205735D03*
%TO.N,INT*%
X49951471Y-18141470D03*
%TO.N,DRDY*%
X48565736Y-20335735D03*
%TO.N,INT*%
X50855736Y-18955734D03*
%TO.N,SCL*%
X57575736Y-26835735D03*
%TO.N,DRDY*%
X32444264Y-20324265D03*
%TO.N,SDO*%
X33104264Y-24074265D03*
%TO.N,SDA*%
X35594264Y-23004265D03*
X35564264Y-21804265D03*
%TO.N,CS*%
X33034264Y-21814264D03*
X33044264Y-23144265D03*
%TO.N,SCL*%
X40184264Y-25094265D03*
%TO.N,SDO*%
X33914264Y-20194265D03*
%TO.N,INT*%
X32629999Y-18130000D03*
%TO.N,DRDY*%
X31244264Y-20324265D03*
%TO.N,INT*%
X33534264Y-18944264D03*
%TO.N,SCL*%
X40254264Y-26824265D03*
%TO.N,INT*%
X15275735Y-18125735D03*
X16180000Y-18939999D03*
%TO.N,SDO*%
X15750000Y-24070000D03*
X16560000Y-20190000D03*
%TO.N,CS*%
X15690000Y-23140000D03*
X15680000Y-21809999D03*
%TO.N,SCL*%
X22830000Y-25090000D03*
X22900000Y-26820000D03*
%TO.N,SDA*%
X18240000Y-23000000D03*
X18210000Y-21800000D03*
%TO.N,DRDY*%
X15090000Y-20320000D03*
X13890000Y-20320000D03*
%TD*%
D17*
%TO.N,GND*%
X18514263Y-51044265D02*
X18514263Y-50554264D01*
X18514263Y-50554264D02*
X19004264Y-50554264D01*
X22764264Y-51014265D02*
X22764264Y-51104265D01*
X19014264Y-50044264D02*
X21794263Y-50044264D01*
X21794263Y-50044264D02*
X22764264Y-51014265D01*
X56469999Y-50059999D02*
X57440000Y-51030000D01*
X70544263Y-50574264D02*
X71034264Y-50574264D01*
%TO.N,VDD*%
X70074264Y-48514265D02*
X70044263Y-48544266D01*
%TO.N,SCL*%
X75934264Y-57344265D02*
X77874264Y-59284265D01*
%TO.N,GND*%
X53690000Y-50059999D02*
X56469999Y-50059999D01*
%TO.N,SDA*%
X71624264Y-56114265D02*
X72254264Y-56744265D01*
%TO.N,SCL*%
X74134264Y-54804265D02*
X74944264Y-55614265D01*
X74459755Y-52052108D02*
X75091912Y-52684265D01*
%TO.N,GND*%
X53189999Y-50569999D02*
X53680000Y-50569999D01*
%TO.N,CS*%
X67834264Y-52374264D02*
X67794264Y-52334264D01*
X68604263Y-51524265D02*
X67794264Y-52334264D01*
%TO.N,GND*%
X74794264Y-51034265D02*
X74794264Y-51124265D01*
%TO.N,DRDY*%
X67204264Y-50594265D02*
X67204264Y-50844265D01*
%TO.N,SDO*%
X67864264Y-54594265D02*
X69074264Y-54594265D01*
%TO.N,GND*%
X71044264Y-50564264D02*
X71044264Y-50064264D01*
%TO.N,SCL*%
X75091912Y-52684265D02*
X75091912Y-53606617D01*
X73122107Y-52052108D02*
X74459755Y-52052108D01*
%TO.N,DRDY*%
X65829264Y-56061346D02*
X76672183Y-66904265D01*
%TO.N,VDD*%
X70044263Y-48544266D02*
X70044263Y-49564263D01*
%TO.N,SCL*%
X75014264Y-57344265D02*
X75934264Y-57344265D01*
%TO.N,GND*%
X73824263Y-50064264D02*
X74794264Y-51034265D01*
X53189999Y-51060000D02*
X53189999Y-50569999D01*
X57440000Y-51030000D02*
X57440000Y-51120000D01*
%TO.N,VDD*%
X66604264Y-52934264D02*
X69084265Y-52934264D01*
X69084265Y-52934264D02*
X69094264Y-52924265D01*
%TO.N,CS*%
X67804264Y-53664265D02*
X67524263Y-53664265D01*
%TO.N,SDA*%
X70044263Y-51064265D02*
X70044263Y-52044264D01*
%TO.N,GND*%
X71044264Y-50064264D02*
X73824263Y-50064264D01*
%TO.N,CS*%
X69544264Y-51064265D02*
X69544264Y-51524265D01*
%TO.N,VDD*%
X70044263Y-49564263D02*
X70544263Y-49564263D01*
%TO.N,SDA*%
X70354264Y-53524265D02*
X70574264Y-53524265D01*
%TO.N,VDD*%
X71624264Y-52924265D02*
X74124264Y-52924265D01*
%TO.N,CS*%
X75294264Y-64364265D02*
X77874264Y-64364265D01*
%TO.N,GND*%
X70544263Y-51064265D02*
X70544263Y-50574264D01*
%TO.N,SCL*%
X75091912Y-53606617D02*
X74134264Y-54564265D01*
%TO.N,Net-(U1-C1)*%
X74714266Y-49564263D02*
X74794264Y-49484265D01*
%TO.N,DRDY*%
X69544262Y-50064264D02*
X67734265Y-50064264D01*
%TO.N,CS*%
X66604264Y-54584264D02*
X66604264Y-55674265D01*
%TO.N,DRDY*%
X67734265Y-50064264D02*
X67204264Y-50594265D01*
%TO.N,SCL*%
X71044264Y-51064265D02*
X72134264Y-51064265D01*
%TO.N,SDA*%
X70574264Y-53524265D02*
X71624264Y-54574265D01*
%TO.N,VDD*%
X66604264Y-50284265D02*
X66604264Y-52934264D01*
%TO.N,SCL*%
X74134264Y-54564265D02*
X74134264Y-54804265D01*
%TO.N,VDD*%
X69094264Y-52924265D02*
X71624264Y-52924265D01*
%TO.N,INT*%
X67389999Y-48650000D02*
X67350000Y-48650000D01*
X65404264Y-50595736D02*
X65404264Y-56974265D01*
%TO.N,SDA*%
X52689999Y-52039999D02*
X52970000Y-52320000D01*
X72254264Y-56744265D02*
X77874264Y-56744265D01*
%TO.N,SDO*%
X68824265Y-50564264D02*
X68674264Y-50714265D01*
%TO.N,GND*%
X71034264Y-50574264D02*
X71044264Y-50564264D01*
%TO.N,SDA*%
X54270000Y-54570000D02*
X54270000Y-56110000D01*
%TO.N,INT*%
X69544262Y-49564263D02*
X69544262Y-49584263D01*
%TO.N,CS*%
X67834264Y-52534264D02*
X67834264Y-52374264D01*
%TO.N,SDA*%
X71624264Y-54574265D02*
X71624264Y-56114265D01*
%TO.N,Net-(U1-C1)*%
X71044264Y-49564263D02*
X74714266Y-49564263D01*
%TO.N,SDO*%
X73904264Y-61824265D02*
X77874264Y-61824265D01*
%TO.N,INT*%
X65404264Y-56974265D02*
X77874264Y-69444265D01*
%TO.N,DRDY*%
X65829264Y-51019265D02*
X65829264Y-56061346D01*
%TO.N,VDD*%
X77744264Y-48514265D02*
X77874264Y-48644265D01*
%TO.N,CS*%
X69544264Y-51524265D02*
X68604263Y-51524265D01*
X67524263Y-53664265D02*
X66604264Y-54584264D01*
%TO.N,VDD*%
X52720000Y-48510000D02*
X51020000Y-48510000D01*
%TO.N,SCL*%
X72134264Y-51064265D02*
X73122107Y-52052108D01*
%TO.N,VDD*%
X51740000Y-52920000D02*
X54270000Y-52920000D01*
X70074264Y-48514265D02*
X68374264Y-48514265D01*
%TO.N,DRDY*%
X76672183Y-66904265D02*
X77874264Y-66904265D01*
X48475000Y-56057081D02*
X59317919Y-66900000D01*
%TO.N,VDD*%
X68374264Y-48514265D02*
X66604264Y-50284265D01*
%TO.N,CS*%
X66604264Y-55674265D02*
X75294264Y-64364265D01*
%TO.N,SDA*%
X54900000Y-56740000D02*
X60520000Y-56740000D01*
%TO.N,GND*%
X74794264Y-51124265D02*
X77874264Y-54204265D01*
%TO.N,INT*%
X69544262Y-49564263D02*
X68394263Y-49564263D01*
%TO.N,SDO*%
X69094264Y-54574265D02*
X69094264Y-57014265D01*
%TO.N,VDD*%
X77874264Y-48644265D02*
X77874264Y-51664265D01*
%TO.N,CS*%
X69544262Y-51064265D02*
X69544264Y-51064265D01*
%TO.N,DRDY*%
X48650000Y-50840000D02*
X48475000Y-51015000D01*
%TO.N,INT*%
X67350000Y-48650000D02*
X65404264Y-50595736D01*
%TO.N,SDO*%
X69094264Y-57014265D02*
X73904264Y-61824265D01*
%TO.N,VDD*%
X74124264Y-52924265D02*
X74134264Y-52914265D01*
%TO.N,DRDY*%
X59317919Y-66900000D02*
X60520000Y-66900000D01*
%TO.N,SCL*%
X57737648Y-53602352D02*
X56780000Y-54560000D01*
%TO.N,VDD*%
X70074264Y-48514265D02*
X77744264Y-48514265D01*
%TO.N,SDO*%
X69074264Y-54594265D02*
X69094264Y-54574265D01*
%TO.N,DRDY*%
X66004264Y-50844265D02*
X65829264Y-51019265D01*
%TO.N,SDA*%
X70044263Y-52044264D02*
X70324264Y-52324265D01*
%TO.N,INT*%
X68394263Y-49564263D02*
X68294264Y-49464264D01*
%TO.N,SDO*%
X69544262Y-50564264D02*
X68824265Y-50564264D01*
%TO.N,SDA*%
X53220000Y-53520000D02*
X54270000Y-54570000D01*
X36948528Y-56098530D02*
X37578528Y-56728530D01*
%TO.N,VDD*%
X35368527Y-49548528D02*
X35868527Y-49548528D01*
%TO.N,CS*%
X40618528Y-64348530D02*
X43198528Y-64348530D01*
X33158528Y-52358529D02*
X33118528Y-52318529D01*
%TO.N,SCL*%
X40416176Y-52668530D02*
X40416176Y-53590882D01*
%TO.N,VDD*%
X31928528Y-52918529D02*
X34408529Y-52918529D01*
%TO.N,CS*%
X34868528Y-51048530D02*
X34868528Y-51508530D01*
%TO.N,SCL*%
X40338528Y-57328530D02*
X41258528Y-57328530D01*
%TO.N,GND*%
X40118528Y-51018530D02*
X40118528Y-51108530D01*
%TO.N,SDO*%
X33188528Y-54578530D02*
X34398528Y-54578530D01*
%TO.N,VDD*%
X34408529Y-52918529D02*
X34418528Y-52908530D01*
%TO.N,GND*%
X35868527Y-51048530D02*
X35868527Y-50558529D01*
%TO.N,VDD*%
X35398528Y-48498530D02*
X35368527Y-48528531D01*
%TO.N,SCL*%
X39458528Y-54788530D02*
X40268528Y-55598530D01*
%TO.N,VDD*%
X35368527Y-48528531D02*
X35368527Y-49548528D01*
%TO.N,GND*%
X36368528Y-50548529D02*
X36368528Y-50048529D01*
%TO.N,DRDY*%
X31153528Y-56045611D02*
X41996447Y-66888530D01*
%TO.N,SDA*%
X35678528Y-53508530D02*
X35898528Y-53508530D01*
%TO.N,CS*%
X33928527Y-51508530D02*
X33118528Y-52318529D01*
%TO.N,SCL*%
X39784019Y-52036373D02*
X40416176Y-52668530D01*
%TO.N,VDD*%
X36948528Y-52908530D02*
X39448528Y-52908530D01*
%TO.N,CS*%
X33128528Y-53648530D02*
X32848527Y-53648530D01*
%TO.N,DRDY*%
X32528528Y-50578530D02*
X32528528Y-50828530D01*
%TO.N,SCL*%
X41258528Y-57328530D02*
X43198528Y-59268530D01*
%TO.N,GND*%
X35868527Y-50558529D02*
X36358528Y-50558529D01*
X36368528Y-50048529D02*
X39148527Y-50048529D01*
%TO.N,SDA*%
X35368527Y-51048530D02*
X35368527Y-52028529D01*
%TO.N,SCL*%
X38446371Y-52036373D02*
X39784019Y-52036373D01*
%TO.N,GND*%
X39148527Y-50048529D02*
X40118528Y-51018530D01*
%TO.N,SCL*%
X40416176Y-53590882D02*
X39458528Y-54548530D01*
%TO.N,Net-(U1-C1)*%
X40038530Y-49548528D02*
X40118528Y-49468530D01*
%TO.N,DRDY*%
X34868526Y-50048529D02*
X33058529Y-50048529D01*
%TO.N,SDA*%
X35898528Y-53508530D02*
X36948528Y-54558530D01*
%TO.N,VDD*%
X31928528Y-50268530D02*
X31928528Y-52918529D01*
%TO.N,SCL*%
X39458528Y-54548530D02*
X39458528Y-54788530D01*
%TO.N,INT*%
X32714263Y-48634265D02*
X32674264Y-48634265D01*
%TO.N,SCL*%
X37458528Y-51048530D02*
X38446371Y-52036373D01*
%TO.N,VDD*%
X35398528Y-48498530D02*
X33698528Y-48498530D01*
%TO.N,SDA*%
X36948528Y-54558530D02*
X36948528Y-56098530D01*
%TO.N,DRDY*%
X41996447Y-66888530D02*
X43198528Y-66888530D01*
%TO.N,VDD*%
X33698528Y-48498530D02*
X31928528Y-50268530D01*
X43198528Y-48628530D02*
X43198528Y-51648530D01*
%TO.N,DRDY*%
X31153528Y-51003530D02*
X31153528Y-56045611D01*
%TO.N,SCL*%
X36368528Y-51048530D02*
X37458528Y-51048530D01*
%TO.N,GND*%
X40118528Y-51108530D02*
X43198528Y-54188530D01*
%TO.N,DRDY*%
X33058529Y-50048529D02*
X32528528Y-50578530D01*
%TO.N,VDD*%
X39448528Y-52908530D02*
X39458528Y-52898530D01*
%TO.N,SDA*%
X37578528Y-56728530D02*
X43198528Y-56728530D01*
%TO.N,DRDY*%
X31328528Y-50828530D02*
X31153528Y-51003530D01*
%TO.N,SDA*%
X35368527Y-52028529D02*
X35648528Y-52308530D01*
%TO.N,VDD*%
X34418528Y-52908530D02*
X36948528Y-52908530D01*
X43068528Y-48498530D02*
X43198528Y-48628530D01*
X35398528Y-48498530D02*
X43068528Y-48498530D01*
%TO.N,Net-(U1-C1)*%
X36368528Y-49548528D02*
X40038530Y-49548528D01*
%TO.N,SDO*%
X34398528Y-54578530D02*
X34418528Y-54558530D01*
%TO.N,CS*%
X34868528Y-51508530D02*
X33928527Y-51508530D01*
X31928528Y-55658530D02*
X40618528Y-64348530D01*
X34868526Y-51048530D02*
X34868528Y-51048530D01*
%TO.N,INT*%
X33718527Y-49548528D02*
X33618528Y-49448529D01*
%TO.N,CS*%
X32848527Y-53648530D02*
X31928528Y-54568529D01*
%TO.N,INT*%
X34868526Y-49548528D02*
X33718527Y-49548528D01*
X30728528Y-50580001D02*
X30728528Y-56958530D01*
%TO.N,CS*%
X31928528Y-54568529D02*
X31928528Y-55658530D01*
%TO.N,SDO*%
X34418528Y-56998530D02*
X39228528Y-61808530D01*
X34418528Y-54558530D02*
X34418528Y-56998530D01*
X39228528Y-61808530D02*
X43198528Y-61808530D01*
%TO.N,CS*%
X33158528Y-52518529D02*
X33158528Y-52358529D01*
%TO.N,SDO*%
X34148529Y-50548529D02*
X33998528Y-50698530D01*
%TO.N,INT*%
X34868526Y-49548528D02*
X34868526Y-49568528D01*
%TO.N,SDO*%
X34868526Y-50548529D02*
X34148529Y-50548529D01*
%TO.N,GND*%
X36358528Y-50558529D02*
X36368528Y-50548529D01*
%TO.N,INT*%
X32674264Y-48634265D02*
X30728528Y-50580001D01*
X30728528Y-56958530D02*
X43198528Y-69428530D01*
%TO.N,VDD*%
X52720000Y-48510000D02*
X52689999Y-48540001D01*
%TO.N,SDA*%
X52689999Y-51060000D02*
X52689999Y-52039999D01*
%TO.N,SCL*%
X56780000Y-54560000D02*
X56780000Y-54800000D01*
%TO.N,VDD*%
X60520000Y-48640000D02*
X60520000Y-51660000D01*
X60390000Y-48510000D02*
X60520000Y-48640000D01*
X52720000Y-48510000D02*
X60390000Y-48510000D01*
%TO.N,CS*%
X49250000Y-54579999D02*
X49250000Y-55670000D01*
%TO.N,SCL*%
X56780000Y-54800000D02*
X57590000Y-55610000D01*
%TO.N,VDD*%
X54270000Y-52920000D02*
X56770000Y-52920000D01*
%TO.N,CS*%
X57940000Y-64360000D02*
X60520000Y-64360000D01*
X52189998Y-51060000D02*
X52190000Y-51060000D01*
%TO.N,DRDY*%
X50380001Y-50059999D02*
X49850000Y-50590000D01*
%TO.N,VDD*%
X51730001Y-52929999D02*
X51740000Y-52920000D01*
%TO.N,SCL*%
X58580000Y-57340000D02*
X60520000Y-59280000D01*
%TO.N,VDD*%
X49250000Y-52929999D02*
X51730001Y-52929999D01*
X51020000Y-48510000D02*
X49250000Y-50280000D01*
%TO.N,CS*%
X50480000Y-52369999D02*
X50440000Y-52329999D01*
%TO.N,Net-(U1-C1)*%
X57360002Y-49559998D02*
X57440000Y-49480000D01*
%TO.N,CS*%
X50450000Y-53660000D02*
X50169999Y-53660000D01*
%TO.N,SDO*%
X50510000Y-54590000D02*
X51720000Y-54590000D01*
%TO.N,Net-(U1-C1)*%
X53690000Y-49559998D02*
X57360002Y-49559998D01*
%TO.N,SDA*%
X53000000Y-53520000D02*
X53220000Y-53520000D01*
%TO.N,CS*%
X50480000Y-52529999D02*
X50480000Y-52369999D01*
X52190000Y-51060000D02*
X52190000Y-51520000D01*
X51249999Y-51520000D02*
X50440000Y-52329999D01*
%TO.N,SCL*%
X57660000Y-57340000D02*
X58580000Y-57340000D01*
%TO.N,SDA*%
X54270000Y-56110000D02*
X54900000Y-56740000D01*
%TO.N,VDD*%
X52689999Y-49559998D02*
X53189999Y-49559998D01*
%TO.N,DRDY*%
X48475000Y-51015000D02*
X48475000Y-56057081D01*
%TO.N,GND*%
X53690000Y-50559999D02*
X53690000Y-50059999D01*
%TO.N,SCL*%
X54780000Y-51060000D02*
X55767843Y-52047843D01*
%TO.N,DRDY*%
X49850000Y-50590000D02*
X49850000Y-50840000D01*
%TO.N,SCL*%
X53690000Y-51060000D02*
X54780000Y-51060000D01*
%TO.N,INT*%
X50035735Y-48645735D02*
X49995736Y-48645735D01*
%TO.N,CS*%
X52190000Y-51520000D02*
X51249999Y-51520000D01*
%TO.N,GND*%
X57440000Y-51120000D02*
X60520000Y-54200000D01*
%TO.N,SDO*%
X51720000Y-54590000D02*
X51740000Y-54570000D01*
%TO.N,SCL*%
X55767843Y-52047843D02*
X57105491Y-52047843D01*
%TO.N,VDD*%
X56770000Y-52920000D02*
X56780000Y-52910000D01*
%TO.N,DRDY*%
X52189998Y-50059999D02*
X50380001Y-50059999D01*
%TO.N,VDD*%
X52689999Y-48540001D02*
X52689999Y-49559998D01*
%TO.N,SCL*%
X57105491Y-52047843D02*
X57737648Y-52680000D01*
X57737648Y-52680000D02*
X57737648Y-53602352D01*
%TO.N,VDD*%
X49250000Y-50280000D02*
X49250000Y-52929999D01*
%TO.N,SDO*%
X56550000Y-61820000D02*
X60520000Y-61820000D01*
X51740000Y-54570000D02*
X51740000Y-57010000D01*
%TO.N,CS*%
X50169999Y-53660000D02*
X49250000Y-54579999D01*
%TO.N,SDO*%
X51470001Y-50559999D02*
X51320000Y-50710000D01*
%TO.N,INT*%
X52189998Y-49559998D02*
X52189998Y-49579998D01*
%TO.N,SDO*%
X51740000Y-57010000D02*
X56550000Y-61820000D01*
X52189998Y-50559999D02*
X51470001Y-50559999D01*
%TO.N,INT*%
X48050000Y-56970000D02*
X60520000Y-69440000D01*
X49995736Y-48645735D02*
X48050000Y-50591471D01*
X48050000Y-50591471D02*
X48050000Y-56970000D01*
%TO.N,GND*%
X53680000Y-50569999D02*
X53690000Y-50559999D01*
%TO.N,INT*%
X52189998Y-49559998D02*
X51039999Y-49559998D01*
%TO.N,CS*%
X49250000Y-55670000D02*
X57940000Y-64360000D01*
%TO.N,INT*%
X51039999Y-49559998D02*
X50940000Y-49459999D01*
%TO.N,VDD*%
X18044264Y-48494265D02*
X16344264Y-48494265D01*
%TO.N,SDA*%
X20224264Y-56724265D02*
X25844264Y-56724265D01*
X19594264Y-54554265D02*
X19594264Y-56094265D01*
%TO.N,DRDY*%
X13974264Y-50824265D02*
X13799264Y-50999265D01*
%TO.N,SDA*%
X18014263Y-52024264D02*
X18294264Y-52304265D01*
%TO.N,SCL*%
X23061912Y-53586617D02*
X22104264Y-54544265D01*
%TO.N,SDA*%
X18544264Y-53504265D02*
X19594264Y-54554265D01*
%TO.N,VDD*%
X17064264Y-52904265D02*
X19594264Y-52904265D01*
%TO.N,DRDY*%
X24642183Y-66884265D02*
X25844264Y-66884265D01*
X13799264Y-56041346D02*
X24642183Y-66884265D01*
%TO.N,VDD*%
X18044264Y-48494265D02*
X18014263Y-48524266D01*
%TO.N,SDA*%
X18014263Y-51044265D02*
X18014263Y-52024264D01*
%TO.N,SCL*%
X22104264Y-54544265D02*
X22104264Y-54784265D01*
%TO.N,VDD*%
X25714264Y-48494265D02*
X25844264Y-48624265D01*
X25844264Y-48624265D02*
X25844264Y-51644265D01*
X18044264Y-48494265D02*
X25714264Y-48494265D01*
X22094264Y-52904265D02*
X22104264Y-52894265D01*
%TO.N,DRDY*%
X17514262Y-50044264D02*
X15704265Y-50044264D01*
%TO.N,SDA*%
X18324264Y-53504265D02*
X18544264Y-53504265D01*
X19594264Y-56094265D02*
X20224264Y-56724265D01*
%TO.N,VDD*%
X18014263Y-48524266D02*
X18014263Y-49544263D01*
X14574264Y-52914264D02*
X17054265Y-52914264D01*
%TO.N,DRDY*%
X13799264Y-50999265D02*
X13799264Y-56041346D01*
%TO.N,VDD*%
X18014263Y-49544263D02*
X18514263Y-49544263D01*
X16344264Y-48494265D02*
X14574264Y-50264265D01*
%TO.N,SCL*%
X23061912Y-52664265D02*
X23061912Y-53586617D01*
X20104264Y-51044265D02*
X21092107Y-52032108D01*
%TO.N,DRDY*%
X15704265Y-50044264D02*
X15174264Y-50574265D01*
%TO.N,VDD*%
X14574264Y-50264265D02*
X14574264Y-52914264D01*
X19594264Y-52904265D02*
X22094264Y-52904265D01*
%TO.N,SCL*%
X21092107Y-52032108D02*
X22429755Y-52032108D01*
%TO.N,DRDY*%
X15174264Y-50574265D02*
X15174264Y-50824265D01*
%TO.N,VDD*%
X17054265Y-52914264D02*
X17064264Y-52904265D01*
%TO.N,SCL*%
X19014264Y-51044265D02*
X20104264Y-51044265D01*
%TO.N,GND*%
X19014264Y-50544264D02*
X19014264Y-50044264D01*
%TO.N,CS*%
X15804264Y-52354264D02*
X15764264Y-52314264D01*
%TO.N,SCL*%
X22984264Y-57324265D02*
X23904264Y-57324265D01*
X23904264Y-57324265D02*
X25844264Y-59264265D01*
%TO.N,INT*%
X15359999Y-48630000D02*
X15320000Y-48630000D01*
%TO.N,Net-(U1-C1)*%
X22684266Y-49544263D02*
X22764264Y-49464265D01*
%TO.N,SDO*%
X15834264Y-54574265D02*
X17044264Y-54574265D01*
%TO.N,CS*%
X15774264Y-53644265D02*
X15494263Y-53644265D01*
X16574263Y-51504265D02*
X15764264Y-52314264D01*
%TO.N,GND*%
X22764264Y-51104265D02*
X25844264Y-54184265D01*
%TO.N,SCL*%
X22429755Y-52032108D02*
X23061912Y-52664265D01*
X22104264Y-54784265D02*
X22914264Y-55594265D01*
%TO.N,CS*%
X17514264Y-51044265D02*
X17514264Y-51504265D01*
X23264264Y-64344265D02*
X25844264Y-64344265D01*
%TO.N,Net-(U1-C1)*%
X19014264Y-49544263D02*
X22684266Y-49544263D01*
%TO.N,SDO*%
X17044264Y-54574265D02*
X17064264Y-54554265D01*
%TO.N,CS*%
X17514264Y-51504265D02*
X16574263Y-51504265D01*
X17514262Y-51044265D02*
X17514264Y-51044265D01*
X14574264Y-54564264D02*
X14574264Y-55654265D01*
X15804264Y-52514264D02*
X15804264Y-52354264D01*
X15494263Y-53644265D02*
X14574264Y-54564264D01*
%TO.N,SDO*%
X16794265Y-50544264D02*
X16644264Y-50694265D01*
X17064264Y-54554265D02*
X17064264Y-56994265D01*
%TO.N,INT*%
X17514262Y-49544263D02*
X17514262Y-49564263D01*
%TO.N,SDO*%
X17064264Y-56994265D02*
X21874264Y-61804265D01*
X17514262Y-50544264D02*
X16794265Y-50544264D01*
%TO.N,INT*%
X17514262Y-49544263D02*
X16364263Y-49544263D01*
X13374264Y-50575736D02*
X13374264Y-56954265D01*
%TO.N,GND*%
X19004264Y-50554264D02*
X19014264Y-50544264D01*
%TO.N,INT*%
X15320000Y-48630000D02*
X13374264Y-50575736D01*
%TO.N,SDO*%
X21874264Y-61804265D02*
X25844264Y-61804265D01*
%TO.N,CS*%
X14574264Y-55654265D02*
X23264264Y-64344265D01*
%TO.N,INT*%
X16364263Y-49544263D02*
X16264264Y-49444264D01*
X13374264Y-56954265D02*
X25844264Y-69424265D01*
%TO.N,GND*%
X53105735Y-20555735D02*
X53105735Y-20065734D01*
X53105735Y-20065734D02*
X53595736Y-20065734D01*
X57355736Y-20525735D02*
X57355736Y-20615735D01*
X53605736Y-19555734D02*
X56385735Y-19555734D01*
X56385735Y-19555734D02*
X57355736Y-20525735D01*
%TO.N,SDA*%
X71540000Y-25610000D02*
X72170000Y-26240000D01*
%TO.N,VDD*%
X69959999Y-19059998D02*
X70459999Y-19059998D01*
%TO.N,CS*%
X75210000Y-33860000D02*
X77790000Y-33860000D01*
X67750000Y-21869999D02*
X67710000Y-21829999D01*
%TO.N,SCL*%
X75007648Y-22180000D02*
X75007648Y-23102352D01*
%TO.N,VDD*%
X66520000Y-22429999D02*
X69000001Y-22429999D01*
%TO.N,CS*%
X69460000Y-20560000D02*
X69460000Y-21020000D01*
%TO.N,SCL*%
X74930000Y-26840000D02*
X75850000Y-26840000D01*
%TO.N,GND*%
X74710000Y-20530000D02*
X74710000Y-20620000D01*
%TO.N,SDO*%
X67780000Y-24090000D02*
X68990000Y-24090000D01*
%TO.N,VDD*%
X69000001Y-22429999D02*
X69010000Y-22420000D01*
%TO.N,GND*%
X70459999Y-20560000D02*
X70459999Y-20069999D01*
%TO.N,VDD*%
X69990000Y-18010000D02*
X69959999Y-18040001D01*
%TO.N,SCL*%
X74050000Y-24300000D02*
X74860000Y-25110000D01*
%TO.N,VDD*%
X69959999Y-18040001D02*
X69959999Y-19059998D01*
%TO.N,GND*%
X70960000Y-20059999D02*
X70960000Y-19559999D01*
%TO.N,DRDY*%
X65745000Y-25557081D02*
X76587919Y-36400000D01*
%TO.N,SDA*%
X70270000Y-23020000D02*
X70490000Y-23020000D01*
%TO.N,CS*%
X68519999Y-21020000D02*
X67710000Y-21829999D01*
%TO.N,SCL*%
X74375491Y-21547843D02*
X75007648Y-22180000D01*
%TO.N,VDD*%
X71540000Y-22420000D02*
X74040000Y-22420000D01*
%TO.N,CS*%
X67720000Y-23160000D02*
X67439999Y-23160000D01*
%TO.N,DRDY*%
X67120000Y-20090000D02*
X67120000Y-20340000D01*
%TO.N,SCL*%
X75850000Y-26840000D02*
X77790000Y-28780000D01*
%TO.N,GND*%
X70459999Y-20069999D02*
X70950000Y-20069999D01*
X70960000Y-19559999D02*
X73739999Y-19559999D01*
%TO.N,SDA*%
X69959999Y-20560000D02*
X69959999Y-21539999D01*
%TO.N,SCL*%
X73037843Y-21547843D02*
X74375491Y-21547843D01*
%TO.N,GND*%
X73739999Y-19559999D02*
X74710000Y-20530000D01*
%TO.N,SCL*%
X75007648Y-23102352D02*
X74050000Y-24060000D01*
%TO.N,Net-(U1-C1)*%
X74630002Y-19059998D02*
X74710000Y-18980000D01*
%TO.N,DRDY*%
X69459998Y-19559999D02*
X67650001Y-19559999D01*
%TO.N,SDA*%
X70490000Y-23020000D02*
X71540000Y-24070000D01*
%TO.N,VDD*%
X66520000Y-19780000D02*
X66520000Y-22429999D01*
%TO.N,SCL*%
X74050000Y-24060000D02*
X74050000Y-24300000D01*
%TO.N,INT*%
X67305735Y-18145735D02*
X67265736Y-18145735D01*
%TO.N,SCL*%
X72050000Y-20560000D02*
X73037843Y-21547843D01*
%TO.N,VDD*%
X69990000Y-18010000D02*
X68290000Y-18010000D01*
%TO.N,SDA*%
X71540000Y-24070000D02*
X71540000Y-25610000D01*
%TO.N,DRDY*%
X76587919Y-36400000D02*
X77790000Y-36400000D01*
%TO.N,VDD*%
X68290000Y-18010000D02*
X66520000Y-19780000D01*
X77790000Y-18140000D02*
X77790000Y-21160000D01*
%TO.N,DRDY*%
X65745000Y-20515000D02*
X65745000Y-25557081D01*
%TO.N,SCL*%
X70960000Y-20560000D02*
X72050000Y-20560000D01*
%TO.N,GND*%
X74710000Y-20620000D02*
X77790000Y-23700000D01*
%TO.N,DRDY*%
X67650001Y-19559999D02*
X67120000Y-20090000D01*
%TO.N,VDD*%
X74040000Y-22420000D02*
X74050000Y-22410000D01*
%TO.N,SDA*%
X72170000Y-26240000D02*
X77790000Y-26240000D01*
%TO.N,DRDY*%
X65920000Y-20340000D02*
X65745000Y-20515000D01*
%TO.N,SDA*%
X69959999Y-21539999D02*
X70240000Y-21820000D01*
%TO.N,VDD*%
X69010000Y-22420000D02*
X71540000Y-22420000D01*
X77660000Y-18010000D02*
X77790000Y-18140000D01*
X69990000Y-18010000D02*
X77660000Y-18010000D01*
%TO.N,Net-(U1-C1)*%
X70960000Y-19059998D02*
X74630002Y-19059998D01*
%TO.N,SDO*%
X68990000Y-24090000D02*
X69010000Y-24070000D01*
%TO.N,CS*%
X69460000Y-21020000D02*
X68519999Y-21020000D01*
X66520000Y-25170000D02*
X75210000Y-33860000D01*
X69459998Y-20560000D02*
X69460000Y-20560000D01*
%TO.N,INT*%
X68309999Y-19059998D02*
X68210000Y-18959999D01*
%TO.N,CS*%
X67439999Y-23160000D02*
X66520000Y-24079999D01*
%TO.N,INT*%
X69459998Y-19059998D02*
X68309999Y-19059998D01*
X65320000Y-20091471D02*
X65320000Y-26470000D01*
%TO.N,CS*%
X66520000Y-24079999D02*
X66520000Y-25170000D01*
%TO.N,SDO*%
X69010000Y-26510000D02*
X73820000Y-31320000D01*
X69010000Y-24070000D02*
X69010000Y-26510000D01*
X73820000Y-31320000D02*
X77790000Y-31320000D01*
%TO.N,CS*%
X67750000Y-22029999D02*
X67750000Y-21869999D01*
%TO.N,SDO*%
X68740001Y-20059999D02*
X68590000Y-20210000D01*
%TO.N,INT*%
X69459998Y-19059998D02*
X69459998Y-19079998D01*
%TO.N,SDO*%
X69459998Y-20059999D02*
X68740001Y-20059999D01*
%TO.N,GND*%
X70950000Y-20069999D02*
X70960000Y-20059999D01*
%TO.N,INT*%
X67265736Y-18145735D02*
X65320000Y-20091471D01*
X65320000Y-26470000D02*
X77790000Y-38940000D01*
%TO.N,VDD*%
X52635736Y-18005735D02*
X50935736Y-18005735D01*
%TO.N,SDA*%
X54815736Y-26235735D02*
X60435736Y-26235735D01*
X54185736Y-24065735D02*
X54185736Y-25605735D01*
%TO.N,DRDY*%
X48565736Y-20335735D02*
X48390736Y-20510735D01*
%TO.N,SDA*%
X52605735Y-21535734D02*
X52885736Y-21815735D01*
%TO.N,SCL*%
X57653384Y-23098087D02*
X56695736Y-24055735D01*
%TO.N,SDA*%
X53135736Y-23015735D02*
X54185736Y-24065735D01*
%TO.N,VDD*%
X51655736Y-22415735D02*
X54185736Y-22415735D01*
%TO.N,DRDY*%
X59233655Y-36395735D02*
X60435736Y-36395735D01*
X48390736Y-25552816D02*
X59233655Y-36395735D01*
%TO.N,VDD*%
X52635736Y-18005735D02*
X52605735Y-18035736D01*
%TO.N,SDA*%
X52605735Y-20555735D02*
X52605735Y-21535734D01*
%TO.N,SCL*%
X56695736Y-24055735D02*
X56695736Y-24295735D01*
%TO.N,VDD*%
X60305736Y-18005735D02*
X60435736Y-18135735D01*
X60435736Y-18135735D02*
X60435736Y-21155735D01*
X52635736Y-18005735D02*
X60305736Y-18005735D01*
X56685736Y-22415735D02*
X56695736Y-22405735D01*
%TO.N,DRDY*%
X52105734Y-19555734D02*
X50295737Y-19555734D01*
%TO.N,SDA*%
X52915736Y-23015735D02*
X53135736Y-23015735D01*
X54185736Y-25605735D02*
X54815736Y-26235735D01*
%TO.N,VDD*%
X52605735Y-18035736D02*
X52605735Y-19055733D01*
X49165736Y-22425734D02*
X51645737Y-22425734D01*
%TO.N,DRDY*%
X48390736Y-20510735D02*
X48390736Y-25552816D01*
%TO.N,VDD*%
X52605735Y-19055733D02*
X53105735Y-19055733D01*
X50935736Y-18005735D02*
X49165736Y-19775735D01*
%TO.N,SCL*%
X57653384Y-22175735D02*
X57653384Y-23098087D01*
X54695736Y-20555735D02*
X55683579Y-21543578D01*
%TO.N,DRDY*%
X50295737Y-19555734D02*
X49765736Y-20085735D01*
%TO.N,VDD*%
X49165736Y-19775735D02*
X49165736Y-22425734D01*
X54185736Y-22415735D02*
X56685736Y-22415735D01*
%TO.N,SCL*%
X55683579Y-21543578D02*
X57021227Y-21543578D01*
%TO.N,DRDY*%
X49765736Y-20085735D02*
X49765736Y-20335735D01*
%TO.N,VDD*%
X51645737Y-22425734D02*
X51655736Y-22415735D01*
%TO.N,SCL*%
X53605736Y-20555735D02*
X54695736Y-20555735D01*
%TO.N,GND*%
X53605736Y-20055734D02*
X53605736Y-19555734D01*
%TO.N,CS*%
X50395736Y-21865734D02*
X50355736Y-21825734D01*
%TO.N,SCL*%
X57575736Y-26835735D02*
X58495736Y-26835735D01*
X58495736Y-26835735D02*
X60435736Y-28775735D01*
%TO.N,INT*%
X49951471Y-18141470D02*
X49911472Y-18141470D01*
%TO.N,Net-(U1-C1)*%
X57275738Y-19055733D02*
X57355736Y-18975735D01*
%TO.N,SDO*%
X50425736Y-24085735D02*
X51635736Y-24085735D01*
%TO.N,CS*%
X50365736Y-23155735D02*
X50085735Y-23155735D01*
X51165735Y-21015735D02*
X50355736Y-21825734D01*
%TO.N,GND*%
X57355736Y-20615735D02*
X60435736Y-23695735D01*
%TO.N,SCL*%
X57021227Y-21543578D02*
X57653384Y-22175735D01*
X56695736Y-24295735D02*
X57505736Y-25105735D01*
%TO.N,CS*%
X52105736Y-20555735D02*
X52105736Y-21015735D01*
X57855736Y-33855735D02*
X60435736Y-33855735D01*
%TO.N,Net-(U1-C1)*%
X53605736Y-19055733D02*
X57275738Y-19055733D01*
%TO.N,SDO*%
X51635736Y-24085735D02*
X51655736Y-24065735D01*
%TO.N,CS*%
X52105736Y-21015735D02*
X51165735Y-21015735D01*
X52105734Y-20555735D02*
X52105736Y-20555735D01*
X49165736Y-24075734D02*
X49165736Y-25165735D01*
X50395736Y-22025734D02*
X50395736Y-21865734D01*
X50085735Y-23155735D02*
X49165736Y-24075734D01*
%TO.N,SDO*%
X51385737Y-20055734D02*
X51235736Y-20205735D01*
X51655736Y-24065735D02*
X51655736Y-26505735D01*
%TO.N,INT*%
X52105734Y-19055733D02*
X52105734Y-19075733D01*
%TO.N,SDO*%
X51655736Y-26505735D02*
X56465736Y-31315735D01*
X52105734Y-20055734D02*
X51385737Y-20055734D01*
%TO.N,INT*%
X52105734Y-19055733D02*
X50955735Y-19055733D01*
X47965736Y-20087206D02*
X47965736Y-26465735D01*
%TO.N,GND*%
X53595736Y-20065734D02*
X53605736Y-20055734D01*
%TO.N,INT*%
X49911472Y-18141470D02*
X47965736Y-20087206D01*
%TO.N,SDO*%
X56465736Y-31315735D02*
X60435736Y-31315735D01*
%TO.N,CS*%
X49165736Y-25165735D02*
X57855736Y-33855735D01*
%TO.N,INT*%
X50955735Y-19055733D02*
X50855736Y-18955734D01*
X47965736Y-26465735D02*
X60435736Y-38935735D01*
%TO.N,GND*%
X35784263Y-20544265D02*
X35784263Y-20054264D01*
X35784263Y-20054264D02*
X36274264Y-20054264D01*
X40034264Y-20514265D02*
X40034264Y-20604265D01*
X36284264Y-19544264D02*
X39064263Y-19544264D01*
X39064263Y-19544264D02*
X40034264Y-20514265D01*
%TO.N,VDD*%
X35314264Y-17994265D02*
X33614264Y-17994265D01*
%TO.N,SDA*%
X37494264Y-26224265D02*
X43114264Y-26224265D01*
X36864264Y-24054265D02*
X36864264Y-25594265D01*
%TO.N,DRDY*%
X31244264Y-20324265D02*
X31069264Y-20499265D01*
%TO.N,SDA*%
X35284263Y-21524264D02*
X35564264Y-21804265D01*
%TO.N,SCL*%
X40331912Y-23086617D02*
X39374264Y-24044265D01*
%TO.N,SDA*%
X35814264Y-23004265D02*
X36864264Y-24054265D01*
%TO.N,VDD*%
X34334264Y-22404265D02*
X36864264Y-22404265D01*
%TO.N,DRDY*%
X41912183Y-36384265D02*
X43114264Y-36384265D01*
X31069264Y-25541346D02*
X41912183Y-36384265D01*
%TO.N,VDD*%
X35314264Y-17994265D02*
X35284263Y-18024266D01*
%TO.N,SDA*%
X35284263Y-20544265D02*
X35284263Y-21524264D01*
%TO.N,SCL*%
X39374264Y-24044265D02*
X39374264Y-24284265D01*
%TO.N,VDD*%
X42984264Y-17994265D02*
X43114264Y-18124265D01*
X43114264Y-18124265D02*
X43114264Y-21144265D01*
X35314264Y-17994265D02*
X42984264Y-17994265D01*
X39364264Y-22404265D02*
X39374264Y-22394265D01*
%TO.N,DRDY*%
X34784262Y-19544264D02*
X32974265Y-19544264D01*
%TO.N,SDA*%
X35594264Y-23004265D02*
X35814264Y-23004265D01*
X36864264Y-25594265D02*
X37494264Y-26224265D01*
%TO.N,VDD*%
X35284263Y-18024266D02*
X35284263Y-19044263D01*
X31844264Y-22414264D02*
X34324265Y-22414264D01*
%TO.N,DRDY*%
X31069264Y-20499265D02*
X31069264Y-25541346D01*
%TO.N,VDD*%
X35284263Y-19044263D02*
X35784263Y-19044263D01*
X33614264Y-17994265D02*
X31844264Y-19764265D01*
%TO.N,SCL*%
X40331912Y-22164265D02*
X40331912Y-23086617D01*
X37374264Y-20544265D02*
X38362107Y-21532108D01*
%TO.N,DRDY*%
X32974265Y-19544264D02*
X32444264Y-20074265D01*
%TO.N,VDD*%
X31844264Y-19764265D02*
X31844264Y-22414264D01*
X36864264Y-22404265D02*
X39364264Y-22404265D01*
%TO.N,SCL*%
X38362107Y-21532108D02*
X39699755Y-21532108D01*
%TO.N,DRDY*%
X32444264Y-20074265D02*
X32444264Y-20324265D01*
%TO.N,VDD*%
X34324265Y-22414264D02*
X34334264Y-22404265D01*
%TO.N,SCL*%
X36284264Y-20544265D02*
X37374264Y-20544265D01*
%TO.N,GND*%
X36284264Y-20044264D02*
X36284264Y-19544264D01*
%TO.N,CS*%
X33074264Y-21854264D02*
X33034264Y-21814264D01*
%TO.N,SCL*%
X40254264Y-26824265D02*
X41174264Y-26824265D01*
X41174264Y-26824265D02*
X43114264Y-28764265D01*
%TO.N,INT*%
X32629999Y-18130000D02*
X32590000Y-18130000D01*
%TO.N,Net-(U1-C1)*%
X39954266Y-19044263D02*
X40034264Y-18964265D01*
%TO.N,SDO*%
X33104264Y-24074265D02*
X34314264Y-24074265D01*
%TO.N,CS*%
X33044264Y-23144265D02*
X32764263Y-23144265D01*
X33844263Y-21004265D02*
X33034264Y-21814264D01*
%TO.N,GND*%
X40034264Y-20604265D02*
X43114264Y-23684265D01*
%TO.N,SCL*%
X39699755Y-21532108D02*
X40331912Y-22164265D01*
X39374264Y-24284265D02*
X40184264Y-25094265D01*
%TO.N,CS*%
X34784264Y-20544265D02*
X34784264Y-21004265D01*
X40534264Y-33844265D02*
X43114264Y-33844265D01*
%TO.N,Net-(U1-C1)*%
X36284264Y-19044263D02*
X39954266Y-19044263D01*
%TO.N,SDO*%
X34314264Y-24074265D02*
X34334264Y-24054265D01*
%TO.N,CS*%
X34784264Y-21004265D02*
X33844263Y-21004265D01*
X34784262Y-20544265D02*
X34784264Y-20544265D01*
X31844264Y-24064264D02*
X31844264Y-25154265D01*
X33074264Y-22014264D02*
X33074264Y-21854264D01*
X32764263Y-23144265D02*
X31844264Y-24064264D01*
%TO.N,SDO*%
X34064265Y-20044264D02*
X33914264Y-20194265D01*
X34334264Y-24054265D02*
X34334264Y-26494265D01*
%TO.N,INT*%
X34784262Y-19044263D02*
X34784262Y-19064263D01*
%TO.N,SDO*%
X34334264Y-26494265D02*
X39144264Y-31304265D01*
X34784262Y-20044264D02*
X34064265Y-20044264D01*
%TO.N,INT*%
X34784262Y-19044263D02*
X33634263Y-19044263D01*
X30644264Y-20075736D02*
X30644264Y-26454265D01*
%TO.N,GND*%
X36274264Y-20054264D02*
X36284264Y-20044264D01*
%TO.N,INT*%
X32590000Y-18130000D02*
X30644264Y-20075736D01*
%TO.N,SDO*%
X39144264Y-31304265D02*
X43114264Y-31304265D01*
%TO.N,CS*%
X31844264Y-25154265D02*
X40534264Y-33844265D01*
%TO.N,INT*%
X33634263Y-19044263D02*
X33534264Y-18944264D01*
X30644264Y-26454265D02*
X43114264Y-38924265D01*
%TO.N,GND*%
X18429999Y-20049999D02*
X18920000Y-20049999D01*
X18930000Y-19539999D02*
X21709999Y-19539999D01*
X22680000Y-20510000D02*
X22680000Y-20600000D01*
X18429999Y-20540000D02*
X18429999Y-20049999D01*
X21709999Y-19539999D02*
X22680000Y-20510000D01*
X18930000Y-20039999D02*
X18930000Y-19539999D01*
X18920000Y-20049999D02*
X18930000Y-20039999D01*
X22680000Y-20600000D02*
X25760000Y-23680000D01*
%TO.N,Net-(U1-C1)*%
X22600002Y-19039998D02*
X22680000Y-18960000D01*
X18930000Y-19039998D02*
X22600002Y-19039998D01*
%TO.N,INT*%
X13290000Y-20071471D02*
X13290000Y-26450000D01*
X15235736Y-18125735D02*
X13290000Y-20071471D01*
X17429998Y-19039998D02*
X17429998Y-19059998D01*
X13290000Y-26450000D02*
X25760000Y-38920000D01*
X16279999Y-19039998D02*
X16180000Y-18939999D01*
X17429998Y-19039998D02*
X16279999Y-19039998D01*
X15275735Y-18125735D02*
X15235736Y-18125735D01*
%TO.N,SDO*%
X16980000Y-26490000D02*
X21790000Y-31300000D01*
X15750000Y-24070000D02*
X16960000Y-24070000D01*
X16710001Y-20039999D02*
X16560000Y-20190000D01*
X21790000Y-31300000D02*
X25760000Y-31300000D01*
X17429998Y-20039999D02*
X16710001Y-20039999D01*
X16960000Y-24070000D02*
X16980000Y-24050000D01*
X16980000Y-24050000D02*
X16980000Y-26490000D01*
%TO.N,CS*%
X15409999Y-23140000D02*
X14490000Y-24059999D01*
X15720000Y-21849999D02*
X15680000Y-21809999D01*
X14490000Y-24059999D02*
X14490000Y-25150000D01*
X23180000Y-33840000D02*
X25760000Y-33840000D01*
X17429998Y-20540000D02*
X17430000Y-20540000D01*
X14490000Y-25150000D02*
X23180000Y-33840000D01*
X15690000Y-23140000D02*
X15409999Y-23140000D01*
X17430000Y-21000000D02*
X16489999Y-21000000D01*
X17430000Y-20540000D02*
X17430000Y-21000000D01*
X16489999Y-21000000D02*
X15680000Y-21809999D01*
X15720000Y-22009999D02*
X15720000Y-21849999D01*
%TO.N,SCL*%
X22020000Y-24280000D02*
X22830000Y-25090000D01*
X23820000Y-26820000D02*
X25760000Y-28760000D01*
X22345491Y-21527843D02*
X22977648Y-22160000D01*
X22900000Y-26820000D02*
X23820000Y-26820000D01*
X18930000Y-20540000D02*
X20020000Y-20540000D01*
X22977648Y-22160000D02*
X22977648Y-23082352D01*
X22020000Y-24040000D02*
X22020000Y-24280000D01*
X21007843Y-21527843D02*
X22345491Y-21527843D01*
X20020000Y-20540000D02*
X21007843Y-21527843D01*
X22977648Y-23082352D02*
X22020000Y-24040000D01*
%TO.N,VDD*%
X17960000Y-17990000D02*
X25630000Y-17990000D01*
X17960000Y-17990000D02*
X16260000Y-17990000D01*
X22010000Y-22400000D02*
X22020000Y-22390000D01*
X16980000Y-22400000D02*
X19510000Y-22400000D01*
X14490000Y-19760000D02*
X14490000Y-22409999D01*
X16260000Y-17990000D02*
X14490000Y-19760000D01*
X17960000Y-17990000D02*
X17929999Y-18020001D01*
X25760000Y-18120000D02*
X25760000Y-21140000D01*
X19510000Y-22400000D02*
X22010000Y-22400000D01*
X17929999Y-19039998D02*
X18429999Y-19039998D01*
X14490000Y-22409999D02*
X16970001Y-22409999D01*
X16970001Y-22409999D02*
X16980000Y-22400000D01*
X25630000Y-17990000D02*
X25760000Y-18120000D01*
X17929999Y-18020001D02*
X17929999Y-19039998D01*
%TO.N,SDA*%
X17929999Y-21519999D02*
X18210000Y-21800000D01*
X18460000Y-23000000D02*
X19510000Y-24050000D01*
X19510000Y-24050000D02*
X19510000Y-25590000D01*
X19510000Y-25590000D02*
X20140000Y-26220000D01*
X17929999Y-20540000D02*
X17929999Y-21519999D01*
X20140000Y-26220000D02*
X25760000Y-26220000D01*
X18240000Y-23000000D02*
X18460000Y-23000000D01*
%TO.N,DRDY*%
X13890000Y-20320000D02*
X13715000Y-20495000D01*
X13715000Y-25537081D02*
X24557919Y-36380000D01*
X15090000Y-20070000D02*
X15090000Y-20320000D01*
X24557919Y-36380000D02*
X25760000Y-36380000D01*
X15620001Y-19539999D02*
X15090000Y-20070000D01*
X13715000Y-20495000D02*
X13715000Y-25537081D01*
X17429998Y-19539999D02*
X15620001Y-19539999D01*
%TD*%
M02*
