M48
; DRILL file {KiCad 8.0.5} date 2024-10-22T20:23:02-0700
; FORMAT={-:-/ absolute / inch / decimal}
; #@! TF.CreationDate,2024-10-22T20:23:02-07:00
; #@! TF.GenerationSoftware,Kicad,Pcbnew,8.0.5
; #@! TF.FileFunction,Plated,1,2,PTH
FMAT,2
INCH
; #@! TA.AperFunction,Plated,PTH,ViaDrill
T1C0.0118
; #@! TA.AperFunction,Plated,PTH,ComponentDrill
T2C0.0394
%
G90
G05
T1
X0.5469Y-0.8
X0.5502Y-2.001
X0.5941Y-0.8
X0.5974Y-2.001
X0.6014Y-0.7136
X0.6047Y-1.9146
X0.6173Y-0.8587
X0.6177Y-0.911
X0.6201Y-0.9476
X0.6206Y-2.0596
X0.621Y-2.112
X0.6234Y-2.1486
X0.637Y-0.7457
X0.6403Y-1.9466
X0.652Y-0.7949
X0.6553Y-1.9958
X0.7169Y-0.8583
X0.7181Y-0.9055
X0.7202Y-2.0592
X0.7214Y-2.1065
X0.8988Y-0.9878
X0.9016Y-1.0559
X0.9021Y-2.1888
X0.9049Y-2.2569
X1.2301Y-0.8002
X1.2334Y-2.0011
X1.2773Y-0.8002
X1.2807Y-2.0011
X1.2846Y-0.7138
X1.288Y-1.9147
X1.3006Y-0.8588
X1.301Y-0.9112
X1.3033Y-0.9478
X1.3039Y-2.0598
X1.3043Y-2.1121
X1.3066Y-2.1488
X1.3202Y-0.7458
X1.3236Y-1.9468
X1.3352Y-0.795
X1.3385Y-1.996
X1.4002Y-0.8584
X1.4013Y-0.9057
X1.4035Y-2.0594
X1.4047Y-2.1066
X1.5821Y-0.988
X1.5848Y-1.0561
X1.5854Y-2.1889
X1.5881Y-2.257
X1.912Y-0.8006
X1.9154Y-2.0016
X1.9593Y-0.8006
X1.9626Y-2.0016
X1.9666Y-0.7142
X1.9699Y-1.9152
X1.9825Y-0.8593
X1.9829Y-0.9116
X1.9853Y-0.9483
X1.9858Y-2.0602
X1.9862Y-2.1126
X1.9886Y-2.1492
X2.0022Y-0.7463
X2.0055Y-1.9472
X2.0172Y-0.7955
X2.0205Y-1.9965
X2.0821Y-0.8589
X2.0833Y-0.9061
X2.0854Y-2.0598
X2.0866Y-2.1071
X2.264Y-0.9884
X2.2668Y-1.0565
X2.2673Y-2.1894
X2.2701Y-2.2575
X2.5953Y-0.8008
X2.5986Y-2.0017
X2.6425Y-0.8008
X2.6458Y-2.0017
X2.6498Y-0.7144
X2.6531Y-1.9154
X2.6657Y-0.8594
X2.6661Y-0.9118
X2.6685Y-0.9484
X2.6691Y-2.0604
X2.6695Y-2.1128
X2.6718Y-2.1494
X2.6854Y-0.7465
X2.6888Y-1.9474
X2.7004Y-0.7957
X2.7037Y-1.9966
X2.7654Y-0.8591
X2.7665Y-0.9063
X2.7687Y-2.06
X2.7699Y-2.1073
X2.9472Y-0.9886
X2.95Y-1.0567
X2.9506Y-2.1895
X2.9533Y-2.2576
T2
X1.0142Y-0.8323
X1.0142Y-0.9323
X1.0142Y-1.0323
X1.0142Y-1.1323
X1.0142Y-1.2323
X1.0142Y-1.3323
X1.0142Y-1.4323
X1.0142Y-1.5323
X1.0175Y-2.0332
X1.0175Y-2.1332
X1.0175Y-2.2332
X1.0175Y-2.3332
X1.0175Y-2.4332
X1.0175Y-2.5332
X1.0175Y-2.6332
X1.0175Y-2.7332
X1.6974Y-0.8325
X1.6974Y-0.9325
X1.6974Y-1.0325
X1.6974Y-1.1325
X1.6974Y-1.2325
X1.6974Y-1.3325
X1.6974Y-1.4325
X1.6974Y-1.5325
X1.7007Y-2.0334
X1.7007Y-2.1334
X1.7007Y-2.2334
X1.7007Y-2.3334
X1.7007Y-2.4334
X1.7007Y-2.5334
X1.7007Y-2.6334
X1.7007Y-2.7334
X2.3794Y-0.8329
X2.3794Y-0.9329
X2.3794Y-1.0329
X2.3794Y-1.1329
X2.3794Y-1.2329
X2.3794Y-1.3329
X2.3794Y-1.4329
X2.3794Y-1.5329
X2.3827Y-2.0339
X2.3827Y-2.1339
X2.3827Y-2.2339
X2.3827Y-2.3339
X2.3827Y-2.4339
X2.3827Y-2.5339
X2.3827Y-2.6339
X2.3827Y-2.7339
X3.0626Y-0.8331
X3.0626Y-0.9331
X3.0626Y-1.0331
X3.0626Y-1.1331
X3.0626Y-1.2331
X3.0626Y-1.3331
X3.0626Y-1.4331
X3.0626Y-1.5331
X3.0659Y-2.034
X3.0659Y-2.134
X3.0659Y-2.234
X3.0659Y-2.334
X3.0659Y-2.434
X3.0659Y-2.534
X3.0659Y-2.634
X3.0659Y-2.734
M30
