%TF.GenerationSoftware,KiCad,Pcbnew,8.0.5*%
%TF.CreationDate,2024-10-22T20:22:57-07:00*%
%TF.ProjectId,door3_panel,646f6f72-335f-4706-916e-656c2e6b6963,rev?*%
%TF.SameCoordinates,Original*%
%TF.FileFunction,Legend,Top*%
%TF.FilePolarity,Positive*%
%FSLAX46Y46*%
G04 Gerber Fmt 4.6, Leading zero omitted, Abs format (unit mm)*
G04 Created by KiCad (PCBNEW 8.0.5) date 2024-10-22 20:22:57*
%MOMM*%
%LPD*%
G01*
G04 APERTURE LIST*
%ADD10C,0.100000*%
%ADD11C,0.150000*%
%ADD12C,0.120000*%
G04 APERTURE END LIST*
D10*
X71754718Y-51604265D02*
G75*
G02*
X71533810Y-51604265I-110454J0D01*
G01*
X71533810Y-51604265D02*
G75*
G02*
X71754718Y-51604265I110454J0D01*
G01*
X54400454Y-51600000D02*
G75*
G02*
X54179546Y-51600000I-110454J0D01*
G01*
X54179546Y-51600000D02*
G75*
G02*
X54400454Y-51600000I110454J0D01*
G01*
X37078982Y-51588530D02*
G75*
G02*
X36858074Y-51588530I-110454J0D01*
G01*
X36858074Y-51588530D02*
G75*
G02*
X37078982Y-51588530I110454J0D01*
G01*
X38842412Y-45850949D02*
X38842412Y-44850949D01*
X38842412Y-44850949D02*
X39175745Y-45565234D01*
X39175745Y-45565234D02*
X39509078Y-44850949D01*
X39509078Y-44850949D02*
X39509078Y-45850949D01*
X40413840Y-45850949D02*
X40413840Y-45327139D01*
X40413840Y-45327139D02*
X40366221Y-45231901D01*
X40366221Y-45231901D02*
X40270983Y-45184282D01*
X40270983Y-45184282D02*
X40080507Y-45184282D01*
X40080507Y-45184282D02*
X39985269Y-45231901D01*
X40413840Y-45803330D02*
X40318602Y-45850949D01*
X40318602Y-45850949D02*
X40080507Y-45850949D01*
X40080507Y-45850949D02*
X39985269Y-45803330D01*
X39985269Y-45803330D02*
X39937650Y-45708091D01*
X39937650Y-45708091D02*
X39937650Y-45612853D01*
X39937650Y-45612853D02*
X39985269Y-45517615D01*
X39985269Y-45517615D02*
X40080507Y-45469996D01*
X40080507Y-45469996D02*
X40318602Y-45469996D01*
X40318602Y-45469996D02*
X40413840Y-45422377D01*
X41318602Y-45184282D02*
X41318602Y-45993806D01*
X41318602Y-45993806D02*
X41270983Y-46089044D01*
X41270983Y-46089044D02*
X41223364Y-46136663D01*
X41223364Y-46136663D02*
X41128126Y-46184282D01*
X41128126Y-46184282D02*
X40985269Y-46184282D01*
X40985269Y-46184282D02*
X40890031Y-46136663D01*
X41318602Y-45803330D02*
X41223364Y-45850949D01*
X41223364Y-45850949D02*
X41032888Y-45850949D01*
X41032888Y-45850949D02*
X40937650Y-45803330D01*
X40937650Y-45803330D02*
X40890031Y-45755710D01*
X40890031Y-45755710D02*
X40842412Y-45660472D01*
X40842412Y-45660472D02*
X40842412Y-45374758D01*
X40842412Y-45374758D02*
X40890031Y-45279520D01*
X40890031Y-45279520D02*
X40937650Y-45231901D01*
X40937650Y-45231901D02*
X41032888Y-45184282D01*
X41032888Y-45184282D02*
X41223364Y-45184282D01*
X41223364Y-45184282D02*
X41318602Y-45231901D01*
X42223364Y-45184282D02*
X42223364Y-45993806D01*
X42223364Y-45993806D02*
X42175745Y-46089044D01*
X42175745Y-46089044D02*
X42128126Y-46136663D01*
X42128126Y-46136663D02*
X42032888Y-46184282D01*
X42032888Y-46184282D02*
X41890031Y-46184282D01*
X41890031Y-46184282D02*
X41794793Y-46136663D01*
X42223364Y-45803330D02*
X42128126Y-45850949D01*
X42128126Y-45850949D02*
X41937650Y-45850949D01*
X41937650Y-45850949D02*
X41842412Y-45803330D01*
X41842412Y-45803330D02*
X41794793Y-45755710D01*
X41794793Y-45755710D02*
X41747174Y-45660472D01*
X41747174Y-45660472D02*
X41747174Y-45374758D01*
X41747174Y-45374758D02*
X41794793Y-45279520D01*
X41794793Y-45279520D02*
X41842412Y-45231901D01*
X41842412Y-45231901D02*
X41937650Y-45184282D01*
X41937650Y-45184282D02*
X42128126Y-45184282D01*
X42128126Y-45184282D02*
X42223364Y-45231901D01*
X42699555Y-45850949D02*
X42699555Y-45184282D01*
X42699555Y-44850949D02*
X42651936Y-44898568D01*
X42651936Y-44898568D02*
X42699555Y-44946187D01*
X42699555Y-44946187D02*
X42747174Y-44898568D01*
X42747174Y-44898568D02*
X42699555Y-44850949D01*
X42699555Y-44850949D02*
X42699555Y-44946187D01*
X43556697Y-45803330D02*
X43461459Y-45850949D01*
X43461459Y-45850949D02*
X43270983Y-45850949D01*
X43270983Y-45850949D02*
X43175745Y-45803330D01*
X43175745Y-45803330D02*
X43128126Y-45708091D01*
X43128126Y-45708091D02*
X43128126Y-45327139D01*
X43128126Y-45327139D02*
X43175745Y-45231901D01*
X43175745Y-45231901D02*
X43270983Y-45184282D01*
X43270983Y-45184282D02*
X43461459Y-45184282D01*
X43461459Y-45184282D02*
X43556697Y-45231901D01*
X43556697Y-45231901D02*
X43604316Y-45327139D01*
X43604316Y-45327139D02*
X43604316Y-45422377D01*
X43604316Y-45422377D02*
X43128126Y-45517615D01*
X43985269Y-44946187D02*
X44032888Y-44898568D01*
X44032888Y-44898568D02*
X44128126Y-44850949D01*
X44128126Y-44850949D02*
X44366221Y-44850949D01*
X44366221Y-44850949D02*
X44461459Y-44898568D01*
X44461459Y-44898568D02*
X44509078Y-44946187D01*
X44509078Y-44946187D02*
X44556697Y-45041425D01*
X44556697Y-45041425D02*
X44556697Y-45136663D01*
X44556697Y-45136663D02*
X44509078Y-45279520D01*
X44509078Y-45279520D02*
X43937650Y-45850949D01*
X43937650Y-45850949D02*
X44556697Y-45850949D01*
X56163884Y-45862419D02*
X56163884Y-44862419D01*
X56163884Y-44862419D02*
X56497217Y-45576704D01*
X56497217Y-45576704D02*
X56830550Y-44862419D01*
X56830550Y-44862419D02*
X56830550Y-45862419D01*
X57735312Y-45862419D02*
X57735312Y-45338609D01*
X57735312Y-45338609D02*
X57687693Y-45243371D01*
X57687693Y-45243371D02*
X57592455Y-45195752D01*
X57592455Y-45195752D02*
X57401979Y-45195752D01*
X57401979Y-45195752D02*
X57306741Y-45243371D01*
X57735312Y-45814800D02*
X57640074Y-45862419D01*
X57640074Y-45862419D02*
X57401979Y-45862419D01*
X57401979Y-45862419D02*
X57306741Y-45814800D01*
X57306741Y-45814800D02*
X57259122Y-45719561D01*
X57259122Y-45719561D02*
X57259122Y-45624323D01*
X57259122Y-45624323D02*
X57306741Y-45529085D01*
X57306741Y-45529085D02*
X57401979Y-45481466D01*
X57401979Y-45481466D02*
X57640074Y-45481466D01*
X57640074Y-45481466D02*
X57735312Y-45433847D01*
X58640074Y-45195752D02*
X58640074Y-46005276D01*
X58640074Y-46005276D02*
X58592455Y-46100514D01*
X58592455Y-46100514D02*
X58544836Y-46148133D01*
X58544836Y-46148133D02*
X58449598Y-46195752D01*
X58449598Y-46195752D02*
X58306741Y-46195752D01*
X58306741Y-46195752D02*
X58211503Y-46148133D01*
X58640074Y-45814800D02*
X58544836Y-45862419D01*
X58544836Y-45862419D02*
X58354360Y-45862419D01*
X58354360Y-45862419D02*
X58259122Y-45814800D01*
X58259122Y-45814800D02*
X58211503Y-45767180D01*
X58211503Y-45767180D02*
X58163884Y-45671942D01*
X58163884Y-45671942D02*
X58163884Y-45386228D01*
X58163884Y-45386228D02*
X58211503Y-45290990D01*
X58211503Y-45290990D02*
X58259122Y-45243371D01*
X58259122Y-45243371D02*
X58354360Y-45195752D01*
X58354360Y-45195752D02*
X58544836Y-45195752D01*
X58544836Y-45195752D02*
X58640074Y-45243371D01*
X59544836Y-45195752D02*
X59544836Y-46005276D01*
X59544836Y-46005276D02*
X59497217Y-46100514D01*
X59497217Y-46100514D02*
X59449598Y-46148133D01*
X59449598Y-46148133D02*
X59354360Y-46195752D01*
X59354360Y-46195752D02*
X59211503Y-46195752D01*
X59211503Y-46195752D02*
X59116265Y-46148133D01*
X59544836Y-45814800D02*
X59449598Y-45862419D01*
X59449598Y-45862419D02*
X59259122Y-45862419D01*
X59259122Y-45862419D02*
X59163884Y-45814800D01*
X59163884Y-45814800D02*
X59116265Y-45767180D01*
X59116265Y-45767180D02*
X59068646Y-45671942D01*
X59068646Y-45671942D02*
X59068646Y-45386228D01*
X59068646Y-45386228D02*
X59116265Y-45290990D01*
X59116265Y-45290990D02*
X59163884Y-45243371D01*
X59163884Y-45243371D02*
X59259122Y-45195752D01*
X59259122Y-45195752D02*
X59449598Y-45195752D01*
X59449598Y-45195752D02*
X59544836Y-45243371D01*
X60021027Y-45862419D02*
X60021027Y-45195752D01*
X60021027Y-44862419D02*
X59973408Y-44910038D01*
X59973408Y-44910038D02*
X60021027Y-44957657D01*
X60021027Y-44957657D02*
X60068646Y-44910038D01*
X60068646Y-44910038D02*
X60021027Y-44862419D01*
X60021027Y-44862419D02*
X60021027Y-44957657D01*
X60878169Y-45814800D02*
X60782931Y-45862419D01*
X60782931Y-45862419D02*
X60592455Y-45862419D01*
X60592455Y-45862419D02*
X60497217Y-45814800D01*
X60497217Y-45814800D02*
X60449598Y-45719561D01*
X60449598Y-45719561D02*
X60449598Y-45338609D01*
X60449598Y-45338609D02*
X60497217Y-45243371D01*
X60497217Y-45243371D02*
X60592455Y-45195752D01*
X60592455Y-45195752D02*
X60782931Y-45195752D01*
X60782931Y-45195752D02*
X60878169Y-45243371D01*
X60878169Y-45243371D02*
X60925788Y-45338609D01*
X60925788Y-45338609D02*
X60925788Y-45433847D01*
X60925788Y-45433847D02*
X60449598Y-45529085D01*
X61306741Y-44957657D02*
X61354360Y-44910038D01*
X61354360Y-44910038D02*
X61449598Y-44862419D01*
X61449598Y-44862419D02*
X61687693Y-44862419D01*
X61687693Y-44862419D02*
X61782931Y-44910038D01*
X61782931Y-44910038D02*
X61830550Y-44957657D01*
X61830550Y-44957657D02*
X61878169Y-45052895D01*
X61878169Y-45052895D02*
X61878169Y-45148133D01*
X61878169Y-45148133D02*
X61830550Y-45290990D01*
X61830550Y-45290990D02*
X61259122Y-45862419D01*
X61259122Y-45862419D02*
X61878169Y-45862419D01*
X73518148Y-45866684D02*
X73518148Y-44866684D01*
X73518148Y-44866684D02*
X73851481Y-45580969D01*
X73851481Y-45580969D02*
X74184814Y-44866684D01*
X74184814Y-44866684D02*
X74184814Y-45866684D01*
X75089576Y-45866684D02*
X75089576Y-45342874D01*
X75089576Y-45342874D02*
X75041957Y-45247636D01*
X75041957Y-45247636D02*
X74946719Y-45200017D01*
X74946719Y-45200017D02*
X74756243Y-45200017D01*
X74756243Y-45200017D02*
X74661005Y-45247636D01*
X75089576Y-45819065D02*
X74994338Y-45866684D01*
X74994338Y-45866684D02*
X74756243Y-45866684D01*
X74756243Y-45866684D02*
X74661005Y-45819065D01*
X74661005Y-45819065D02*
X74613386Y-45723826D01*
X74613386Y-45723826D02*
X74613386Y-45628588D01*
X74613386Y-45628588D02*
X74661005Y-45533350D01*
X74661005Y-45533350D02*
X74756243Y-45485731D01*
X74756243Y-45485731D02*
X74994338Y-45485731D01*
X74994338Y-45485731D02*
X75089576Y-45438112D01*
X75994338Y-45200017D02*
X75994338Y-46009541D01*
X75994338Y-46009541D02*
X75946719Y-46104779D01*
X75946719Y-46104779D02*
X75899100Y-46152398D01*
X75899100Y-46152398D02*
X75803862Y-46200017D01*
X75803862Y-46200017D02*
X75661005Y-46200017D01*
X75661005Y-46200017D02*
X75565767Y-46152398D01*
X75994338Y-45819065D02*
X75899100Y-45866684D01*
X75899100Y-45866684D02*
X75708624Y-45866684D01*
X75708624Y-45866684D02*
X75613386Y-45819065D01*
X75613386Y-45819065D02*
X75565767Y-45771445D01*
X75565767Y-45771445D02*
X75518148Y-45676207D01*
X75518148Y-45676207D02*
X75518148Y-45390493D01*
X75518148Y-45390493D02*
X75565767Y-45295255D01*
X75565767Y-45295255D02*
X75613386Y-45247636D01*
X75613386Y-45247636D02*
X75708624Y-45200017D01*
X75708624Y-45200017D02*
X75899100Y-45200017D01*
X75899100Y-45200017D02*
X75994338Y-45247636D01*
X76899100Y-45200017D02*
X76899100Y-46009541D01*
X76899100Y-46009541D02*
X76851481Y-46104779D01*
X76851481Y-46104779D02*
X76803862Y-46152398D01*
X76803862Y-46152398D02*
X76708624Y-46200017D01*
X76708624Y-46200017D02*
X76565767Y-46200017D01*
X76565767Y-46200017D02*
X76470529Y-46152398D01*
X76899100Y-45819065D02*
X76803862Y-45866684D01*
X76803862Y-45866684D02*
X76613386Y-45866684D01*
X76613386Y-45866684D02*
X76518148Y-45819065D01*
X76518148Y-45819065D02*
X76470529Y-45771445D01*
X76470529Y-45771445D02*
X76422910Y-45676207D01*
X76422910Y-45676207D02*
X76422910Y-45390493D01*
X76422910Y-45390493D02*
X76470529Y-45295255D01*
X76470529Y-45295255D02*
X76518148Y-45247636D01*
X76518148Y-45247636D02*
X76613386Y-45200017D01*
X76613386Y-45200017D02*
X76803862Y-45200017D01*
X76803862Y-45200017D02*
X76899100Y-45247636D01*
X77375291Y-45866684D02*
X77375291Y-45200017D01*
X77375291Y-44866684D02*
X77327672Y-44914303D01*
X77327672Y-44914303D02*
X77375291Y-44961922D01*
X77375291Y-44961922D02*
X77422910Y-44914303D01*
X77422910Y-44914303D02*
X77375291Y-44866684D01*
X77375291Y-44866684D02*
X77375291Y-44961922D01*
X78232433Y-45819065D02*
X78137195Y-45866684D01*
X78137195Y-45866684D02*
X77946719Y-45866684D01*
X77946719Y-45866684D02*
X77851481Y-45819065D01*
X77851481Y-45819065D02*
X77803862Y-45723826D01*
X77803862Y-45723826D02*
X77803862Y-45342874D01*
X77803862Y-45342874D02*
X77851481Y-45247636D01*
X77851481Y-45247636D02*
X77946719Y-45200017D01*
X77946719Y-45200017D02*
X78137195Y-45200017D01*
X78137195Y-45200017D02*
X78232433Y-45247636D01*
X78232433Y-45247636D02*
X78280052Y-45342874D01*
X78280052Y-45342874D02*
X78280052Y-45438112D01*
X78280052Y-45438112D02*
X77803862Y-45533350D01*
X78661005Y-44961922D02*
X78708624Y-44914303D01*
X78708624Y-44914303D02*
X78803862Y-44866684D01*
X78803862Y-44866684D02*
X79041957Y-44866684D01*
X79041957Y-44866684D02*
X79137195Y-44914303D01*
X79137195Y-44914303D02*
X79184814Y-44961922D01*
X79184814Y-44961922D02*
X79232433Y-45057160D01*
X79232433Y-45057160D02*
X79232433Y-45152398D01*
X79232433Y-45152398D02*
X79184814Y-45295255D01*
X79184814Y-45295255D02*
X78613386Y-45866684D01*
X78613386Y-45866684D02*
X79232433Y-45866684D01*
X19724718Y-51584265D02*
G75*
G02*
X19503810Y-51584265I-110454J0D01*
G01*
X19503810Y-51584265D02*
G75*
G02*
X19724718Y-51584265I110454J0D01*
G01*
X21488148Y-45846684D02*
X21488148Y-44846684D01*
X21488148Y-44846684D02*
X21821481Y-45560969D01*
X21821481Y-45560969D02*
X22154814Y-44846684D01*
X22154814Y-44846684D02*
X22154814Y-45846684D01*
X23059576Y-45846684D02*
X23059576Y-45322874D01*
X23059576Y-45322874D02*
X23011957Y-45227636D01*
X23011957Y-45227636D02*
X22916719Y-45180017D01*
X22916719Y-45180017D02*
X22726243Y-45180017D01*
X22726243Y-45180017D02*
X22631005Y-45227636D01*
X23059576Y-45799065D02*
X22964338Y-45846684D01*
X22964338Y-45846684D02*
X22726243Y-45846684D01*
X22726243Y-45846684D02*
X22631005Y-45799065D01*
X22631005Y-45799065D02*
X22583386Y-45703826D01*
X22583386Y-45703826D02*
X22583386Y-45608588D01*
X22583386Y-45608588D02*
X22631005Y-45513350D01*
X22631005Y-45513350D02*
X22726243Y-45465731D01*
X22726243Y-45465731D02*
X22964338Y-45465731D01*
X22964338Y-45465731D02*
X23059576Y-45418112D01*
X23964338Y-45180017D02*
X23964338Y-45989541D01*
X23964338Y-45989541D02*
X23916719Y-46084779D01*
X23916719Y-46084779D02*
X23869100Y-46132398D01*
X23869100Y-46132398D02*
X23773862Y-46180017D01*
X23773862Y-46180017D02*
X23631005Y-46180017D01*
X23631005Y-46180017D02*
X23535767Y-46132398D01*
X23964338Y-45799065D02*
X23869100Y-45846684D01*
X23869100Y-45846684D02*
X23678624Y-45846684D01*
X23678624Y-45846684D02*
X23583386Y-45799065D01*
X23583386Y-45799065D02*
X23535767Y-45751445D01*
X23535767Y-45751445D02*
X23488148Y-45656207D01*
X23488148Y-45656207D02*
X23488148Y-45370493D01*
X23488148Y-45370493D02*
X23535767Y-45275255D01*
X23535767Y-45275255D02*
X23583386Y-45227636D01*
X23583386Y-45227636D02*
X23678624Y-45180017D01*
X23678624Y-45180017D02*
X23869100Y-45180017D01*
X23869100Y-45180017D02*
X23964338Y-45227636D01*
X24869100Y-45180017D02*
X24869100Y-45989541D01*
X24869100Y-45989541D02*
X24821481Y-46084779D01*
X24821481Y-46084779D02*
X24773862Y-46132398D01*
X24773862Y-46132398D02*
X24678624Y-46180017D01*
X24678624Y-46180017D02*
X24535767Y-46180017D01*
X24535767Y-46180017D02*
X24440529Y-46132398D01*
X24869100Y-45799065D02*
X24773862Y-45846684D01*
X24773862Y-45846684D02*
X24583386Y-45846684D01*
X24583386Y-45846684D02*
X24488148Y-45799065D01*
X24488148Y-45799065D02*
X24440529Y-45751445D01*
X24440529Y-45751445D02*
X24392910Y-45656207D01*
X24392910Y-45656207D02*
X24392910Y-45370493D01*
X24392910Y-45370493D02*
X24440529Y-45275255D01*
X24440529Y-45275255D02*
X24488148Y-45227636D01*
X24488148Y-45227636D02*
X24583386Y-45180017D01*
X24583386Y-45180017D02*
X24773862Y-45180017D01*
X24773862Y-45180017D02*
X24869100Y-45227636D01*
X25345291Y-45846684D02*
X25345291Y-45180017D01*
X25345291Y-44846684D02*
X25297672Y-44894303D01*
X25297672Y-44894303D02*
X25345291Y-44941922D01*
X25345291Y-44941922D02*
X25392910Y-44894303D01*
X25392910Y-44894303D02*
X25345291Y-44846684D01*
X25345291Y-44846684D02*
X25345291Y-44941922D01*
X26202433Y-45799065D02*
X26107195Y-45846684D01*
X26107195Y-45846684D02*
X25916719Y-45846684D01*
X25916719Y-45846684D02*
X25821481Y-45799065D01*
X25821481Y-45799065D02*
X25773862Y-45703826D01*
X25773862Y-45703826D02*
X25773862Y-45322874D01*
X25773862Y-45322874D02*
X25821481Y-45227636D01*
X25821481Y-45227636D02*
X25916719Y-45180017D01*
X25916719Y-45180017D02*
X26107195Y-45180017D01*
X26107195Y-45180017D02*
X26202433Y-45227636D01*
X26202433Y-45227636D02*
X26250052Y-45322874D01*
X26250052Y-45322874D02*
X26250052Y-45418112D01*
X26250052Y-45418112D02*
X25773862Y-45513350D01*
X26631005Y-44941922D02*
X26678624Y-44894303D01*
X26678624Y-44894303D02*
X26773862Y-44846684D01*
X26773862Y-44846684D02*
X27011957Y-44846684D01*
X27011957Y-44846684D02*
X27107195Y-44894303D01*
X27107195Y-44894303D02*
X27154814Y-44941922D01*
X27154814Y-44941922D02*
X27202433Y-45037160D01*
X27202433Y-45037160D02*
X27202433Y-45132398D01*
X27202433Y-45132398D02*
X27154814Y-45275255D01*
X27154814Y-45275255D02*
X26583386Y-45846684D01*
X26583386Y-45846684D02*
X27202433Y-45846684D01*
X71670454Y-21100000D02*
G75*
G02*
X71449546Y-21100000I-110454J0D01*
G01*
X71449546Y-21100000D02*
G75*
G02*
X71670454Y-21100000I110454J0D01*
G01*
X73433884Y-15362419D02*
X73433884Y-14362419D01*
X73433884Y-14362419D02*
X73767217Y-15076704D01*
X73767217Y-15076704D02*
X74100550Y-14362419D01*
X74100550Y-14362419D02*
X74100550Y-15362419D01*
X75005312Y-15362419D02*
X75005312Y-14838609D01*
X75005312Y-14838609D02*
X74957693Y-14743371D01*
X74957693Y-14743371D02*
X74862455Y-14695752D01*
X74862455Y-14695752D02*
X74671979Y-14695752D01*
X74671979Y-14695752D02*
X74576741Y-14743371D01*
X75005312Y-15314800D02*
X74910074Y-15362419D01*
X74910074Y-15362419D02*
X74671979Y-15362419D01*
X74671979Y-15362419D02*
X74576741Y-15314800D01*
X74576741Y-15314800D02*
X74529122Y-15219561D01*
X74529122Y-15219561D02*
X74529122Y-15124323D01*
X74529122Y-15124323D02*
X74576741Y-15029085D01*
X74576741Y-15029085D02*
X74671979Y-14981466D01*
X74671979Y-14981466D02*
X74910074Y-14981466D01*
X74910074Y-14981466D02*
X75005312Y-14933847D01*
X75910074Y-14695752D02*
X75910074Y-15505276D01*
X75910074Y-15505276D02*
X75862455Y-15600514D01*
X75862455Y-15600514D02*
X75814836Y-15648133D01*
X75814836Y-15648133D02*
X75719598Y-15695752D01*
X75719598Y-15695752D02*
X75576741Y-15695752D01*
X75576741Y-15695752D02*
X75481503Y-15648133D01*
X75910074Y-15314800D02*
X75814836Y-15362419D01*
X75814836Y-15362419D02*
X75624360Y-15362419D01*
X75624360Y-15362419D02*
X75529122Y-15314800D01*
X75529122Y-15314800D02*
X75481503Y-15267180D01*
X75481503Y-15267180D02*
X75433884Y-15171942D01*
X75433884Y-15171942D02*
X75433884Y-14886228D01*
X75433884Y-14886228D02*
X75481503Y-14790990D01*
X75481503Y-14790990D02*
X75529122Y-14743371D01*
X75529122Y-14743371D02*
X75624360Y-14695752D01*
X75624360Y-14695752D02*
X75814836Y-14695752D01*
X75814836Y-14695752D02*
X75910074Y-14743371D01*
X76814836Y-14695752D02*
X76814836Y-15505276D01*
X76814836Y-15505276D02*
X76767217Y-15600514D01*
X76767217Y-15600514D02*
X76719598Y-15648133D01*
X76719598Y-15648133D02*
X76624360Y-15695752D01*
X76624360Y-15695752D02*
X76481503Y-15695752D01*
X76481503Y-15695752D02*
X76386265Y-15648133D01*
X76814836Y-15314800D02*
X76719598Y-15362419D01*
X76719598Y-15362419D02*
X76529122Y-15362419D01*
X76529122Y-15362419D02*
X76433884Y-15314800D01*
X76433884Y-15314800D02*
X76386265Y-15267180D01*
X76386265Y-15267180D02*
X76338646Y-15171942D01*
X76338646Y-15171942D02*
X76338646Y-14886228D01*
X76338646Y-14886228D02*
X76386265Y-14790990D01*
X76386265Y-14790990D02*
X76433884Y-14743371D01*
X76433884Y-14743371D02*
X76529122Y-14695752D01*
X76529122Y-14695752D02*
X76719598Y-14695752D01*
X76719598Y-14695752D02*
X76814836Y-14743371D01*
X77291027Y-15362419D02*
X77291027Y-14695752D01*
X77291027Y-14362419D02*
X77243408Y-14410038D01*
X77243408Y-14410038D02*
X77291027Y-14457657D01*
X77291027Y-14457657D02*
X77338646Y-14410038D01*
X77338646Y-14410038D02*
X77291027Y-14362419D01*
X77291027Y-14362419D02*
X77291027Y-14457657D01*
X78148169Y-15314800D02*
X78052931Y-15362419D01*
X78052931Y-15362419D02*
X77862455Y-15362419D01*
X77862455Y-15362419D02*
X77767217Y-15314800D01*
X77767217Y-15314800D02*
X77719598Y-15219561D01*
X77719598Y-15219561D02*
X77719598Y-14838609D01*
X77719598Y-14838609D02*
X77767217Y-14743371D01*
X77767217Y-14743371D02*
X77862455Y-14695752D01*
X77862455Y-14695752D02*
X78052931Y-14695752D01*
X78052931Y-14695752D02*
X78148169Y-14743371D01*
X78148169Y-14743371D02*
X78195788Y-14838609D01*
X78195788Y-14838609D02*
X78195788Y-14933847D01*
X78195788Y-14933847D02*
X77719598Y-15029085D01*
X78576741Y-14457657D02*
X78624360Y-14410038D01*
X78624360Y-14410038D02*
X78719598Y-14362419D01*
X78719598Y-14362419D02*
X78957693Y-14362419D01*
X78957693Y-14362419D02*
X79052931Y-14410038D01*
X79052931Y-14410038D02*
X79100550Y-14457657D01*
X79100550Y-14457657D02*
X79148169Y-14552895D01*
X79148169Y-14552895D02*
X79148169Y-14648133D01*
X79148169Y-14648133D02*
X79100550Y-14790990D01*
X79100550Y-14790990D02*
X78529122Y-15362419D01*
X78529122Y-15362419D02*
X79148169Y-15362419D01*
X54316190Y-21095735D02*
G75*
G02*
X54095282Y-21095735I-110454J0D01*
G01*
X54095282Y-21095735D02*
G75*
G02*
X54316190Y-21095735I110454J0D01*
G01*
X56079620Y-15358154D02*
X56079620Y-14358154D01*
X56079620Y-14358154D02*
X56412953Y-15072439D01*
X56412953Y-15072439D02*
X56746286Y-14358154D01*
X56746286Y-14358154D02*
X56746286Y-15358154D01*
X57651048Y-15358154D02*
X57651048Y-14834344D01*
X57651048Y-14834344D02*
X57603429Y-14739106D01*
X57603429Y-14739106D02*
X57508191Y-14691487D01*
X57508191Y-14691487D02*
X57317715Y-14691487D01*
X57317715Y-14691487D02*
X57222477Y-14739106D01*
X57651048Y-15310535D02*
X57555810Y-15358154D01*
X57555810Y-15358154D02*
X57317715Y-15358154D01*
X57317715Y-15358154D02*
X57222477Y-15310535D01*
X57222477Y-15310535D02*
X57174858Y-15215296D01*
X57174858Y-15215296D02*
X57174858Y-15120058D01*
X57174858Y-15120058D02*
X57222477Y-15024820D01*
X57222477Y-15024820D02*
X57317715Y-14977201D01*
X57317715Y-14977201D02*
X57555810Y-14977201D01*
X57555810Y-14977201D02*
X57651048Y-14929582D01*
X58555810Y-14691487D02*
X58555810Y-15501011D01*
X58555810Y-15501011D02*
X58508191Y-15596249D01*
X58508191Y-15596249D02*
X58460572Y-15643868D01*
X58460572Y-15643868D02*
X58365334Y-15691487D01*
X58365334Y-15691487D02*
X58222477Y-15691487D01*
X58222477Y-15691487D02*
X58127239Y-15643868D01*
X58555810Y-15310535D02*
X58460572Y-15358154D01*
X58460572Y-15358154D02*
X58270096Y-15358154D01*
X58270096Y-15358154D02*
X58174858Y-15310535D01*
X58174858Y-15310535D02*
X58127239Y-15262915D01*
X58127239Y-15262915D02*
X58079620Y-15167677D01*
X58079620Y-15167677D02*
X58079620Y-14881963D01*
X58079620Y-14881963D02*
X58127239Y-14786725D01*
X58127239Y-14786725D02*
X58174858Y-14739106D01*
X58174858Y-14739106D02*
X58270096Y-14691487D01*
X58270096Y-14691487D02*
X58460572Y-14691487D01*
X58460572Y-14691487D02*
X58555810Y-14739106D01*
X59460572Y-14691487D02*
X59460572Y-15501011D01*
X59460572Y-15501011D02*
X59412953Y-15596249D01*
X59412953Y-15596249D02*
X59365334Y-15643868D01*
X59365334Y-15643868D02*
X59270096Y-15691487D01*
X59270096Y-15691487D02*
X59127239Y-15691487D01*
X59127239Y-15691487D02*
X59032001Y-15643868D01*
X59460572Y-15310535D02*
X59365334Y-15358154D01*
X59365334Y-15358154D02*
X59174858Y-15358154D01*
X59174858Y-15358154D02*
X59079620Y-15310535D01*
X59079620Y-15310535D02*
X59032001Y-15262915D01*
X59032001Y-15262915D02*
X58984382Y-15167677D01*
X58984382Y-15167677D02*
X58984382Y-14881963D01*
X58984382Y-14881963D02*
X59032001Y-14786725D01*
X59032001Y-14786725D02*
X59079620Y-14739106D01*
X59079620Y-14739106D02*
X59174858Y-14691487D01*
X59174858Y-14691487D02*
X59365334Y-14691487D01*
X59365334Y-14691487D02*
X59460572Y-14739106D01*
X59936763Y-15358154D02*
X59936763Y-14691487D01*
X59936763Y-14358154D02*
X59889144Y-14405773D01*
X59889144Y-14405773D02*
X59936763Y-14453392D01*
X59936763Y-14453392D02*
X59984382Y-14405773D01*
X59984382Y-14405773D02*
X59936763Y-14358154D01*
X59936763Y-14358154D02*
X59936763Y-14453392D01*
X60793905Y-15310535D02*
X60698667Y-15358154D01*
X60698667Y-15358154D02*
X60508191Y-15358154D01*
X60508191Y-15358154D02*
X60412953Y-15310535D01*
X60412953Y-15310535D02*
X60365334Y-15215296D01*
X60365334Y-15215296D02*
X60365334Y-14834344D01*
X60365334Y-14834344D02*
X60412953Y-14739106D01*
X60412953Y-14739106D02*
X60508191Y-14691487D01*
X60508191Y-14691487D02*
X60698667Y-14691487D01*
X60698667Y-14691487D02*
X60793905Y-14739106D01*
X60793905Y-14739106D02*
X60841524Y-14834344D01*
X60841524Y-14834344D02*
X60841524Y-14929582D01*
X60841524Y-14929582D02*
X60365334Y-15024820D01*
X61222477Y-14453392D02*
X61270096Y-14405773D01*
X61270096Y-14405773D02*
X61365334Y-14358154D01*
X61365334Y-14358154D02*
X61603429Y-14358154D01*
X61603429Y-14358154D02*
X61698667Y-14405773D01*
X61698667Y-14405773D02*
X61746286Y-14453392D01*
X61746286Y-14453392D02*
X61793905Y-14548630D01*
X61793905Y-14548630D02*
X61793905Y-14643868D01*
X61793905Y-14643868D02*
X61746286Y-14786725D01*
X61746286Y-14786725D02*
X61174858Y-15358154D01*
X61174858Y-15358154D02*
X61793905Y-15358154D01*
X36994718Y-21084265D02*
G75*
G02*
X36773810Y-21084265I-110454J0D01*
G01*
X36773810Y-21084265D02*
G75*
G02*
X36994718Y-21084265I110454J0D01*
G01*
X38758148Y-15346684D02*
X38758148Y-14346684D01*
X38758148Y-14346684D02*
X39091481Y-15060969D01*
X39091481Y-15060969D02*
X39424814Y-14346684D01*
X39424814Y-14346684D02*
X39424814Y-15346684D01*
X40329576Y-15346684D02*
X40329576Y-14822874D01*
X40329576Y-14822874D02*
X40281957Y-14727636D01*
X40281957Y-14727636D02*
X40186719Y-14680017D01*
X40186719Y-14680017D02*
X39996243Y-14680017D01*
X39996243Y-14680017D02*
X39901005Y-14727636D01*
X40329576Y-15299065D02*
X40234338Y-15346684D01*
X40234338Y-15346684D02*
X39996243Y-15346684D01*
X39996243Y-15346684D02*
X39901005Y-15299065D01*
X39901005Y-15299065D02*
X39853386Y-15203826D01*
X39853386Y-15203826D02*
X39853386Y-15108588D01*
X39853386Y-15108588D02*
X39901005Y-15013350D01*
X39901005Y-15013350D02*
X39996243Y-14965731D01*
X39996243Y-14965731D02*
X40234338Y-14965731D01*
X40234338Y-14965731D02*
X40329576Y-14918112D01*
X41234338Y-14680017D02*
X41234338Y-15489541D01*
X41234338Y-15489541D02*
X41186719Y-15584779D01*
X41186719Y-15584779D02*
X41139100Y-15632398D01*
X41139100Y-15632398D02*
X41043862Y-15680017D01*
X41043862Y-15680017D02*
X40901005Y-15680017D01*
X40901005Y-15680017D02*
X40805767Y-15632398D01*
X41234338Y-15299065D02*
X41139100Y-15346684D01*
X41139100Y-15346684D02*
X40948624Y-15346684D01*
X40948624Y-15346684D02*
X40853386Y-15299065D01*
X40853386Y-15299065D02*
X40805767Y-15251445D01*
X40805767Y-15251445D02*
X40758148Y-15156207D01*
X40758148Y-15156207D02*
X40758148Y-14870493D01*
X40758148Y-14870493D02*
X40805767Y-14775255D01*
X40805767Y-14775255D02*
X40853386Y-14727636D01*
X40853386Y-14727636D02*
X40948624Y-14680017D01*
X40948624Y-14680017D02*
X41139100Y-14680017D01*
X41139100Y-14680017D02*
X41234338Y-14727636D01*
X42139100Y-14680017D02*
X42139100Y-15489541D01*
X42139100Y-15489541D02*
X42091481Y-15584779D01*
X42091481Y-15584779D02*
X42043862Y-15632398D01*
X42043862Y-15632398D02*
X41948624Y-15680017D01*
X41948624Y-15680017D02*
X41805767Y-15680017D01*
X41805767Y-15680017D02*
X41710529Y-15632398D01*
X42139100Y-15299065D02*
X42043862Y-15346684D01*
X42043862Y-15346684D02*
X41853386Y-15346684D01*
X41853386Y-15346684D02*
X41758148Y-15299065D01*
X41758148Y-15299065D02*
X41710529Y-15251445D01*
X41710529Y-15251445D02*
X41662910Y-15156207D01*
X41662910Y-15156207D02*
X41662910Y-14870493D01*
X41662910Y-14870493D02*
X41710529Y-14775255D01*
X41710529Y-14775255D02*
X41758148Y-14727636D01*
X41758148Y-14727636D02*
X41853386Y-14680017D01*
X41853386Y-14680017D02*
X42043862Y-14680017D01*
X42043862Y-14680017D02*
X42139100Y-14727636D01*
X42615291Y-15346684D02*
X42615291Y-14680017D01*
X42615291Y-14346684D02*
X42567672Y-14394303D01*
X42567672Y-14394303D02*
X42615291Y-14441922D01*
X42615291Y-14441922D02*
X42662910Y-14394303D01*
X42662910Y-14394303D02*
X42615291Y-14346684D01*
X42615291Y-14346684D02*
X42615291Y-14441922D01*
X43472433Y-15299065D02*
X43377195Y-15346684D01*
X43377195Y-15346684D02*
X43186719Y-15346684D01*
X43186719Y-15346684D02*
X43091481Y-15299065D01*
X43091481Y-15299065D02*
X43043862Y-15203826D01*
X43043862Y-15203826D02*
X43043862Y-14822874D01*
X43043862Y-14822874D02*
X43091481Y-14727636D01*
X43091481Y-14727636D02*
X43186719Y-14680017D01*
X43186719Y-14680017D02*
X43377195Y-14680017D01*
X43377195Y-14680017D02*
X43472433Y-14727636D01*
X43472433Y-14727636D02*
X43520052Y-14822874D01*
X43520052Y-14822874D02*
X43520052Y-14918112D01*
X43520052Y-14918112D02*
X43043862Y-15013350D01*
X43901005Y-14441922D02*
X43948624Y-14394303D01*
X43948624Y-14394303D02*
X44043862Y-14346684D01*
X44043862Y-14346684D02*
X44281957Y-14346684D01*
X44281957Y-14346684D02*
X44377195Y-14394303D01*
X44377195Y-14394303D02*
X44424814Y-14441922D01*
X44424814Y-14441922D02*
X44472433Y-14537160D01*
X44472433Y-14537160D02*
X44472433Y-14632398D01*
X44472433Y-14632398D02*
X44424814Y-14775255D01*
X44424814Y-14775255D02*
X43853386Y-15346684D01*
X43853386Y-15346684D02*
X44472433Y-15346684D01*
X19640454Y-21080000D02*
G75*
G02*
X19419546Y-21080000I-110454J0D01*
G01*
X19419546Y-21080000D02*
G75*
G02*
X19640454Y-21080000I110454J0D01*
G01*
X21403884Y-15342419D02*
X21403884Y-14342419D01*
X21403884Y-14342419D02*
X21737217Y-15056704D01*
X21737217Y-15056704D02*
X22070550Y-14342419D01*
X22070550Y-14342419D02*
X22070550Y-15342419D01*
X22975312Y-15342419D02*
X22975312Y-14818609D01*
X22975312Y-14818609D02*
X22927693Y-14723371D01*
X22927693Y-14723371D02*
X22832455Y-14675752D01*
X22832455Y-14675752D02*
X22641979Y-14675752D01*
X22641979Y-14675752D02*
X22546741Y-14723371D01*
X22975312Y-15294800D02*
X22880074Y-15342419D01*
X22880074Y-15342419D02*
X22641979Y-15342419D01*
X22641979Y-15342419D02*
X22546741Y-15294800D01*
X22546741Y-15294800D02*
X22499122Y-15199561D01*
X22499122Y-15199561D02*
X22499122Y-15104323D01*
X22499122Y-15104323D02*
X22546741Y-15009085D01*
X22546741Y-15009085D02*
X22641979Y-14961466D01*
X22641979Y-14961466D02*
X22880074Y-14961466D01*
X22880074Y-14961466D02*
X22975312Y-14913847D01*
X23880074Y-14675752D02*
X23880074Y-15485276D01*
X23880074Y-15485276D02*
X23832455Y-15580514D01*
X23832455Y-15580514D02*
X23784836Y-15628133D01*
X23784836Y-15628133D02*
X23689598Y-15675752D01*
X23689598Y-15675752D02*
X23546741Y-15675752D01*
X23546741Y-15675752D02*
X23451503Y-15628133D01*
X23880074Y-15294800D02*
X23784836Y-15342419D01*
X23784836Y-15342419D02*
X23594360Y-15342419D01*
X23594360Y-15342419D02*
X23499122Y-15294800D01*
X23499122Y-15294800D02*
X23451503Y-15247180D01*
X23451503Y-15247180D02*
X23403884Y-15151942D01*
X23403884Y-15151942D02*
X23403884Y-14866228D01*
X23403884Y-14866228D02*
X23451503Y-14770990D01*
X23451503Y-14770990D02*
X23499122Y-14723371D01*
X23499122Y-14723371D02*
X23594360Y-14675752D01*
X23594360Y-14675752D02*
X23784836Y-14675752D01*
X23784836Y-14675752D02*
X23880074Y-14723371D01*
X24784836Y-14675752D02*
X24784836Y-15485276D01*
X24784836Y-15485276D02*
X24737217Y-15580514D01*
X24737217Y-15580514D02*
X24689598Y-15628133D01*
X24689598Y-15628133D02*
X24594360Y-15675752D01*
X24594360Y-15675752D02*
X24451503Y-15675752D01*
X24451503Y-15675752D02*
X24356265Y-15628133D01*
X24784836Y-15294800D02*
X24689598Y-15342419D01*
X24689598Y-15342419D02*
X24499122Y-15342419D01*
X24499122Y-15342419D02*
X24403884Y-15294800D01*
X24403884Y-15294800D02*
X24356265Y-15247180D01*
X24356265Y-15247180D02*
X24308646Y-15151942D01*
X24308646Y-15151942D02*
X24308646Y-14866228D01*
X24308646Y-14866228D02*
X24356265Y-14770990D01*
X24356265Y-14770990D02*
X24403884Y-14723371D01*
X24403884Y-14723371D02*
X24499122Y-14675752D01*
X24499122Y-14675752D02*
X24689598Y-14675752D01*
X24689598Y-14675752D02*
X24784836Y-14723371D01*
X25261027Y-15342419D02*
X25261027Y-14675752D01*
X25261027Y-14342419D02*
X25213408Y-14390038D01*
X25213408Y-14390038D02*
X25261027Y-14437657D01*
X25261027Y-14437657D02*
X25308646Y-14390038D01*
X25308646Y-14390038D02*
X25261027Y-14342419D01*
X25261027Y-14342419D02*
X25261027Y-14437657D01*
X26118169Y-15294800D02*
X26022931Y-15342419D01*
X26022931Y-15342419D02*
X25832455Y-15342419D01*
X25832455Y-15342419D02*
X25737217Y-15294800D01*
X25737217Y-15294800D02*
X25689598Y-15199561D01*
X25689598Y-15199561D02*
X25689598Y-14818609D01*
X25689598Y-14818609D02*
X25737217Y-14723371D01*
X25737217Y-14723371D02*
X25832455Y-14675752D01*
X25832455Y-14675752D02*
X26022931Y-14675752D01*
X26022931Y-14675752D02*
X26118169Y-14723371D01*
X26118169Y-14723371D02*
X26165788Y-14818609D01*
X26165788Y-14818609D02*
X26165788Y-14913847D01*
X26165788Y-14913847D02*
X25689598Y-15009085D01*
X26546741Y-14437657D02*
X26594360Y-14390038D01*
X26594360Y-14390038D02*
X26689598Y-14342419D01*
X26689598Y-14342419D02*
X26927693Y-14342419D01*
X26927693Y-14342419D02*
X27022931Y-14390038D01*
X27022931Y-14390038D02*
X27070550Y-14437657D01*
X27070550Y-14437657D02*
X27118169Y-14532895D01*
X27118169Y-14532895D02*
X27118169Y-14628133D01*
X27118169Y-14628133D02*
X27070550Y-14770990D01*
X27070550Y-14770990D02*
X26499122Y-15342419D01*
X26499122Y-15342419D02*
X27118169Y-15342419D01*
D11*
X15099083Y-56430931D02*
X14622892Y-56764264D01*
X15099083Y-57002359D02*
X14099083Y-57002359D01*
X14099083Y-57002359D02*
X14099083Y-56621407D01*
X14099083Y-56621407D02*
X14146702Y-56526169D01*
X14146702Y-56526169D02*
X14194321Y-56478550D01*
X14194321Y-56478550D02*
X14289559Y-56430931D01*
X14289559Y-56430931D02*
X14432416Y-56430931D01*
X14432416Y-56430931D02*
X14527654Y-56478550D01*
X14527654Y-56478550D02*
X14575273Y-56526169D01*
X14575273Y-56526169D02*
X14622892Y-56621407D01*
X14622892Y-56621407D02*
X14622892Y-57002359D01*
X14432416Y-55573788D02*
X15099083Y-55573788D01*
X14051464Y-55811883D02*
X14765749Y-56049978D01*
X14765749Y-56049978D02*
X14765749Y-55430931D01*
X24513844Y-49470931D02*
X24561464Y-49518550D01*
X24561464Y-49518550D02*
X24609083Y-49661407D01*
X24609083Y-49661407D02*
X24609083Y-49756645D01*
X24609083Y-49756645D02*
X24561464Y-49899502D01*
X24561464Y-49899502D02*
X24466225Y-49994740D01*
X24466225Y-49994740D02*
X24370987Y-50042359D01*
X24370987Y-50042359D02*
X24180511Y-50089978D01*
X24180511Y-50089978D02*
X24037654Y-50089978D01*
X24037654Y-50089978D02*
X23847178Y-50042359D01*
X23847178Y-50042359D02*
X23751940Y-49994740D01*
X23751940Y-49994740D02*
X23656702Y-49899502D01*
X23656702Y-49899502D02*
X23609083Y-49756645D01*
X23609083Y-49756645D02*
X23609083Y-49661407D01*
X23609083Y-49661407D02*
X23656702Y-49518550D01*
X23656702Y-49518550D02*
X23704321Y-49470931D01*
X24609083Y-48518550D02*
X24609083Y-49089978D01*
X24609083Y-48804264D02*
X23609083Y-48804264D01*
X23609083Y-48804264D02*
X23751940Y-48899502D01*
X23751940Y-48899502D02*
X23847178Y-48994740D01*
X23847178Y-48994740D02*
X23894797Y-49089978D01*
X17609083Y-56400931D02*
X17132892Y-56734264D01*
X17609083Y-56972359D02*
X16609083Y-56972359D01*
X16609083Y-56972359D02*
X16609083Y-56591407D01*
X16609083Y-56591407D02*
X16656702Y-56496169D01*
X16656702Y-56496169D02*
X16704321Y-56448550D01*
X16704321Y-56448550D02*
X16799559Y-56400931D01*
X16799559Y-56400931D02*
X16942416Y-56400931D01*
X16942416Y-56400931D02*
X17037654Y-56448550D01*
X17037654Y-56448550D02*
X17085273Y-56496169D01*
X17085273Y-56496169D02*
X17132892Y-56591407D01*
X17132892Y-56591407D02*
X17132892Y-56972359D01*
X16609083Y-56067597D02*
X16609083Y-55448550D01*
X16609083Y-55448550D02*
X16990035Y-55781883D01*
X16990035Y-55781883D02*
X16990035Y-55639026D01*
X16990035Y-55639026D02*
X17037654Y-55543788D01*
X17037654Y-55543788D02*
X17085273Y-55496169D01*
X17085273Y-55496169D02*
X17180511Y-55448550D01*
X17180511Y-55448550D02*
X17418606Y-55448550D01*
X17418606Y-55448550D02*
X17513844Y-55496169D01*
X17513844Y-55496169D02*
X17561464Y-55543788D01*
X17561464Y-55543788D02*
X17609083Y-55639026D01*
X17609083Y-55639026D02*
X17609083Y-55924740D01*
X17609083Y-55924740D02*
X17561464Y-56019978D01*
X17561464Y-56019978D02*
X17513844Y-56067597D01*
X16546168Y-50099445D02*
X16546168Y-49289922D01*
X16546168Y-49289922D02*
X16498549Y-49194684D01*
X16498549Y-49194684D02*
X16450930Y-49147065D01*
X16450930Y-49147065D02*
X16355692Y-49099445D01*
X16355692Y-49099445D02*
X16165216Y-49099445D01*
X16165216Y-49099445D02*
X16069978Y-49147065D01*
X16069978Y-49147065D02*
X16022359Y-49194684D01*
X16022359Y-49194684D02*
X15974740Y-49289922D01*
X15974740Y-49289922D02*
X15974740Y-50099445D01*
X14974740Y-49099445D02*
X15546168Y-49099445D01*
X15260454Y-49099445D02*
X15260454Y-50099445D01*
X15260454Y-50099445D02*
X15355692Y-49956588D01*
X15355692Y-49956588D02*
X15450930Y-49861350D01*
X15450930Y-49861350D02*
X15546168Y-49813731D01*
X20059083Y-56340931D02*
X19582892Y-56674264D01*
X20059083Y-56912359D02*
X19059083Y-56912359D01*
X19059083Y-56912359D02*
X19059083Y-56531407D01*
X19059083Y-56531407D02*
X19106702Y-56436169D01*
X19106702Y-56436169D02*
X19154321Y-56388550D01*
X19154321Y-56388550D02*
X19249559Y-56340931D01*
X19249559Y-56340931D02*
X19392416Y-56340931D01*
X19392416Y-56340931D02*
X19487654Y-56388550D01*
X19487654Y-56388550D02*
X19535273Y-56436169D01*
X19535273Y-56436169D02*
X19582892Y-56531407D01*
X19582892Y-56531407D02*
X19582892Y-56912359D01*
X20059083Y-55388550D02*
X20059083Y-55959978D01*
X20059083Y-55674264D02*
X19059083Y-55674264D01*
X19059083Y-55674264D02*
X19201940Y-55769502D01*
X19201940Y-55769502D02*
X19297178Y-55864740D01*
X19297178Y-55864740D02*
X19344797Y-55959978D01*
X69639083Y-56420931D02*
X69162892Y-56754264D01*
X69639083Y-56992359D02*
X68639083Y-56992359D01*
X68639083Y-56992359D02*
X68639083Y-56611407D01*
X68639083Y-56611407D02*
X68686702Y-56516169D01*
X68686702Y-56516169D02*
X68734321Y-56468550D01*
X68734321Y-56468550D02*
X68829559Y-56420931D01*
X68829559Y-56420931D02*
X68972416Y-56420931D01*
X68972416Y-56420931D02*
X69067654Y-56468550D01*
X69067654Y-56468550D02*
X69115273Y-56516169D01*
X69115273Y-56516169D02*
X69162892Y-56611407D01*
X69162892Y-56611407D02*
X69162892Y-56992359D01*
X68639083Y-56087597D02*
X68639083Y-55468550D01*
X68639083Y-55468550D02*
X69020035Y-55801883D01*
X69020035Y-55801883D02*
X69020035Y-55659026D01*
X69020035Y-55659026D02*
X69067654Y-55563788D01*
X69067654Y-55563788D02*
X69115273Y-55516169D01*
X69115273Y-55516169D02*
X69210511Y-55468550D01*
X69210511Y-55468550D02*
X69448606Y-55468550D01*
X69448606Y-55468550D02*
X69543844Y-55516169D01*
X69543844Y-55516169D02*
X69591464Y-55563788D01*
X69591464Y-55563788D02*
X69639083Y-55659026D01*
X69639083Y-55659026D02*
X69639083Y-55944740D01*
X69639083Y-55944740D02*
X69591464Y-56039978D01*
X69591464Y-56039978D02*
X69543844Y-56087597D01*
X54734819Y-56356666D02*
X54258628Y-56689999D01*
X54734819Y-56928094D02*
X53734819Y-56928094D01*
X53734819Y-56928094D02*
X53734819Y-56547142D01*
X53734819Y-56547142D02*
X53782438Y-56451904D01*
X53782438Y-56451904D02*
X53830057Y-56404285D01*
X53830057Y-56404285D02*
X53925295Y-56356666D01*
X53925295Y-56356666D02*
X54068152Y-56356666D01*
X54068152Y-56356666D02*
X54163390Y-56404285D01*
X54163390Y-56404285D02*
X54211009Y-56451904D01*
X54211009Y-56451904D02*
X54258628Y-56547142D01*
X54258628Y-56547142D02*
X54258628Y-56928094D01*
X54734819Y-55404285D02*
X54734819Y-55975713D01*
X54734819Y-55689999D02*
X53734819Y-55689999D01*
X53734819Y-55689999D02*
X53877676Y-55785237D01*
X53877676Y-55785237D02*
X53972914Y-55880475D01*
X53972914Y-55880475D02*
X54020533Y-55975713D01*
X52284819Y-56416666D02*
X51808628Y-56749999D01*
X52284819Y-56988094D02*
X51284819Y-56988094D01*
X51284819Y-56988094D02*
X51284819Y-56607142D01*
X51284819Y-56607142D02*
X51332438Y-56511904D01*
X51332438Y-56511904D02*
X51380057Y-56464285D01*
X51380057Y-56464285D02*
X51475295Y-56416666D01*
X51475295Y-56416666D02*
X51618152Y-56416666D01*
X51618152Y-56416666D02*
X51713390Y-56464285D01*
X51713390Y-56464285D02*
X51761009Y-56511904D01*
X51761009Y-56511904D02*
X51808628Y-56607142D01*
X51808628Y-56607142D02*
X51808628Y-56988094D01*
X51284819Y-56083332D02*
X51284819Y-55464285D01*
X51284819Y-55464285D02*
X51665771Y-55797618D01*
X51665771Y-55797618D02*
X51665771Y-55654761D01*
X51665771Y-55654761D02*
X51713390Y-55559523D01*
X51713390Y-55559523D02*
X51761009Y-55511904D01*
X51761009Y-55511904D02*
X51856247Y-55464285D01*
X51856247Y-55464285D02*
X52094342Y-55464285D01*
X52094342Y-55464285D02*
X52189580Y-55511904D01*
X52189580Y-55511904D02*
X52237200Y-55559523D01*
X52237200Y-55559523D02*
X52284819Y-55654761D01*
X52284819Y-55654761D02*
X52284819Y-55940475D01*
X52284819Y-55940475D02*
X52237200Y-56035713D01*
X52237200Y-56035713D02*
X52189580Y-56083332D01*
X76543844Y-49490931D02*
X76591464Y-49538550D01*
X76591464Y-49538550D02*
X76639083Y-49681407D01*
X76639083Y-49681407D02*
X76639083Y-49776645D01*
X76639083Y-49776645D02*
X76591464Y-49919502D01*
X76591464Y-49919502D02*
X76496225Y-50014740D01*
X76496225Y-50014740D02*
X76400987Y-50062359D01*
X76400987Y-50062359D02*
X76210511Y-50109978D01*
X76210511Y-50109978D02*
X76067654Y-50109978D01*
X76067654Y-50109978D02*
X75877178Y-50062359D01*
X75877178Y-50062359D02*
X75781940Y-50014740D01*
X75781940Y-50014740D02*
X75686702Y-49919502D01*
X75686702Y-49919502D02*
X75639083Y-49776645D01*
X75639083Y-49776645D02*
X75639083Y-49681407D01*
X75639083Y-49681407D02*
X75686702Y-49538550D01*
X75686702Y-49538550D02*
X75734321Y-49490931D01*
X76639083Y-48538550D02*
X76639083Y-49109978D01*
X76639083Y-48824264D02*
X75639083Y-48824264D01*
X75639083Y-48824264D02*
X75781940Y-48919502D01*
X75781940Y-48919502D02*
X75877178Y-49014740D01*
X75877178Y-49014740D02*
X75924797Y-49109978D01*
X59189580Y-49486666D02*
X59237200Y-49534285D01*
X59237200Y-49534285D02*
X59284819Y-49677142D01*
X59284819Y-49677142D02*
X59284819Y-49772380D01*
X59284819Y-49772380D02*
X59237200Y-49915237D01*
X59237200Y-49915237D02*
X59141961Y-50010475D01*
X59141961Y-50010475D02*
X59046723Y-50058094D01*
X59046723Y-50058094D02*
X58856247Y-50105713D01*
X58856247Y-50105713D02*
X58713390Y-50105713D01*
X58713390Y-50105713D02*
X58522914Y-50058094D01*
X58522914Y-50058094D02*
X58427676Y-50010475D01*
X58427676Y-50010475D02*
X58332438Y-49915237D01*
X58332438Y-49915237D02*
X58284819Y-49772380D01*
X58284819Y-49772380D02*
X58284819Y-49677142D01*
X58284819Y-49677142D02*
X58332438Y-49534285D01*
X58332438Y-49534285D02*
X58380057Y-49486666D01*
X59284819Y-48534285D02*
X59284819Y-49105713D01*
X59284819Y-48819999D02*
X58284819Y-48819999D01*
X58284819Y-48819999D02*
X58427676Y-48915237D01*
X58427676Y-48915237D02*
X58522914Y-49010475D01*
X58522914Y-49010475D02*
X58570533Y-49105713D01*
X49774819Y-56446666D02*
X49298628Y-56779999D01*
X49774819Y-57018094D02*
X48774819Y-57018094D01*
X48774819Y-57018094D02*
X48774819Y-56637142D01*
X48774819Y-56637142D02*
X48822438Y-56541904D01*
X48822438Y-56541904D02*
X48870057Y-56494285D01*
X48870057Y-56494285D02*
X48965295Y-56446666D01*
X48965295Y-56446666D02*
X49108152Y-56446666D01*
X49108152Y-56446666D02*
X49203390Y-56494285D01*
X49203390Y-56494285D02*
X49251009Y-56541904D01*
X49251009Y-56541904D02*
X49298628Y-56637142D01*
X49298628Y-56637142D02*
X49298628Y-57018094D01*
X49108152Y-55589523D02*
X49774819Y-55589523D01*
X48727200Y-55827618D02*
X49441485Y-56065713D01*
X49441485Y-56065713D02*
X49441485Y-55446666D01*
X51221904Y-50115180D02*
X51221904Y-49305657D01*
X51221904Y-49305657D02*
X51174285Y-49210419D01*
X51174285Y-49210419D02*
X51126666Y-49162800D01*
X51126666Y-49162800D02*
X51031428Y-49115180D01*
X51031428Y-49115180D02*
X50840952Y-49115180D01*
X50840952Y-49115180D02*
X50745714Y-49162800D01*
X50745714Y-49162800D02*
X50698095Y-49210419D01*
X50698095Y-49210419D02*
X50650476Y-49305657D01*
X50650476Y-49305657D02*
X50650476Y-50115180D01*
X49650476Y-49115180D02*
X50221904Y-49115180D01*
X49936190Y-49115180D02*
X49936190Y-50115180D01*
X49936190Y-50115180D02*
X50031428Y-49972323D01*
X50031428Y-49972323D02*
X50126666Y-49877085D01*
X50126666Y-49877085D02*
X50221904Y-49829466D01*
X57224819Y-56396666D02*
X56748628Y-56729999D01*
X57224819Y-56968094D02*
X56224819Y-56968094D01*
X56224819Y-56968094D02*
X56224819Y-56587142D01*
X56224819Y-56587142D02*
X56272438Y-56491904D01*
X56272438Y-56491904D02*
X56320057Y-56444285D01*
X56320057Y-56444285D02*
X56415295Y-56396666D01*
X56415295Y-56396666D02*
X56558152Y-56396666D01*
X56558152Y-56396666D02*
X56653390Y-56444285D01*
X56653390Y-56444285D02*
X56701009Y-56491904D01*
X56701009Y-56491904D02*
X56748628Y-56587142D01*
X56748628Y-56587142D02*
X56748628Y-56968094D01*
X56320057Y-56015713D02*
X56272438Y-55968094D01*
X56272438Y-55968094D02*
X56224819Y-55872856D01*
X56224819Y-55872856D02*
X56224819Y-55634761D01*
X56224819Y-55634761D02*
X56272438Y-55539523D01*
X56272438Y-55539523D02*
X56320057Y-55491904D01*
X56320057Y-55491904D02*
X56415295Y-55444285D01*
X56415295Y-55444285D02*
X56510533Y-55444285D01*
X56510533Y-55444285D02*
X56653390Y-55491904D01*
X56653390Y-55491904D02*
X57224819Y-56063332D01*
X57224819Y-56063332D02*
X57224819Y-55444285D01*
X68576168Y-50119445D02*
X68576168Y-49309922D01*
X68576168Y-49309922D02*
X68528549Y-49214684D01*
X68528549Y-49214684D02*
X68480930Y-49167065D01*
X68480930Y-49167065D02*
X68385692Y-49119445D01*
X68385692Y-49119445D02*
X68195216Y-49119445D01*
X68195216Y-49119445D02*
X68099978Y-49167065D01*
X68099978Y-49167065D02*
X68052359Y-49214684D01*
X68052359Y-49214684D02*
X68004740Y-49309922D01*
X68004740Y-49309922D02*
X68004740Y-50119445D01*
X67004740Y-49119445D02*
X67576168Y-49119445D01*
X67290454Y-49119445D02*
X67290454Y-50119445D01*
X67290454Y-50119445D02*
X67385692Y-49976588D01*
X67385692Y-49976588D02*
X67480930Y-49881350D01*
X67480930Y-49881350D02*
X67576168Y-49833731D01*
X60186666Y-48784819D02*
X60186666Y-49499104D01*
X60186666Y-49499104D02*
X60139047Y-49641961D01*
X60139047Y-49641961D02*
X60043809Y-49737200D01*
X60043809Y-49737200D02*
X59900952Y-49784819D01*
X59900952Y-49784819D02*
X59805714Y-49784819D01*
X61186666Y-49784819D02*
X60615238Y-49784819D01*
X60900952Y-49784819D02*
X60900952Y-48784819D01*
X60900952Y-48784819D02*
X60805714Y-48927676D01*
X60805714Y-48927676D02*
X60710476Y-49022914D01*
X60710476Y-49022914D02*
X60615238Y-49070533D01*
X41868108Y-49475196D02*
X41915728Y-49522815D01*
X41915728Y-49522815D02*
X41963347Y-49665672D01*
X41963347Y-49665672D02*
X41963347Y-49760910D01*
X41963347Y-49760910D02*
X41915728Y-49903767D01*
X41915728Y-49903767D02*
X41820489Y-49999005D01*
X41820489Y-49999005D02*
X41725251Y-50046624D01*
X41725251Y-50046624D02*
X41534775Y-50094243D01*
X41534775Y-50094243D02*
X41391918Y-50094243D01*
X41391918Y-50094243D02*
X41201442Y-50046624D01*
X41201442Y-50046624D02*
X41106204Y-49999005D01*
X41106204Y-49999005D02*
X41010966Y-49903767D01*
X41010966Y-49903767D02*
X40963347Y-49760910D01*
X40963347Y-49760910D02*
X40963347Y-49665672D01*
X40963347Y-49665672D02*
X41010966Y-49522815D01*
X41010966Y-49522815D02*
X41058585Y-49475196D01*
X41963347Y-48522815D02*
X41963347Y-49094243D01*
X41963347Y-48808529D02*
X40963347Y-48808529D01*
X40963347Y-48808529D02*
X41106204Y-48903767D01*
X41106204Y-48903767D02*
X41201442Y-48999005D01*
X41201442Y-48999005D02*
X41249061Y-49094243D01*
X34963347Y-56405196D02*
X34487156Y-56738529D01*
X34963347Y-56976624D02*
X33963347Y-56976624D01*
X33963347Y-56976624D02*
X33963347Y-56595672D01*
X33963347Y-56595672D02*
X34010966Y-56500434D01*
X34010966Y-56500434D02*
X34058585Y-56452815D01*
X34058585Y-56452815D02*
X34153823Y-56405196D01*
X34153823Y-56405196D02*
X34296680Y-56405196D01*
X34296680Y-56405196D02*
X34391918Y-56452815D01*
X34391918Y-56452815D02*
X34439537Y-56500434D01*
X34439537Y-56500434D02*
X34487156Y-56595672D01*
X34487156Y-56595672D02*
X34487156Y-56976624D01*
X33963347Y-56071862D02*
X33963347Y-55452815D01*
X33963347Y-55452815D02*
X34344299Y-55786148D01*
X34344299Y-55786148D02*
X34344299Y-55643291D01*
X34344299Y-55643291D02*
X34391918Y-55548053D01*
X34391918Y-55548053D02*
X34439537Y-55500434D01*
X34439537Y-55500434D02*
X34534775Y-55452815D01*
X34534775Y-55452815D02*
X34772870Y-55452815D01*
X34772870Y-55452815D02*
X34868108Y-55500434D01*
X34868108Y-55500434D02*
X34915728Y-55548053D01*
X34915728Y-55548053D02*
X34963347Y-55643291D01*
X34963347Y-55643291D02*
X34963347Y-55929005D01*
X34963347Y-55929005D02*
X34915728Y-56024243D01*
X34915728Y-56024243D02*
X34868108Y-56071862D01*
X39903347Y-56385196D02*
X39427156Y-56718529D01*
X39903347Y-56956624D02*
X38903347Y-56956624D01*
X38903347Y-56956624D02*
X38903347Y-56575672D01*
X38903347Y-56575672D02*
X38950966Y-56480434D01*
X38950966Y-56480434D02*
X38998585Y-56432815D01*
X38998585Y-56432815D02*
X39093823Y-56385196D01*
X39093823Y-56385196D02*
X39236680Y-56385196D01*
X39236680Y-56385196D02*
X39331918Y-56432815D01*
X39331918Y-56432815D02*
X39379537Y-56480434D01*
X39379537Y-56480434D02*
X39427156Y-56575672D01*
X39427156Y-56575672D02*
X39427156Y-56956624D01*
X38998585Y-56004243D02*
X38950966Y-55956624D01*
X38950966Y-55956624D02*
X38903347Y-55861386D01*
X38903347Y-55861386D02*
X38903347Y-55623291D01*
X38903347Y-55623291D02*
X38950966Y-55528053D01*
X38950966Y-55528053D02*
X38998585Y-55480434D01*
X38998585Y-55480434D02*
X39093823Y-55432815D01*
X39093823Y-55432815D02*
X39189061Y-55432815D01*
X39189061Y-55432815D02*
X39331918Y-55480434D01*
X39331918Y-55480434D02*
X39903347Y-56051862D01*
X39903347Y-56051862D02*
X39903347Y-55432815D01*
X42865194Y-48773349D02*
X42865194Y-49487634D01*
X42865194Y-49487634D02*
X42817575Y-49630491D01*
X42817575Y-49630491D02*
X42722337Y-49725730D01*
X42722337Y-49725730D02*
X42579480Y-49773349D01*
X42579480Y-49773349D02*
X42484242Y-49773349D01*
X43865194Y-49773349D02*
X43293766Y-49773349D01*
X43579480Y-49773349D02*
X43579480Y-48773349D01*
X43579480Y-48773349D02*
X43484242Y-48916206D01*
X43484242Y-48916206D02*
X43389004Y-49011444D01*
X43389004Y-49011444D02*
X43293766Y-49059063D01*
X37413347Y-56345196D02*
X36937156Y-56678529D01*
X37413347Y-56916624D02*
X36413347Y-56916624D01*
X36413347Y-56916624D02*
X36413347Y-56535672D01*
X36413347Y-56535672D02*
X36460966Y-56440434D01*
X36460966Y-56440434D02*
X36508585Y-56392815D01*
X36508585Y-56392815D02*
X36603823Y-56345196D01*
X36603823Y-56345196D02*
X36746680Y-56345196D01*
X36746680Y-56345196D02*
X36841918Y-56392815D01*
X36841918Y-56392815D02*
X36889537Y-56440434D01*
X36889537Y-56440434D02*
X36937156Y-56535672D01*
X36937156Y-56535672D02*
X36937156Y-56916624D01*
X37413347Y-55392815D02*
X37413347Y-55964243D01*
X37413347Y-55678529D02*
X36413347Y-55678529D01*
X36413347Y-55678529D02*
X36556204Y-55773767D01*
X36556204Y-55773767D02*
X36651442Y-55869005D01*
X36651442Y-55869005D02*
X36699061Y-55964243D01*
X32453347Y-56435196D02*
X31977156Y-56768529D01*
X32453347Y-57006624D02*
X31453347Y-57006624D01*
X31453347Y-57006624D02*
X31453347Y-56625672D01*
X31453347Y-56625672D02*
X31500966Y-56530434D01*
X31500966Y-56530434D02*
X31548585Y-56482815D01*
X31548585Y-56482815D02*
X31643823Y-56435196D01*
X31643823Y-56435196D02*
X31786680Y-56435196D01*
X31786680Y-56435196D02*
X31881918Y-56482815D01*
X31881918Y-56482815D02*
X31929537Y-56530434D01*
X31929537Y-56530434D02*
X31977156Y-56625672D01*
X31977156Y-56625672D02*
X31977156Y-57006624D01*
X31786680Y-55578053D02*
X32453347Y-55578053D01*
X31405728Y-55816148D02*
X32120013Y-56054243D01*
X32120013Y-56054243D02*
X32120013Y-55435196D01*
X33900432Y-50103710D02*
X33900432Y-49294187D01*
X33900432Y-49294187D02*
X33852813Y-49198949D01*
X33852813Y-49198949D02*
X33805194Y-49151330D01*
X33805194Y-49151330D02*
X33709956Y-49103710D01*
X33709956Y-49103710D02*
X33519480Y-49103710D01*
X33519480Y-49103710D02*
X33424242Y-49151330D01*
X33424242Y-49151330D02*
X33376623Y-49198949D01*
X33376623Y-49198949D02*
X33329004Y-49294187D01*
X33329004Y-49294187D02*
X33329004Y-50103710D01*
X32329004Y-49103710D02*
X32900432Y-49103710D01*
X32614718Y-49103710D02*
X32614718Y-50103710D01*
X32614718Y-50103710D02*
X32709956Y-49960853D01*
X32709956Y-49960853D02*
X32805194Y-49865615D01*
X32805194Y-49865615D02*
X32900432Y-49817996D01*
X67129083Y-56450931D02*
X66652892Y-56784264D01*
X67129083Y-57022359D02*
X66129083Y-57022359D01*
X66129083Y-57022359D02*
X66129083Y-56641407D01*
X66129083Y-56641407D02*
X66176702Y-56546169D01*
X66176702Y-56546169D02*
X66224321Y-56498550D01*
X66224321Y-56498550D02*
X66319559Y-56450931D01*
X66319559Y-56450931D02*
X66462416Y-56450931D01*
X66462416Y-56450931D02*
X66557654Y-56498550D01*
X66557654Y-56498550D02*
X66605273Y-56546169D01*
X66605273Y-56546169D02*
X66652892Y-56641407D01*
X66652892Y-56641407D02*
X66652892Y-57022359D01*
X66462416Y-55593788D02*
X67129083Y-55593788D01*
X66081464Y-55831883D02*
X66795749Y-56069978D01*
X66795749Y-56069978D02*
X66795749Y-55450931D01*
X72089083Y-56360931D02*
X71612892Y-56694264D01*
X72089083Y-56932359D02*
X71089083Y-56932359D01*
X71089083Y-56932359D02*
X71089083Y-56551407D01*
X71089083Y-56551407D02*
X71136702Y-56456169D01*
X71136702Y-56456169D02*
X71184321Y-56408550D01*
X71184321Y-56408550D02*
X71279559Y-56360931D01*
X71279559Y-56360931D02*
X71422416Y-56360931D01*
X71422416Y-56360931D02*
X71517654Y-56408550D01*
X71517654Y-56408550D02*
X71565273Y-56456169D01*
X71565273Y-56456169D02*
X71612892Y-56551407D01*
X71612892Y-56551407D02*
X71612892Y-56932359D01*
X72089083Y-55408550D02*
X72089083Y-55979978D01*
X72089083Y-55694264D02*
X71089083Y-55694264D01*
X71089083Y-55694264D02*
X71231940Y-55789502D01*
X71231940Y-55789502D02*
X71327178Y-55884740D01*
X71327178Y-55884740D02*
X71374797Y-55979978D01*
X77540930Y-48789084D02*
X77540930Y-49503369D01*
X77540930Y-49503369D02*
X77493311Y-49646226D01*
X77493311Y-49646226D02*
X77398073Y-49741465D01*
X77398073Y-49741465D02*
X77255216Y-49789084D01*
X77255216Y-49789084D02*
X77159978Y-49789084D01*
X78540930Y-49789084D02*
X77969502Y-49789084D01*
X78255216Y-49789084D02*
X78255216Y-48789084D01*
X78255216Y-48789084D02*
X78159978Y-48931941D01*
X78159978Y-48931941D02*
X78064740Y-49027179D01*
X78064740Y-49027179D02*
X77969502Y-49074798D01*
X74579083Y-56400931D02*
X74102892Y-56734264D01*
X74579083Y-56972359D02*
X73579083Y-56972359D01*
X73579083Y-56972359D02*
X73579083Y-56591407D01*
X73579083Y-56591407D02*
X73626702Y-56496169D01*
X73626702Y-56496169D02*
X73674321Y-56448550D01*
X73674321Y-56448550D02*
X73769559Y-56400931D01*
X73769559Y-56400931D02*
X73912416Y-56400931D01*
X73912416Y-56400931D02*
X74007654Y-56448550D01*
X74007654Y-56448550D02*
X74055273Y-56496169D01*
X74055273Y-56496169D02*
X74102892Y-56591407D01*
X74102892Y-56591407D02*
X74102892Y-56972359D01*
X73674321Y-56019978D02*
X73626702Y-55972359D01*
X73626702Y-55972359D02*
X73579083Y-55877121D01*
X73579083Y-55877121D02*
X73579083Y-55639026D01*
X73579083Y-55639026D02*
X73626702Y-55543788D01*
X73626702Y-55543788D02*
X73674321Y-55496169D01*
X73674321Y-55496169D02*
X73769559Y-55448550D01*
X73769559Y-55448550D02*
X73864797Y-55448550D01*
X73864797Y-55448550D02*
X74007654Y-55496169D01*
X74007654Y-55496169D02*
X74579083Y-56067597D01*
X74579083Y-56067597D02*
X74579083Y-55448550D01*
X22549083Y-56380931D02*
X22072892Y-56714264D01*
X22549083Y-56952359D02*
X21549083Y-56952359D01*
X21549083Y-56952359D02*
X21549083Y-56571407D01*
X21549083Y-56571407D02*
X21596702Y-56476169D01*
X21596702Y-56476169D02*
X21644321Y-56428550D01*
X21644321Y-56428550D02*
X21739559Y-56380931D01*
X21739559Y-56380931D02*
X21882416Y-56380931D01*
X21882416Y-56380931D02*
X21977654Y-56428550D01*
X21977654Y-56428550D02*
X22025273Y-56476169D01*
X22025273Y-56476169D02*
X22072892Y-56571407D01*
X22072892Y-56571407D02*
X22072892Y-56952359D01*
X21644321Y-55999978D02*
X21596702Y-55952359D01*
X21596702Y-55952359D02*
X21549083Y-55857121D01*
X21549083Y-55857121D02*
X21549083Y-55619026D01*
X21549083Y-55619026D02*
X21596702Y-55523788D01*
X21596702Y-55523788D02*
X21644321Y-55476169D01*
X21644321Y-55476169D02*
X21739559Y-55428550D01*
X21739559Y-55428550D02*
X21834797Y-55428550D01*
X21834797Y-55428550D02*
X21977654Y-55476169D01*
X21977654Y-55476169D02*
X22549083Y-56047597D01*
X22549083Y-56047597D02*
X22549083Y-55428550D01*
X25510930Y-48769084D02*
X25510930Y-49483369D01*
X25510930Y-49483369D02*
X25463311Y-49626226D01*
X25463311Y-49626226D02*
X25368073Y-49721465D01*
X25368073Y-49721465D02*
X25225216Y-49769084D01*
X25225216Y-49769084D02*
X25129978Y-49769084D01*
X26510930Y-49769084D02*
X25939502Y-49769084D01*
X26225216Y-49769084D02*
X26225216Y-48769084D01*
X26225216Y-48769084D02*
X26129978Y-48911941D01*
X26129978Y-48911941D02*
X26034740Y-49007179D01*
X26034740Y-49007179D02*
X25939502Y-49054798D01*
X49690555Y-25942401D02*
X49214364Y-26275734D01*
X49690555Y-26513829D02*
X48690555Y-26513829D01*
X48690555Y-26513829D02*
X48690555Y-26132877D01*
X48690555Y-26132877D02*
X48738174Y-26037639D01*
X48738174Y-26037639D02*
X48785793Y-25990020D01*
X48785793Y-25990020D02*
X48881031Y-25942401D01*
X48881031Y-25942401D02*
X49023888Y-25942401D01*
X49023888Y-25942401D02*
X49119126Y-25990020D01*
X49119126Y-25990020D02*
X49166745Y-26037639D01*
X49166745Y-26037639D02*
X49214364Y-26132877D01*
X49214364Y-26132877D02*
X49214364Y-26513829D01*
X49023888Y-25085258D02*
X49690555Y-25085258D01*
X48642936Y-25323353D02*
X49357221Y-25561448D01*
X49357221Y-25561448D02*
X49357221Y-24942401D01*
X59105316Y-18982401D02*
X59152936Y-19030020D01*
X59152936Y-19030020D02*
X59200555Y-19172877D01*
X59200555Y-19172877D02*
X59200555Y-19268115D01*
X59200555Y-19268115D02*
X59152936Y-19410972D01*
X59152936Y-19410972D02*
X59057697Y-19506210D01*
X59057697Y-19506210D02*
X58962459Y-19553829D01*
X58962459Y-19553829D02*
X58771983Y-19601448D01*
X58771983Y-19601448D02*
X58629126Y-19601448D01*
X58629126Y-19601448D02*
X58438650Y-19553829D01*
X58438650Y-19553829D02*
X58343412Y-19506210D01*
X58343412Y-19506210D02*
X58248174Y-19410972D01*
X58248174Y-19410972D02*
X58200555Y-19268115D01*
X58200555Y-19268115D02*
X58200555Y-19172877D01*
X58200555Y-19172877D02*
X58248174Y-19030020D01*
X58248174Y-19030020D02*
X58295793Y-18982401D01*
X59200555Y-18030020D02*
X59200555Y-18601448D01*
X59200555Y-18315734D02*
X58200555Y-18315734D01*
X58200555Y-18315734D02*
X58343412Y-18410972D01*
X58343412Y-18410972D02*
X58438650Y-18506210D01*
X58438650Y-18506210D02*
X58486269Y-18601448D01*
X52200555Y-25912401D02*
X51724364Y-26245734D01*
X52200555Y-26483829D02*
X51200555Y-26483829D01*
X51200555Y-26483829D02*
X51200555Y-26102877D01*
X51200555Y-26102877D02*
X51248174Y-26007639D01*
X51248174Y-26007639D02*
X51295793Y-25960020D01*
X51295793Y-25960020D02*
X51391031Y-25912401D01*
X51391031Y-25912401D02*
X51533888Y-25912401D01*
X51533888Y-25912401D02*
X51629126Y-25960020D01*
X51629126Y-25960020D02*
X51676745Y-26007639D01*
X51676745Y-26007639D02*
X51724364Y-26102877D01*
X51724364Y-26102877D02*
X51724364Y-26483829D01*
X51200555Y-25579067D02*
X51200555Y-24960020D01*
X51200555Y-24960020D02*
X51581507Y-25293353D01*
X51581507Y-25293353D02*
X51581507Y-25150496D01*
X51581507Y-25150496D02*
X51629126Y-25055258D01*
X51629126Y-25055258D02*
X51676745Y-25007639D01*
X51676745Y-25007639D02*
X51771983Y-24960020D01*
X51771983Y-24960020D02*
X52010078Y-24960020D01*
X52010078Y-24960020D02*
X52105316Y-25007639D01*
X52105316Y-25007639D02*
X52152936Y-25055258D01*
X52152936Y-25055258D02*
X52200555Y-25150496D01*
X52200555Y-25150496D02*
X52200555Y-25436210D01*
X52200555Y-25436210D02*
X52152936Y-25531448D01*
X52152936Y-25531448D02*
X52105316Y-25579067D01*
X51137640Y-19610915D02*
X51137640Y-18801392D01*
X51137640Y-18801392D02*
X51090021Y-18706154D01*
X51090021Y-18706154D02*
X51042402Y-18658535D01*
X51042402Y-18658535D02*
X50947164Y-18610915D01*
X50947164Y-18610915D02*
X50756688Y-18610915D01*
X50756688Y-18610915D02*
X50661450Y-18658535D01*
X50661450Y-18658535D02*
X50613831Y-18706154D01*
X50613831Y-18706154D02*
X50566212Y-18801392D01*
X50566212Y-18801392D02*
X50566212Y-19610915D01*
X49566212Y-18610915D02*
X50137640Y-18610915D01*
X49851926Y-18610915D02*
X49851926Y-19610915D01*
X49851926Y-19610915D02*
X49947164Y-19468058D01*
X49947164Y-19468058D02*
X50042402Y-19372820D01*
X50042402Y-19372820D02*
X50137640Y-19325201D01*
X54650555Y-25852401D02*
X54174364Y-26185734D01*
X54650555Y-26423829D02*
X53650555Y-26423829D01*
X53650555Y-26423829D02*
X53650555Y-26042877D01*
X53650555Y-26042877D02*
X53698174Y-25947639D01*
X53698174Y-25947639D02*
X53745793Y-25900020D01*
X53745793Y-25900020D02*
X53841031Y-25852401D01*
X53841031Y-25852401D02*
X53983888Y-25852401D01*
X53983888Y-25852401D02*
X54079126Y-25900020D01*
X54079126Y-25900020D02*
X54126745Y-25947639D01*
X54126745Y-25947639D02*
X54174364Y-26042877D01*
X54174364Y-26042877D02*
X54174364Y-26423829D01*
X54650555Y-24900020D02*
X54650555Y-25471448D01*
X54650555Y-25185734D02*
X53650555Y-25185734D01*
X53650555Y-25185734D02*
X53793412Y-25280972D01*
X53793412Y-25280972D02*
X53888650Y-25376210D01*
X53888650Y-25376210D02*
X53936269Y-25471448D01*
X76459580Y-18986666D02*
X76507200Y-19034285D01*
X76507200Y-19034285D02*
X76554819Y-19177142D01*
X76554819Y-19177142D02*
X76554819Y-19272380D01*
X76554819Y-19272380D02*
X76507200Y-19415237D01*
X76507200Y-19415237D02*
X76411961Y-19510475D01*
X76411961Y-19510475D02*
X76316723Y-19558094D01*
X76316723Y-19558094D02*
X76126247Y-19605713D01*
X76126247Y-19605713D02*
X75983390Y-19605713D01*
X75983390Y-19605713D02*
X75792914Y-19558094D01*
X75792914Y-19558094D02*
X75697676Y-19510475D01*
X75697676Y-19510475D02*
X75602438Y-19415237D01*
X75602438Y-19415237D02*
X75554819Y-19272380D01*
X75554819Y-19272380D02*
X75554819Y-19177142D01*
X75554819Y-19177142D02*
X75602438Y-19034285D01*
X75602438Y-19034285D02*
X75650057Y-18986666D01*
X76554819Y-18034285D02*
X76554819Y-18605713D01*
X76554819Y-18319999D02*
X75554819Y-18319999D01*
X75554819Y-18319999D02*
X75697676Y-18415237D01*
X75697676Y-18415237D02*
X75792914Y-18510475D01*
X75792914Y-18510475D02*
X75840533Y-18605713D01*
X69554819Y-25916666D02*
X69078628Y-26249999D01*
X69554819Y-26488094D02*
X68554819Y-26488094D01*
X68554819Y-26488094D02*
X68554819Y-26107142D01*
X68554819Y-26107142D02*
X68602438Y-26011904D01*
X68602438Y-26011904D02*
X68650057Y-25964285D01*
X68650057Y-25964285D02*
X68745295Y-25916666D01*
X68745295Y-25916666D02*
X68888152Y-25916666D01*
X68888152Y-25916666D02*
X68983390Y-25964285D01*
X68983390Y-25964285D02*
X69031009Y-26011904D01*
X69031009Y-26011904D02*
X69078628Y-26107142D01*
X69078628Y-26107142D02*
X69078628Y-26488094D01*
X68554819Y-25583332D02*
X68554819Y-24964285D01*
X68554819Y-24964285D02*
X68935771Y-25297618D01*
X68935771Y-25297618D02*
X68935771Y-25154761D01*
X68935771Y-25154761D02*
X68983390Y-25059523D01*
X68983390Y-25059523D02*
X69031009Y-25011904D01*
X69031009Y-25011904D02*
X69126247Y-24964285D01*
X69126247Y-24964285D02*
X69364342Y-24964285D01*
X69364342Y-24964285D02*
X69459580Y-25011904D01*
X69459580Y-25011904D02*
X69507200Y-25059523D01*
X69507200Y-25059523D02*
X69554819Y-25154761D01*
X69554819Y-25154761D02*
X69554819Y-25440475D01*
X69554819Y-25440475D02*
X69507200Y-25535713D01*
X69507200Y-25535713D02*
X69459580Y-25583332D01*
X74494819Y-25896666D02*
X74018628Y-26229999D01*
X74494819Y-26468094D02*
X73494819Y-26468094D01*
X73494819Y-26468094D02*
X73494819Y-26087142D01*
X73494819Y-26087142D02*
X73542438Y-25991904D01*
X73542438Y-25991904D02*
X73590057Y-25944285D01*
X73590057Y-25944285D02*
X73685295Y-25896666D01*
X73685295Y-25896666D02*
X73828152Y-25896666D01*
X73828152Y-25896666D02*
X73923390Y-25944285D01*
X73923390Y-25944285D02*
X73971009Y-25991904D01*
X73971009Y-25991904D02*
X74018628Y-26087142D01*
X74018628Y-26087142D02*
X74018628Y-26468094D01*
X73590057Y-25515713D02*
X73542438Y-25468094D01*
X73542438Y-25468094D02*
X73494819Y-25372856D01*
X73494819Y-25372856D02*
X73494819Y-25134761D01*
X73494819Y-25134761D02*
X73542438Y-25039523D01*
X73542438Y-25039523D02*
X73590057Y-24991904D01*
X73590057Y-24991904D02*
X73685295Y-24944285D01*
X73685295Y-24944285D02*
X73780533Y-24944285D01*
X73780533Y-24944285D02*
X73923390Y-24991904D01*
X73923390Y-24991904D02*
X74494819Y-25563332D01*
X74494819Y-25563332D02*
X74494819Y-24944285D01*
X77456666Y-18284819D02*
X77456666Y-18999104D01*
X77456666Y-18999104D02*
X77409047Y-19141961D01*
X77409047Y-19141961D02*
X77313809Y-19237200D01*
X77313809Y-19237200D02*
X77170952Y-19284819D01*
X77170952Y-19284819D02*
X77075714Y-19284819D01*
X78456666Y-19284819D02*
X77885238Y-19284819D01*
X78170952Y-19284819D02*
X78170952Y-18284819D01*
X78170952Y-18284819D02*
X78075714Y-18427676D01*
X78075714Y-18427676D02*
X77980476Y-18522914D01*
X77980476Y-18522914D02*
X77885238Y-18570533D01*
X72004819Y-25856666D02*
X71528628Y-26189999D01*
X72004819Y-26428094D02*
X71004819Y-26428094D01*
X71004819Y-26428094D02*
X71004819Y-26047142D01*
X71004819Y-26047142D02*
X71052438Y-25951904D01*
X71052438Y-25951904D02*
X71100057Y-25904285D01*
X71100057Y-25904285D02*
X71195295Y-25856666D01*
X71195295Y-25856666D02*
X71338152Y-25856666D01*
X71338152Y-25856666D02*
X71433390Y-25904285D01*
X71433390Y-25904285D02*
X71481009Y-25951904D01*
X71481009Y-25951904D02*
X71528628Y-26047142D01*
X71528628Y-26047142D02*
X71528628Y-26428094D01*
X72004819Y-24904285D02*
X72004819Y-25475713D01*
X72004819Y-25189999D02*
X71004819Y-25189999D01*
X71004819Y-25189999D02*
X71147676Y-25285237D01*
X71147676Y-25285237D02*
X71242914Y-25380475D01*
X71242914Y-25380475D02*
X71290533Y-25475713D01*
X67044819Y-25946666D02*
X66568628Y-26279999D01*
X67044819Y-26518094D02*
X66044819Y-26518094D01*
X66044819Y-26518094D02*
X66044819Y-26137142D01*
X66044819Y-26137142D02*
X66092438Y-26041904D01*
X66092438Y-26041904D02*
X66140057Y-25994285D01*
X66140057Y-25994285D02*
X66235295Y-25946666D01*
X66235295Y-25946666D02*
X66378152Y-25946666D01*
X66378152Y-25946666D02*
X66473390Y-25994285D01*
X66473390Y-25994285D02*
X66521009Y-26041904D01*
X66521009Y-26041904D02*
X66568628Y-26137142D01*
X66568628Y-26137142D02*
X66568628Y-26518094D01*
X66378152Y-25089523D02*
X67044819Y-25089523D01*
X65997200Y-25327618D02*
X66711485Y-25565713D01*
X66711485Y-25565713D02*
X66711485Y-24946666D01*
X68491904Y-19615180D02*
X68491904Y-18805657D01*
X68491904Y-18805657D02*
X68444285Y-18710419D01*
X68444285Y-18710419D02*
X68396666Y-18662800D01*
X68396666Y-18662800D02*
X68301428Y-18615180D01*
X68301428Y-18615180D02*
X68110952Y-18615180D01*
X68110952Y-18615180D02*
X68015714Y-18662800D01*
X68015714Y-18662800D02*
X67968095Y-18710419D01*
X67968095Y-18710419D02*
X67920476Y-18805657D01*
X67920476Y-18805657D02*
X67920476Y-19615180D01*
X66920476Y-18615180D02*
X67491904Y-18615180D01*
X67206190Y-18615180D02*
X67206190Y-19615180D01*
X67206190Y-19615180D02*
X67301428Y-19472323D01*
X67301428Y-19472323D02*
X67396666Y-19377085D01*
X67396666Y-19377085D02*
X67491904Y-19329466D01*
X57140555Y-25892401D02*
X56664364Y-26225734D01*
X57140555Y-26463829D02*
X56140555Y-26463829D01*
X56140555Y-26463829D02*
X56140555Y-26082877D01*
X56140555Y-26082877D02*
X56188174Y-25987639D01*
X56188174Y-25987639D02*
X56235793Y-25940020D01*
X56235793Y-25940020D02*
X56331031Y-25892401D01*
X56331031Y-25892401D02*
X56473888Y-25892401D01*
X56473888Y-25892401D02*
X56569126Y-25940020D01*
X56569126Y-25940020D02*
X56616745Y-25987639D01*
X56616745Y-25987639D02*
X56664364Y-26082877D01*
X56664364Y-26082877D02*
X56664364Y-26463829D01*
X56235793Y-25511448D02*
X56188174Y-25463829D01*
X56188174Y-25463829D02*
X56140555Y-25368591D01*
X56140555Y-25368591D02*
X56140555Y-25130496D01*
X56140555Y-25130496D02*
X56188174Y-25035258D01*
X56188174Y-25035258D02*
X56235793Y-24987639D01*
X56235793Y-24987639D02*
X56331031Y-24940020D01*
X56331031Y-24940020D02*
X56426269Y-24940020D01*
X56426269Y-24940020D02*
X56569126Y-24987639D01*
X56569126Y-24987639D02*
X57140555Y-25559067D01*
X57140555Y-25559067D02*
X57140555Y-24940020D01*
X60102402Y-18280554D02*
X60102402Y-18994839D01*
X60102402Y-18994839D02*
X60054783Y-19137696D01*
X60054783Y-19137696D02*
X59959545Y-19232935D01*
X59959545Y-19232935D02*
X59816688Y-19280554D01*
X59816688Y-19280554D02*
X59721450Y-19280554D01*
X61102402Y-19280554D02*
X60530974Y-19280554D01*
X60816688Y-19280554D02*
X60816688Y-18280554D01*
X60816688Y-18280554D02*
X60721450Y-18423411D01*
X60721450Y-18423411D02*
X60626212Y-18518649D01*
X60626212Y-18518649D02*
X60530974Y-18566268D01*
X32369083Y-25930931D02*
X31892892Y-26264264D01*
X32369083Y-26502359D02*
X31369083Y-26502359D01*
X31369083Y-26502359D02*
X31369083Y-26121407D01*
X31369083Y-26121407D02*
X31416702Y-26026169D01*
X31416702Y-26026169D02*
X31464321Y-25978550D01*
X31464321Y-25978550D02*
X31559559Y-25930931D01*
X31559559Y-25930931D02*
X31702416Y-25930931D01*
X31702416Y-25930931D02*
X31797654Y-25978550D01*
X31797654Y-25978550D02*
X31845273Y-26026169D01*
X31845273Y-26026169D02*
X31892892Y-26121407D01*
X31892892Y-26121407D02*
X31892892Y-26502359D01*
X31702416Y-25073788D02*
X32369083Y-25073788D01*
X31321464Y-25311883D02*
X32035749Y-25549978D01*
X32035749Y-25549978D02*
X32035749Y-24930931D01*
X41783844Y-18970931D02*
X41831464Y-19018550D01*
X41831464Y-19018550D02*
X41879083Y-19161407D01*
X41879083Y-19161407D02*
X41879083Y-19256645D01*
X41879083Y-19256645D02*
X41831464Y-19399502D01*
X41831464Y-19399502D02*
X41736225Y-19494740D01*
X41736225Y-19494740D02*
X41640987Y-19542359D01*
X41640987Y-19542359D02*
X41450511Y-19589978D01*
X41450511Y-19589978D02*
X41307654Y-19589978D01*
X41307654Y-19589978D02*
X41117178Y-19542359D01*
X41117178Y-19542359D02*
X41021940Y-19494740D01*
X41021940Y-19494740D02*
X40926702Y-19399502D01*
X40926702Y-19399502D02*
X40879083Y-19256645D01*
X40879083Y-19256645D02*
X40879083Y-19161407D01*
X40879083Y-19161407D02*
X40926702Y-19018550D01*
X40926702Y-19018550D02*
X40974321Y-18970931D01*
X41879083Y-18018550D02*
X41879083Y-18589978D01*
X41879083Y-18304264D02*
X40879083Y-18304264D01*
X40879083Y-18304264D02*
X41021940Y-18399502D01*
X41021940Y-18399502D02*
X41117178Y-18494740D01*
X41117178Y-18494740D02*
X41164797Y-18589978D01*
X34879083Y-25900931D02*
X34402892Y-26234264D01*
X34879083Y-26472359D02*
X33879083Y-26472359D01*
X33879083Y-26472359D02*
X33879083Y-26091407D01*
X33879083Y-26091407D02*
X33926702Y-25996169D01*
X33926702Y-25996169D02*
X33974321Y-25948550D01*
X33974321Y-25948550D02*
X34069559Y-25900931D01*
X34069559Y-25900931D02*
X34212416Y-25900931D01*
X34212416Y-25900931D02*
X34307654Y-25948550D01*
X34307654Y-25948550D02*
X34355273Y-25996169D01*
X34355273Y-25996169D02*
X34402892Y-26091407D01*
X34402892Y-26091407D02*
X34402892Y-26472359D01*
X33879083Y-25567597D02*
X33879083Y-24948550D01*
X33879083Y-24948550D02*
X34260035Y-25281883D01*
X34260035Y-25281883D02*
X34260035Y-25139026D01*
X34260035Y-25139026D02*
X34307654Y-25043788D01*
X34307654Y-25043788D02*
X34355273Y-24996169D01*
X34355273Y-24996169D02*
X34450511Y-24948550D01*
X34450511Y-24948550D02*
X34688606Y-24948550D01*
X34688606Y-24948550D02*
X34783844Y-24996169D01*
X34783844Y-24996169D02*
X34831464Y-25043788D01*
X34831464Y-25043788D02*
X34879083Y-25139026D01*
X34879083Y-25139026D02*
X34879083Y-25424740D01*
X34879083Y-25424740D02*
X34831464Y-25519978D01*
X34831464Y-25519978D02*
X34783844Y-25567597D01*
X33816168Y-19599445D02*
X33816168Y-18789922D01*
X33816168Y-18789922D02*
X33768549Y-18694684D01*
X33768549Y-18694684D02*
X33720930Y-18647065D01*
X33720930Y-18647065D02*
X33625692Y-18599445D01*
X33625692Y-18599445D02*
X33435216Y-18599445D01*
X33435216Y-18599445D02*
X33339978Y-18647065D01*
X33339978Y-18647065D02*
X33292359Y-18694684D01*
X33292359Y-18694684D02*
X33244740Y-18789922D01*
X33244740Y-18789922D02*
X33244740Y-19599445D01*
X32244740Y-18599445D02*
X32816168Y-18599445D01*
X32530454Y-18599445D02*
X32530454Y-19599445D01*
X32530454Y-19599445D02*
X32625692Y-19456588D01*
X32625692Y-19456588D02*
X32720930Y-19361350D01*
X32720930Y-19361350D02*
X32816168Y-19313731D01*
X37329083Y-25840931D02*
X36852892Y-26174264D01*
X37329083Y-26412359D02*
X36329083Y-26412359D01*
X36329083Y-26412359D02*
X36329083Y-26031407D01*
X36329083Y-26031407D02*
X36376702Y-25936169D01*
X36376702Y-25936169D02*
X36424321Y-25888550D01*
X36424321Y-25888550D02*
X36519559Y-25840931D01*
X36519559Y-25840931D02*
X36662416Y-25840931D01*
X36662416Y-25840931D02*
X36757654Y-25888550D01*
X36757654Y-25888550D02*
X36805273Y-25936169D01*
X36805273Y-25936169D02*
X36852892Y-26031407D01*
X36852892Y-26031407D02*
X36852892Y-26412359D01*
X37329083Y-24888550D02*
X37329083Y-25459978D01*
X37329083Y-25174264D02*
X36329083Y-25174264D01*
X36329083Y-25174264D02*
X36471940Y-25269502D01*
X36471940Y-25269502D02*
X36567178Y-25364740D01*
X36567178Y-25364740D02*
X36614797Y-25459978D01*
X39819083Y-25880931D02*
X39342892Y-26214264D01*
X39819083Y-26452359D02*
X38819083Y-26452359D01*
X38819083Y-26452359D02*
X38819083Y-26071407D01*
X38819083Y-26071407D02*
X38866702Y-25976169D01*
X38866702Y-25976169D02*
X38914321Y-25928550D01*
X38914321Y-25928550D02*
X39009559Y-25880931D01*
X39009559Y-25880931D02*
X39152416Y-25880931D01*
X39152416Y-25880931D02*
X39247654Y-25928550D01*
X39247654Y-25928550D02*
X39295273Y-25976169D01*
X39295273Y-25976169D02*
X39342892Y-26071407D01*
X39342892Y-26071407D02*
X39342892Y-26452359D01*
X38914321Y-25499978D02*
X38866702Y-25452359D01*
X38866702Y-25452359D02*
X38819083Y-25357121D01*
X38819083Y-25357121D02*
X38819083Y-25119026D01*
X38819083Y-25119026D02*
X38866702Y-25023788D01*
X38866702Y-25023788D02*
X38914321Y-24976169D01*
X38914321Y-24976169D02*
X39009559Y-24928550D01*
X39009559Y-24928550D02*
X39104797Y-24928550D01*
X39104797Y-24928550D02*
X39247654Y-24976169D01*
X39247654Y-24976169D02*
X39819083Y-25547597D01*
X39819083Y-25547597D02*
X39819083Y-24928550D01*
X42780930Y-18269084D02*
X42780930Y-18983369D01*
X42780930Y-18983369D02*
X42733311Y-19126226D01*
X42733311Y-19126226D02*
X42638073Y-19221465D01*
X42638073Y-19221465D02*
X42495216Y-19269084D01*
X42495216Y-19269084D02*
X42399978Y-19269084D01*
X43780930Y-19269084D02*
X43209502Y-19269084D01*
X43495216Y-19269084D02*
X43495216Y-18269084D01*
X43495216Y-18269084D02*
X43399978Y-18411941D01*
X43399978Y-18411941D02*
X43304740Y-18507179D01*
X43304740Y-18507179D02*
X43209502Y-18554798D01*
X17524819Y-25896666D02*
X17048628Y-26229999D01*
X17524819Y-26468094D02*
X16524819Y-26468094D01*
X16524819Y-26468094D02*
X16524819Y-26087142D01*
X16524819Y-26087142D02*
X16572438Y-25991904D01*
X16572438Y-25991904D02*
X16620057Y-25944285D01*
X16620057Y-25944285D02*
X16715295Y-25896666D01*
X16715295Y-25896666D02*
X16858152Y-25896666D01*
X16858152Y-25896666D02*
X16953390Y-25944285D01*
X16953390Y-25944285D02*
X17001009Y-25991904D01*
X17001009Y-25991904D02*
X17048628Y-26087142D01*
X17048628Y-26087142D02*
X17048628Y-26468094D01*
X16524819Y-25563332D02*
X16524819Y-24944285D01*
X16524819Y-24944285D02*
X16905771Y-25277618D01*
X16905771Y-25277618D02*
X16905771Y-25134761D01*
X16905771Y-25134761D02*
X16953390Y-25039523D01*
X16953390Y-25039523D02*
X17001009Y-24991904D01*
X17001009Y-24991904D02*
X17096247Y-24944285D01*
X17096247Y-24944285D02*
X17334342Y-24944285D01*
X17334342Y-24944285D02*
X17429580Y-24991904D01*
X17429580Y-24991904D02*
X17477200Y-25039523D01*
X17477200Y-25039523D02*
X17524819Y-25134761D01*
X17524819Y-25134761D02*
X17524819Y-25420475D01*
X17524819Y-25420475D02*
X17477200Y-25515713D01*
X17477200Y-25515713D02*
X17429580Y-25563332D01*
X24429580Y-18966666D02*
X24477200Y-19014285D01*
X24477200Y-19014285D02*
X24524819Y-19157142D01*
X24524819Y-19157142D02*
X24524819Y-19252380D01*
X24524819Y-19252380D02*
X24477200Y-19395237D01*
X24477200Y-19395237D02*
X24381961Y-19490475D01*
X24381961Y-19490475D02*
X24286723Y-19538094D01*
X24286723Y-19538094D02*
X24096247Y-19585713D01*
X24096247Y-19585713D02*
X23953390Y-19585713D01*
X23953390Y-19585713D02*
X23762914Y-19538094D01*
X23762914Y-19538094D02*
X23667676Y-19490475D01*
X23667676Y-19490475D02*
X23572438Y-19395237D01*
X23572438Y-19395237D02*
X23524819Y-19252380D01*
X23524819Y-19252380D02*
X23524819Y-19157142D01*
X23524819Y-19157142D02*
X23572438Y-19014285D01*
X23572438Y-19014285D02*
X23620057Y-18966666D01*
X24524819Y-18014285D02*
X24524819Y-18585713D01*
X24524819Y-18299999D02*
X23524819Y-18299999D01*
X23524819Y-18299999D02*
X23667676Y-18395237D01*
X23667676Y-18395237D02*
X23762914Y-18490475D01*
X23762914Y-18490475D02*
X23810533Y-18585713D01*
X15014819Y-25926666D02*
X14538628Y-26259999D01*
X15014819Y-26498094D02*
X14014819Y-26498094D01*
X14014819Y-26498094D02*
X14014819Y-26117142D01*
X14014819Y-26117142D02*
X14062438Y-26021904D01*
X14062438Y-26021904D02*
X14110057Y-25974285D01*
X14110057Y-25974285D02*
X14205295Y-25926666D01*
X14205295Y-25926666D02*
X14348152Y-25926666D01*
X14348152Y-25926666D02*
X14443390Y-25974285D01*
X14443390Y-25974285D02*
X14491009Y-26021904D01*
X14491009Y-26021904D02*
X14538628Y-26117142D01*
X14538628Y-26117142D02*
X14538628Y-26498094D01*
X14348152Y-25069523D02*
X15014819Y-25069523D01*
X13967200Y-25307618D02*
X14681485Y-25545713D01*
X14681485Y-25545713D02*
X14681485Y-24926666D01*
X16461904Y-19595180D02*
X16461904Y-18785657D01*
X16461904Y-18785657D02*
X16414285Y-18690419D01*
X16414285Y-18690419D02*
X16366666Y-18642800D01*
X16366666Y-18642800D02*
X16271428Y-18595180D01*
X16271428Y-18595180D02*
X16080952Y-18595180D01*
X16080952Y-18595180D02*
X15985714Y-18642800D01*
X15985714Y-18642800D02*
X15938095Y-18690419D01*
X15938095Y-18690419D02*
X15890476Y-18785657D01*
X15890476Y-18785657D02*
X15890476Y-19595180D01*
X14890476Y-18595180D02*
X15461904Y-18595180D01*
X15176190Y-18595180D02*
X15176190Y-19595180D01*
X15176190Y-19595180D02*
X15271428Y-19452323D01*
X15271428Y-19452323D02*
X15366666Y-19357085D01*
X15366666Y-19357085D02*
X15461904Y-19309466D01*
X19974819Y-25836666D02*
X19498628Y-26169999D01*
X19974819Y-26408094D02*
X18974819Y-26408094D01*
X18974819Y-26408094D02*
X18974819Y-26027142D01*
X18974819Y-26027142D02*
X19022438Y-25931904D01*
X19022438Y-25931904D02*
X19070057Y-25884285D01*
X19070057Y-25884285D02*
X19165295Y-25836666D01*
X19165295Y-25836666D02*
X19308152Y-25836666D01*
X19308152Y-25836666D02*
X19403390Y-25884285D01*
X19403390Y-25884285D02*
X19451009Y-25931904D01*
X19451009Y-25931904D02*
X19498628Y-26027142D01*
X19498628Y-26027142D02*
X19498628Y-26408094D01*
X19974819Y-24884285D02*
X19974819Y-25455713D01*
X19974819Y-25169999D02*
X18974819Y-25169999D01*
X18974819Y-25169999D02*
X19117676Y-25265237D01*
X19117676Y-25265237D02*
X19212914Y-25360475D01*
X19212914Y-25360475D02*
X19260533Y-25455713D01*
X22464819Y-25876666D02*
X21988628Y-26209999D01*
X22464819Y-26448094D02*
X21464819Y-26448094D01*
X21464819Y-26448094D02*
X21464819Y-26067142D01*
X21464819Y-26067142D02*
X21512438Y-25971904D01*
X21512438Y-25971904D02*
X21560057Y-25924285D01*
X21560057Y-25924285D02*
X21655295Y-25876666D01*
X21655295Y-25876666D02*
X21798152Y-25876666D01*
X21798152Y-25876666D02*
X21893390Y-25924285D01*
X21893390Y-25924285D02*
X21941009Y-25971904D01*
X21941009Y-25971904D02*
X21988628Y-26067142D01*
X21988628Y-26067142D02*
X21988628Y-26448094D01*
X21560057Y-25495713D02*
X21512438Y-25448094D01*
X21512438Y-25448094D02*
X21464819Y-25352856D01*
X21464819Y-25352856D02*
X21464819Y-25114761D01*
X21464819Y-25114761D02*
X21512438Y-25019523D01*
X21512438Y-25019523D02*
X21560057Y-24971904D01*
X21560057Y-24971904D02*
X21655295Y-24924285D01*
X21655295Y-24924285D02*
X21750533Y-24924285D01*
X21750533Y-24924285D02*
X21893390Y-24971904D01*
X21893390Y-24971904D02*
X22464819Y-25543332D01*
X22464819Y-25543332D02*
X22464819Y-24924285D01*
X25426666Y-18264819D02*
X25426666Y-18979104D01*
X25426666Y-18979104D02*
X25379047Y-19121961D01*
X25379047Y-19121961D02*
X25283809Y-19217200D01*
X25283809Y-19217200D02*
X25140952Y-19264819D01*
X25140952Y-19264819D02*
X25045714Y-19264819D01*
X26426666Y-19264819D02*
X25855238Y-19264819D01*
X26140952Y-19264819D02*
X26140952Y-18264819D01*
X26140952Y-18264819D02*
X26045714Y-18407676D01*
X26045714Y-18407676D02*
X25950476Y-18502914D01*
X25950476Y-18502914D02*
X25855238Y-18550533D01*
D12*
%TO.C,R4*%
X14051764Y-53502006D02*
X14051764Y-53976522D01*
X15096764Y-53502006D02*
X15096764Y-53976522D01*
%TO.C,C1*%
X22254264Y-50098685D02*
X22254264Y-50379845D01*
X23274264Y-50098685D02*
X23274264Y-50379845D01*
%TO.C,R3*%
X16541764Y-53492007D02*
X16541764Y-53966523D01*
X17586764Y-53492007D02*
X17586764Y-53966523D01*
%TO.C,R1*%
X19071764Y-53492007D02*
X19071764Y-53966523D01*
X20116764Y-53492007D02*
X20116764Y-53966523D01*
%TO.C,R3*%
X68571764Y-53512007D02*
X68571764Y-53986523D01*
X69616764Y-53512007D02*
X69616764Y-53986523D01*
%TO.C,R1*%
X53747500Y-53507742D02*
X53747500Y-53982258D01*
X54792500Y-53507742D02*
X54792500Y-53982258D01*
%TO.C,R3*%
X51217500Y-53507742D02*
X51217500Y-53982258D01*
X52262500Y-53507742D02*
X52262500Y-53982258D01*
%TO.C,C1*%
X74284264Y-50118685D02*
X74284264Y-50399845D01*
X75304264Y-50118685D02*
X75304264Y-50399845D01*
X56930000Y-50114420D02*
X56930000Y-50395580D01*
X57950000Y-50114420D02*
X57950000Y-50395580D01*
%TO.C,R4*%
X48727500Y-53517741D02*
X48727500Y-53992257D01*
X49772500Y-53517741D02*
X49772500Y-53992257D01*
%TO.C,R2*%
X56257500Y-53497742D02*
X56257500Y-53972258D01*
X57302500Y-53497742D02*
X57302500Y-53972258D01*
%TO.C,J1*%
X59190000Y-50330000D02*
X60520000Y-50330000D01*
X59190000Y-51660000D02*
X59190000Y-50330000D01*
X59190000Y-52930000D02*
X59190000Y-70770000D01*
X59190000Y-52930000D02*
X61850000Y-52930000D01*
X59190000Y-70770000D02*
X61850000Y-70770000D01*
X61850000Y-52930000D02*
X61850000Y-70770000D01*
%TO.C,C1*%
X39608528Y-50102950D02*
X39608528Y-50384110D01*
X40628528Y-50102950D02*
X40628528Y-50384110D01*
%TO.C,R3*%
X33896028Y-53496272D02*
X33896028Y-53970788D01*
X34941028Y-53496272D02*
X34941028Y-53970788D01*
%TO.C,R2*%
X38936028Y-53486272D02*
X38936028Y-53960788D01*
X39981028Y-53486272D02*
X39981028Y-53960788D01*
%TO.C,J1*%
X41868528Y-50318530D02*
X43198528Y-50318530D01*
X41868528Y-51648530D02*
X41868528Y-50318530D01*
X41868528Y-52918530D02*
X41868528Y-70758530D01*
X41868528Y-52918530D02*
X44528528Y-52918530D01*
X41868528Y-70758530D02*
X44528528Y-70758530D01*
X44528528Y-52918530D02*
X44528528Y-70758530D01*
%TO.C,R1*%
X36426028Y-53496272D02*
X36426028Y-53970788D01*
X37471028Y-53496272D02*
X37471028Y-53970788D01*
%TO.C,R4*%
X31406028Y-53506271D02*
X31406028Y-53980787D01*
X32451028Y-53506271D02*
X32451028Y-53980787D01*
X66081764Y-53522006D02*
X66081764Y-53996522D01*
X67126764Y-53522006D02*
X67126764Y-53996522D01*
%TO.C,R1*%
X71101764Y-53512007D02*
X71101764Y-53986523D01*
X72146764Y-53512007D02*
X72146764Y-53986523D01*
%TO.C,J1*%
X76544264Y-50334265D02*
X77874264Y-50334265D01*
X76544264Y-51664265D02*
X76544264Y-50334265D01*
X76544264Y-52934265D02*
X76544264Y-70774265D01*
X76544264Y-52934265D02*
X79204264Y-52934265D01*
X76544264Y-70774265D02*
X79204264Y-70774265D01*
X79204264Y-52934265D02*
X79204264Y-70774265D01*
%TO.C,R2*%
X73611764Y-53502007D02*
X73611764Y-53976523D01*
X74656764Y-53502007D02*
X74656764Y-53976523D01*
X21581764Y-53482007D02*
X21581764Y-53956523D01*
X22626764Y-53482007D02*
X22626764Y-53956523D01*
%TO.C,J1*%
X24514264Y-50314265D02*
X25844264Y-50314265D01*
X24514264Y-51644265D02*
X24514264Y-50314265D01*
X24514264Y-52914265D02*
X24514264Y-70754265D01*
X24514264Y-52914265D02*
X27174264Y-52914265D01*
X24514264Y-70754265D02*
X27174264Y-70754265D01*
X27174264Y-52914265D02*
X27174264Y-70754265D01*
%TO.C,R4*%
X49688236Y-23013476D02*
X49688236Y-23487992D01*
X48643236Y-23013476D02*
X48643236Y-23487992D01*
%TO.C,C1*%
X57865736Y-19610155D02*
X57865736Y-19891315D01*
X56845736Y-19610155D02*
X56845736Y-19891315D01*
%TO.C,R3*%
X52178236Y-23003477D02*
X52178236Y-23477993D01*
X51133236Y-23003477D02*
X51133236Y-23477993D01*
%TO.C,R1*%
X54708236Y-23003477D02*
X54708236Y-23477993D01*
X53663236Y-23003477D02*
X53663236Y-23477993D01*
%TO.C,C1*%
X75220000Y-19614420D02*
X75220000Y-19895580D01*
X74200000Y-19614420D02*
X74200000Y-19895580D01*
%TO.C,R3*%
X69532500Y-23007742D02*
X69532500Y-23482258D01*
X68487500Y-23007742D02*
X68487500Y-23482258D01*
%TO.C,R2*%
X74572500Y-22997742D02*
X74572500Y-23472258D01*
X73527500Y-22997742D02*
X73527500Y-23472258D01*
%TO.C,J1*%
X79120000Y-22430000D02*
X79120000Y-40270000D01*
X76460000Y-40270000D02*
X79120000Y-40270000D01*
X76460000Y-22430000D02*
X79120000Y-22430000D01*
X76460000Y-22430000D02*
X76460000Y-40270000D01*
X76460000Y-21160000D02*
X76460000Y-19830000D01*
X76460000Y-19830000D02*
X77790000Y-19830000D01*
%TO.C,R1*%
X72062500Y-23007742D02*
X72062500Y-23482258D01*
X71017500Y-23007742D02*
X71017500Y-23482258D01*
%TO.C,R4*%
X67042500Y-23017741D02*
X67042500Y-23492257D01*
X65997500Y-23017741D02*
X65997500Y-23492257D01*
%TO.C,R2*%
X57218236Y-22993477D02*
X57218236Y-23467993D01*
X56173236Y-22993477D02*
X56173236Y-23467993D01*
%TO.C,J1*%
X61765736Y-22425735D02*
X61765736Y-40265735D01*
X59105736Y-40265735D02*
X61765736Y-40265735D01*
X59105736Y-22425735D02*
X61765736Y-22425735D01*
X59105736Y-22425735D02*
X59105736Y-40265735D01*
X59105736Y-21155735D02*
X59105736Y-19825735D01*
X59105736Y-19825735D02*
X60435736Y-19825735D01*
%TO.C,R4*%
X32366764Y-23002006D02*
X32366764Y-23476522D01*
X31321764Y-23002006D02*
X31321764Y-23476522D01*
%TO.C,C1*%
X40544264Y-19598685D02*
X40544264Y-19879845D01*
X39524264Y-19598685D02*
X39524264Y-19879845D01*
%TO.C,R3*%
X34856764Y-22992007D02*
X34856764Y-23466523D01*
X33811764Y-22992007D02*
X33811764Y-23466523D01*
%TO.C,R1*%
X37386764Y-22992007D02*
X37386764Y-23466523D01*
X36341764Y-22992007D02*
X36341764Y-23466523D01*
%TO.C,R2*%
X39896764Y-22982007D02*
X39896764Y-23456523D01*
X38851764Y-22982007D02*
X38851764Y-23456523D01*
%TO.C,J1*%
X44444264Y-22414265D02*
X44444264Y-40254265D01*
X41784264Y-40254265D02*
X44444264Y-40254265D01*
X41784264Y-22414265D02*
X44444264Y-22414265D01*
X41784264Y-22414265D02*
X41784264Y-40254265D01*
X41784264Y-21144265D02*
X41784264Y-19814265D01*
X41784264Y-19814265D02*
X43114264Y-19814265D01*
%TO.C,R3*%
X17502500Y-22987742D02*
X17502500Y-23462258D01*
X16457500Y-22987742D02*
X16457500Y-23462258D01*
%TO.C,C1*%
X23190000Y-19594420D02*
X23190000Y-19875580D01*
X22170000Y-19594420D02*
X22170000Y-19875580D01*
%TO.C,R4*%
X15012500Y-22997741D02*
X15012500Y-23472257D01*
X13967500Y-22997741D02*
X13967500Y-23472257D01*
%TO.C,R1*%
X20032500Y-22987742D02*
X20032500Y-23462258D01*
X18987500Y-22987742D02*
X18987500Y-23462258D01*
%TO.C,R2*%
X22542500Y-22977742D02*
X22542500Y-23452258D01*
X21497500Y-22977742D02*
X21497500Y-23452258D01*
%TO.C,J1*%
X27090000Y-22410000D02*
X27090000Y-40250000D01*
X24430000Y-40250000D02*
X27090000Y-40250000D01*
X24430000Y-22410000D02*
X27090000Y-22410000D01*
X24430000Y-22410000D02*
X24430000Y-40250000D01*
X24430000Y-21140000D02*
X24430000Y-19810000D01*
X24430000Y-19810000D02*
X25760000Y-19810000D01*
%TD*%
M02*
