%TF.GenerationSoftware,KiCad,Pcbnew,8.0.5*%
%TF.CreationDate,2024-10-22T20:22:57-07:00*%
%TF.ProjectId,door3_panel,646f6f72-335f-4706-916e-656c2e6b6963,rev?*%
%TF.SameCoordinates,Original*%
%TF.FileFunction,Legend,Bot*%
%TF.FilePolarity,Positive*%
%FSLAX46Y46*%
G04 Gerber Fmt 4.6, Leading zero omitted, Abs format (unit mm)*
G04 Created by KiCad (PCBNEW 8.0.5) date 2024-10-22 20:22:57*
%MOMM*%
%LPD*%
G01*
G04 APERTURE LIST*
%ADD10C,0.100000*%
G04 APERTURE END LIST*
D10*
X58012306Y-53730038D02*
X58107544Y-53682419D01*
X58107544Y-53682419D02*
X58250401Y-53682419D01*
X58250401Y-53682419D02*
X58393258Y-53730038D01*
X58393258Y-53730038D02*
X58488496Y-53825276D01*
X58488496Y-53825276D02*
X58536115Y-53920514D01*
X58536115Y-53920514D02*
X58583734Y-54110990D01*
X58583734Y-54110990D02*
X58583734Y-54253847D01*
X58583734Y-54253847D02*
X58536115Y-54444323D01*
X58536115Y-54444323D02*
X58488496Y-54539561D01*
X58488496Y-54539561D02*
X58393258Y-54634800D01*
X58393258Y-54634800D02*
X58250401Y-54682419D01*
X58250401Y-54682419D02*
X58155163Y-54682419D01*
X58155163Y-54682419D02*
X58012306Y-54634800D01*
X58012306Y-54634800D02*
X57964687Y-54587180D01*
X57964687Y-54587180D02*
X57964687Y-54253847D01*
X57964687Y-54253847D02*
X58155163Y-54253847D01*
X57536115Y-54682419D02*
X57536115Y-53682419D01*
X57536115Y-53682419D02*
X56964687Y-54682419D01*
X56964687Y-54682419D02*
X56964687Y-53682419D01*
X56488496Y-54682419D02*
X56488496Y-53682419D01*
X56488496Y-53682419D02*
X56250401Y-53682419D01*
X56250401Y-53682419D02*
X56107544Y-53730038D01*
X56107544Y-53730038D02*
X56012306Y-53825276D01*
X56012306Y-53825276D02*
X55964687Y-53920514D01*
X55964687Y-53920514D02*
X55917068Y-54110990D01*
X55917068Y-54110990D02*
X55917068Y-54253847D01*
X55917068Y-54253847D02*
X55964687Y-54444323D01*
X55964687Y-54444323D02*
X56012306Y-54539561D01*
X56012306Y-54539561D02*
X56107544Y-54634800D01*
X56107544Y-54634800D02*
X56250401Y-54682419D01*
X56250401Y-54682419D02*
X56488496Y-54682419D01*
X58176115Y-70132419D02*
X58176115Y-69132419D01*
X57699925Y-70132419D02*
X57699925Y-69132419D01*
X57699925Y-69132419D02*
X57128497Y-70132419D01*
X57128497Y-70132419D02*
X57128497Y-69132419D01*
X56795163Y-69132419D02*
X56223735Y-69132419D01*
X56509449Y-70132419D02*
X56509449Y-69132419D01*
X58273734Y-62204800D02*
X58130877Y-62252419D01*
X58130877Y-62252419D02*
X57892782Y-62252419D01*
X57892782Y-62252419D02*
X57797544Y-62204800D01*
X57797544Y-62204800D02*
X57749925Y-62157180D01*
X57749925Y-62157180D02*
X57702306Y-62061942D01*
X57702306Y-62061942D02*
X57702306Y-61966704D01*
X57702306Y-61966704D02*
X57749925Y-61871466D01*
X57749925Y-61871466D02*
X57797544Y-61823847D01*
X57797544Y-61823847D02*
X57892782Y-61776228D01*
X57892782Y-61776228D02*
X58083258Y-61728609D01*
X58083258Y-61728609D02*
X58178496Y-61680990D01*
X58178496Y-61680990D02*
X58226115Y-61633371D01*
X58226115Y-61633371D02*
X58273734Y-61538133D01*
X58273734Y-61538133D02*
X58273734Y-61442895D01*
X58273734Y-61442895D02*
X58226115Y-61347657D01*
X58226115Y-61347657D02*
X58178496Y-61300038D01*
X58178496Y-61300038D02*
X58083258Y-61252419D01*
X58083258Y-61252419D02*
X57845163Y-61252419D01*
X57845163Y-61252419D02*
X57702306Y-61300038D01*
X57273734Y-62252419D02*
X57273734Y-61252419D01*
X57273734Y-61252419D02*
X57035639Y-61252419D01*
X57035639Y-61252419D02*
X56892782Y-61300038D01*
X56892782Y-61300038D02*
X56797544Y-61395276D01*
X56797544Y-61395276D02*
X56749925Y-61490514D01*
X56749925Y-61490514D02*
X56702306Y-61680990D01*
X56702306Y-61680990D02*
X56702306Y-61823847D01*
X56702306Y-61823847D02*
X56749925Y-62014323D01*
X56749925Y-62014323D02*
X56797544Y-62109561D01*
X56797544Y-62109561D02*
X56892782Y-62204800D01*
X56892782Y-62204800D02*
X57035639Y-62252419D01*
X57035639Y-62252419D02*
X57273734Y-62252419D01*
X56083258Y-61252419D02*
X55892782Y-61252419D01*
X55892782Y-61252419D02*
X55797544Y-61300038D01*
X55797544Y-61300038D02*
X55702306Y-61395276D01*
X55702306Y-61395276D02*
X55654687Y-61585752D01*
X55654687Y-61585752D02*
X55654687Y-61919085D01*
X55654687Y-61919085D02*
X55702306Y-62109561D01*
X55702306Y-62109561D02*
X55797544Y-62204800D01*
X55797544Y-62204800D02*
X55892782Y-62252419D01*
X55892782Y-62252419D02*
X56083258Y-62252419D01*
X56083258Y-62252419D02*
X56178496Y-62204800D01*
X56178496Y-62204800D02*
X56273734Y-62109561D01*
X56273734Y-62109561D02*
X56321353Y-61919085D01*
X56321353Y-61919085D02*
X56321353Y-61585752D01*
X56321353Y-61585752D02*
X56273734Y-61395276D01*
X56273734Y-61395276D02*
X56178496Y-61300038D01*
X56178496Y-61300038D02*
X56083258Y-61252419D01*
X75530379Y-67266684D02*
X75530379Y-66266684D01*
X75530379Y-66266684D02*
X75292284Y-66266684D01*
X75292284Y-66266684D02*
X75149427Y-66314303D01*
X75149427Y-66314303D02*
X75054189Y-66409541D01*
X75054189Y-66409541D02*
X75006570Y-66504779D01*
X75006570Y-66504779D02*
X74958951Y-66695255D01*
X74958951Y-66695255D02*
X74958951Y-66838112D01*
X74958951Y-66838112D02*
X75006570Y-67028588D01*
X75006570Y-67028588D02*
X75054189Y-67123826D01*
X75054189Y-67123826D02*
X75149427Y-67219065D01*
X75149427Y-67219065D02*
X75292284Y-67266684D01*
X75292284Y-67266684D02*
X75530379Y-67266684D01*
X73958951Y-67266684D02*
X74292284Y-66790493D01*
X74530379Y-67266684D02*
X74530379Y-66266684D01*
X74530379Y-66266684D02*
X74149427Y-66266684D01*
X74149427Y-66266684D02*
X74054189Y-66314303D01*
X74054189Y-66314303D02*
X74006570Y-66361922D01*
X74006570Y-66361922D02*
X73958951Y-66457160D01*
X73958951Y-66457160D02*
X73958951Y-66600017D01*
X73958951Y-66600017D02*
X74006570Y-66695255D01*
X74006570Y-66695255D02*
X74054189Y-66742874D01*
X74054189Y-66742874D02*
X74149427Y-66790493D01*
X74149427Y-66790493D02*
X74530379Y-66790493D01*
X73530379Y-67266684D02*
X73530379Y-66266684D01*
X73530379Y-66266684D02*
X73292284Y-66266684D01*
X73292284Y-66266684D02*
X73149427Y-66314303D01*
X73149427Y-66314303D02*
X73054189Y-66409541D01*
X73054189Y-66409541D02*
X73006570Y-66504779D01*
X73006570Y-66504779D02*
X72958951Y-66695255D01*
X72958951Y-66695255D02*
X72958951Y-66838112D01*
X72958951Y-66838112D02*
X73006570Y-67028588D01*
X73006570Y-67028588D02*
X73054189Y-67123826D01*
X73054189Y-67123826D02*
X73149427Y-67219065D01*
X73149427Y-67219065D02*
X73292284Y-67266684D01*
X73292284Y-67266684D02*
X73530379Y-67266684D01*
X72339903Y-66790493D02*
X72339903Y-67266684D01*
X72673236Y-66266684D02*
X72339903Y-66790493D01*
X72339903Y-66790493D02*
X72006570Y-66266684D01*
X40854643Y-70120949D02*
X40854643Y-69120949D01*
X40378453Y-70120949D02*
X40378453Y-69120949D01*
X40378453Y-69120949D02*
X39807025Y-70120949D01*
X39807025Y-70120949D02*
X39807025Y-69120949D01*
X39473691Y-69120949D02*
X38902263Y-69120949D01*
X39187977Y-70120949D02*
X39187977Y-69120949D01*
X41457500Y-51060949D02*
X41124167Y-52060949D01*
X41124167Y-52060949D02*
X40790834Y-51060949D01*
X40457500Y-52060949D02*
X40457500Y-51060949D01*
X40457500Y-51060949D02*
X40219405Y-51060949D01*
X40219405Y-51060949D02*
X40076548Y-51108568D01*
X40076548Y-51108568D02*
X39981310Y-51203806D01*
X39981310Y-51203806D02*
X39933691Y-51299044D01*
X39933691Y-51299044D02*
X39886072Y-51489520D01*
X39886072Y-51489520D02*
X39886072Y-51632377D01*
X39886072Y-51632377D02*
X39933691Y-51822853D01*
X39933691Y-51822853D02*
X39981310Y-51918091D01*
X39981310Y-51918091D02*
X40076548Y-52013330D01*
X40076548Y-52013330D02*
X40219405Y-52060949D01*
X40219405Y-52060949D02*
X40457500Y-52060949D01*
X39457500Y-52060949D02*
X39457500Y-51060949D01*
X39457500Y-51060949D02*
X39219405Y-51060949D01*
X39219405Y-51060949D02*
X39076548Y-51108568D01*
X39076548Y-51108568D02*
X38981310Y-51203806D01*
X38981310Y-51203806D02*
X38933691Y-51299044D01*
X38933691Y-51299044D02*
X38886072Y-51489520D01*
X38886072Y-51489520D02*
X38886072Y-51632377D01*
X38886072Y-51632377D02*
X38933691Y-51822853D01*
X38933691Y-51822853D02*
X38981310Y-51918091D01*
X38981310Y-51918091D02*
X39076548Y-52013330D01*
X39076548Y-52013330D02*
X39219405Y-52060949D01*
X39219405Y-52060949D02*
X39457500Y-52060949D01*
X40952262Y-62193330D02*
X40809405Y-62240949D01*
X40809405Y-62240949D02*
X40571310Y-62240949D01*
X40571310Y-62240949D02*
X40476072Y-62193330D01*
X40476072Y-62193330D02*
X40428453Y-62145710D01*
X40428453Y-62145710D02*
X40380834Y-62050472D01*
X40380834Y-62050472D02*
X40380834Y-61955234D01*
X40380834Y-61955234D02*
X40428453Y-61859996D01*
X40428453Y-61859996D02*
X40476072Y-61812377D01*
X40476072Y-61812377D02*
X40571310Y-61764758D01*
X40571310Y-61764758D02*
X40761786Y-61717139D01*
X40761786Y-61717139D02*
X40857024Y-61669520D01*
X40857024Y-61669520D02*
X40904643Y-61621901D01*
X40904643Y-61621901D02*
X40952262Y-61526663D01*
X40952262Y-61526663D02*
X40952262Y-61431425D01*
X40952262Y-61431425D02*
X40904643Y-61336187D01*
X40904643Y-61336187D02*
X40857024Y-61288568D01*
X40857024Y-61288568D02*
X40761786Y-61240949D01*
X40761786Y-61240949D02*
X40523691Y-61240949D01*
X40523691Y-61240949D02*
X40380834Y-61288568D01*
X39952262Y-62240949D02*
X39952262Y-61240949D01*
X39952262Y-61240949D02*
X39714167Y-61240949D01*
X39714167Y-61240949D02*
X39571310Y-61288568D01*
X39571310Y-61288568D02*
X39476072Y-61383806D01*
X39476072Y-61383806D02*
X39428453Y-61479044D01*
X39428453Y-61479044D02*
X39380834Y-61669520D01*
X39380834Y-61669520D02*
X39380834Y-61812377D01*
X39380834Y-61812377D02*
X39428453Y-62002853D01*
X39428453Y-62002853D02*
X39476072Y-62098091D01*
X39476072Y-62098091D02*
X39571310Y-62193330D01*
X39571310Y-62193330D02*
X39714167Y-62240949D01*
X39714167Y-62240949D02*
X39952262Y-62240949D01*
X38761786Y-61240949D02*
X38571310Y-61240949D01*
X38571310Y-61240949D02*
X38476072Y-61288568D01*
X38476072Y-61288568D02*
X38380834Y-61383806D01*
X38380834Y-61383806D02*
X38333215Y-61574282D01*
X38333215Y-61574282D02*
X38333215Y-61907615D01*
X38333215Y-61907615D02*
X38380834Y-62098091D01*
X38380834Y-62098091D02*
X38476072Y-62193330D01*
X38476072Y-62193330D02*
X38571310Y-62240949D01*
X38571310Y-62240949D02*
X38761786Y-62240949D01*
X38761786Y-62240949D02*
X38857024Y-62193330D01*
X38857024Y-62193330D02*
X38952262Y-62098091D01*
X38952262Y-62098091D02*
X38999881Y-61907615D01*
X38999881Y-61907615D02*
X38999881Y-61574282D01*
X38999881Y-61574282D02*
X38952262Y-61383806D01*
X38952262Y-61383806D02*
X38857024Y-61288568D01*
X38857024Y-61288568D02*
X38761786Y-61240949D01*
X40233215Y-64745710D02*
X40280834Y-64793330D01*
X40280834Y-64793330D02*
X40423691Y-64840949D01*
X40423691Y-64840949D02*
X40518929Y-64840949D01*
X40518929Y-64840949D02*
X40661786Y-64793330D01*
X40661786Y-64793330D02*
X40757024Y-64698091D01*
X40757024Y-64698091D02*
X40804643Y-64602853D01*
X40804643Y-64602853D02*
X40852262Y-64412377D01*
X40852262Y-64412377D02*
X40852262Y-64269520D01*
X40852262Y-64269520D02*
X40804643Y-64079044D01*
X40804643Y-64079044D02*
X40757024Y-63983806D01*
X40757024Y-63983806D02*
X40661786Y-63888568D01*
X40661786Y-63888568D02*
X40518929Y-63840949D01*
X40518929Y-63840949D02*
X40423691Y-63840949D01*
X40423691Y-63840949D02*
X40280834Y-63888568D01*
X40280834Y-63888568D02*
X40233215Y-63936187D01*
X39852262Y-64793330D02*
X39709405Y-64840949D01*
X39709405Y-64840949D02*
X39471310Y-64840949D01*
X39471310Y-64840949D02*
X39376072Y-64793330D01*
X39376072Y-64793330D02*
X39328453Y-64745710D01*
X39328453Y-64745710D02*
X39280834Y-64650472D01*
X39280834Y-64650472D02*
X39280834Y-64555234D01*
X39280834Y-64555234D02*
X39328453Y-64459996D01*
X39328453Y-64459996D02*
X39376072Y-64412377D01*
X39376072Y-64412377D02*
X39471310Y-64364758D01*
X39471310Y-64364758D02*
X39661786Y-64317139D01*
X39661786Y-64317139D02*
X39757024Y-64269520D01*
X39757024Y-64269520D02*
X39804643Y-64221901D01*
X39804643Y-64221901D02*
X39852262Y-64126663D01*
X39852262Y-64126663D02*
X39852262Y-64031425D01*
X39852262Y-64031425D02*
X39804643Y-63936187D01*
X39804643Y-63936187D02*
X39757024Y-63888568D01*
X39757024Y-63888568D02*
X39661786Y-63840949D01*
X39661786Y-63840949D02*
X39423691Y-63840949D01*
X39423691Y-63840949D02*
X39280834Y-63888568D01*
X40690834Y-53718568D02*
X40786072Y-53670949D01*
X40786072Y-53670949D02*
X40928929Y-53670949D01*
X40928929Y-53670949D02*
X41071786Y-53718568D01*
X41071786Y-53718568D02*
X41167024Y-53813806D01*
X41167024Y-53813806D02*
X41214643Y-53909044D01*
X41214643Y-53909044D02*
X41262262Y-54099520D01*
X41262262Y-54099520D02*
X41262262Y-54242377D01*
X41262262Y-54242377D02*
X41214643Y-54432853D01*
X41214643Y-54432853D02*
X41167024Y-54528091D01*
X41167024Y-54528091D02*
X41071786Y-54623330D01*
X41071786Y-54623330D02*
X40928929Y-54670949D01*
X40928929Y-54670949D02*
X40833691Y-54670949D01*
X40833691Y-54670949D02*
X40690834Y-54623330D01*
X40690834Y-54623330D02*
X40643215Y-54575710D01*
X40643215Y-54575710D02*
X40643215Y-54242377D01*
X40643215Y-54242377D02*
X40833691Y-54242377D01*
X40214643Y-54670949D02*
X40214643Y-53670949D01*
X40214643Y-53670949D02*
X39643215Y-54670949D01*
X39643215Y-54670949D02*
X39643215Y-53670949D01*
X39167024Y-54670949D02*
X39167024Y-53670949D01*
X39167024Y-53670949D02*
X38928929Y-53670949D01*
X38928929Y-53670949D02*
X38786072Y-53718568D01*
X38786072Y-53718568D02*
X38690834Y-53813806D01*
X38690834Y-53813806D02*
X38643215Y-53909044D01*
X38643215Y-53909044D02*
X38595596Y-54099520D01*
X38595596Y-54099520D02*
X38595596Y-54242377D01*
X38595596Y-54242377D02*
X38643215Y-54432853D01*
X38643215Y-54432853D02*
X38690834Y-54528091D01*
X38690834Y-54528091D02*
X38786072Y-54623330D01*
X38786072Y-54623330D02*
X38928929Y-54670949D01*
X38928929Y-54670949D02*
X39167024Y-54670949D01*
X41002262Y-59683330D02*
X40859405Y-59730949D01*
X40859405Y-59730949D02*
X40621310Y-59730949D01*
X40621310Y-59730949D02*
X40526072Y-59683330D01*
X40526072Y-59683330D02*
X40478453Y-59635710D01*
X40478453Y-59635710D02*
X40430834Y-59540472D01*
X40430834Y-59540472D02*
X40430834Y-59445234D01*
X40430834Y-59445234D02*
X40478453Y-59349996D01*
X40478453Y-59349996D02*
X40526072Y-59302377D01*
X40526072Y-59302377D02*
X40621310Y-59254758D01*
X40621310Y-59254758D02*
X40811786Y-59207139D01*
X40811786Y-59207139D02*
X40907024Y-59159520D01*
X40907024Y-59159520D02*
X40954643Y-59111901D01*
X40954643Y-59111901D02*
X41002262Y-59016663D01*
X41002262Y-59016663D02*
X41002262Y-58921425D01*
X41002262Y-58921425D02*
X40954643Y-58826187D01*
X40954643Y-58826187D02*
X40907024Y-58778568D01*
X40907024Y-58778568D02*
X40811786Y-58730949D01*
X40811786Y-58730949D02*
X40573691Y-58730949D01*
X40573691Y-58730949D02*
X40430834Y-58778568D01*
X39430834Y-59635710D02*
X39478453Y-59683330D01*
X39478453Y-59683330D02*
X39621310Y-59730949D01*
X39621310Y-59730949D02*
X39716548Y-59730949D01*
X39716548Y-59730949D02*
X39859405Y-59683330D01*
X39859405Y-59683330D02*
X39954643Y-59588091D01*
X39954643Y-59588091D02*
X40002262Y-59492853D01*
X40002262Y-59492853D02*
X40049881Y-59302377D01*
X40049881Y-59302377D02*
X40049881Y-59159520D01*
X40049881Y-59159520D02*
X40002262Y-58969044D01*
X40002262Y-58969044D02*
X39954643Y-58873806D01*
X39954643Y-58873806D02*
X39859405Y-58778568D01*
X39859405Y-58778568D02*
X39716548Y-58730949D01*
X39716548Y-58730949D02*
X39621310Y-58730949D01*
X39621310Y-58730949D02*
X39478453Y-58778568D01*
X39478453Y-58778568D02*
X39430834Y-58826187D01*
X38526072Y-59730949D02*
X39002262Y-59730949D01*
X39002262Y-59730949D02*
X39002262Y-58730949D01*
X41002262Y-57233330D02*
X40859405Y-57280949D01*
X40859405Y-57280949D02*
X40621310Y-57280949D01*
X40621310Y-57280949D02*
X40526072Y-57233330D01*
X40526072Y-57233330D02*
X40478453Y-57185710D01*
X40478453Y-57185710D02*
X40430834Y-57090472D01*
X40430834Y-57090472D02*
X40430834Y-56995234D01*
X40430834Y-56995234D02*
X40478453Y-56899996D01*
X40478453Y-56899996D02*
X40526072Y-56852377D01*
X40526072Y-56852377D02*
X40621310Y-56804758D01*
X40621310Y-56804758D02*
X40811786Y-56757139D01*
X40811786Y-56757139D02*
X40907024Y-56709520D01*
X40907024Y-56709520D02*
X40954643Y-56661901D01*
X40954643Y-56661901D02*
X41002262Y-56566663D01*
X41002262Y-56566663D02*
X41002262Y-56471425D01*
X41002262Y-56471425D02*
X40954643Y-56376187D01*
X40954643Y-56376187D02*
X40907024Y-56328568D01*
X40907024Y-56328568D02*
X40811786Y-56280949D01*
X40811786Y-56280949D02*
X40573691Y-56280949D01*
X40573691Y-56280949D02*
X40430834Y-56328568D01*
X40002262Y-57280949D02*
X40002262Y-56280949D01*
X40002262Y-56280949D02*
X39764167Y-56280949D01*
X39764167Y-56280949D02*
X39621310Y-56328568D01*
X39621310Y-56328568D02*
X39526072Y-56423806D01*
X39526072Y-56423806D02*
X39478453Y-56519044D01*
X39478453Y-56519044D02*
X39430834Y-56709520D01*
X39430834Y-56709520D02*
X39430834Y-56852377D01*
X39430834Y-56852377D02*
X39478453Y-57042853D01*
X39478453Y-57042853D02*
X39526072Y-57138091D01*
X39526072Y-57138091D02*
X39621310Y-57233330D01*
X39621310Y-57233330D02*
X39764167Y-57280949D01*
X39764167Y-57280949D02*
X40002262Y-57280949D01*
X39049881Y-56995234D02*
X38573691Y-56995234D01*
X39145119Y-57280949D02*
X38811786Y-56280949D01*
X38811786Y-56280949D02*
X38478453Y-57280949D01*
X40854643Y-67250949D02*
X40854643Y-66250949D01*
X40854643Y-66250949D02*
X40616548Y-66250949D01*
X40616548Y-66250949D02*
X40473691Y-66298568D01*
X40473691Y-66298568D02*
X40378453Y-66393806D01*
X40378453Y-66393806D02*
X40330834Y-66489044D01*
X40330834Y-66489044D02*
X40283215Y-66679520D01*
X40283215Y-66679520D02*
X40283215Y-66822377D01*
X40283215Y-66822377D02*
X40330834Y-67012853D01*
X40330834Y-67012853D02*
X40378453Y-67108091D01*
X40378453Y-67108091D02*
X40473691Y-67203330D01*
X40473691Y-67203330D02*
X40616548Y-67250949D01*
X40616548Y-67250949D02*
X40854643Y-67250949D01*
X39283215Y-67250949D02*
X39616548Y-66774758D01*
X39854643Y-67250949D02*
X39854643Y-66250949D01*
X39854643Y-66250949D02*
X39473691Y-66250949D01*
X39473691Y-66250949D02*
X39378453Y-66298568D01*
X39378453Y-66298568D02*
X39330834Y-66346187D01*
X39330834Y-66346187D02*
X39283215Y-66441425D01*
X39283215Y-66441425D02*
X39283215Y-66584282D01*
X39283215Y-66584282D02*
X39330834Y-66679520D01*
X39330834Y-66679520D02*
X39378453Y-66727139D01*
X39378453Y-66727139D02*
X39473691Y-66774758D01*
X39473691Y-66774758D02*
X39854643Y-66774758D01*
X38854643Y-67250949D02*
X38854643Y-66250949D01*
X38854643Y-66250949D02*
X38616548Y-66250949D01*
X38616548Y-66250949D02*
X38473691Y-66298568D01*
X38473691Y-66298568D02*
X38378453Y-66393806D01*
X38378453Y-66393806D02*
X38330834Y-66489044D01*
X38330834Y-66489044D02*
X38283215Y-66679520D01*
X38283215Y-66679520D02*
X38283215Y-66822377D01*
X38283215Y-66822377D02*
X38330834Y-67012853D01*
X38330834Y-67012853D02*
X38378453Y-67108091D01*
X38378453Y-67108091D02*
X38473691Y-67203330D01*
X38473691Y-67203330D02*
X38616548Y-67250949D01*
X38616548Y-67250949D02*
X38854643Y-67250949D01*
X37664167Y-66774758D02*
X37664167Y-67250949D01*
X37997500Y-66250949D02*
X37664167Y-66774758D01*
X37664167Y-66774758D02*
X37330834Y-66250949D01*
X58323734Y-59694800D02*
X58180877Y-59742419D01*
X58180877Y-59742419D02*
X57942782Y-59742419D01*
X57942782Y-59742419D02*
X57847544Y-59694800D01*
X57847544Y-59694800D02*
X57799925Y-59647180D01*
X57799925Y-59647180D02*
X57752306Y-59551942D01*
X57752306Y-59551942D02*
X57752306Y-59456704D01*
X57752306Y-59456704D02*
X57799925Y-59361466D01*
X57799925Y-59361466D02*
X57847544Y-59313847D01*
X57847544Y-59313847D02*
X57942782Y-59266228D01*
X57942782Y-59266228D02*
X58133258Y-59218609D01*
X58133258Y-59218609D02*
X58228496Y-59170990D01*
X58228496Y-59170990D02*
X58276115Y-59123371D01*
X58276115Y-59123371D02*
X58323734Y-59028133D01*
X58323734Y-59028133D02*
X58323734Y-58932895D01*
X58323734Y-58932895D02*
X58276115Y-58837657D01*
X58276115Y-58837657D02*
X58228496Y-58790038D01*
X58228496Y-58790038D02*
X58133258Y-58742419D01*
X58133258Y-58742419D02*
X57895163Y-58742419D01*
X57895163Y-58742419D02*
X57752306Y-58790038D01*
X56752306Y-59647180D02*
X56799925Y-59694800D01*
X56799925Y-59694800D02*
X56942782Y-59742419D01*
X56942782Y-59742419D02*
X57038020Y-59742419D01*
X57038020Y-59742419D02*
X57180877Y-59694800D01*
X57180877Y-59694800D02*
X57276115Y-59599561D01*
X57276115Y-59599561D02*
X57323734Y-59504323D01*
X57323734Y-59504323D02*
X57371353Y-59313847D01*
X57371353Y-59313847D02*
X57371353Y-59170990D01*
X57371353Y-59170990D02*
X57323734Y-58980514D01*
X57323734Y-58980514D02*
X57276115Y-58885276D01*
X57276115Y-58885276D02*
X57180877Y-58790038D01*
X57180877Y-58790038D02*
X57038020Y-58742419D01*
X57038020Y-58742419D02*
X56942782Y-58742419D01*
X56942782Y-58742419D02*
X56799925Y-58790038D01*
X56799925Y-58790038D02*
X56752306Y-58837657D01*
X55847544Y-59742419D02*
X56323734Y-59742419D01*
X56323734Y-59742419D02*
X56323734Y-58742419D01*
X58176115Y-67262419D02*
X58176115Y-66262419D01*
X58176115Y-66262419D02*
X57938020Y-66262419D01*
X57938020Y-66262419D02*
X57795163Y-66310038D01*
X57795163Y-66310038D02*
X57699925Y-66405276D01*
X57699925Y-66405276D02*
X57652306Y-66500514D01*
X57652306Y-66500514D02*
X57604687Y-66690990D01*
X57604687Y-66690990D02*
X57604687Y-66833847D01*
X57604687Y-66833847D02*
X57652306Y-67024323D01*
X57652306Y-67024323D02*
X57699925Y-67119561D01*
X57699925Y-67119561D02*
X57795163Y-67214800D01*
X57795163Y-67214800D02*
X57938020Y-67262419D01*
X57938020Y-67262419D02*
X58176115Y-67262419D01*
X56604687Y-67262419D02*
X56938020Y-66786228D01*
X57176115Y-67262419D02*
X57176115Y-66262419D01*
X57176115Y-66262419D02*
X56795163Y-66262419D01*
X56795163Y-66262419D02*
X56699925Y-66310038D01*
X56699925Y-66310038D02*
X56652306Y-66357657D01*
X56652306Y-66357657D02*
X56604687Y-66452895D01*
X56604687Y-66452895D02*
X56604687Y-66595752D01*
X56604687Y-66595752D02*
X56652306Y-66690990D01*
X56652306Y-66690990D02*
X56699925Y-66738609D01*
X56699925Y-66738609D02*
X56795163Y-66786228D01*
X56795163Y-66786228D02*
X57176115Y-66786228D01*
X56176115Y-67262419D02*
X56176115Y-66262419D01*
X56176115Y-66262419D02*
X55938020Y-66262419D01*
X55938020Y-66262419D02*
X55795163Y-66310038D01*
X55795163Y-66310038D02*
X55699925Y-66405276D01*
X55699925Y-66405276D02*
X55652306Y-66500514D01*
X55652306Y-66500514D02*
X55604687Y-66690990D01*
X55604687Y-66690990D02*
X55604687Y-66833847D01*
X55604687Y-66833847D02*
X55652306Y-67024323D01*
X55652306Y-67024323D02*
X55699925Y-67119561D01*
X55699925Y-67119561D02*
X55795163Y-67214800D01*
X55795163Y-67214800D02*
X55938020Y-67262419D01*
X55938020Y-67262419D02*
X56176115Y-67262419D01*
X54985639Y-66786228D02*
X54985639Y-67262419D01*
X55318972Y-66262419D02*
X54985639Y-66786228D01*
X54985639Y-66786228D02*
X54652306Y-66262419D01*
X58323734Y-57244800D02*
X58180877Y-57292419D01*
X58180877Y-57292419D02*
X57942782Y-57292419D01*
X57942782Y-57292419D02*
X57847544Y-57244800D01*
X57847544Y-57244800D02*
X57799925Y-57197180D01*
X57799925Y-57197180D02*
X57752306Y-57101942D01*
X57752306Y-57101942D02*
X57752306Y-57006704D01*
X57752306Y-57006704D02*
X57799925Y-56911466D01*
X57799925Y-56911466D02*
X57847544Y-56863847D01*
X57847544Y-56863847D02*
X57942782Y-56816228D01*
X57942782Y-56816228D02*
X58133258Y-56768609D01*
X58133258Y-56768609D02*
X58228496Y-56720990D01*
X58228496Y-56720990D02*
X58276115Y-56673371D01*
X58276115Y-56673371D02*
X58323734Y-56578133D01*
X58323734Y-56578133D02*
X58323734Y-56482895D01*
X58323734Y-56482895D02*
X58276115Y-56387657D01*
X58276115Y-56387657D02*
X58228496Y-56340038D01*
X58228496Y-56340038D02*
X58133258Y-56292419D01*
X58133258Y-56292419D02*
X57895163Y-56292419D01*
X57895163Y-56292419D02*
X57752306Y-56340038D01*
X57323734Y-57292419D02*
X57323734Y-56292419D01*
X57323734Y-56292419D02*
X57085639Y-56292419D01*
X57085639Y-56292419D02*
X56942782Y-56340038D01*
X56942782Y-56340038D02*
X56847544Y-56435276D01*
X56847544Y-56435276D02*
X56799925Y-56530514D01*
X56799925Y-56530514D02*
X56752306Y-56720990D01*
X56752306Y-56720990D02*
X56752306Y-56863847D01*
X56752306Y-56863847D02*
X56799925Y-57054323D01*
X56799925Y-57054323D02*
X56847544Y-57149561D01*
X56847544Y-57149561D02*
X56942782Y-57244800D01*
X56942782Y-57244800D02*
X57085639Y-57292419D01*
X57085639Y-57292419D02*
X57323734Y-57292419D01*
X56371353Y-57006704D02*
X55895163Y-57006704D01*
X56466591Y-57292419D02*
X56133258Y-56292419D01*
X56133258Y-56292419D02*
X55799925Y-57292419D01*
X57554687Y-64757180D02*
X57602306Y-64804800D01*
X57602306Y-64804800D02*
X57745163Y-64852419D01*
X57745163Y-64852419D02*
X57840401Y-64852419D01*
X57840401Y-64852419D02*
X57983258Y-64804800D01*
X57983258Y-64804800D02*
X58078496Y-64709561D01*
X58078496Y-64709561D02*
X58126115Y-64614323D01*
X58126115Y-64614323D02*
X58173734Y-64423847D01*
X58173734Y-64423847D02*
X58173734Y-64280990D01*
X58173734Y-64280990D02*
X58126115Y-64090514D01*
X58126115Y-64090514D02*
X58078496Y-63995276D01*
X58078496Y-63995276D02*
X57983258Y-63900038D01*
X57983258Y-63900038D02*
X57840401Y-63852419D01*
X57840401Y-63852419D02*
X57745163Y-63852419D01*
X57745163Y-63852419D02*
X57602306Y-63900038D01*
X57602306Y-63900038D02*
X57554687Y-63947657D01*
X57173734Y-64804800D02*
X57030877Y-64852419D01*
X57030877Y-64852419D02*
X56792782Y-64852419D01*
X56792782Y-64852419D02*
X56697544Y-64804800D01*
X56697544Y-64804800D02*
X56649925Y-64757180D01*
X56649925Y-64757180D02*
X56602306Y-64661942D01*
X56602306Y-64661942D02*
X56602306Y-64566704D01*
X56602306Y-64566704D02*
X56649925Y-64471466D01*
X56649925Y-64471466D02*
X56697544Y-64423847D01*
X56697544Y-64423847D02*
X56792782Y-64376228D01*
X56792782Y-64376228D02*
X56983258Y-64328609D01*
X56983258Y-64328609D02*
X57078496Y-64280990D01*
X57078496Y-64280990D02*
X57126115Y-64233371D01*
X57126115Y-64233371D02*
X57173734Y-64138133D01*
X57173734Y-64138133D02*
X57173734Y-64042895D01*
X57173734Y-64042895D02*
X57126115Y-63947657D01*
X57126115Y-63947657D02*
X57078496Y-63900038D01*
X57078496Y-63900038D02*
X56983258Y-63852419D01*
X56983258Y-63852419D02*
X56745163Y-63852419D01*
X56745163Y-63852419D02*
X56602306Y-63900038D01*
X58778972Y-51072419D02*
X58445639Y-52072419D01*
X58445639Y-52072419D02*
X58112306Y-51072419D01*
X57778972Y-52072419D02*
X57778972Y-51072419D01*
X57778972Y-51072419D02*
X57540877Y-51072419D01*
X57540877Y-51072419D02*
X57398020Y-51120038D01*
X57398020Y-51120038D02*
X57302782Y-51215276D01*
X57302782Y-51215276D02*
X57255163Y-51310514D01*
X57255163Y-51310514D02*
X57207544Y-51500990D01*
X57207544Y-51500990D02*
X57207544Y-51643847D01*
X57207544Y-51643847D02*
X57255163Y-51834323D01*
X57255163Y-51834323D02*
X57302782Y-51929561D01*
X57302782Y-51929561D02*
X57398020Y-52024800D01*
X57398020Y-52024800D02*
X57540877Y-52072419D01*
X57540877Y-52072419D02*
X57778972Y-52072419D01*
X56778972Y-52072419D02*
X56778972Y-51072419D01*
X56778972Y-51072419D02*
X56540877Y-51072419D01*
X56540877Y-51072419D02*
X56398020Y-51120038D01*
X56398020Y-51120038D02*
X56302782Y-51215276D01*
X56302782Y-51215276D02*
X56255163Y-51310514D01*
X56255163Y-51310514D02*
X56207544Y-51500990D01*
X56207544Y-51500990D02*
X56207544Y-51643847D01*
X56207544Y-51643847D02*
X56255163Y-51834323D01*
X56255163Y-51834323D02*
X56302782Y-51929561D01*
X56302782Y-51929561D02*
X56398020Y-52024800D01*
X56398020Y-52024800D02*
X56540877Y-52072419D01*
X56540877Y-52072419D02*
X56778972Y-52072419D01*
X75627998Y-62209065D02*
X75485141Y-62256684D01*
X75485141Y-62256684D02*
X75247046Y-62256684D01*
X75247046Y-62256684D02*
X75151808Y-62209065D01*
X75151808Y-62209065D02*
X75104189Y-62161445D01*
X75104189Y-62161445D02*
X75056570Y-62066207D01*
X75056570Y-62066207D02*
X75056570Y-61970969D01*
X75056570Y-61970969D02*
X75104189Y-61875731D01*
X75104189Y-61875731D02*
X75151808Y-61828112D01*
X75151808Y-61828112D02*
X75247046Y-61780493D01*
X75247046Y-61780493D02*
X75437522Y-61732874D01*
X75437522Y-61732874D02*
X75532760Y-61685255D01*
X75532760Y-61685255D02*
X75580379Y-61637636D01*
X75580379Y-61637636D02*
X75627998Y-61542398D01*
X75627998Y-61542398D02*
X75627998Y-61447160D01*
X75627998Y-61447160D02*
X75580379Y-61351922D01*
X75580379Y-61351922D02*
X75532760Y-61304303D01*
X75532760Y-61304303D02*
X75437522Y-61256684D01*
X75437522Y-61256684D02*
X75199427Y-61256684D01*
X75199427Y-61256684D02*
X75056570Y-61304303D01*
X74627998Y-62256684D02*
X74627998Y-61256684D01*
X74627998Y-61256684D02*
X74389903Y-61256684D01*
X74389903Y-61256684D02*
X74247046Y-61304303D01*
X74247046Y-61304303D02*
X74151808Y-61399541D01*
X74151808Y-61399541D02*
X74104189Y-61494779D01*
X74104189Y-61494779D02*
X74056570Y-61685255D01*
X74056570Y-61685255D02*
X74056570Y-61828112D01*
X74056570Y-61828112D02*
X74104189Y-62018588D01*
X74104189Y-62018588D02*
X74151808Y-62113826D01*
X74151808Y-62113826D02*
X74247046Y-62209065D01*
X74247046Y-62209065D02*
X74389903Y-62256684D01*
X74389903Y-62256684D02*
X74627998Y-62256684D01*
X73437522Y-61256684D02*
X73247046Y-61256684D01*
X73247046Y-61256684D02*
X73151808Y-61304303D01*
X73151808Y-61304303D02*
X73056570Y-61399541D01*
X73056570Y-61399541D02*
X73008951Y-61590017D01*
X73008951Y-61590017D02*
X73008951Y-61923350D01*
X73008951Y-61923350D02*
X73056570Y-62113826D01*
X73056570Y-62113826D02*
X73151808Y-62209065D01*
X73151808Y-62209065D02*
X73247046Y-62256684D01*
X73247046Y-62256684D02*
X73437522Y-62256684D01*
X73437522Y-62256684D02*
X73532760Y-62209065D01*
X73532760Y-62209065D02*
X73627998Y-62113826D01*
X73627998Y-62113826D02*
X73675617Y-61923350D01*
X73675617Y-61923350D02*
X73675617Y-61590017D01*
X73675617Y-61590017D02*
X73627998Y-61399541D01*
X73627998Y-61399541D02*
X73532760Y-61304303D01*
X73532760Y-61304303D02*
X73437522Y-61256684D01*
X76133236Y-51076684D02*
X75799903Y-52076684D01*
X75799903Y-52076684D02*
X75466570Y-51076684D01*
X75133236Y-52076684D02*
X75133236Y-51076684D01*
X75133236Y-51076684D02*
X74895141Y-51076684D01*
X74895141Y-51076684D02*
X74752284Y-51124303D01*
X74752284Y-51124303D02*
X74657046Y-51219541D01*
X74657046Y-51219541D02*
X74609427Y-51314779D01*
X74609427Y-51314779D02*
X74561808Y-51505255D01*
X74561808Y-51505255D02*
X74561808Y-51648112D01*
X74561808Y-51648112D02*
X74609427Y-51838588D01*
X74609427Y-51838588D02*
X74657046Y-51933826D01*
X74657046Y-51933826D02*
X74752284Y-52029065D01*
X74752284Y-52029065D02*
X74895141Y-52076684D01*
X74895141Y-52076684D02*
X75133236Y-52076684D01*
X74133236Y-52076684D02*
X74133236Y-51076684D01*
X74133236Y-51076684D02*
X73895141Y-51076684D01*
X73895141Y-51076684D02*
X73752284Y-51124303D01*
X73752284Y-51124303D02*
X73657046Y-51219541D01*
X73657046Y-51219541D02*
X73609427Y-51314779D01*
X73609427Y-51314779D02*
X73561808Y-51505255D01*
X73561808Y-51505255D02*
X73561808Y-51648112D01*
X73561808Y-51648112D02*
X73609427Y-51838588D01*
X73609427Y-51838588D02*
X73657046Y-51933826D01*
X73657046Y-51933826D02*
X73752284Y-52029065D01*
X73752284Y-52029065D02*
X73895141Y-52076684D01*
X73895141Y-52076684D02*
X74133236Y-52076684D01*
X74908951Y-64761445D02*
X74956570Y-64809065D01*
X74956570Y-64809065D02*
X75099427Y-64856684D01*
X75099427Y-64856684D02*
X75194665Y-64856684D01*
X75194665Y-64856684D02*
X75337522Y-64809065D01*
X75337522Y-64809065D02*
X75432760Y-64713826D01*
X75432760Y-64713826D02*
X75480379Y-64618588D01*
X75480379Y-64618588D02*
X75527998Y-64428112D01*
X75527998Y-64428112D02*
X75527998Y-64285255D01*
X75527998Y-64285255D02*
X75480379Y-64094779D01*
X75480379Y-64094779D02*
X75432760Y-63999541D01*
X75432760Y-63999541D02*
X75337522Y-63904303D01*
X75337522Y-63904303D02*
X75194665Y-63856684D01*
X75194665Y-63856684D02*
X75099427Y-63856684D01*
X75099427Y-63856684D02*
X74956570Y-63904303D01*
X74956570Y-63904303D02*
X74908951Y-63951922D01*
X74527998Y-64809065D02*
X74385141Y-64856684D01*
X74385141Y-64856684D02*
X74147046Y-64856684D01*
X74147046Y-64856684D02*
X74051808Y-64809065D01*
X74051808Y-64809065D02*
X74004189Y-64761445D01*
X74004189Y-64761445D02*
X73956570Y-64666207D01*
X73956570Y-64666207D02*
X73956570Y-64570969D01*
X73956570Y-64570969D02*
X74004189Y-64475731D01*
X74004189Y-64475731D02*
X74051808Y-64428112D01*
X74051808Y-64428112D02*
X74147046Y-64380493D01*
X74147046Y-64380493D02*
X74337522Y-64332874D01*
X74337522Y-64332874D02*
X74432760Y-64285255D01*
X74432760Y-64285255D02*
X74480379Y-64237636D01*
X74480379Y-64237636D02*
X74527998Y-64142398D01*
X74527998Y-64142398D02*
X74527998Y-64047160D01*
X74527998Y-64047160D02*
X74480379Y-63951922D01*
X74480379Y-63951922D02*
X74432760Y-63904303D01*
X74432760Y-63904303D02*
X74337522Y-63856684D01*
X74337522Y-63856684D02*
X74099427Y-63856684D01*
X74099427Y-63856684D02*
X73956570Y-63904303D01*
X75530379Y-70136684D02*
X75530379Y-69136684D01*
X75054189Y-70136684D02*
X75054189Y-69136684D01*
X75054189Y-69136684D02*
X74482761Y-70136684D01*
X74482761Y-70136684D02*
X74482761Y-69136684D01*
X74149427Y-69136684D02*
X73577999Y-69136684D01*
X73863713Y-70136684D02*
X73863713Y-69136684D01*
X75677998Y-59699065D02*
X75535141Y-59746684D01*
X75535141Y-59746684D02*
X75297046Y-59746684D01*
X75297046Y-59746684D02*
X75201808Y-59699065D01*
X75201808Y-59699065D02*
X75154189Y-59651445D01*
X75154189Y-59651445D02*
X75106570Y-59556207D01*
X75106570Y-59556207D02*
X75106570Y-59460969D01*
X75106570Y-59460969D02*
X75154189Y-59365731D01*
X75154189Y-59365731D02*
X75201808Y-59318112D01*
X75201808Y-59318112D02*
X75297046Y-59270493D01*
X75297046Y-59270493D02*
X75487522Y-59222874D01*
X75487522Y-59222874D02*
X75582760Y-59175255D01*
X75582760Y-59175255D02*
X75630379Y-59127636D01*
X75630379Y-59127636D02*
X75677998Y-59032398D01*
X75677998Y-59032398D02*
X75677998Y-58937160D01*
X75677998Y-58937160D02*
X75630379Y-58841922D01*
X75630379Y-58841922D02*
X75582760Y-58794303D01*
X75582760Y-58794303D02*
X75487522Y-58746684D01*
X75487522Y-58746684D02*
X75249427Y-58746684D01*
X75249427Y-58746684D02*
X75106570Y-58794303D01*
X74106570Y-59651445D02*
X74154189Y-59699065D01*
X74154189Y-59699065D02*
X74297046Y-59746684D01*
X74297046Y-59746684D02*
X74392284Y-59746684D01*
X74392284Y-59746684D02*
X74535141Y-59699065D01*
X74535141Y-59699065D02*
X74630379Y-59603826D01*
X74630379Y-59603826D02*
X74677998Y-59508588D01*
X74677998Y-59508588D02*
X74725617Y-59318112D01*
X74725617Y-59318112D02*
X74725617Y-59175255D01*
X74725617Y-59175255D02*
X74677998Y-58984779D01*
X74677998Y-58984779D02*
X74630379Y-58889541D01*
X74630379Y-58889541D02*
X74535141Y-58794303D01*
X74535141Y-58794303D02*
X74392284Y-58746684D01*
X74392284Y-58746684D02*
X74297046Y-58746684D01*
X74297046Y-58746684D02*
X74154189Y-58794303D01*
X74154189Y-58794303D02*
X74106570Y-58841922D01*
X73201808Y-59746684D02*
X73677998Y-59746684D01*
X73677998Y-59746684D02*
X73677998Y-58746684D01*
X75677998Y-57249065D02*
X75535141Y-57296684D01*
X75535141Y-57296684D02*
X75297046Y-57296684D01*
X75297046Y-57296684D02*
X75201808Y-57249065D01*
X75201808Y-57249065D02*
X75154189Y-57201445D01*
X75154189Y-57201445D02*
X75106570Y-57106207D01*
X75106570Y-57106207D02*
X75106570Y-57010969D01*
X75106570Y-57010969D02*
X75154189Y-56915731D01*
X75154189Y-56915731D02*
X75201808Y-56868112D01*
X75201808Y-56868112D02*
X75297046Y-56820493D01*
X75297046Y-56820493D02*
X75487522Y-56772874D01*
X75487522Y-56772874D02*
X75582760Y-56725255D01*
X75582760Y-56725255D02*
X75630379Y-56677636D01*
X75630379Y-56677636D02*
X75677998Y-56582398D01*
X75677998Y-56582398D02*
X75677998Y-56487160D01*
X75677998Y-56487160D02*
X75630379Y-56391922D01*
X75630379Y-56391922D02*
X75582760Y-56344303D01*
X75582760Y-56344303D02*
X75487522Y-56296684D01*
X75487522Y-56296684D02*
X75249427Y-56296684D01*
X75249427Y-56296684D02*
X75106570Y-56344303D01*
X74677998Y-57296684D02*
X74677998Y-56296684D01*
X74677998Y-56296684D02*
X74439903Y-56296684D01*
X74439903Y-56296684D02*
X74297046Y-56344303D01*
X74297046Y-56344303D02*
X74201808Y-56439541D01*
X74201808Y-56439541D02*
X74154189Y-56534779D01*
X74154189Y-56534779D02*
X74106570Y-56725255D01*
X74106570Y-56725255D02*
X74106570Y-56868112D01*
X74106570Y-56868112D02*
X74154189Y-57058588D01*
X74154189Y-57058588D02*
X74201808Y-57153826D01*
X74201808Y-57153826D02*
X74297046Y-57249065D01*
X74297046Y-57249065D02*
X74439903Y-57296684D01*
X74439903Y-57296684D02*
X74677998Y-57296684D01*
X73725617Y-57010969D02*
X73249427Y-57010969D01*
X73820855Y-57296684D02*
X73487522Y-56296684D01*
X73487522Y-56296684D02*
X73154189Y-57296684D01*
X75366570Y-53734303D02*
X75461808Y-53686684D01*
X75461808Y-53686684D02*
X75604665Y-53686684D01*
X75604665Y-53686684D02*
X75747522Y-53734303D01*
X75747522Y-53734303D02*
X75842760Y-53829541D01*
X75842760Y-53829541D02*
X75890379Y-53924779D01*
X75890379Y-53924779D02*
X75937998Y-54115255D01*
X75937998Y-54115255D02*
X75937998Y-54258112D01*
X75937998Y-54258112D02*
X75890379Y-54448588D01*
X75890379Y-54448588D02*
X75842760Y-54543826D01*
X75842760Y-54543826D02*
X75747522Y-54639065D01*
X75747522Y-54639065D02*
X75604665Y-54686684D01*
X75604665Y-54686684D02*
X75509427Y-54686684D01*
X75509427Y-54686684D02*
X75366570Y-54639065D01*
X75366570Y-54639065D02*
X75318951Y-54591445D01*
X75318951Y-54591445D02*
X75318951Y-54258112D01*
X75318951Y-54258112D02*
X75509427Y-54258112D01*
X74890379Y-54686684D02*
X74890379Y-53686684D01*
X74890379Y-53686684D02*
X74318951Y-54686684D01*
X74318951Y-54686684D02*
X74318951Y-53686684D01*
X73842760Y-54686684D02*
X73842760Y-53686684D01*
X73842760Y-53686684D02*
X73604665Y-53686684D01*
X73604665Y-53686684D02*
X73461808Y-53734303D01*
X73461808Y-53734303D02*
X73366570Y-53829541D01*
X73366570Y-53829541D02*
X73318951Y-53924779D01*
X73318951Y-53924779D02*
X73271332Y-54115255D01*
X73271332Y-54115255D02*
X73271332Y-54258112D01*
X73271332Y-54258112D02*
X73318951Y-54448588D01*
X73318951Y-54448588D02*
X73366570Y-54543826D01*
X73366570Y-54543826D02*
X73461808Y-54639065D01*
X73461808Y-54639065D02*
X73604665Y-54686684D01*
X73604665Y-54686684D02*
X73842760Y-54686684D01*
X23500379Y-70116684D02*
X23500379Y-69116684D01*
X23024189Y-70116684D02*
X23024189Y-69116684D01*
X23024189Y-69116684D02*
X22452761Y-70116684D01*
X22452761Y-70116684D02*
X22452761Y-69116684D01*
X22119427Y-69116684D02*
X21547999Y-69116684D01*
X21833713Y-70116684D02*
X21833713Y-69116684D01*
X23597998Y-62189065D02*
X23455141Y-62236684D01*
X23455141Y-62236684D02*
X23217046Y-62236684D01*
X23217046Y-62236684D02*
X23121808Y-62189065D01*
X23121808Y-62189065D02*
X23074189Y-62141445D01*
X23074189Y-62141445D02*
X23026570Y-62046207D01*
X23026570Y-62046207D02*
X23026570Y-61950969D01*
X23026570Y-61950969D02*
X23074189Y-61855731D01*
X23074189Y-61855731D02*
X23121808Y-61808112D01*
X23121808Y-61808112D02*
X23217046Y-61760493D01*
X23217046Y-61760493D02*
X23407522Y-61712874D01*
X23407522Y-61712874D02*
X23502760Y-61665255D01*
X23502760Y-61665255D02*
X23550379Y-61617636D01*
X23550379Y-61617636D02*
X23597998Y-61522398D01*
X23597998Y-61522398D02*
X23597998Y-61427160D01*
X23597998Y-61427160D02*
X23550379Y-61331922D01*
X23550379Y-61331922D02*
X23502760Y-61284303D01*
X23502760Y-61284303D02*
X23407522Y-61236684D01*
X23407522Y-61236684D02*
X23169427Y-61236684D01*
X23169427Y-61236684D02*
X23026570Y-61284303D01*
X22597998Y-62236684D02*
X22597998Y-61236684D01*
X22597998Y-61236684D02*
X22359903Y-61236684D01*
X22359903Y-61236684D02*
X22217046Y-61284303D01*
X22217046Y-61284303D02*
X22121808Y-61379541D01*
X22121808Y-61379541D02*
X22074189Y-61474779D01*
X22074189Y-61474779D02*
X22026570Y-61665255D01*
X22026570Y-61665255D02*
X22026570Y-61808112D01*
X22026570Y-61808112D02*
X22074189Y-61998588D01*
X22074189Y-61998588D02*
X22121808Y-62093826D01*
X22121808Y-62093826D02*
X22217046Y-62189065D01*
X22217046Y-62189065D02*
X22359903Y-62236684D01*
X22359903Y-62236684D02*
X22597998Y-62236684D01*
X21407522Y-61236684D02*
X21217046Y-61236684D01*
X21217046Y-61236684D02*
X21121808Y-61284303D01*
X21121808Y-61284303D02*
X21026570Y-61379541D01*
X21026570Y-61379541D02*
X20978951Y-61570017D01*
X20978951Y-61570017D02*
X20978951Y-61903350D01*
X20978951Y-61903350D02*
X21026570Y-62093826D01*
X21026570Y-62093826D02*
X21121808Y-62189065D01*
X21121808Y-62189065D02*
X21217046Y-62236684D01*
X21217046Y-62236684D02*
X21407522Y-62236684D01*
X21407522Y-62236684D02*
X21502760Y-62189065D01*
X21502760Y-62189065D02*
X21597998Y-62093826D01*
X21597998Y-62093826D02*
X21645617Y-61903350D01*
X21645617Y-61903350D02*
X21645617Y-61570017D01*
X21645617Y-61570017D02*
X21597998Y-61379541D01*
X21597998Y-61379541D02*
X21502760Y-61284303D01*
X21502760Y-61284303D02*
X21407522Y-61236684D01*
X23336570Y-53714303D02*
X23431808Y-53666684D01*
X23431808Y-53666684D02*
X23574665Y-53666684D01*
X23574665Y-53666684D02*
X23717522Y-53714303D01*
X23717522Y-53714303D02*
X23812760Y-53809541D01*
X23812760Y-53809541D02*
X23860379Y-53904779D01*
X23860379Y-53904779D02*
X23907998Y-54095255D01*
X23907998Y-54095255D02*
X23907998Y-54238112D01*
X23907998Y-54238112D02*
X23860379Y-54428588D01*
X23860379Y-54428588D02*
X23812760Y-54523826D01*
X23812760Y-54523826D02*
X23717522Y-54619065D01*
X23717522Y-54619065D02*
X23574665Y-54666684D01*
X23574665Y-54666684D02*
X23479427Y-54666684D01*
X23479427Y-54666684D02*
X23336570Y-54619065D01*
X23336570Y-54619065D02*
X23288951Y-54571445D01*
X23288951Y-54571445D02*
X23288951Y-54238112D01*
X23288951Y-54238112D02*
X23479427Y-54238112D01*
X22860379Y-54666684D02*
X22860379Y-53666684D01*
X22860379Y-53666684D02*
X22288951Y-54666684D01*
X22288951Y-54666684D02*
X22288951Y-53666684D01*
X21812760Y-54666684D02*
X21812760Y-53666684D01*
X21812760Y-53666684D02*
X21574665Y-53666684D01*
X21574665Y-53666684D02*
X21431808Y-53714303D01*
X21431808Y-53714303D02*
X21336570Y-53809541D01*
X21336570Y-53809541D02*
X21288951Y-53904779D01*
X21288951Y-53904779D02*
X21241332Y-54095255D01*
X21241332Y-54095255D02*
X21241332Y-54238112D01*
X21241332Y-54238112D02*
X21288951Y-54428588D01*
X21288951Y-54428588D02*
X21336570Y-54523826D01*
X21336570Y-54523826D02*
X21431808Y-54619065D01*
X21431808Y-54619065D02*
X21574665Y-54666684D01*
X21574665Y-54666684D02*
X21812760Y-54666684D01*
X22878951Y-64741445D02*
X22926570Y-64789065D01*
X22926570Y-64789065D02*
X23069427Y-64836684D01*
X23069427Y-64836684D02*
X23164665Y-64836684D01*
X23164665Y-64836684D02*
X23307522Y-64789065D01*
X23307522Y-64789065D02*
X23402760Y-64693826D01*
X23402760Y-64693826D02*
X23450379Y-64598588D01*
X23450379Y-64598588D02*
X23497998Y-64408112D01*
X23497998Y-64408112D02*
X23497998Y-64265255D01*
X23497998Y-64265255D02*
X23450379Y-64074779D01*
X23450379Y-64074779D02*
X23402760Y-63979541D01*
X23402760Y-63979541D02*
X23307522Y-63884303D01*
X23307522Y-63884303D02*
X23164665Y-63836684D01*
X23164665Y-63836684D02*
X23069427Y-63836684D01*
X23069427Y-63836684D02*
X22926570Y-63884303D01*
X22926570Y-63884303D02*
X22878951Y-63931922D01*
X22497998Y-64789065D02*
X22355141Y-64836684D01*
X22355141Y-64836684D02*
X22117046Y-64836684D01*
X22117046Y-64836684D02*
X22021808Y-64789065D01*
X22021808Y-64789065D02*
X21974189Y-64741445D01*
X21974189Y-64741445D02*
X21926570Y-64646207D01*
X21926570Y-64646207D02*
X21926570Y-64550969D01*
X21926570Y-64550969D02*
X21974189Y-64455731D01*
X21974189Y-64455731D02*
X22021808Y-64408112D01*
X22021808Y-64408112D02*
X22117046Y-64360493D01*
X22117046Y-64360493D02*
X22307522Y-64312874D01*
X22307522Y-64312874D02*
X22402760Y-64265255D01*
X22402760Y-64265255D02*
X22450379Y-64217636D01*
X22450379Y-64217636D02*
X22497998Y-64122398D01*
X22497998Y-64122398D02*
X22497998Y-64027160D01*
X22497998Y-64027160D02*
X22450379Y-63931922D01*
X22450379Y-63931922D02*
X22402760Y-63884303D01*
X22402760Y-63884303D02*
X22307522Y-63836684D01*
X22307522Y-63836684D02*
X22069427Y-63836684D01*
X22069427Y-63836684D02*
X21926570Y-63884303D01*
X24103236Y-51056684D02*
X23769903Y-52056684D01*
X23769903Y-52056684D02*
X23436570Y-51056684D01*
X23103236Y-52056684D02*
X23103236Y-51056684D01*
X23103236Y-51056684D02*
X22865141Y-51056684D01*
X22865141Y-51056684D02*
X22722284Y-51104303D01*
X22722284Y-51104303D02*
X22627046Y-51199541D01*
X22627046Y-51199541D02*
X22579427Y-51294779D01*
X22579427Y-51294779D02*
X22531808Y-51485255D01*
X22531808Y-51485255D02*
X22531808Y-51628112D01*
X22531808Y-51628112D02*
X22579427Y-51818588D01*
X22579427Y-51818588D02*
X22627046Y-51913826D01*
X22627046Y-51913826D02*
X22722284Y-52009065D01*
X22722284Y-52009065D02*
X22865141Y-52056684D01*
X22865141Y-52056684D02*
X23103236Y-52056684D01*
X22103236Y-52056684D02*
X22103236Y-51056684D01*
X22103236Y-51056684D02*
X21865141Y-51056684D01*
X21865141Y-51056684D02*
X21722284Y-51104303D01*
X21722284Y-51104303D02*
X21627046Y-51199541D01*
X21627046Y-51199541D02*
X21579427Y-51294779D01*
X21579427Y-51294779D02*
X21531808Y-51485255D01*
X21531808Y-51485255D02*
X21531808Y-51628112D01*
X21531808Y-51628112D02*
X21579427Y-51818588D01*
X21579427Y-51818588D02*
X21627046Y-51913826D01*
X21627046Y-51913826D02*
X21722284Y-52009065D01*
X21722284Y-52009065D02*
X21865141Y-52056684D01*
X21865141Y-52056684D02*
X22103236Y-52056684D01*
X23647998Y-57229065D02*
X23505141Y-57276684D01*
X23505141Y-57276684D02*
X23267046Y-57276684D01*
X23267046Y-57276684D02*
X23171808Y-57229065D01*
X23171808Y-57229065D02*
X23124189Y-57181445D01*
X23124189Y-57181445D02*
X23076570Y-57086207D01*
X23076570Y-57086207D02*
X23076570Y-56990969D01*
X23076570Y-56990969D02*
X23124189Y-56895731D01*
X23124189Y-56895731D02*
X23171808Y-56848112D01*
X23171808Y-56848112D02*
X23267046Y-56800493D01*
X23267046Y-56800493D02*
X23457522Y-56752874D01*
X23457522Y-56752874D02*
X23552760Y-56705255D01*
X23552760Y-56705255D02*
X23600379Y-56657636D01*
X23600379Y-56657636D02*
X23647998Y-56562398D01*
X23647998Y-56562398D02*
X23647998Y-56467160D01*
X23647998Y-56467160D02*
X23600379Y-56371922D01*
X23600379Y-56371922D02*
X23552760Y-56324303D01*
X23552760Y-56324303D02*
X23457522Y-56276684D01*
X23457522Y-56276684D02*
X23219427Y-56276684D01*
X23219427Y-56276684D02*
X23076570Y-56324303D01*
X22647998Y-57276684D02*
X22647998Y-56276684D01*
X22647998Y-56276684D02*
X22409903Y-56276684D01*
X22409903Y-56276684D02*
X22267046Y-56324303D01*
X22267046Y-56324303D02*
X22171808Y-56419541D01*
X22171808Y-56419541D02*
X22124189Y-56514779D01*
X22124189Y-56514779D02*
X22076570Y-56705255D01*
X22076570Y-56705255D02*
X22076570Y-56848112D01*
X22076570Y-56848112D02*
X22124189Y-57038588D01*
X22124189Y-57038588D02*
X22171808Y-57133826D01*
X22171808Y-57133826D02*
X22267046Y-57229065D01*
X22267046Y-57229065D02*
X22409903Y-57276684D01*
X22409903Y-57276684D02*
X22647998Y-57276684D01*
X21695617Y-56990969D02*
X21219427Y-56990969D01*
X21790855Y-57276684D02*
X21457522Y-56276684D01*
X21457522Y-56276684D02*
X21124189Y-57276684D01*
X23500379Y-67246684D02*
X23500379Y-66246684D01*
X23500379Y-66246684D02*
X23262284Y-66246684D01*
X23262284Y-66246684D02*
X23119427Y-66294303D01*
X23119427Y-66294303D02*
X23024189Y-66389541D01*
X23024189Y-66389541D02*
X22976570Y-66484779D01*
X22976570Y-66484779D02*
X22928951Y-66675255D01*
X22928951Y-66675255D02*
X22928951Y-66818112D01*
X22928951Y-66818112D02*
X22976570Y-67008588D01*
X22976570Y-67008588D02*
X23024189Y-67103826D01*
X23024189Y-67103826D02*
X23119427Y-67199065D01*
X23119427Y-67199065D02*
X23262284Y-67246684D01*
X23262284Y-67246684D02*
X23500379Y-67246684D01*
X21928951Y-67246684D02*
X22262284Y-66770493D01*
X22500379Y-67246684D02*
X22500379Y-66246684D01*
X22500379Y-66246684D02*
X22119427Y-66246684D01*
X22119427Y-66246684D02*
X22024189Y-66294303D01*
X22024189Y-66294303D02*
X21976570Y-66341922D01*
X21976570Y-66341922D02*
X21928951Y-66437160D01*
X21928951Y-66437160D02*
X21928951Y-66580017D01*
X21928951Y-66580017D02*
X21976570Y-66675255D01*
X21976570Y-66675255D02*
X22024189Y-66722874D01*
X22024189Y-66722874D02*
X22119427Y-66770493D01*
X22119427Y-66770493D02*
X22500379Y-66770493D01*
X21500379Y-67246684D02*
X21500379Y-66246684D01*
X21500379Y-66246684D02*
X21262284Y-66246684D01*
X21262284Y-66246684D02*
X21119427Y-66294303D01*
X21119427Y-66294303D02*
X21024189Y-66389541D01*
X21024189Y-66389541D02*
X20976570Y-66484779D01*
X20976570Y-66484779D02*
X20928951Y-66675255D01*
X20928951Y-66675255D02*
X20928951Y-66818112D01*
X20928951Y-66818112D02*
X20976570Y-67008588D01*
X20976570Y-67008588D02*
X21024189Y-67103826D01*
X21024189Y-67103826D02*
X21119427Y-67199065D01*
X21119427Y-67199065D02*
X21262284Y-67246684D01*
X21262284Y-67246684D02*
X21500379Y-67246684D01*
X20309903Y-66770493D02*
X20309903Y-67246684D01*
X20643236Y-66246684D02*
X20309903Y-66770493D01*
X20309903Y-66770493D02*
X19976570Y-66246684D01*
X23647998Y-59679065D02*
X23505141Y-59726684D01*
X23505141Y-59726684D02*
X23267046Y-59726684D01*
X23267046Y-59726684D02*
X23171808Y-59679065D01*
X23171808Y-59679065D02*
X23124189Y-59631445D01*
X23124189Y-59631445D02*
X23076570Y-59536207D01*
X23076570Y-59536207D02*
X23076570Y-59440969D01*
X23076570Y-59440969D02*
X23124189Y-59345731D01*
X23124189Y-59345731D02*
X23171808Y-59298112D01*
X23171808Y-59298112D02*
X23267046Y-59250493D01*
X23267046Y-59250493D02*
X23457522Y-59202874D01*
X23457522Y-59202874D02*
X23552760Y-59155255D01*
X23552760Y-59155255D02*
X23600379Y-59107636D01*
X23600379Y-59107636D02*
X23647998Y-59012398D01*
X23647998Y-59012398D02*
X23647998Y-58917160D01*
X23647998Y-58917160D02*
X23600379Y-58821922D01*
X23600379Y-58821922D02*
X23552760Y-58774303D01*
X23552760Y-58774303D02*
X23457522Y-58726684D01*
X23457522Y-58726684D02*
X23219427Y-58726684D01*
X23219427Y-58726684D02*
X23076570Y-58774303D01*
X22076570Y-59631445D02*
X22124189Y-59679065D01*
X22124189Y-59679065D02*
X22267046Y-59726684D01*
X22267046Y-59726684D02*
X22362284Y-59726684D01*
X22362284Y-59726684D02*
X22505141Y-59679065D01*
X22505141Y-59679065D02*
X22600379Y-59583826D01*
X22600379Y-59583826D02*
X22647998Y-59488588D01*
X22647998Y-59488588D02*
X22695617Y-59298112D01*
X22695617Y-59298112D02*
X22695617Y-59155255D01*
X22695617Y-59155255D02*
X22647998Y-58964779D01*
X22647998Y-58964779D02*
X22600379Y-58869541D01*
X22600379Y-58869541D02*
X22505141Y-58774303D01*
X22505141Y-58774303D02*
X22362284Y-58726684D01*
X22362284Y-58726684D02*
X22267046Y-58726684D01*
X22267046Y-58726684D02*
X22124189Y-58774303D01*
X22124189Y-58774303D02*
X22076570Y-58821922D01*
X21171808Y-59726684D02*
X21647998Y-59726684D01*
X21647998Y-59726684D02*
X21647998Y-58726684D01*
X75446115Y-39632419D02*
X75446115Y-38632419D01*
X74969925Y-39632419D02*
X74969925Y-38632419D01*
X74969925Y-38632419D02*
X74398497Y-39632419D01*
X74398497Y-39632419D02*
X74398497Y-38632419D01*
X74065163Y-38632419D02*
X73493735Y-38632419D01*
X73779449Y-39632419D02*
X73779449Y-38632419D01*
X76048972Y-20572419D02*
X75715639Y-21572419D01*
X75715639Y-21572419D02*
X75382306Y-20572419D01*
X75048972Y-21572419D02*
X75048972Y-20572419D01*
X75048972Y-20572419D02*
X74810877Y-20572419D01*
X74810877Y-20572419D02*
X74668020Y-20620038D01*
X74668020Y-20620038D02*
X74572782Y-20715276D01*
X74572782Y-20715276D02*
X74525163Y-20810514D01*
X74525163Y-20810514D02*
X74477544Y-21000990D01*
X74477544Y-21000990D02*
X74477544Y-21143847D01*
X74477544Y-21143847D02*
X74525163Y-21334323D01*
X74525163Y-21334323D02*
X74572782Y-21429561D01*
X74572782Y-21429561D02*
X74668020Y-21524800D01*
X74668020Y-21524800D02*
X74810877Y-21572419D01*
X74810877Y-21572419D02*
X75048972Y-21572419D01*
X74048972Y-21572419D02*
X74048972Y-20572419D01*
X74048972Y-20572419D02*
X73810877Y-20572419D01*
X73810877Y-20572419D02*
X73668020Y-20620038D01*
X73668020Y-20620038D02*
X73572782Y-20715276D01*
X73572782Y-20715276D02*
X73525163Y-20810514D01*
X73525163Y-20810514D02*
X73477544Y-21000990D01*
X73477544Y-21000990D02*
X73477544Y-21143847D01*
X73477544Y-21143847D02*
X73525163Y-21334323D01*
X73525163Y-21334323D02*
X73572782Y-21429561D01*
X73572782Y-21429561D02*
X73668020Y-21524800D01*
X73668020Y-21524800D02*
X73810877Y-21572419D01*
X73810877Y-21572419D02*
X74048972Y-21572419D01*
X75543734Y-31704800D02*
X75400877Y-31752419D01*
X75400877Y-31752419D02*
X75162782Y-31752419D01*
X75162782Y-31752419D02*
X75067544Y-31704800D01*
X75067544Y-31704800D02*
X75019925Y-31657180D01*
X75019925Y-31657180D02*
X74972306Y-31561942D01*
X74972306Y-31561942D02*
X74972306Y-31466704D01*
X74972306Y-31466704D02*
X75019925Y-31371466D01*
X75019925Y-31371466D02*
X75067544Y-31323847D01*
X75067544Y-31323847D02*
X75162782Y-31276228D01*
X75162782Y-31276228D02*
X75353258Y-31228609D01*
X75353258Y-31228609D02*
X75448496Y-31180990D01*
X75448496Y-31180990D02*
X75496115Y-31133371D01*
X75496115Y-31133371D02*
X75543734Y-31038133D01*
X75543734Y-31038133D02*
X75543734Y-30942895D01*
X75543734Y-30942895D02*
X75496115Y-30847657D01*
X75496115Y-30847657D02*
X75448496Y-30800038D01*
X75448496Y-30800038D02*
X75353258Y-30752419D01*
X75353258Y-30752419D02*
X75115163Y-30752419D01*
X75115163Y-30752419D02*
X74972306Y-30800038D01*
X74543734Y-31752419D02*
X74543734Y-30752419D01*
X74543734Y-30752419D02*
X74305639Y-30752419D01*
X74305639Y-30752419D02*
X74162782Y-30800038D01*
X74162782Y-30800038D02*
X74067544Y-30895276D01*
X74067544Y-30895276D02*
X74019925Y-30990514D01*
X74019925Y-30990514D02*
X73972306Y-31180990D01*
X73972306Y-31180990D02*
X73972306Y-31323847D01*
X73972306Y-31323847D02*
X74019925Y-31514323D01*
X74019925Y-31514323D02*
X74067544Y-31609561D01*
X74067544Y-31609561D02*
X74162782Y-31704800D01*
X74162782Y-31704800D02*
X74305639Y-31752419D01*
X74305639Y-31752419D02*
X74543734Y-31752419D01*
X73353258Y-30752419D02*
X73162782Y-30752419D01*
X73162782Y-30752419D02*
X73067544Y-30800038D01*
X73067544Y-30800038D02*
X72972306Y-30895276D01*
X72972306Y-30895276D02*
X72924687Y-31085752D01*
X72924687Y-31085752D02*
X72924687Y-31419085D01*
X72924687Y-31419085D02*
X72972306Y-31609561D01*
X72972306Y-31609561D02*
X73067544Y-31704800D01*
X73067544Y-31704800D02*
X73162782Y-31752419D01*
X73162782Y-31752419D02*
X73353258Y-31752419D01*
X73353258Y-31752419D02*
X73448496Y-31704800D01*
X73448496Y-31704800D02*
X73543734Y-31609561D01*
X73543734Y-31609561D02*
X73591353Y-31419085D01*
X73591353Y-31419085D02*
X73591353Y-31085752D01*
X73591353Y-31085752D02*
X73543734Y-30895276D01*
X73543734Y-30895276D02*
X73448496Y-30800038D01*
X73448496Y-30800038D02*
X73353258Y-30752419D01*
X74824687Y-34257180D02*
X74872306Y-34304800D01*
X74872306Y-34304800D02*
X75015163Y-34352419D01*
X75015163Y-34352419D02*
X75110401Y-34352419D01*
X75110401Y-34352419D02*
X75253258Y-34304800D01*
X75253258Y-34304800D02*
X75348496Y-34209561D01*
X75348496Y-34209561D02*
X75396115Y-34114323D01*
X75396115Y-34114323D02*
X75443734Y-33923847D01*
X75443734Y-33923847D02*
X75443734Y-33780990D01*
X75443734Y-33780990D02*
X75396115Y-33590514D01*
X75396115Y-33590514D02*
X75348496Y-33495276D01*
X75348496Y-33495276D02*
X75253258Y-33400038D01*
X75253258Y-33400038D02*
X75110401Y-33352419D01*
X75110401Y-33352419D02*
X75015163Y-33352419D01*
X75015163Y-33352419D02*
X74872306Y-33400038D01*
X74872306Y-33400038D02*
X74824687Y-33447657D01*
X74443734Y-34304800D02*
X74300877Y-34352419D01*
X74300877Y-34352419D02*
X74062782Y-34352419D01*
X74062782Y-34352419D02*
X73967544Y-34304800D01*
X73967544Y-34304800D02*
X73919925Y-34257180D01*
X73919925Y-34257180D02*
X73872306Y-34161942D01*
X73872306Y-34161942D02*
X73872306Y-34066704D01*
X73872306Y-34066704D02*
X73919925Y-33971466D01*
X73919925Y-33971466D02*
X73967544Y-33923847D01*
X73967544Y-33923847D02*
X74062782Y-33876228D01*
X74062782Y-33876228D02*
X74253258Y-33828609D01*
X74253258Y-33828609D02*
X74348496Y-33780990D01*
X74348496Y-33780990D02*
X74396115Y-33733371D01*
X74396115Y-33733371D02*
X74443734Y-33638133D01*
X74443734Y-33638133D02*
X74443734Y-33542895D01*
X74443734Y-33542895D02*
X74396115Y-33447657D01*
X74396115Y-33447657D02*
X74348496Y-33400038D01*
X74348496Y-33400038D02*
X74253258Y-33352419D01*
X74253258Y-33352419D02*
X74015163Y-33352419D01*
X74015163Y-33352419D02*
X73872306Y-33400038D01*
X75282306Y-23230038D02*
X75377544Y-23182419D01*
X75377544Y-23182419D02*
X75520401Y-23182419D01*
X75520401Y-23182419D02*
X75663258Y-23230038D01*
X75663258Y-23230038D02*
X75758496Y-23325276D01*
X75758496Y-23325276D02*
X75806115Y-23420514D01*
X75806115Y-23420514D02*
X75853734Y-23610990D01*
X75853734Y-23610990D02*
X75853734Y-23753847D01*
X75853734Y-23753847D02*
X75806115Y-23944323D01*
X75806115Y-23944323D02*
X75758496Y-24039561D01*
X75758496Y-24039561D02*
X75663258Y-24134800D01*
X75663258Y-24134800D02*
X75520401Y-24182419D01*
X75520401Y-24182419D02*
X75425163Y-24182419D01*
X75425163Y-24182419D02*
X75282306Y-24134800D01*
X75282306Y-24134800D02*
X75234687Y-24087180D01*
X75234687Y-24087180D02*
X75234687Y-23753847D01*
X75234687Y-23753847D02*
X75425163Y-23753847D01*
X74806115Y-24182419D02*
X74806115Y-23182419D01*
X74806115Y-23182419D02*
X74234687Y-24182419D01*
X74234687Y-24182419D02*
X74234687Y-23182419D01*
X73758496Y-24182419D02*
X73758496Y-23182419D01*
X73758496Y-23182419D02*
X73520401Y-23182419D01*
X73520401Y-23182419D02*
X73377544Y-23230038D01*
X73377544Y-23230038D02*
X73282306Y-23325276D01*
X73282306Y-23325276D02*
X73234687Y-23420514D01*
X73234687Y-23420514D02*
X73187068Y-23610990D01*
X73187068Y-23610990D02*
X73187068Y-23753847D01*
X73187068Y-23753847D02*
X73234687Y-23944323D01*
X73234687Y-23944323D02*
X73282306Y-24039561D01*
X73282306Y-24039561D02*
X73377544Y-24134800D01*
X73377544Y-24134800D02*
X73520401Y-24182419D01*
X73520401Y-24182419D02*
X73758496Y-24182419D01*
X75593734Y-29194800D02*
X75450877Y-29242419D01*
X75450877Y-29242419D02*
X75212782Y-29242419D01*
X75212782Y-29242419D02*
X75117544Y-29194800D01*
X75117544Y-29194800D02*
X75069925Y-29147180D01*
X75069925Y-29147180D02*
X75022306Y-29051942D01*
X75022306Y-29051942D02*
X75022306Y-28956704D01*
X75022306Y-28956704D02*
X75069925Y-28861466D01*
X75069925Y-28861466D02*
X75117544Y-28813847D01*
X75117544Y-28813847D02*
X75212782Y-28766228D01*
X75212782Y-28766228D02*
X75403258Y-28718609D01*
X75403258Y-28718609D02*
X75498496Y-28670990D01*
X75498496Y-28670990D02*
X75546115Y-28623371D01*
X75546115Y-28623371D02*
X75593734Y-28528133D01*
X75593734Y-28528133D02*
X75593734Y-28432895D01*
X75593734Y-28432895D02*
X75546115Y-28337657D01*
X75546115Y-28337657D02*
X75498496Y-28290038D01*
X75498496Y-28290038D02*
X75403258Y-28242419D01*
X75403258Y-28242419D02*
X75165163Y-28242419D01*
X75165163Y-28242419D02*
X75022306Y-28290038D01*
X74022306Y-29147180D02*
X74069925Y-29194800D01*
X74069925Y-29194800D02*
X74212782Y-29242419D01*
X74212782Y-29242419D02*
X74308020Y-29242419D01*
X74308020Y-29242419D02*
X74450877Y-29194800D01*
X74450877Y-29194800D02*
X74546115Y-29099561D01*
X74546115Y-29099561D02*
X74593734Y-29004323D01*
X74593734Y-29004323D02*
X74641353Y-28813847D01*
X74641353Y-28813847D02*
X74641353Y-28670990D01*
X74641353Y-28670990D02*
X74593734Y-28480514D01*
X74593734Y-28480514D02*
X74546115Y-28385276D01*
X74546115Y-28385276D02*
X74450877Y-28290038D01*
X74450877Y-28290038D02*
X74308020Y-28242419D01*
X74308020Y-28242419D02*
X74212782Y-28242419D01*
X74212782Y-28242419D02*
X74069925Y-28290038D01*
X74069925Y-28290038D02*
X74022306Y-28337657D01*
X73117544Y-29242419D02*
X73593734Y-29242419D01*
X73593734Y-29242419D02*
X73593734Y-28242419D01*
X75593734Y-26744800D02*
X75450877Y-26792419D01*
X75450877Y-26792419D02*
X75212782Y-26792419D01*
X75212782Y-26792419D02*
X75117544Y-26744800D01*
X75117544Y-26744800D02*
X75069925Y-26697180D01*
X75069925Y-26697180D02*
X75022306Y-26601942D01*
X75022306Y-26601942D02*
X75022306Y-26506704D01*
X75022306Y-26506704D02*
X75069925Y-26411466D01*
X75069925Y-26411466D02*
X75117544Y-26363847D01*
X75117544Y-26363847D02*
X75212782Y-26316228D01*
X75212782Y-26316228D02*
X75403258Y-26268609D01*
X75403258Y-26268609D02*
X75498496Y-26220990D01*
X75498496Y-26220990D02*
X75546115Y-26173371D01*
X75546115Y-26173371D02*
X75593734Y-26078133D01*
X75593734Y-26078133D02*
X75593734Y-25982895D01*
X75593734Y-25982895D02*
X75546115Y-25887657D01*
X75546115Y-25887657D02*
X75498496Y-25840038D01*
X75498496Y-25840038D02*
X75403258Y-25792419D01*
X75403258Y-25792419D02*
X75165163Y-25792419D01*
X75165163Y-25792419D02*
X75022306Y-25840038D01*
X74593734Y-26792419D02*
X74593734Y-25792419D01*
X74593734Y-25792419D02*
X74355639Y-25792419D01*
X74355639Y-25792419D02*
X74212782Y-25840038D01*
X74212782Y-25840038D02*
X74117544Y-25935276D01*
X74117544Y-25935276D02*
X74069925Y-26030514D01*
X74069925Y-26030514D02*
X74022306Y-26220990D01*
X74022306Y-26220990D02*
X74022306Y-26363847D01*
X74022306Y-26363847D02*
X74069925Y-26554323D01*
X74069925Y-26554323D02*
X74117544Y-26649561D01*
X74117544Y-26649561D02*
X74212782Y-26744800D01*
X74212782Y-26744800D02*
X74355639Y-26792419D01*
X74355639Y-26792419D02*
X74593734Y-26792419D01*
X73641353Y-26506704D02*
X73165163Y-26506704D01*
X73736591Y-26792419D02*
X73403258Y-25792419D01*
X73403258Y-25792419D02*
X73069925Y-26792419D01*
X75446115Y-36762419D02*
X75446115Y-35762419D01*
X75446115Y-35762419D02*
X75208020Y-35762419D01*
X75208020Y-35762419D02*
X75065163Y-35810038D01*
X75065163Y-35810038D02*
X74969925Y-35905276D01*
X74969925Y-35905276D02*
X74922306Y-36000514D01*
X74922306Y-36000514D02*
X74874687Y-36190990D01*
X74874687Y-36190990D02*
X74874687Y-36333847D01*
X74874687Y-36333847D02*
X74922306Y-36524323D01*
X74922306Y-36524323D02*
X74969925Y-36619561D01*
X74969925Y-36619561D02*
X75065163Y-36714800D01*
X75065163Y-36714800D02*
X75208020Y-36762419D01*
X75208020Y-36762419D02*
X75446115Y-36762419D01*
X73874687Y-36762419D02*
X74208020Y-36286228D01*
X74446115Y-36762419D02*
X74446115Y-35762419D01*
X74446115Y-35762419D02*
X74065163Y-35762419D01*
X74065163Y-35762419D02*
X73969925Y-35810038D01*
X73969925Y-35810038D02*
X73922306Y-35857657D01*
X73922306Y-35857657D02*
X73874687Y-35952895D01*
X73874687Y-35952895D02*
X73874687Y-36095752D01*
X73874687Y-36095752D02*
X73922306Y-36190990D01*
X73922306Y-36190990D02*
X73969925Y-36238609D01*
X73969925Y-36238609D02*
X74065163Y-36286228D01*
X74065163Y-36286228D02*
X74446115Y-36286228D01*
X73446115Y-36762419D02*
X73446115Y-35762419D01*
X73446115Y-35762419D02*
X73208020Y-35762419D01*
X73208020Y-35762419D02*
X73065163Y-35810038D01*
X73065163Y-35810038D02*
X72969925Y-35905276D01*
X72969925Y-35905276D02*
X72922306Y-36000514D01*
X72922306Y-36000514D02*
X72874687Y-36190990D01*
X72874687Y-36190990D02*
X72874687Y-36333847D01*
X72874687Y-36333847D02*
X72922306Y-36524323D01*
X72922306Y-36524323D02*
X72969925Y-36619561D01*
X72969925Y-36619561D02*
X73065163Y-36714800D01*
X73065163Y-36714800D02*
X73208020Y-36762419D01*
X73208020Y-36762419D02*
X73446115Y-36762419D01*
X72255639Y-36286228D02*
X72255639Y-36762419D01*
X72588972Y-35762419D02*
X72255639Y-36286228D01*
X72255639Y-36286228D02*
X71922306Y-35762419D01*
X58091851Y-39628154D02*
X58091851Y-38628154D01*
X57615661Y-39628154D02*
X57615661Y-38628154D01*
X57615661Y-38628154D02*
X57044233Y-39628154D01*
X57044233Y-39628154D02*
X57044233Y-38628154D01*
X56710899Y-38628154D02*
X56139471Y-38628154D01*
X56425185Y-39628154D02*
X56425185Y-38628154D01*
X58189470Y-31700535D02*
X58046613Y-31748154D01*
X58046613Y-31748154D02*
X57808518Y-31748154D01*
X57808518Y-31748154D02*
X57713280Y-31700535D01*
X57713280Y-31700535D02*
X57665661Y-31652915D01*
X57665661Y-31652915D02*
X57618042Y-31557677D01*
X57618042Y-31557677D02*
X57618042Y-31462439D01*
X57618042Y-31462439D02*
X57665661Y-31367201D01*
X57665661Y-31367201D02*
X57713280Y-31319582D01*
X57713280Y-31319582D02*
X57808518Y-31271963D01*
X57808518Y-31271963D02*
X57998994Y-31224344D01*
X57998994Y-31224344D02*
X58094232Y-31176725D01*
X58094232Y-31176725D02*
X58141851Y-31129106D01*
X58141851Y-31129106D02*
X58189470Y-31033868D01*
X58189470Y-31033868D02*
X58189470Y-30938630D01*
X58189470Y-30938630D02*
X58141851Y-30843392D01*
X58141851Y-30843392D02*
X58094232Y-30795773D01*
X58094232Y-30795773D02*
X57998994Y-30748154D01*
X57998994Y-30748154D02*
X57760899Y-30748154D01*
X57760899Y-30748154D02*
X57618042Y-30795773D01*
X57189470Y-31748154D02*
X57189470Y-30748154D01*
X57189470Y-30748154D02*
X56951375Y-30748154D01*
X56951375Y-30748154D02*
X56808518Y-30795773D01*
X56808518Y-30795773D02*
X56713280Y-30891011D01*
X56713280Y-30891011D02*
X56665661Y-30986249D01*
X56665661Y-30986249D02*
X56618042Y-31176725D01*
X56618042Y-31176725D02*
X56618042Y-31319582D01*
X56618042Y-31319582D02*
X56665661Y-31510058D01*
X56665661Y-31510058D02*
X56713280Y-31605296D01*
X56713280Y-31605296D02*
X56808518Y-31700535D01*
X56808518Y-31700535D02*
X56951375Y-31748154D01*
X56951375Y-31748154D02*
X57189470Y-31748154D01*
X55998994Y-30748154D02*
X55808518Y-30748154D01*
X55808518Y-30748154D02*
X55713280Y-30795773D01*
X55713280Y-30795773D02*
X55618042Y-30891011D01*
X55618042Y-30891011D02*
X55570423Y-31081487D01*
X55570423Y-31081487D02*
X55570423Y-31414820D01*
X55570423Y-31414820D02*
X55618042Y-31605296D01*
X55618042Y-31605296D02*
X55713280Y-31700535D01*
X55713280Y-31700535D02*
X55808518Y-31748154D01*
X55808518Y-31748154D02*
X55998994Y-31748154D01*
X55998994Y-31748154D02*
X56094232Y-31700535D01*
X56094232Y-31700535D02*
X56189470Y-31605296D01*
X56189470Y-31605296D02*
X56237089Y-31414820D01*
X56237089Y-31414820D02*
X56237089Y-31081487D01*
X56237089Y-31081487D02*
X56189470Y-30891011D01*
X56189470Y-30891011D02*
X56094232Y-30795773D01*
X56094232Y-30795773D02*
X55998994Y-30748154D01*
X57928042Y-23225773D02*
X58023280Y-23178154D01*
X58023280Y-23178154D02*
X58166137Y-23178154D01*
X58166137Y-23178154D02*
X58308994Y-23225773D01*
X58308994Y-23225773D02*
X58404232Y-23321011D01*
X58404232Y-23321011D02*
X58451851Y-23416249D01*
X58451851Y-23416249D02*
X58499470Y-23606725D01*
X58499470Y-23606725D02*
X58499470Y-23749582D01*
X58499470Y-23749582D02*
X58451851Y-23940058D01*
X58451851Y-23940058D02*
X58404232Y-24035296D01*
X58404232Y-24035296D02*
X58308994Y-24130535D01*
X58308994Y-24130535D02*
X58166137Y-24178154D01*
X58166137Y-24178154D02*
X58070899Y-24178154D01*
X58070899Y-24178154D02*
X57928042Y-24130535D01*
X57928042Y-24130535D02*
X57880423Y-24082915D01*
X57880423Y-24082915D02*
X57880423Y-23749582D01*
X57880423Y-23749582D02*
X58070899Y-23749582D01*
X57451851Y-24178154D02*
X57451851Y-23178154D01*
X57451851Y-23178154D02*
X56880423Y-24178154D01*
X56880423Y-24178154D02*
X56880423Y-23178154D01*
X56404232Y-24178154D02*
X56404232Y-23178154D01*
X56404232Y-23178154D02*
X56166137Y-23178154D01*
X56166137Y-23178154D02*
X56023280Y-23225773D01*
X56023280Y-23225773D02*
X55928042Y-23321011D01*
X55928042Y-23321011D02*
X55880423Y-23416249D01*
X55880423Y-23416249D02*
X55832804Y-23606725D01*
X55832804Y-23606725D02*
X55832804Y-23749582D01*
X55832804Y-23749582D02*
X55880423Y-23940058D01*
X55880423Y-23940058D02*
X55928042Y-24035296D01*
X55928042Y-24035296D02*
X56023280Y-24130535D01*
X56023280Y-24130535D02*
X56166137Y-24178154D01*
X56166137Y-24178154D02*
X56404232Y-24178154D01*
X57470423Y-34252915D02*
X57518042Y-34300535D01*
X57518042Y-34300535D02*
X57660899Y-34348154D01*
X57660899Y-34348154D02*
X57756137Y-34348154D01*
X57756137Y-34348154D02*
X57898994Y-34300535D01*
X57898994Y-34300535D02*
X57994232Y-34205296D01*
X57994232Y-34205296D02*
X58041851Y-34110058D01*
X58041851Y-34110058D02*
X58089470Y-33919582D01*
X58089470Y-33919582D02*
X58089470Y-33776725D01*
X58089470Y-33776725D02*
X58041851Y-33586249D01*
X58041851Y-33586249D02*
X57994232Y-33491011D01*
X57994232Y-33491011D02*
X57898994Y-33395773D01*
X57898994Y-33395773D02*
X57756137Y-33348154D01*
X57756137Y-33348154D02*
X57660899Y-33348154D01*
X57660899Y-33348154D02*
X57518042Y-33395773D01*
X57518042Y-33395773D02*
X57470423Y-33443392D01*
X57089470Y-34300535D02*
X56946613Y-34348154D01*
X56946613Y-34348154D02*
X56708518Y-34348154D01*
X56708518Y-34348154D02*
X56613280Y-34300535D01*
X56613280Y-34300535D02*
X56565661Y-34252915D01*
X56565661Y-34252915D02*
X56518042Y-34157677D01*
X56518042Y-34157677D02*
X56518042Y-34062439D01*
X56518042Y-34062439D02*
X56565661Y-33967201D01*
X56565661Y-33967201D02*
X56613280Y-33919582D01*
X56613280Y-33919582D02*
X56708518Y-33871963D01*
X56708518Y-33871963D02*
X56898994Y-33824344D01*
X56898994Y-33824344D02*
X56994232Y-33776725D01*
X56994232Y-33776725D02*
X57041851Y-33729106D01*
X57041851Y-33729106D02*
X57089470Y-33633868D01*
X57089470Y-33633868D02*
X57089470Y-33538630D01*
X57089470Y-33538630D02*
X57041851Y-33443392D01*
X57041851Y-33443392D02*
X56994232Y-33395773D01*
X56994232Y-33395773D02*
X56898994Y-33348154D01*
X56898994Y-33348154D02*
X56660899Y-33348154D01*
X56660899Y-33348154D02*
X56518042Y-33395773D01*
X58694708Y-20568154D02*
X58361375Y-21568154D01*
X58361375Y-21568154D02*
X58028042Y-20568154D01*
X57694708Y-21568154D02*
X57694708Y-20568154D01*
X57694708Y-20568154D02*
X57456613Y-20568154D01*
X57456613Y-20568154D02*
X57313756Y-20615773D01*
X57313756Y-20615773D02*
X57218518Y-20711011D01*
X57218518Y-20711011D02*
X57170899Y-20806249D01*
X57170899Y-20806249D02*
X57123280Y-20996725D01*
X57123280Y-20996725D02*
X57123280Y-21139582D01*
X57123280Y-21139582D02*
X57170899Y-21330058D01*
X57170899Y-21330058D02*
X57218518Y-21425296D01*
X57218518Y-21425296D02*
X57313756Y-21520535D01*
X57313756Y-21520535D02*
X57456613Y-21568154D01*
X57456613Y-21568154D02*
X57694708Y-21568154D01*
X56694708Y-21568154D02*
X56694708Y-20568154D01*
X56694708Y-20568154D02*
X56456613Y-20568154D01*
X56456613Y-20568154D02*
X56313756Y-20615773D01*
X56313756Y-20615773D02*
X56218518Y-20711011D01*
X56218518Y-20711011D02*
X56170899Y-20806249D01*
X56170899Y-20806249D02*
X56123280Y-20996725D01*
X56123280Y-20996725D02*
X56123280Y-21139582D01*
X56123280Y-21139582D02*
X56170899Y-21330058D01*
X56170899Y-21330058D02*
X56218518Y-21425296D01*
X56218518Y-21425296D02*
X56313756Y-21520535D01*
X56313756Y-21520535D02*
X56456613Y-21568154D01*
X56456613Y-21568154D02*
X56694708Y-21568154D01*
X58239470Y-26740535D02*
X58096613Y-26788154D01*
X58096613Y-26788154D02*
X57858518Y-26788154D01*
X57858518Y-26788154D02*
X57763280Y-26740535D01*
X57763280Y-26740535D02*
X57715661Y-26692915D01*
X57715661Y-26692915D02*
X57668042Y-26597677D01*
X57668042Y-26597677D02*
X57668042Y-26502439D01*
X57668042Y-26502439D02*
X57715661Y-26407201D01*
X57715661Y-26407201D02*
X57763280Y-26359582D01*
X57763280Y-26359582D02*
X57858518Y-26311963D01*
X57858518Y-26311963D02*
X58048994Y-26264344D01*
X58048994Y-26264344D02*
X58144232Y-26216725D01*
X58144232Y-26216725D02*
X58191851Y-26169106D01*
X58191851Y-26169106D02*
X58239470Y-26073868D01*
X58239470Y-26073868D02*
X58239470Y-25978630D01*
X58239470Y-25978630D02*
X58191851Y-25883392D01*
X58191851Y-25883392D02*
X58144232Y-25835773D01*
X58144232Y-25835773D02*
X58048994Y-25788154D01*
X58048994Y-25788154D02*
X57810899Y-25788154D01*
X57810899Y-25788154D02*
X57668042Y-25835773D01*
X57239470Y-26788154D02*
X57239470Y-25788154D01*
X57239470Y-25788154D02*
X57001375Y-25788154D01*
X57001375Y-25788154D02*
X56858518Y-25835773D01*
X56858518Y-25835773D02*
X56763280Y-25931011D01*
X56763280Y-25931011D02*
X56715661Y-26026249D01*
X56715661Y-26026249D02*
X56668042Y-26216725D01*
X56668042Y-26216725D02*
X56668042Y-26359582D01*
X56668042Y-26359582D02*
X56715661Y-26550058D01*
X56715661Y-26550058D02*
X56763280Y-26645296D01*
X56763280Y-26645296D02*
X56858518Y-26740535D01*
X56858518Y-26740535D02*
X57001375Y-26788154D01*
X57001375Y-26788154D02*
X57239470Y-26788154D01*
X56287089Y-26502439D02*
X55810899Y-26502439D01*
X56382327Y-26788154D02*
X56048994Y-25788154D01*
X56048994Y-25788154D02*
X55715661Y-26788154D01*
X58091851Y-36758154D02*
X58091851Y-35758154D01*
X58091851Y-35758154D02*
X57853756Y-35758154D01*
X57853756Y-35758154D02*
X57710899Y-35805773D01*
X57710899Y-35805773D02*
X57615661Y-35901011D01*
X57615661Y-35901011D02*
X57568042Y-35996249D01*
X57568042Y-35996249D02*
X57520423Y-36186725D01*
X57520423Y-36186725D02*
X57520423Y-36329582D01*
X57520423Y-36329582D02*
X57568042Y-36520058D01*
X57568042Y-36520058D02*
X57615661Y-36615296D01*
X57615661Y-36615296D02*
X57710899Y-36710535D01*
X57710899Y-36710535D02*
X57853756Y-36758154D01*
X57853756Y-36758154D02*
X58091851Y-36758154D01*
X56520423Y-36758154D02*
X56853756Y-36281963D01*
X57091851Y-36758154D02*
X57091851Y-35758154D01*
X57091851Y-35758154D02*
X56710899Y-35758154D01*
X56710899Y-35758154D02*
X56615661Y-35805773D01*
X56615661Y-35805773D02*
X56568042Y-35853392D01*
X56568042Y-35853392D02*
X56520423Y-35948630D01*
X56520423Y-35948630D02*
X56520423Y-36091487D01*
X56520423Y-36091487D02*
X56568042Y-36186725D01*
X56568042Y-36186725D02*
X56615661Y-36234344D01*
X56615661Y-36234344D02*
X56710899Y-36281963D01*
X56710899Y-36281963D02*
X57091851Y-36281963D01*
X56091851Y-36758154D02*
X56091851Y-35758154D01*
X56091851Y-35758154D02*
X55853756Y-35758154D01*
X55853756Y-35758154D02*
X55710899Y-35805773D01*
X55710899Y-35805773D02*
X55615661Y-35901011D01*
X55615661Y-35901011D02*
X55568042Y-35996249D01*
X55568042Y-35996249D02*
X55520423Y-36186725D01*
X55520423Y-36186725D02*
X55520423Y-36329582D01*
X55520423Y-36329582D02*
X55568042Y-36520058D01*
X55568042Y-36520058D02*
X55615661Y-36615296D01*
X55615661Y-36615296D02*
X55710899Y-36710535D01*
X55710899Y-36710535D02*
X55853756Y-36758154D01*
X55853756Y-36758154D02*
X56091851Y-36758154D01*
X54901375Y-36281963D02*
X54901375Y-36758154D01*
X55234708Y-35758154D02*
X54901375Y-36281963D01*
X54901375Y-36281963D02*
X54568042Y-35758154D01*
X58239470Y-29190535D02*
X58096613Y-29238154D01*
X58096613Y-29238154D02*
X57858518Y-29238154D01*
X57858518Y-29238154D02*
X57763280Y-29190535D01*
X57763280Y-29190535D02*
X57715661Y-29142915D01*
X57715661Y-29142915D02*
X57668042Y-29047677D01*
X57668042Y-29047677D02*
X57668042Y-28952439D01*
X57668042Y-28952439D02*
X57715661Y-28857201D01*
X57715661Y-28857201D02*
X57763280Y-28809582D01*
X57763280Y-28809582D02*
X57858518Y-28761963D01*
X57858518Y-28761963D02*
X58048994Y-28714344D01*
X58048994Y-28714344D02*
X58144232Y-28666725D01*
X58144232Y-28666725D02*
X58191851Y-28619106D01*
X58191851Y-28619106D02*
X58239470Y-28523868D01*
X58239470Y-28523868D02*
X58239470Y-28428630D01*
X58239470Y-28428630D02*
X58191851Y-28333392D01*
X58191851Y-28333392D02*
X58144232Y-28285773D01*
X58144232Y-28285773D02*
X58048994Y-28238154D01*
X58048994Y-28238154D02*
X57810899Y-28238154D01*
X57810899Y-28238154D02*
X57668042Y-28285773D01*
X56668042Y-29142915D02*
X56715661Y-29190535D01*
X56715661Y-29190535D02*
X56858518Y-29238154D01*
X56858518Y-29238154D02*
X56953756Y-29238154D01*
X56953756Y-29238154D02*
X57096613Y-29190535D01*
X57096613Y-29190535D02*
X57191851Y-29095296D01*
X57191851Y-29095296D02*
X57239470Y-29000058D01*
X57239470Y-29000058D02*
X57287089Y-28809582D01*
X57287089Y-28809582D02*
X57287089Y-28666725D01*
X57287089Y-28666725D02*
X57239470Y-28476249D01*
X57239470Y-28476249D02*
X57191851Y-28381011D01*
X57191851Y-28381011D02*
X57096613Y-28285773D01*
X57096613Y-28285773D02*
X56953756Y-28238154D01*
X56953756Y-28238154D02*
X56858518Y-28238154D01*
X56858518Y-28238154D02*
X56715661Y-28285773D01*
X56715661Y-28285773D02*
X56668042Y-28333392D01*
X55763280Y-29238154D02*
X56239470Y-29238154D01*
X56239470Y-29238154D02*
X56239470Y-28238154D01*
X40770379Y-39616684D02*
X40770379Y-38616684D01*
X40294189Y-39616684D02*
X40294189Y-38616684D01*
X40294189Y-38616684D02*
X39722761Y-39616684D01*
X39722761Y-39616684D02*
X39722761Y-38616684D01*
X39389427Y-38616684D02*
X38817999Y-38616684D01*
X39103713Y-39616684D02*
X39103713Y-38616684D01*
X40867998Y-31689065D02*
X40725141Y-31736684D01*
X40725141Y-31736684D02*
X40487046Y-31736684D01*
X40487046Y-31736684D02*
X40391808Y-31689065D01*
X40391808Y-31689065D02*
X40344189Y-31641445D01*
X40344189Y-31641445D02*
X40296570Y-31546207D01*
X40296570Y-31546207D02*
X40296570Y-31450969D01*
X40296570Y-31450969D02*
X40344189Y-31355731D01*
X40344189Y-31355731D02*
X40391808Y-31308112D01*
X40391808Y-31308112D02*
X40487046Y-31260493D01*
X40487046Y-31260493D02*
X40677522Y-31212874D01*
X40677522Y-31212874D02*
X40772760Y-31165255D01*
X40772760Y-31165255D02*
X40820379Y-31117636D01*
X40820379Y-31117636D02*
X40867998Y-31022398D01*
X40867998Y-31022398D02*
X40867998Y-30927160D01*
X40867998Y-30927160D02*
X40820379Y-30831922D01*
X40820379Y-30831922D02*
X40772760Y-30784303D01*
X40772760Y-30784303D02*
X40677522Y-30736684D01*
X40677522Y-30736684D02*
X40439427Y-30736684D01*
X40439427Y-30736684D02*
X40296570Y-30784303D01*
X39867998Y-31736684D02*
X39867998Y-30736684D01*
X39867998Y-30736684D02*
X39629903Y-30736684D01*
X39629903Y-30736684D02*
X39487046Y-30784303D01*
X39487046Y-30784303D02*
X39391808Y-30879541D01*
X39391808Y-30879541D02*
X39344189Y-30974779D01*
X39344189Y-30974779D02*
X39296570Y-31165255D01*
X39296570Y-31165255D02*
X39296570Y-31308112D01*
X39296570Y-31308112D02*
X39344189Y-31498588D01*
X39344189Y-31498588D02*
X39391808Y-31593826D01*
X39391808Y-31593826D02*
X39487046Y-31689065D01*
X39487046Y-31689065D02*
X39629903Y-31736684D01*
X39629903Y-31736684D02*
X39867998Y-31736684D01*
X38677522Y-30736684D02*
X38487046Y-30736684D01*
X38487046Y-30736684D02*
X38391808Y-30784303D01*
X38391808Y-30784303D02*
X38296570Y-30879541D01*
X38296570Y-30879541D02*
X38248951Y-31070017D01*
X38248951Y-31070017D02*
X38248951Y-31403350D01*
X38248951Y-31403350D02*
X38296570Y-31593826D01*
X38296570Y-31593826D02*
X38391808Y-31689065D01*
X38391808Y-31689065D02*
X38487046Y-31736684D01*
X38487046Y-31736684D02*
X38677522Y-31736684D01*
X38677522Y-31736684D02*
X38772760Y-31689065D01*
X38772760Y-31689065D02*
X38867998Y-31593826D01*
X38867998Y-31593826D02*
X38915617Y-31403350D01*
X38915617Y-31403350D02*
X38915617Y-31070017D01*
X38915617Y-31070017D02*
X38867998Y-30879541D01*
X38867998Y-30879541D02*
X38772760Y-30784303D01*
X38772760Y-30784303D02*
X38677522Y-30736684D01*
X40606570Y-23214303D02*
X40701808Y-23166684D01*
X40701808Y-23166684D02*
X40844665Y-23166684D01*
X40844665Y-23166684D02*
X40987522Y-23214303D01*
X40987522Y-23214303D02*
X41082760Y-23309541D01*
X41082760Y-23309541D02*
X41130379Y-23404779D01*
X41130379Y-23404779D02*
X41177998Y-23595255D01*
X41177998Y-23595255D02*
X41177998Y-23738112D01*
X41177998Y-23738112D02*
X41130379Y-23928588D01*
X41130379Y-23928588D02*
X41082760Y-24023826D01*
X41082760Y-24023826D02*
X40987522Y-24119065D01*
X40987522Y-24119065D02*
X40844665Y-24166684D01*
X40844665Y-24166684D02*
X40749427Y-24166684D01*
X40749427Y-24166684D02*
X40606570Y-24119065D01*
X40606570Y-24119065D02*
X40558951Y-24071445D01*
X40558951Y-24071445D02*
X40558951Y-23738112D01*
X40558951Y-23738112D02*
X40749427Y-23738112D01*
X40130379Y-24166684D02*
X40130379Y-23166684D01*
X40130379Y-23166684D02*
X39558951Y-24166684D01*
X39558951Y-24166684D02*
X39558951Y-23166684D01*
X39082760Y-24166684D02*
X39082760Y-23166684D01*
X39082760Y-23166684D02*
X38844665Y-23166684D01*
X38844665Y-23166684D02*
X38701808Y-23214303D01*
X38701808Y-23214303D02*
X38606570Y-23309541D01*
X38606570Y-23309541D02*
X38558951Y-23404779D01*
X38558951Y-23404779D02*
X38511332Y-23595255D01*
X38511332Y-23595255D02*
X38511332Y-23738112D01*
X38511332Y-23738112D02*
X38558951Y-23928588D01*
X38558951Y-23928588D02*
X38606570Y-24023826D01*
X38606570Y-24023826D02*
X38701808Y-24119065D01*
X38701808Y-24119065D02*
X38844665Y-24166684D01*
X38844665Y-24166684D02*
X39082760Y-24166684D01*
X40148951Y-34241445D02*
X40196570Y-34289065D01*
X40196570Y-34289065D02*
X40339427Y-34336684D01*
X40339427Y-34336684D02*
X40434665Y-34336684D01*
X40434665Y-34336684D02*
X40577522Y-34289065D01*
X40577522Y-34289065D02*
X40672760Y-34193826D01*
X40672760Y-34193826D02*
X40720379Y-34098588D01*
X40720379Y-34098588D02*
X40767998Y-33908112D01*
X40767998Y-33908112D02*
X40767998Y-33765255D01*
X40767998Y-33765255D02*
X40720379Y-33574779D01*
X40720379Y-33574779D02*
X40672760Y-33479541D01*
X40672760Y-33479541D02*
X40577522Y-33384303D01*
X40577522Y-33384303D02*
X40434665Y-33336684D01*
X40434665Y-33336684D02*
X40339427Y-33336684D01*
X40339427Y-33336684D02*
X40196570Y-33384303D01*
X40196570Y-33384303D02*
X40148951Y-33431922D01*
X39767998Y-34289065D02*
X39625141Y-34336684D01*
X39625141Y-34336684D02*
X39387046Y-34336684D01*
X39387046Y-34336684D02*
X39291808Y-34289065D01*
X39291808Y-34289065D02*
X39244189Y-34241445D01*
X39244189Y-34241445D02*
X39196570Y-34146207D01*
X39196570Y-34146207D02*
X39196570Y-34050969D01*
X39196570Y-34050969D02*
X39244189Y-33955731D01*
X39244189Y-33955731D02*
X39291808Y-33908112D01*
X39291808Y-33908112D02*
X39387046Y-33860493D01*
X39387046Y-33860493D02*
X39577522Y-33812874D01*
X39577522Y-33812874D02*
X39672760Y-33765255D01*
X39672760Y-33765255D02*
X39720379Y-33717636D01*
X39720379Y-33717636D02*
X39767998Y-33622398D01*
X39767998Y-33622398D02*
X39767998Y-33527160D01*
X39767998Y-33527160D02*
X39720379Y-33431922D01*
X39720379Y-33431922D02*
X39672760Y-33384303D01*
X39672760Y-33384303D02*
X39577522Y-33336684D01*
X39577522Y-33336684D02*
X39339427Y-33336684D01*
X39339427Y-33336684D02*
X39196570Y-33384303D01*
X41373236Y-20556684D02*
X41039903Y-21556684D01*
X41039903Y-21556684D02*
X40706570Y-20556684D01*
X40373236Y-21556684D02*
X40373236Y-20556684D01*
X40373236Y-20556684D02*
X40135141Y-20556684D01*
X40135141Y-20556684D02*
X39992284Y-20604303D01*
X39992284Y-20604303D02*
X39897046Y-20699541D01*
X39897046Y-20699541D02*
X39849427Y-20794779D01*
X39849427Y-20794779D02*
X39801808Y-20985255D01*
X39801808Y-20985255D02*
X39801808Y-21128112D01*
X39801808Y-21128112D02*
X39849427Y-21318588D01*
X39849427Y-21318588D02*
X39897046Y-21413826D01*
X39897046Y-21413826D02*
X39992284Y-21509065D01*
X39992284Y-21509065D02*
X40135141Y-21556684D01*
X40135141Y-21556684D02*
X40373236Y-21556684D01*
X39373236Y-21556684D02*
X39373236Y-20556684D01*
X39373236Y-20556684D02*
X39135141Y-20556684D01*
X39135141Y-20556684D02*
X38992284Y-20604303D01*
X38992284Y-20604303D02*
X38897046Y-20699541D01*
X38897046Y-20699541D02*
X38849427Y-20794779D01*
X38849427Y-20794779D02*
X38801808Y-20985255D01*
X38801808Y-20985255D02*
X38801808Y-21128112D01*
X38801808Y-21128112D02*
X38849427Y-21318588D01*
X38849427Y-21318588D02*
X38897046Y-21413826D01*
X38897046Y-21413826D02*
X38992284Y-21509065D01*
X38992284Y-21509065D02*
X39135141Y-21556684D01*
X39135141Y-21556684D02*
X39373236Y-21556684D01*
X40917998Y-26729065D02*
X40775141Y-26776684D01*
X40775141Y-26776684D02*
X40537046Y-26776684D01*
X40537046Y-26776684D02*
X40441808Y-26729065D01*
X40441808Y-26729065D02*
X40394189Y-26681445D01*
X40394189Y-26681445D02*
X40346570Y-26586207D01*
X40346570Y-26586207D02*
X40346570Y-26490969D01*
X40346570Y-26490969D02*
X40394189Y-26395731D01*
X40394189Y-26395731D02*
X40441808Y-26348112D01*
X40441808Y-26348112D02*
X40537046Y-26300493D01*
X40537046Y-26300493D02*
X40727522Y-26252874D01*
X40727522Y-26252874D02*
X40822760Y-26205255D01*
X40822760Y-26205255D02*
X40870379Y-26157636D01*
X40870379Y-26157636D02*
X40917998Y-26062398D01*
X40917998Y-26062398D02*
X40917998Y-25967160D01*
X40917998Y-25967160D02*
X40870379Y-25871922D01*
X40870379Y-25871922D02*
X40822760Y-25824303D01*
X40822760Y-25824303D02*
X40727522Y-25776684D01*
X40727522Y-25776684D02*
X40489427Y-25776684D01*
X40489427Y-25776684D02*
X40346570Y-25824303D01*
X39917998Y-26776684D02*
X39917998Y-25776684D01*
X39917998Y-25776684D02*
X39679903Y-25776684D01*
X39679903Y-25776684D02*
X39537046Y-25824303D01*
X39537046Y-25824303D02*
X39441808Y-25919541D01*
X39441808Y-25919541D02*
X39394189Y-26014779D01*
X39394189Y-26014779D02*
X39346570Y-26205255D01*
X39346570Y-26205255D02*
X39346570Y-26348112D01*
X39346570Y-26348112D02*
X39394189Y-26538588D01*
X39394189Y-26538588D02*
X39441808Y-26633826D01*
X39441808Y-26633826D02*
X39537046Y-26729065D01*
X39537046Y-26729065D02*
X39679903Y-26776684D01*
X39679903Y-26776684D02*
X39917998Y-26776684D01*
X38965617Y-26490969D02*
X38489427Y-26490969D01*
X39060855Y-26776684D02*
X38727522Y-25776684D01*
X38727522Y-25776684D02*
X38394189Y-26776684D01*
X40770379Y-36746684D02*
X40770379Y-35746684D01*
X40770379Y-35746684D02*
X40532284Y-35746684D01*
X40532284Y-35746684D02*
X40389427Y-35794303D01*
X40389427Y-35794303D02*
X40294189Y-35889541D01*
X40294189Y-35889541D02*
X40246570Y-35984779D01*
X40246570Y-35984779D02*
X40198951Y-36175255D01*
X40198951Y-36175255D02*
X40198951Y-36318112D01*
X40198951Y-36318112D02*
X40246570Y-36508588D01*
X40246570Y-36508588D02*
X40294189Y-36603826D01*
X40294189Y-36603826D02*
X40389427Y-36699065D01*
X40389427Y-36699065D02*
X40532284Y-36746684D01*
X40532284Y-36746684D02*
X40770379Y-36746684D01*
X39198951Y-36746684D02*
X39532284Y-36270493D01*
X39770379Y-36746684D02*
X39770379Y-35746684D01*
X39770379Y-35746684D02*
X39389427Y-35746684D01*
X39389427Y-35746684D02*
X39294189Y-35794303D01*
X39294189Y-35794303D02*
X39246570Y-35841922D01*
X39246570Y-35841922D02*
X39198951Y-35937160D01*
X39198951Y-35937160D02*
X39198951Y-36080017D01*
X39198951Y-36080017D02*
X39246570Y-36175255D01*
X39246570Y-36175255D02*
X39294189Y-36222874D01*
X39294189Y-36222874D02*
X39389427Y-36270493D01*
X39389427Y-36270493D02*
X39770379Y-36270493D01*
X38770379Y-36746684D02*
X38770379Y-35746684D01*
X38770379Y-35746684D02*
X38532284Y-35746684D01*
X38532284Y-35746684D02*
X38389427Y-35794303D01*
X38389427Y-35794303D02*
X38294189Y-35889541D01*
X38294189Y-35889541D02*
X38246570Y-35984779D01*
X38246570Y-35984779D02*
X38198951Y-36175255D01*
X38198951Y-36175255D02*
X38198951Y-36318112D01*
X38198951Y-36318112D02*
X38246570Y-36508588D01*
X38246570Y-36508588D02*
X38294189Y-36603826D01*
X38294189Y-36603826D02*
X38389427Y-36699065D01*
X38389427Y-36699065D02*
X38532284Y-36746684D01*
X38532284Y-36746684D02*
X38770379Y-36746684D01*
X37579903Y-36270493D02*
X37579903Y-36746684D01*
X37913236Y-35746684D02*
X37579903Y-36270493D01*
X37579903Y-36270493D02*
X37246570Y-35746684D01*
X40917998Y-29179065D02*
X40775141Y-29226684D01*
X40775141Y-29226684D02*
X40537046Y-29226684D01*
X40537046Y-29226684D02*
X40441808Y-29179065D01*
X40441808Y-29179065D02*
X40394189Y-29131445D01*
X40394189Y-29131445D02*
X40346570Y-29036207D01*
X40346570Y-29036207D02*
X40346570Y-28940969D01*
X40346570Y-28940969D02*
X40394189Y-28845731D01*
X40394189Y-28845731D02*
X40441808Y-28798112D01*
X40441808Y-28798112D02*
X40537046Y-28750493D01*
X40537046Y-28750493D02*
X40727522Y-28702874D01*
X40727522Y-28702874D02*
X40822760Y-28655255D01*
X40822760Y-28655255D02*
X40870379Y-28607636D01*
X40870379Y-28607636D02*
X40917998Y-28512398D01*
X40917998Y-28512398D02*
X40917998Y-28417160D01*
X40917998Y-28417160D02*
X40870379Y-28321922D01*
X40870379Y-28321922D02*
X40822760Y-28274303D01*
X40822760Y-28274303D02*
X40727522Y-28226684D01*
X40727522Y-28226684D02*
X40489427Y-28226684D01*
X40489427Y-28226684D02*
X40346570Y-28274303D01*
X39346570Y-29131445D02*
X39394189Y-29179065D01*
X39394189Y-29179065D02*
X39537046Y-29226684D01*
X39537046Y-29226684D02*
X39632284Y-29226684D01*
X39632284Y-29226684D02*
X39775141Y-29179065D01*
X39775141Y-29179065D02*
X39870379Y-29083826D01*
X39870379Y-29083826D02*
X39917998Y-28988588D01*
X39917998Y-28988588D02*
X39965617Y-28798112D01*
X39965617Y-28798112D02*
X39965617Y-28655255D01*
X39965617Y-28655255D02*
X39917998Y-28464779D01*
X39917998Y-28464779D02*
X39870379Y-28369541D01*
X39870379Y-28369541D02*
X39775141Y-28274303D01*
X39775141Y-28274303D02*
X39632284Y-28226684D01*
X39632284Y-28226684D02*
X39537046Y-28226684D01*
X39537046Y-28226684D02*
X39394189Y-28274303D01*
X39394189Y-28274303D02*
X39346570Y-28321922D01*
X38441808Y-29226684D02*
X38917998Y-29226684D01*
X38917998Y-29226684D02*
X38917998Y-28226684D01*
X23416115Y-39612419D02*
X23416115Y-38612419D01*
X22939925Y-39612419D02*
X22939925Y-38612419D01*
X22939925Y-38612419D02*
X22368497Y-39612419D01*
X22368497Y-39612419D02*
X22368497Y-38612419D01*
X22035163Y-38612419D02*
X21463735Y-38612419D01*
X21749449Y-39612419D02*
X21749449Y-38612419D01*
X24018972Y-20552419D02*
X23685639Y-21552419D01*
X23685639Y-21552419D02*
X23352306Y-20552419D01*
X23018972Y-21552419D02*
X23018972Y-20552419D01*
X23018972Y-20552419D02*
X22780877Y-20552419D01*
X22780877Y-20552419D02*
X22638020Y-20600038D01*
X22638020Y-20600038D02*
X22542782Y-20695276D01*
X22542782Y-20695276D02*
X22495163Y-20790514D01*
X22495163Y-20790514D02*
X22447544Y-20980990D01*
X22447544Y-20980990D02*
X22447544Y-21123847D01*
X22447544Y-21123847D02*
X22495163Y-21314323D01*
X22495163Y-21314323D02*
X22542782Y-21409561D01*
X22542782Y-21409561D02*
X22638020Y-21504800D01*
X22638020Y-21504800D02*
X22780877Y-21552419D01*
X22780877Y-21552419D02*
X23018972Y-21552419D01*
X22018972Y-21552419D02*
X22018972Y-20552419D01*
X22018972Y-20552419D02*
X21780877Y-20552419D01*
X21780877Y-20552419D02*
X21638020Y-20600038D01*
X21638020Y-20600038D02*
X21542782Y-20695276D01*
X21542782Y-20695276D02*
X21495163Y-20790514D01*
X21495163Y-20790514D02*
X21447544Y-20980990D01*
X21447544Y-20980990D02*
X21447544Y-21123847D01*
X21447544Y-21123847D02*
X21495163Y-21314323D01*
X21495163Y-21314323D02*
X21542782Y-21409561D01*
X21542782Y-21409561D02*
X21638020Y-21504800D01*
X21638020Y-21504800D02*
X21780877Y-21552419D01*
X21780877Y-21552419D02*
X22018972Y-21552419D01*
X23563734Y-26724800D02*
X23420877Y-26772419D01*
X23420877Y-26772419D02*
X23182782Y-26772419D01*
X23182782Y-26772419D02*
X23087544Y-26724800D01*
X23087544Y-26724800D02*
X23039925Y-26677180D01*
X23039925Y-26677180D02*
X22992306Y-26581942D01*
X22992306Y-26581942D02*
X22992306Y-26486704D01*
X22992306Y-26486704D02*
X23039925Y-26391466D01*
X23039925Y-26391466D02*
X23087544Y-26343847D01*
X23087544Y-26343847D02*
X23182782Y-26296228D01*
X23182782Y-26296228D02*
X23373258Y-26248609D01*
X23373258Y-26248609D02*
X23468496Y-26200990D01*
X23468496Y-26200990D02*
X23516115Y-26153371D01*
X23516115Y-26153371D02*
X23563734Y-26058133D01*
X23563734Y-26058133D02*
X23563734Y-25962895D01*
X23563734Y-25962895D02*
X23516115Y-25867657D01*
X23516115Y-25867657D02*
X23468496Y-25820038D01*
X23468496Y-25820038D02*
X23373258Y-25772419D01*
X23373258Y-25772419D02*
X23135163Y-25772419D01*
X23135163Y-25772419D02*
X22992306Y-25820038D01*
X22563734Y-26772419D02*
X22563734Y-25772419D01*
X22563734Y-25772419D02*
X22325639Y-25772419D01*
X22325639Y-25772419D02*
X22182782Y-25820038D01*
X22182782Y-25820038D02*
X22087544Y-25915276D01*
X22087544Y-25915276D02*
X22039925Y-26010514D01*
X22039925Y-26010514D02*
X21992306Y-26200990D01*
X21992306Y-26200990D02*
X21992306Y-26343847D01*
X21992306Y-26343847D02*
X22039925Y-26534323D01*
X22039925Y-26534323D02*
X22087544Y-26629561D01*
X22087544Y-26629561D02*
X22182782Y-26724800D01*
X22182782Y-26724800D02*
X22325639Y-26772419D01*
X22325639Y-26772419D02*
X22563734Y-26772419D01*
X21611353Y-26486704D02*
X21135163Y-26486704D01*
X21706591Y-26772419D02*
X21373258Y-25772419D01*
X21373258Y-25772419D02*
X21039925Y-26772419D01*
X23416115Y-36742419D02*
X23416115Y-35742419D01*
X23416115Y-35742419D02*
X23178020Y-35742419D01*
X23178020Y-35742419D02*
X23035163Y-35790038D01*
X23035163Y-35790038D02*
X22939925Y-35885276D01*
X22939925Y-35885276D02*
X22892306Y-35980514D01*
X22892306Y-35980514D02*
X22844687Y-36170990D01*
X22844687Y-36170990D02*
X22844687Y-36313847D01*
X22844687Y-36313847D02*
X22892306Y-36504323D01*
X22892306Y-36504323D02*
X22939925Y-36599561D01*
X22939925Y-36599561D02*
X23035163Y-36694800D01*
X23035163Y-36694800D02*
X23178020Y-36742419D01*
X23178020Y-36742419D02*
X23416115Y-36742419D01*
X21844687Y-36742419D02*
X22178020Y-36266228D01*
X22416115Y-36742419D02*
X22416115Y-35742419D01*
X22416115Y-35742419D02*
X22035163Y-35742419D01*
X22035163Y-35742419D02*
X21939925Y-35790038D01*
X21939925Y-35790038D02*
X21892306Y-35837657D01*
X21892306Y-35837657D02*
X21844687Y-35932895D01*
X21844687Y-35932895D02*
X21844687Y-36075752D01*
X21844687Y-36075752D02*
X21892306Y-36170990D01*
X21892306Y-36170990D02*
X21939925Y-36218609D01*
X21939925Y-36218609D02*
X22035163Y-36266228D01*
X22035163Y-36266228D02*
X22416115Y-36266228D01*
X21416115Y-36742419D02*
X21416115Y-35742419D01*
X21416115Y-35742419D02*
X21178020Y-35742419D01*
X21178020Y-35742419D02*
X21035163Y-35790038D01*
X21035163Y-35790038D02*
X20939925Y-35885276D01*
X20939925Y-35885276D02*
X20892306Y-35980514D01*
X20892306Y-35980514D02*
X20844687Y-36170990D01*
X20844687Y-36170990D02*
X20844687Y-36313847D01*
X20844687Y-36313847D02*
X20892306Y-36504323D01*
X20892306Y-36504323D02*
X20939925Y-36599561D01*
X20939925Y-36599561D02*
X21035163Y-36694800D01*
X21035163Y-36694800D02*
X21178020Y-36742419D01*
X21178020Y-36742419D02*
X21416115Y-36742419D01*
X20225639Y-36266228D02*
X20225639Y-36742419D01*
X20558972Y-35742419D02*
X20225639Y-36266228D01*
X20225639Y-36266228D02*
X19892306Y-35742419D01*
X23513734Y-31684800D02*
X23370877Y-31732419D01*
X23370877Y-31732419D02*
X23132782Y-31732419D01*
X23132782Y-31732419D02*
X23037544Y-31684800D01*
X23037544Y-31684800D02*
X22989925Y-31637180D01*
X22989925Y-31637180D02*
X22942306Y-31541942D01*
X22942306Y-31541942D02*
X22942306Y-31446704D01*
X22942306Y-31446704D02*
X22989925Y-31351466D01*
X22989925Y-31351466D02*
X23037544Y-31303847D01*
X23037544Y-31303847D02*
X23132782Y-31256228D01*
X23132782Y-31256228D02*
X23323258Y-31208609D01*
X23323258Y-31208609D02*
X23418496Y-31160990D01*
X23418496Y-31160990D02*
X23466115Y-31113371D01*
X23466115Y-31113371D02*
X23513734Y-31018133D01*
X23513734Y-31018133D02*
X23513734Y-30922895D01*
X23513734Y-30922895D02*
X23466115Y-30827657D01*
X23466115Y-30827657D02*
X23418496Y-30780038D01*
X23418496Y-30780038D02*
X23323258Y-30732419D01*
X23323258Y-30732419D02*
X23085163Y-30732419D01*
X23085163Y-30732419D02*
X22942306Y-30780038D01*
X22513734Y-31732419D02*
X22513734Y-30732419D01*
X22513734Y-30732419D02*
X22275639Y-30732419D01*
X22275639Y-30732419D02*
X22132782Y-30780038D01*
X22132782Y-30780038D02*
X22037544Y-30875276D01*
X22037544Y-30875276D02*
X21989925Y-30970514D01*
X21989925Y-30970514D02*
X21942306Y-31160990D01*
X21942306Y-31160990D02*
X21942306Y-31303847D01*
X21942306Y-31303847D02*
X21989925Y-31494323D01*
X21989925Y-31494323D02*
X22037544Y-31589561D01*
X22037544Y-31589561D02*
X22132782Y-31684800D01*
X22132782Y-31684800D02*
X22275639Y-31732419D01*
X22275639Y-31732419D02*
X22513734Y-31732419D01*
X21323258Y-30732419D02*
X21132782Y-30732419D01*
X21132782Y-30732419D02*
X21037544Y-30780038D01*
X21037544Y-30780038D02*
X20942306Y-30875276D01*
X20942306Y-30875276D02*
X20894687Y-31065752D01*
X20894687Y-31065752D02*
X20894687Y-31399085D01*
X20894687Y-31399085D02*
X20942306Y-31589561D01*
X20942306Y-31589561D02*
X21037544Y-31684800D01*
X21037544Y-31684800D02*
X21132782Y-31732419D01*
X21132782Y-31732419D02*
X21323258Y-31732419D01*
X21323258Y-31732419D02*
X21418496Y-31684800D01*
X21418496Y-31684800D02*
X21513734Y-31589561D01*
X21513734Y-31589561D02*
X21561353Y-31399085D01*
X21561353Y-31399085D02*
X21561353Y-31065752D01*
X21561353Y-31065752D02*
X21513734Y-30875276D01*
X21513734Y-30875276D02*
X21418496Y-30780038D01*
X21418496Y-30780038D02*
X21323258Y-30732419D01*
X23252306Y-23210038D02*
X23347544Y-23162419D01*
X23347544Y-23162419D02*
X23490401Y-23162419D01*
X23490401Y-23162419D02*
X23633258Y-23210038D01*
X23633258Y-23210038D02*
X23728496Y-23305276D01*
X23728496Y-23305276D02*
X23776115Y-23400514D01*
X23776115Y-23400514D02*
X23823734Y-23590990D01*
X23823734Y-23590990D02*
X23823734Y-23733847D01*
X23823734Y-23733847D02*
X23776115Y-23924323D01*
X23776115Y-23924323D02*
X23728496Y-24019561D01*
X23728496Y-24019561D02*
X23633258Y-24114800D01*
X23633258Y-24114800D02*
X23490401Y-24162419D01*
X23490401Y-24162419D02*
X23395163Y-24162419D01*
X23395163Y-24162419D02*
X23252306Y-24114800D01*
X23252306Y-24114800D02*
X23204687Y-24067180D01*
X23204687Y-24067180D02*
X23204687Y-23733847D01*
X23204687Y-23733847D02*
X23395163Y-23733847D01*
X22776115Y-24162419D02*
X22776115Y-23162419D01*
X22776115Y-23162419D02*
X22204687Y-24162419D01*
X22204687Y-24162419D02*
X22204687Y-23162419D01*
X21728496Y-24162419D02*
X21728496Y-23162419D01*
X21728496Y-23162419D02*
X21490401Y-23162419D01*
X21490401Y-23162419D02*
X21347544Y-23210038D01*
X21347544Y-23210038D02*
X21252306Y-23305276D01*
X21252306Y-23305276D02*
X21204687Y-23400514D01*
X21204687Y-23400514D02*
X21157068Y-23590990D01*
X21157068Y-23590990D02*
X21157068Y-23733847D01*
X21157068Y-23733847D02*
X21204687Y-23924323D01*
X21204687Y-23924323D02*
X21252306Y-24019561D01*
X21252306Y-24019561D02*
X21347544Y-24114800D01*
X21347544Y-24114800D02*
X21490401Y-24162419D01*
X21490401Y-24162419D02*
X21728496Y-24162419D01*
X22794687Y-34237180D02*
X22842306Y-34284800D01*
X22842306Y-34284800D02*
X22985163Y-34332419D01*
X22985163Y-34332419D02*
X23080401Y-34332419D01*
X23080401Y-34332419D02*
X23223258Y-34284800D01*
X23223258Y-34284800D02*
X23318496Y-34189561D01*
X23318496Y-34189561D02*
X23366115Y-34094323D01*
X23366115Y-34094323D02*
X23413734Y-33903847D01*
X23413734Y-33903847D02*
X23413734Y-33760990D01*
X23413734Y-33760990D02*
X23366115Y-33570514D01*
X23366115Y-33570514D02*
X23318496Y-33475276D01*
X23318496Y-33475276D02*
X23223258Y-33380038D01*
X23223258Y-33380038D02*
X23080401Y-33332419D01*
X23080401Y-33332419D02*
X22985163Y-33332419D01*
X22985163Y-33332419D02*
X22842306Y-33380038D01*
X22842306Y-33380038D02*
X22794687Y-33427657D01*
X22413734Y-34284800D02*
X22270877Y-34332419D01*
X22270877Y-34332419D02*
X22032782Y-34332419D01*
X22032782Y-34332419D02*
X21937544Y-34284800D01*
X21937544Y-34284800D02*
X21889925Y-34237180D01*
X21889925Y-34237180D02*
X21842306Y-34141942D01*
X21842306Y-34141942D02*
X21842306Y-34046704D01*
X21842306Y-34046704D02*
X21889925Y-33951466D01*
X21889925Y-33951466D02*
X21937544Y-33903847D01*
X21937544Y-33903847D02*
X22032782Y-33856228D01*
X22032782Y-33856228D02*
X22223258Y-33808609D01*
X22223258Y-33808609D02*
X22318496Y-33760990D01*
X22318496Y-33760990D02*
X22366115Y-33713371D01*
X22366115Y-33713371D02*
X22413734Y-33618133D01*
X22413734Y-33618133D02*
X22413734Y-33522895D01*
X22413734Y-33522895D02*
X22366115Y-33427657D01*
X22366115Y-33427657D02*
X22318496Y-33380038D01*
X22318496Y-33380038D02*
X22223258Y-33332419D01*
X22223258Y-33332419D02*
X21985163Y-33332419D01*
X21985163Y-33332419D02*
X21842306Y-33380038D01*
X23563734Y-29174800D02*
X23420877Y-29222419D01*
X23420877Y-29222419D02*
X23182782Y-29222419D01*
X23182782Y-29222419D02*
X23087544Y-29174800D01*
X23087544Y-29174800D02*
X23039925Y-29127180D01*
X23039925Y-29127180D02*
X22992306Y-29031942D01*
X22992306Y-29031942D02*
X22992306Y-28936704D01*
X22992306Y-28936704D02*
X23039925Y-28841466D01*
X23039925Y-28841466D02*
X23087544Y-28793847D01*
X23087544Y-28793847D02*
X23182782Y-28746228D01*
X23182782Y-28746228D02*
X23373258Y-28698609D01*
X23373258Y-28698609D02*
X23468496Y-28650990D01*
X23468496Y-28650990D02*
X23516115Y-28603371D01*
X23516115Y-28603371D02*
X23563734Y-28508133D01*
X23563734Y-28508133D02*
X23563734Y-28412895D01*
X23563734Y-28412895D02*
X23516115Y-28317657D01*
X23516115Y-28317657D02*
X23468496Y-28270038D01*
X23468496Y-28270038D02*
X23373258Y-28222419D01*
X23373258Y-28222419D02*
X23135163Y-28222419D01*
X23135163Y-28222419D02*
X22992306Y-28270038D01*
X21992306Y-29127180D02*
X22039925Y-29174800D01*
X22039925Y-29174800D02*
X22182782Y-29222419D01*
X22182782Y-29222419D02*
X22278020Y-29222419D01*
X22278020Y-29222419D02*
X22420877Y-29174800D01*
X22420877Y-29174800D02*
X22516115Y-29079561D01*
X22516115Y-29079561D02*
X22563734Y-28984323D01*
X22563734Y-28984323D02*
X22611353Y-28793847D01*
X22611353Y-28793847D02*
X22611353Y-28650990D01*
X22611353Y-28650990D02*
X22563734Y-28460514D01*
X22563734Y-28460514D02*
X22516115Y-28365276D01*
X22516115Y-28365276D02*
X22420877Y-28270038D01*
X22420877Y-28270038D02*
X22278020Y-28222419D01*
X22278020Y-28222419D02*
X22182782Y-28222419D01*
X22182782Y-28222419D02*
X22039925Y-28270038D01*
X22039925Y-28270038D02*
X21992306Y-28317657D01*
X21087544Y-29222419D02*
X21563734Y-29222419D01*
X21563734Y-29222419D02*
X21563734Y-28222419D01*
M02*
