M48
; DRILL file {KiCad 8.0.8} date 2025-02-24T17:42:27-0800
; FORMAT={-:-/ absolute / inch / decimal}
; #@! TF.CreationDate,2025-02-24T17:42:27-08:00
; #@! TF.GenerationSoftware,Kicad,Pcbnew,8.0.8
; #@! TF.FileFunction,Plated,1,2,PTH
FMAT,2
INCH
; #@! TA.AperFunction,Plated,PTH,ViaDrill
T1C0.0118
; #@! TA.AperFunction,Plated,PTH,ComponentDrill
T2C0.0350
; #@! TA.AperFunction,Plated,PTH,ComponentDrill
T3C0.0394
; #@! TA.AperFunction,Plated,PTH,ComponentDrill
T4C0.0433
; #@! TA.AperFunction,Plated,PTH,ComponentDrill
T5C0.0669
%
G90
G05
T1
X1.6827Y-1.8803
X1.6858Y-1.7787
X1.7862Y-2.3591
X1.7949Y-1.3193
X1.952Y-2.3634
X1.9858Y-1.8791
X1.9874Y-1.9669
X2.0134Y-1.537
X2.0921Y-1.8787
X2.0945Y-1.9701
X2.1039Y-1.5378
X2.1224Y-2.3634
X2.1957Y-1.535
X2.2685Y-1.8787
X2.2705Y-1.9791
X2.2886Y-2.3634
X2.2894Y-1.5378
X2.3854Y-1.5339
X2.4213Y-1.9791
X2.4224Y-1.8787
X2.4268Y-2.3591
X2.4433Y-1.6039
X2.5276Y-1.5094
X2.5311Y-1.4059
X2.5469Y-2.3071
X2.6311Y-1.3346
X2.6331Y-2.1173
X2.6705Y-2.3122
X2.6752Y-1.8969
X2.7453Y-2.1134
X2.7681Y-1.6043
X2.7701Y-1.8984
X2.7709Y-1.7535
X2.7768Y-1.3346
X2.8008Y-2.3091
X2.837Y-1.8984
X2.8386Y-1.5965
X2.8421Y-2.0543
X2.9043Y-2.222
X2.915Y-1.6921
X2.9161Y-1.4028
X2.9161Y-1.6154
X2.9177Y-1.8984
X2.963Y-1.6359
X2.9807Y-1.5161
X2.9925Y-2.148
X3.0406Y-1.848
X3.0648Y-1.4573
X3.0799Y-1.8996
X3.1701Y-0.9406
X3.222Y-1.2335
X3.2406Y-1.8902
X3.2677Y-0.6543
X3.3642Y-0.6701
X3.3772Y-1.8902
X3.4957Y-0.9406
X3.4965Y-0.7756
X3.4972Y-1.0488
X3.5028Y-2.0697
X3.5398Y-1.7413
X3.5614Y-1.8031
X3.5752Y-0.7843
X3.6031Y-2.1598
X3.6323Y-2.0701
X3.6476Y-2.2398
X3.6484Y-2.3614
X3.6575Y-1.0488
X3.6953Y-0.8173
X3.7157Y-1.4878
X3.7976Y-2.3657
X3.8071Y-2.2398
X3.8236Y-1.1035
X3.8614Y-1.102
X3.8783Y-1.8539
X3.9252Y-2.1583
X3.9449Y-0.9496
X4.0118Y-1.4953
X4.1035Y-1.922
X4.1134Y-2.0831
X4.1496Y-1.1461
X4.1504Y-1.3004
X4.1512Y-1.211
X4.2154Y-1.1461
X4.2272Y-1.4457
X4.2543Y-0.7555
X4.2823Y-1.1461
X4.2917Y-1.4469
X4.3031Y-1.5079
X4.5059Y-2.1079
X4.5669Y-0.7854
X4.5866Y-2.2024
X4.5917Y-0.9287
X4.6331Y-0.7465
T2
X4.4839Y-1.2579
T3
X1.7929Y-1.7874
X1.7929Y-1.8874
X2.0244Y-2.0976
X2.0244Y-2.1976
X3.2697Y-2.3343
X3.3642Y-0.7299
X3.3697Y-2.3343
X3.4642Y-0.7299
X3.4697Y-2.3343
X3.5642Y-0.7299
X3.6642Y-0.7299
X3.7642Y-0.7299
X4.2185Y-2.3244
X4.3185Y-2.3244
X4.4185Y-2.3244
X4.5598Y-1.7098
X4.5598Y-1.8098
X4.5598Y-1.9098
X4.5598Y-2.0098
T4
X1.7949Y-2.1004
X1.7949Y-2.2004
X1.7972Y-1.5276
X1.7972Y-1.6276
T5
X4.3839Y-1.1579
X4.3839Y-1.3579
X4.5839Y-1.1579
X4.5839Y-1.3579
M30
