%TF.GenerationSoftware,KiCad,Pcbnew,8.0.8*%
%TF.CreationDate,2025-02-24T17:42:22-08:00*%
%TF.ProjectId,all_in_one,616c6c5f-696e-45f6-9f6e-652e6b696361,rev?*%
%TF.SameCoordinates,Original*%
%TF.FileFunction,Copper,L2,Bot*%
%TF.FilePolarity,Positive*%
%FSLAX46Y46*%
G04 Gerber Fmt 4.6, Leading zero omitted, Abs format (unit mm)*
G04 Created by KiCad (PCBNEW 8.0.8) date 2025-02-24 17:42:22*
%MOMM*%
%LPD*%
G01*
G04 APERTURE LIST*
%TA.AperFunction,ComponentPad*%
%ADD10O,1.700000X1.700000*%
%TD*%
%TA.AperFunction,ComponentPad*%
%ADD11R,1.700000X1.700000*%
%TD*%
%TA.AperFunction,ComponentPad*%
%ADD12C,1.440000*%
%TD*%
%TA.AperFunction,ComponentPad*%
%ADD13C,2.250000*%
%TD*%
%TA.AperFunction,ComponentPad*%
%ADD14R,2.200000X2.200000*%
%TD*%
%TA.AperFunction,ComponentPad*%
%ADD15C,2.200000*%
%TD*%
%TA.AperFunction,ViaPad*%
%ADD16C,0.600000*%
%TD*%
%TA.AperFunction,Conductor*%
%ADD17C,0.250000*%
%TD*%
%TA.AperFunction,Conductor*%
%ADD18C,0.500000*%
%TD*%
G04 APERTURE END LIST*
D10*
%TO.P,J5,5,Pin_5*%
%TO.N,/INT*%
X85450000Y-18540000D03*
%TO.P,J5,4,Pin_4*%
%TO.N,/SCL*%
X87990000Y-18540000D03*
%TO.P,J5,3,Pin_3*%
%TO.N,/SDA*%
X90530000Y-18540000D03*
%TO.P,J5,2,Pin_2*%
%TO.N,GND*%
X93070000Y-18540000D03*
D11*
%TO.P,J5,1,Pin_1*%
%TO.N,+3V3*%
X95610000Y-18540000D03*
%TD*%
D12*
%TO.P,J8,1,In*%
%TO.N,Net-(J8-In)*%
X113890000Y-31950000D03*
D13*
%TO.P,J8,2,Ext*%
%TO.N,GND*%
X111350000Y-29410000D03*
X111350000Y-34490000D03*
X116430000Y-29410000D03*
X116430000Y-34490000D03*
%TD*%
D14*
%TO.P,J4,1,Pin_1*%
%TO.N,Net-(J3-Pin_1)*%
X45590000Y-53350000D03*
D15*
%TO.P,J4,2,Pin_2*%
%TO.N,GND*%
X45590000Y-55890000D03*
%TD*%
D11*
%TO.P,J6,1,Pin_1*%
%TO.N,+3V3*%
X115820000Y-51050000D03*
D10*
%TO.P,J6,2,Pin_2*%
%TO.N,/SWDIO*%
X115820000Y-48510000D03*
%TO.P,J6,3,Pin_3*%
%TO.N,/SWCLK*%
X115820000Y-45970000D03*
%TO.P,J6,4,Pin_4*%
%TO.N,GND*%
X115820000Y-43430000D03*
%TD*%
D11*
%TO.P,J9,1,Pin_1*%
%TO.N,/RXD2*%
X107150000Y-59040000D03*
D10*
%TO.P,J9,2,Pin_2*%
%TO.N,/TXD2*%
X109690000Y-59040000D03*
%TO.P,J9,3,Pin_3*%
%TO.N,GND*%
X112230000Y-59040000D03*
%TD*%
D11*
%TO.P,J7,1,Pin_1*%
%TO.N,+3V3*%
X83050000Y-59290000D03*
D10*
%TO.P,J7,2,Pin_2*%
%TO.N,/CDS*%
X85590000Y-59290000D03*
%TO.P,J7,3,Pin_3*%
%TO.N,GND*%
X88130000Y-59290000D03*
%TD*%
D11*
%TO.P,J3,1,Pin_1*%
%TO.N,Net-(J3-Pin_1)*%
X51420000Y-53280000D03*
D10*
%TO.P,J3,2,Pin_2*%
%TO.N,GND*%
X51420000Y-55820000D03*
%TD*%
D11*
%TO.P,J1,1,Pin_1*%
%TO.N,Net-(D1-K)*%
X45540000Y-45400000D03*
D10*
%TO.P,J1,2,Pin_2*%
%TO.N,GND*%
X45540000Y-47940000D03*
%TD*%
D14*
%TO.P,J2,1,Pin_1*%
%TO.N,Net-(D1-K)*%
X45650000Y-38800000D03*
D15*
%TO.P,J2,2,Pin_2*%
%TO.N,GND*%
X45650000Y-41340000D03*
%TD*%
D16*
%TO.N,GND*%
X75710000Y-38510000D03*
X64200000Y-38340000D03*
X74070000Y-35630000D03*
X70530000Y-33900000D03*
X66830000Y-33900000D03*
X64290000Y-35710000D03*
X92900000Y-26640000D03*
X88830000Y-26640000D03*
X96460000Y-60090000D03*
X92670000Y-59980000D03*
X72190000Y-52180000D03*
X69730000Y-53680000D03*
X66880000Y-53780000D03*
X76010000Y-54560000D03*
X73770000Y-56440000D03*
X71140000Y-58650000D03*
X67830000Y-58730000D03*
X64690000Y-58600000D03*
X45370000Y-59920000D03*
X45590000Y-33510000D03*
X61640000Y-59920000D03*
X58130000Y-60030000D03*
X53910000Y-60030000D03*
X49580000Y-60030000D03*
X85780000Y-48010000D03*
X82310000Y-48010000D03*
X116500000Y-55940000D03*
X104480000Y-52910000D03*
X104230000Y-48820000D03*
X96700000Y-56890000D03*
X92650000Y-56890000D03*
X94380000Y-37790000D03*
X70380000Y-44540000D03*
%TO.N,+3V3*%
X114450000Y-53540000D03*
X99700000Y-54820000D03*
X91520000Y-54860000D03*
X90460000Y-45800000D03*
%TO.N,GND*%
X78230000Y-48250000D03*
X117680000Y-18960000D03*
X116000000Y-19950000D03*
X93860000Y-20760000D03*
X83000000Y-16620000D03*
X70360000Y-48220000D03*
X53440000Y-39060000D03*
X61500000Y-50270000D03*
X108770000Y-29110000D03*
X107070000Y-29110000D03*
X50480000Y-49960000D03*
X109010000Y-36750000D03*
X107370000Y-36720000D03*
X105420000Y-33030000D03*
X58150000Y-39060000D03*
X67950000Y-48180000D03*
X42820000Y-45180000D03*
X42740000Y-47760000D03*
X53200000Y-50040000D03*
X72100000Y-40550000D03*
X50440000Y-47730000D03*
X72060000Y-48220000D03*
X74070000Y-41030000D03*
X55770000Y-38990000D03*
X105440000Y-30760000D03*
X74110000Y-48220000D03*
X51140000Y-39040000D03*
X81840000Y-31330000D03*
X57620000Y-47720000D03*
X57670000Y-50270000D03*
X60590000Y-38960000D03*
X61530000Y-47720000D03*
X53140000Y-47720000D03*
X105400000Y-29110000D03*
%TO.N,+3V3*%
X89910000Y-44230000D03*
X77845000Y-37015000D03*
X75260000Y-41552500D03*
X80520000Y-23890000D03*
X88970000Y-52570000D03*
X88790000Y-23890000D03*
%TO.N,/LED1*%
X109300000Y-38300000D03*
X101900000Y-37980000D03*
%TO.N,/SCL*%
X97120000Y-28030000D03*
X116630000Y-23590000D03*
X88810000Y-19700000D03*
X100200000Y-24120000D03*
%TO.N,/SDA*%
X90810000Y-19920000D03*
X98080000Y-27990000D03*
%TO.N,/INT*%
X108060000Y-19190000D03*
X85450000Y-17020000D03*
%TO.N,/CDS*%
X92260000Y-52580000D03*
X98510000Y-47090000D03*
%TO.N,/SOLAR+*%
X70310000Y-40750000D03*
X62060000Y-40740000D03*
%TO.N,/LDO_EN*%
X77230000Y-46940000D03*
X74040000Y-42980000D03*
%TD*%
D17*
%TO.N,+3V3*%
X113170000Y-54820000D02*
X114450000Y-53540000D01*
X99700000Y-54820000D02*
X113170000Y-54820000D01*
X90460000Y-53800000D02*
X91520000Y-54860000D01*
X90460000Y-45800000D02*
X90460000Y-53800000D01*
D18*
X77830000Y-38982500D02*
X77830000Y-37030000D01*
X75260000Y-41552500D02*
X77830000Y-38982500D01*
X77830000Y-37030000D02*
X77845000Y-37015000D01*
D17*
X88970000Y-52570000D02*
X88970000Y-45170000D01*
D18*
X80520000Y-23890000D02*
X88790000Y-23890000D01*
D17*
X88970000Y-45170000D02*
X89910000Y-44230000D01*
%TO.N,/LED1*%
X109300000Y-38300000D02*
X108870000Y-38300000D01*
X108610000Y-38040000D02*
X101960000Y-38040000D01*
X108870000Y-38300000D02*
X108610000Y-38040000D01*
X101960000Y-38040000D02*
X101900000Y-37980000D01*
%TO.N,/SCL*%
X97120000Y-28030000D02*
X97120000Y-28010000D01*
X100730000Y-23590000D02*
X100200000Y-24120000D01*
X116630000Y-23590000D02*
X100730000Y-23590000D01*
X97120000Y-28010000D02*
X88810000Y-19700000D01*
%TO.N,/SDA*%
X98080000Y-27190000D02*
X90810000Y-19920000D01*
X98080000Y-27990000D02*
X98080000Y-27190000D01*
%TO.N,/INT*%
X108060000Y-19190000D02*
X105890000Y-17020000D01*
X105890000Y-17020000D02*
X85450000Y-17020000D01*
%TO.N,/CDS*%
X92260000Y-52580000D02*
X97750000Y-47090000D01*
X97750000Y-47090000D02*
X98510000Y-47090000D01*
D18*
%TO.N,/SOLAR+*%
X63460000Y-40730000D02*
X70290000Y-40730000D01*
X63450000Y-40740000D02*
X62060000Y-40740000D01*
X63460000Y-40730000D02*
X63450000Y-40740000D01*
D17*
X70310000Y-40750000D02*
X70360000Y-40700000D01*
D18*
X70290000Y-40730000D02*
X70310000Y-40750000D01*
D17*
%TO.N,/LDO_EN*%
X72200000Y-42980000D02*
X72170000Y-43010000D01*
X77210000Y-46920000D02*
X77230000Y-46940000D01*
X72170000Y-43010000D02*
X72170000Y-46670000D01*
X74040000Y-42980000D02*
X72200000Y-42980000D01*
X72170000Y-46670000D02*
X72420000Y-46920000D01*
X72420000Y-46920000D02*
X77210000Y-46920000D01*
%TD*%
%TA.AperFunction,Conductor*%
%TO.N,GND*%
G36*
X84925599Y-16199685D02*
G01*
X84971354Y-16252489D01*
X84981298Y-16321647D01*
X84952273Y-16385203D01*
X84946241Y-16391681D01*
X84820184Y-16517737D01*
X84724211Y-16670476D01*
X84664631Y-16840745D01*
X84664630Y-16840750D01*
X84644435Y-17019996D01*
X84644435Y-17020003D01*
X84664630Y-17199249D01*
X84664632Y-17199257D01*
X84701627Y-17304983D01*
X84705188Y-17374762D01*
X84670459Y-17435389D01*
X84655709Y-17447512D01*
X84578599Y-17501505D01*
X84578597Y-17501506D01*
X84411505Y-17668597D01*
X84275965Y-17862169D01*
X84275964Y-17862171D01*
X84176098Y-18076335D01*
X84176094Y-18076344D01*
X84114938Y-18304586D01*
X84114936Y-18304596D01*
X84094341Y-18539999D01*
X84094341Y-18540000D01*
X84114936Y-18775403D01*
X84114938Y-18775413D01*
X84176094Y-19003655D01*
X84176096Y-19003659D01*
X84176097Y-19003663D01*
X84256004Y-19175023D01*
X84275965Y-19217830D01*
X84275967Y-19217834D01*
X84381990Y-19369249D01*
X84411505Y-19411401D01*
X84578599Y-19578495D01*
X84675384Y-19646265D01*
X84772165Y-19714032D01*
X84772167Y-19714033D01*
X84772170Y-19714035D01*
X84986337Y-19813903D01*
X85214592Y-19875063D01*
X85391034Y-19890500D01*
X85449999Y-19895659D01*
X85450000Y-19895659D01*
X85450001Y-19895659D01*
X85508966Y-19890500D01*
X85685408Y-19875063D01*
X85913663Y-19813903D01*
X86127830Y-19714035D01*
X86321401Y-19578495D01*
X86488495Y-19411401D01*
X86618425Y-19225842D01*
X86673002Y-19182217D01*
X86742500Y-19175023D01*
X86804855Y-19206546D01*
X86821575Y-19225842D01*
X86951500Y-19411395D01*
X86951505Y-19411401D01*
X87118599Y-19578495D01*
X87215384Y-19646265D01*
X87312165Y-19714032D01*
X87312167Y-19714033D01*
X87312170Y-19714035D01*
X87526337Y-19813903D01*
X87754592Y-19875063D01*
X87951864Y-19892322D01*
X88016932Y-19917774D01*
X88057911Y-19974365D01*
X88058097Y-19974894D01*
X88084211Y-20049523D01*
X88084212Y-20049524D01*
X88180184Y-20202262D01*
X88307738Y-20329816D01*
X88460478Y-20425789D01*
X88630745Y-20485368D01*
X88677823Y-20490672D01*
X88742236Y-20517737D01*
X88751621Y-20526211D01*
X96291248Y-28065838D01*
X96324733Y-28127161D01*
X96326787Y-28139635D01*
X96334630Y-28209250D01*
X96334631Y-28209254D01*
X96394211Y-28379523D01*
X96439687Y-28451897D01*
X96490184Y-28532262D01*
X96617738Y-28659816D01*
X96770478Y-28755789D01*
X96912601Y-28805520D01*
X96940745Y-28815368D01*
X96940750Y-28815369D01*
X97119996Y-28835565D01*
X97120000Y-28835565D01*
X97120004Y-28835565D01*
X97299249Y-28815369D01*
X97299252Y-28815368D01*
X97299255Y-28815368D01*
X97469522Y-28755789D01*
X97565858Y-28695256D01*
X97633094Y-28676256D01*
X97697801Y-28695256D01*
X97730478Y-28715789D01*
X97782318Y-28733928D01*
X97900737Y-28775366D01*
X97900743Y-28775367D01*
X97900745Y-28775368D01*
X97900746Y-28775368D01*
X97900750Y-28775369D01*
X98079996Y-28795565D01*
X98080000Y-28795565D01*
X98080004Y-28795565D01*
X98259249Y-28775369D01*
X98259252Y-28775368D01*
X98259255Y-28775368D01*
X98429522Y-28715789D01*
X98582262Y-28619816D01*
X98709816Y-28492262D01*
X98805789Y-28339522D01*
X98865368Y-28169255D01*
X98865369Y-28169249D01*
X98885565Y-27990003D01*
X98885565Y-27989996D01*
X98865369Y-27810750D01*
X98865368Y-27810745D01*
X98805788Y-27640476D01*
X98724506Y-27511117D01*
X98705500Y-27445145D01*
X98705500Y-27257741D01*
X98705501Y-27257720D01*
X98705501Y-27128391D01*
X98681464Y-27007555D01*
X98681463Y-27007549D01*
X98634312Y-26893715D01*
X98565858Y-26791267D01*
X98565855Y-26791263D01*
X95894587Y-24119996D01*
X99394435Y-24119996D01*
X99394435Y-24120003D01*
X99414630Y-24299249D01*
X99414631Y-24299254D01*
X99474211Y-24469523D01*
X99566116Y-24615788D01*
X99570184Y-24622262D01*
X99697738Y-24749816D01*
X99850478Y-24845789D01*
X100020745Y-24905368D01*
X100020750Y-24905369D01*
X100199996Y-24925565D01*
X100200000Y-24925565D01*
X100200004Y-24925565D01*
X100379249Y-24905369D01*
X100379252Y-24905368D01*
X100379255Y-24905368D01*
X100549522Y-24845789D01*
X100702262Y-24749816D01*
X100829816Y-24622262D01*
X100925789Y-24469522D01*
X100985368Y-24299255D01*
X100985369Y-24299249D01*
X100985615Y-24298546D01*
X101026336Y-24241770D01*
X101091289Y-24216022D01*
X101102657Y-24215500D01*
X116085145Y-24215500D01*
X116151117Y-24234506D01*
X116254162Y-24299254D01*
X116280478Y-24315789D01*
X116450745Y-24375368D01*
X116450750Y-24375369D01*
X116629996Y-24395565D01*
X116630000Y-24395565D01*
X116630004Y-24395565D01*
X116809249Y-24375369D01*
X116809252Y-24375368D01*
X116809255Y-24375368D01*
X116979522Y-24315789D01*
X117132262Y-24219816D01*
X117259816Y-24092262D01*
X117355789Y-23939522D01*
X117415368Y-23769255D01*
X117421960Y-23710750D01*
X117435565Y-23590003D01*
X117435565Y-23589996D01*
X117415369Y-23410750D01*
X117415368Y-23410745D01*
X117355789Y-23240478D01*
X117259816Y-23087738D01*
X117132262Y-22960184D01*
X117108883Y-22945494D01*
X116979523Y-22864211D01*
X116809254Y-22804631D01*
X116809249Y-22804630D01*
X116630004Y-22784435D01*
X116629996Y-22784435D01*
X116450750Y-22804630D01*
X116450745Y-22804631D01*
X116280476Y-22864211D01*
X116151117Y-22945494D01*
X116085145Y-22964500D01*
X100668389Y-22964500D01*
X100607971Y-22976518D01*
X100564743Y-22985116D01*
X100547546Y-22988537D01*
X100433716Y-23035687D01*
X100433707Y-23035692D01*
X100331268Y-23104140D01*
X100302867Y-23132542D01*
X100244142Y-23191267D01*
X100244139Y-23191270D01*
X100175225Y-23260184D01*
X100141621Y-23293788D01*
X100080298Y-23327272D01*
X100067825Y-23329326D01*
X100020750Y-23334630D01*
X99850478Y-23394210D01*
X99697737Y-23490184D01*
X99570184Y-23617737D01*
X99474211Y-23770476D01*
X99414631Y-23940745D01*
X99414630Y-23940750D01*
X99394435Y-24119996D01*
X95894587Y-24119996D01*
X91636211Y-19861621D01*
X91602726Y-19800298D01*
X91600673Y-19787838D01*
X91595368Y-19740745D01*
X91595367Y-19740742D01*
X91595366Y-19740737D01*
X91535792Y-19570486D01*
X91535791Y-19570484D01*
X91535789Y-19570478D01*
X91535785Y-19570472D01*
X91532887Y-19564453D01*
X91521535Y-19495512D01*
X91549256Y-19431377D01*
X91556920Y-19422975D01*
X91568495Y-19411401D01*
X91698730Y-19225405D01*
X91753307Y-19181781D01*
X91822805Y-19174587D01*
X91885160Y-19206110D01*
X91901879Y-19225405D01*
X92031890Y-19411078D01*
X92198917Y-19578105D01*
X92392421Y-19713600D01*
X92606507Y-19813429D01*
X92606516Y-19813433D01*
X92820000Y-19870634D01*
X92820000Y-18973012D01*
X92877007Y-19005925D01*
X93004174Y-19040000D01*
X93135826Y-19040000D01*
X93262993Y-19005925D01*
X93320000Y-18973012D01*
X93320000Y-19870633D01*
X93533483Y-19813433D01*
X93533492Y-19813429D01*
X93747578Y-19713600D01*
X93941078Y-19578108D01*
X94063133Y-19456053D01*
X94124456Y-19422568D01*
X94194148Y-19427552D01*
X94250082Y-19469423D01*
X94266997Y-19500401D01*
X94316202Y-19632328D01*
X94316206Y-19632335D01*
X94402452Y-19747544D01*
X94402455Y-19747547D01*
X94517664Y-19833793D01*
X94517671Y-19833797D01*
X94652517Y-19884091D01*
X94652516Y-19884091D01*
X94659444Y-19884835D01*
X94712127Y-19890500D01*
X96507872Y-19890499D01*
X96567483Y-19884091D01*
X96702331Y-19833796D01*
X96817546Y-19747546D01*
X96903796Y-19632331D01*
X96954091Y-19497483D01*
X96960500Y-19437873D01*
X96960499Y-17769499D01*
X96980184Y-17702461D01*
X97032987Y-17656706D01*
X97084499Y-17645500D01*
X105579548Y-17645500D01*
X105646587Y-17665185D01*
X105667228Y-17681818D01*
X106459583Y-18474174D01*
X107233787Y-19248378D01*
X107267272Y-19309701D01*
X107269326Y-19322174D01*
X107274630Y-19369249D01*
X107334210Y-19539521D01*
X107349876Y-19564453D01*
X107430184Y-19692262D01*
X107557738Y-19819816D01*
X107579987Y-19833796D01*
X107673130Y-19892322D01*
X107710478Y-19915789D01*
X107877879Y-19974365D01*
X107880745Y-19975368D01*
X107880750Y-19975369D01*
X108059996Y-19995565D01*
X108060000Y-19995565D01*
X108060004Y-19995565D01*
X108239249Y-19975369D01*
X108239252Y-19975368D01*
X108239255Y-19975368D01*
X108409522Y-19915789D01*
X108562262Y-19819816D01*
X108689816Y-19692262D01*
X108785789Y-19539522D01*
X108845368Y-19369255D01*
X108852078Y-19309701D01*
X108865565Y-19190003D01*
X108865565Y-19189996D01*
X108845369Y-19010750D01*
X108845368Y-19010745D01*
X108820648Y-18940099D01*
X108785789Y-18840478D01*
X108689816Y-18687738D01*
X108562262Y-18560184D01*
X108547974Y-18551206D01*
X108409521Y-18464210D01*
X108239249Y-18404630D01*
X108192174Y-18399326D01*
X108127760Y-18372259D01*
X108118378Y-18363787D01*
X106382928Y-16628338D01*
X106382925Y-16628334D01*
X106382925Y-16628335D01*
X106375858Y-16621268D01*
X106375858Y-16621267D01*
X106288733Y-16534142D01*
X106288732Y-16534141D01*
X106288731Y-16534140D01*
X106237509Y-16499915D01*
X106186287Y-16465689D01*
X106186286Y-16465688D01*
X106186283Y-16465686D01*
X106186280Y-16465685D01*
X106105792Y-16432347D01*
X106105790Y-16432346D01*
X106072510Y-16418561D01*
X106018106Y-16374721D01*
X105996041Y-16308427D01*
X106013320Y-16240727D01*
X106064457Y-16193116D01*
X106119962Y-16180000D01*
X118026000Y-16180000D01*
X118093039Y-16199685D01*
X118138794Y-16252489D01*
X118150000Y-16304000D01*
X118150000Y-28692726D01*
X118130315Y-28759765D01*
X118077511Y-28805520D01*
X118008353Y-28815464D01*
X117944797Y-28786439D01*
X117911439Y-28740179D01*
X117882363Y-28669983D01*
X117748719Y-28451898D01*
X117748712Y-28451888D01*
X117745465Y-28448087D01*
X117745464Y-28448087D01*
X117184114Y-29009437D01*
X117183260Y-29007374D01*
X117090238Y-28868156D01*
X116971844Y-28749762D01*
X116832626Y-28656740D01*
X116830561Y-28655884D01*
X117391911Y-28094535D01*
X117391911Y-28094533D01*
X117388110Y-28091286D01*
X117388095Y-28091275D01*
X117170015Y-27957636D01*
X117170012Y-27957634D01*
X116933702Y-27859752D01*
X116684988Y-27800042D01*
X116684989Y-27800042D01*
X116430000Y-27779975D01*
X116175010Y-27800042D01*
X115926297Y-27859752D01*
X115689987Y-27957634D01*
X115689984Y-27957636D01*
X115471897Y-28091280D01*
X115468087Y-28094534D01*
X116029438Y-28655884D01*
X116027374Y-28656740D01*
X115888156Y-28749762D01*
X115769762Y-28868156D01*
X115676740Y-29007374D01*
X115675885Y-29009438D01*
X115114534Y-28448087D01*
X115111280Y-28451897D01*
X114977636Y-28669984D01*
X114977634Y-28669987D01*
X114879752Y-28906297D01*
X114820042Y-29155010D01*
X114799975Y-29410000D01*
X114820042Y-29664989D01*
X114879752Y-29913702D01*
X114977634Y-30150012D01*
X114977636Y-30150015D01*
X115111275Y-30368095D01*
X115111286Y-30368110D01*
X115114533Y-30371911D01*
X115114535Y-30371911D01*
X115675884Y-29810561D01*
X115676740Y-29812626D01*
X115769762Y-29951844D01*
X115888156Y-30070238D01*
X116027374Y-30163260D01*
X116029437Y-30164114D01*
X115468087Y-30725464D01*
X115468087Y-30725465D01*
X115471888Y-30728712D01*
X115471898Y-30728719D01*
X115689984Y-30862363D01*
X115689987Y-30862365D01*
X115926297Y-30960247D01*
X116175011Y-31019957D01*
X116175010Y-31019957D01*
X116430000Y-31040024D01*
X116684989Y-31019957D01*
X116933702Y-30960247D01*
X117170012Y-30862365D01*
X117170015Y-30862363D01*
X117388103Y-30728719D01*
X117391912Y-30725464D01*
X116830562Y-30164114D01*
X116832626Y-30163260D01*
X116971844Y-30070238D01*
X117090238Y-29951844D01*
X117183260Y-29812626D01*
X117184114Y-29810562D01*
X117745464Y-30371912D01*
X117748719Y-30368103D01*
X117882363Y-30150015D01*
X117882365Y-30150012D01*
X117911439Y-30079821D01*
X117955279Y-30025417D01*
X118021573Y-30003352D01*
X118089273Y-30020631D01*
X118136884Y-30071768D01*
X118150000Y-30127273D01*
X118150000Y-33772726D01*
X118130315Y-33839765D01*
X118077511Y-33885520D01*
X118008353Y-33895464D01*
X117944797Y-33866439D01*
X117911439Y-33820179D01*
X117882363Y-33749983D01*
X117748719Y-33531898D01*
X117748712Y-33531888D01*
X117745465Y-33528087D01*
X117745464Y-33528087D01*
X117184114Y-34089437D01*
X117183260Y-34087374D01*
X117090238Y-33948156D01*
X116971844Y-33829762D01*
X116832626Y-33736740D01*
X116830561Y-33735884D01*
X117391911Y-33174535D01*
X117391911Y-33174533D01*
X117388110Y-33171286D01*
X117388095Y-33171275D01*
X117170015Y-33037636D01*
X117170012Y-33037634D01*
X116933702Y-32939752D01*
X116684988Y-32880042D01*
X116684989Y-32880042D01*
X116430000Y-32859975D01*
X116175010Y-32880042D01*
X115926297Y-32939752D01*
X115689987Y-33037634D01*
X115689984Y-33037636D01*
X115471897Y-33171280D01*
X115468087Y-33174534D01*
X116029438Y-33735884D01*
X116027374Y-33736740D01*
X115888156Y-33829762D01*
X115769762Y-33948156D01*
X115676740Y-34087374D01*
X115675885Y-34089438D01*
X115114534Y-33528087D01*
X115111280Y-33531897D01*
X114977636Y-33749984D01*
X114977634Y-33749987D01*
X114879752Y-33986297D01*
X114820042Y-34235010D01*
X114799975Y-34490000D01*
X114820042Y-34744989D01*
X114879752Y-34993702D01*
X114977634Y-35230012D01*
X114977636Y-35230015D01*
X115111275Y-35448095D01*
X115111286Y-35448110D01*
X115114533Y-35451911D01*
X115114535Y-35451911D01*
X115675884Y-34890561D01*
X115676740Y-34892626D01*
X115769762Y-35031844D01*
X115888156Y-35150238D01*
X116027374Y-35243260D01*
X116029437Y-35244114D01*
X115468087Y-35805464D01*
X115468087Y-35805465D01*
X115471888Y-35808712D01*
X115471898Y-35808719D01*
X115689984Y-35942363D01*
X115689987Y-35942365D01*
X115926297Y-36040247D01*
X116175011Y-36099957D01*
X116175010Y-36099957D01*
X116430000Y-36120024D01*
X116684989Y-36099957D01*
X116933702Y-36040247D01*
X117170012Y-35942365D01*
X117170015Y-35942363D01*
X117388103Y-35808719D01*
X117391912Y-35805464D01*
X116830562Y-35244114D01*
X116832626Y-35243260D01*
X116971844Y-35150238D01*
X117090238Y-35031844D01*
X117183260Y-34892626D01*
X117184114Y-34890562D01*
X117745464Y-35451912D01*
X117748719Y-35448103D01*
X117882363Y-35230015D01*
X117882365Y-35230012D01*
X117911439Y-35159821D01*
X117955279Y-35105417D01*
X118021573Y-35083352D01*
X118089273Y-35100631D01*
X118136884Y-35151768D01*
X118150000Y-35207273D01*
X118150000Y-61626000D01*
X118130315Y-61693039D01*
X118077511Y-61738794D01*
X118026000Y-61750000D01*
X42124000Y-61750000D01*
X42056961Y-61730315D01*
X42011206Y-61677511D01*
X42000000Y-61626000D01*
X42000000Y-58392135D01*
X81699500Y-58392135D01*
X81699500Y-60187870D01*
X81699501Y-60187876D01*
X81705908Y-60247483D01*
X81756202Y-60382328D01*
X81756206Y-60382335D01*
X81842452Y-60497544D01*
X81842455Y-60497547D01*
X81957664Y-60583793D01*
X81957671Y-60583797D01*
X82092517Y-60634091D01*
X82092516Y-60634091D01*
X82099444Y-60634835D01*
X82152127Y-60640500D01*
X83947872Y-60640499D01*
X84007483Y-60634091D01*
X84142331Y-60583796D01*
X84257546Y-60497546D01*
X84343796Y-60382331D01*
X84392810Y-60250916D01*
X84434681Y-60194984D01*
X84500145Y-60170566D01*
X84568418Y-60185417D01*
X84596673Y-60206569D01*
X84718599Y-60328495D01*
X84797998Y-60384091D01*
X84912165Y-60464032D01*
X84912167Y-60464033D01*
X84912170Y-60464035D01*
X85126337Y-60563903D01*
X85354592Y-60625063D01*
X85531034Y-60640500D01*
X85589999Y-60645659D01*
X85590000Y-60645659D01*
X85590001Y-60645659D01*
X85648966Y-60640500D01*
X85825408Y-60625063D01*
X86053663Y-60563903D01*
X86267830Y-60464035D01*
X86461401Y-60328495D01*
X86628495Y-60161401D01*
X86758730Y-59975405D01*
X86813307Y-59931781D01*
X86882805Y-59924587D01*
X86945160Y-59956110D01*
X86961879Y-59975405D01*
X87091890Y-60161078D01*
X87258917Y-60328105D01*
X87452421Y-60463600D01*
X87666507Y-60563429D01*
X87666516Y-60563433D01*
X87880000Y-60620634D01*
X87880000Y-59723012D01*
X87937007Y-59755925D01*
X88064174Y-59790000D01*
X88195826Y-59790000D01*
X88322993Y-59755925D01*
X88380000Y-59723012D01*
X88380000Y-60620633D01*
X88593483Y-60563433D01*
X88593492Y-60563429D01*
X88807578Y-60463600D01*
X89001082Y-60328105D01*
X89168105Y-60161082D01*
X89303600Y-59967578D01*
X89403429Y-59753492D01*
X89403432Y-59753486D01*
X89460636Y-59540000D01*
X88563012Y-59540000D01*
X88595925Y-59482993D01*
X88630000Y-59355826D01*
X88630000Y-59224174D01*
X88595925Y-59097007D01*
X88563012Y-59040000D01*
X89460636Y-59040000D01*
X89460635Y-59039999D01*
X89403432Y-58826513D01*
X89403429Y-58826507D01*
X89303600Y-58612422D01*
X89303599Y-58612420D01*
X89168113Y-58418926D01*
X89168108Y-58418920D01*
X89001082Y-58251894D01*
X88844332Y-58142135D01*
X105799500Y-58142135D01*
X105799500Y-59937870D01*
X105799501Y-59937876D01*
X105805908Y-59997483D01*
X105856202Y-60132328D01*
X105856206Y-60132335D01*
X105942452Y-60247544D01*
X105942455Y-60247547D01*
X106057664Y-60333793D01*
X106057671Y-60333797D01*
X106192517Y-60384091D01*
X106192516Y-60384091D01*
X106199444Y-60384835D01*
X106252127Y-60390500D01*
X108047872Y-60390499D01*
X108107483Y-60384091D01*
X108242331Y-60333796D01*
X108357546Y-60247546D01*
X108443796Y-60132331D01*
X108492810Y-60000916D01*
X108534681Y-59944984D01*
X108600145Y-59920566D01*
X108668418Y-59935417D01*
X108696673Y-59956569D01*
X108818599Y-60078495D01*
X108915384Y-60146265D01*
X109012165Y-60214032D01*
X109012167Y-60214033D01*
X109012170Y-60214035D01*
X109226337Y-60313903D01*
X109454592Y-60375063D01*
X109631034Y-60390500D01*
X109689999Y-60395659D01*
X109690000Y-60395659D01*
X109690001Y-60395659D01*
X109748966Y-60390500D01*
X109925408Y-60375063D01*
X110153663Y-60313903D01*
X110367830Y-60214035D01*
X110561401Y-60078495D01*
X110728495Y-59911401D01*
X110858730Y-59725405D01*
X110913307Y-59681781D01*
X110982805Y-59674587D01*
X111045160Y-59706110D01*
X111061879Y-59725405D01*
X111191890Y-59911078D01*
X111358917Y-60078105D01*
X111552421Y-60213600D01*
X111766507Y-60313429D01*
X111766516Y-60313433D01*
X111980000Y-60370634D01*
X111980000Y-59473012D01*
X112037007Y-59505925D01*
X112164174Y-59540000D01*
X112295826Y-59540000D01*
X112422993Y-59505925D01*
X112480000Y-59473012D01*
X112480000Y-60370633D01*
X112693483Y-60313433D01*
X112693492Y-60313429D01*
X112907578Y-60213600D01*
X113101082Y-60078105D01*
X113268105Y-59911082D01*
X113403600Y-59717578D01*
X113503429Y-59503492D01*
X113503432Y-59503486D01*
X113560636Y-59290000D01*
X112663012Y-59290000D01*
X112695925Y-59232993D01*
X112730000Y-59105826D01*
X112730000Y-58974174D01*
X112695925Y-58847007D01*
X112663012Y-58790000D01*
X113560636Y-58790000D01*
X113560635Y-58789999D01*
X113503432Y-58576513D01*
X113503429Y-58576507D01*
X113403600Y-58362422D01*
X113403599Y-58362420D01*
X113268113Y-58168926D01*
X113268108Y-58168920D01*
X113101082Y-58001894D01*
X112907578Y-57866399D01*
X112693492Y-57766570D01*
X112693486Y-57766567D01*
X112480000Y-57709364D01*
X112480000Y-58606988D01*
X112422993Y-58574075D01*
X112295826Y-58540000D01*
X112164174Y-58540000D01*
X112037007Y-58574075D01*
X111980000Y-58606988D01*
X111980000Y-57709364D01*
X111979999Y-57709364D01*
X111766513Y-57766567D01*
X111766507Y-57766570D01*
X111552422Y-57866399D01*
X111552420Y-57866400D01*
X111358926Y-58001886D01*
X111358920Y-58001891D01*
X111191891Y-58168920D01*
X111191890Y-58168922D01*
X111061880Y-58354595D01*
X111007303Y-58398219D01*
X110937804Y-58405412D01*
X110875450Y-58373890D01*
X110858730Y-58354594D01*
X110728494Y-58168597D01*
X110561402Y-58001506D01*
X110561395Y-58001501D01*
X110553827Y-57996202D01*
X110522521Y-57974281D01*
X110367834Y-57865967D01*
X110367830Y-57865965D01*
X110367828Y-57865964D01*
X110153663Y-57766097D01*
X110153659Y-57766096D01*
X110153655Y-57766094D01*
X109925413Y-57704938D01*
X109925403Y-57704936D01*
X109690001Y-57684341D01*
X109689999Y-57684341D01*
X109454596Y-57704936D01*
X109454586Y-57704938D01*
X109226344Y-57766094D01*
X109226335Y-57766098D01*
X109012171Y-57865964D01*
X109012169Y-57865965D01*
X108818600Y-58001503D01*
X108696673Y-58123430D01*
X108635350Y-58156914D01*
X108565658Y-58151930D01*
X108509725Y-58110058D01*
X108492810Y-58079081D01*
X108443797Y-57947671D01*
X108443793Y-57947664D01*
X108357547Y-57832455D01*
X108357544Y-57832452D01*
X108242335Y-57746206D01*
X108242328Y-57746202D01*
X108107482Y-57695908D01*
X108107483Y-57695908D01*
X108047883Y-57689501D01*
X108047881Y-57689500D01*
X108047873Y-57689500D01*
X108047864Y-57689500D01*
X106252129Y-57689500D01*
X106252123Y-57689501D01*
X106192516Y-57695908D01*
X106057671Y-57746202D01*
X106057664Y-57746206D01*
X105942455Y-57832452D01*
X105942452Y-57832455D01*
X105856206Y-57947664D01*
X105856202Y-57947671D01*
X105805908Y-58082517D01*
X105799501Y-58142116D01*
X105799500Y-58142135D01*
X88844332Y-58142135D01*
X88807578Y-58116399D01*
X88593492Y-58016570D01*
X88593486Y-58016567D01*
X88380000Y-57959364D01*
X88380000Y-58856988D01*
X88322993Y-58824075D01*
X88195826Y-58790000D01*
X88064174Y-58790000D01*
X87937007Y-58824075D01*
X87880000Y-58856988D01*
X87880000Y-57959364D01*
X87879999Y-57959364D01*
X87666513Y-58016567D01*
X87666507Y-58016570D01*
X87452422Y-58116399D01*
X87452420Y-58116400D01*
X87258926Y-58251886D01*
X87258920Y-58251891D01*
X87091891Y-58418920D01*
X87091890Y-58418922D01*
X86961880Y-58604595D01*
X86907303Y-58648219D01*
X86837804Y-58655412D01*
X86775450Y-58623890D01*
X86758730Y-58604594D01*
X86628494Y-58418597D01*
X86461402Y-58251506D01*
X86461395Y-58251501D01*
X86267834Y-58115967D01*
X86267830Y-58115965D01*
X86255162Y-58110058D01*
X86053663Y-58016097D01*
X86053659Y-58016096D01*
X86053655Y-58016094D01*
X85825413Y-57954938D01*
X85825403Y-57954936D01*
X85590001Y-57934341D01*
X85589999Y-57934341D01*
X85354596Y-57954936D01*
X85354586Y-57954938D01*
X85126344Y-58016094D01*
X85126335Y-58016098D01*
X84912171Y-58115964D01*
X84912169Y-58115965D01*
X84718600Y-58251503D01*
X84596673Y-58373430D01*
X84535350Y-58406914D01*
X84465658Y-58401930D01*
X84409725Y-58360058D01*
X84392810Y-58329081D01*
X84343797Y-58197671D01*
X84343793Y-58197664D01*
X84257547Y-58082455D01*
X84257544Y-58082452D01*
X84142335Y-57996206D01*
X84142328Y-57996202D01*
X84007482Y-57945908D01*
X84007483Y-57945908D01*
X83947883Y-57939501D01*
X83947881Y-57939500D01*
X83947873Y-57939500D01*
X83947864Y-57939500D01*
X82152129Y-57939500D01*
X82152123Y-57939501D01*
X82092516Y-57945908D01*
X81957671Y-57996202D01*
X81957664Y-57996206D01*
X81842455Y-58082452D01*
X81842452Y-58082455D01*
X81756206Y-58197664D01*
X81756202Y-58197671D01*
X81705908Y-58332517D01*
X81699501Y-58392116D01*
X81699500Y-58392135D01*
X42000000Y-58392135D01*
X42000000Y-53271153D01*
X42249500Y-53271153D01*
X42249500Y-53428846D01*
X42280261Y-53583489D01*
X42280264Y-53583501D01*
X42340602Y-53729172D01*
X42340609Y-53729185D01*
X42428210Y-53860288D01*
X42428213Y-53860292D01*
X42539707Y-53971786D01*
X42539711Y-53971789D01*
X42670814Y-54059390D01*
X42670827Y-54059397D01*
X42759894Y-54096289D01*
X42816503Y-54119737D01*
X42971153Y-54150499D01*
X42971156Y-54150500D01*
X42971158Y-54150500D01*
X43128844Y-54150500D01*
X43128845Y-54150499D01*
X43283497Y-54119737D01*
X43429179Y-54059394D01*
X43560289Y-53971789D01*
X43671789Y-53860289D01*
X43759394Y-53729179D01*
X43759394Y-53729178D01*
X43762398Y-53724683D01*
X43816010Y-53679878D01*
X43885335Y-53671171D01*
X43948362Y-53701325D01*
X43985082Y-53760768D01*
X43989500Y-53793574D01*
X43989500Y-54497870D01*
X43989501Y-54497876D01*
X43995908Y-54557483D01*
X44046202Y-54692328D01*
X44046206Y-54692335D01*
X44132452Y-54807544D01*
X44132455Y-54807547D01*
X44209506Y-54865228D01*
X44251377Y-54921162D01*
X44256361Y-54990853D01*
X44240923Y-55029284D01*
X44159978Y-55161373D01*
X44063603Y-55394043D01*
X44023322Y-55561829D01*
X43988531Y-55622421D01*
X43926505Y-55654585D01*
X43856936Y-55648109D01*
X43801912Y-55605049D01*
X43788189Y-55580341D01*
X43759394Y-55510821D01*
X43759392Y-55510818D01*
X43759390Y-55510814D01*
X43671789Y-55379711D01*
X43671786Y-55379707D01*
X43560292Y-55268213D01*
X43560288Y-55268210D01*
X43429185Y-55180609D01*
X43429172Y-55180602D01*
X43283501Y-55120264D01*
X43283489Y-55120261D01*
X43128845Y-55089500D01*
X43128842Y-55089500D01*
X42971158Y-55089500D01*
X42971155Y-55089500D01*
X42816510Y-55120261D01*
X42816498Y-55120264D01*
X42670827Y-55180602D01*
X42670814Y-55180609D01*
X42539711Y-55268210D01*
X42539707Y-55268213D01*
X42428213Y-55379707D01*
X42428210Y-55379711D01*
X42340609Y-55510814D01*
X42340602Y-55510827D01*
X42280264Y-55656498D01*
X42280261Y-55656510D01*
X42249500Y-55811153D01*
X42249500Y-55968846D01*
X42280261Y-56123489D01*
X42280264Y-56123501D01*
X42340602Y-56269172D01*
X42340609Y-56269185D01*
X42428210Y-56400288D01*
X42428213Y-56400292D01*
X42539707Y-56511786D01*
X42539711Y-56511789D01*
X42670814Y-56599390D01*
X42670827Y-56599397D01*
X42816498Y-56659735D01*
X42816503Y-56659737D01*
X42971153Y-56690499D01*
X42971156Y-56690500D01*
X42971158Y-56690500D01*
X43128844Y-56690500D01*
X43128845Y-56690499D01*
X43283497Y-56659737D01*
X43429179Y-56599394D01*
X43560289Y-56511789D01*
X43671789Y-56400289D01*
X43759394Y-56269179D01*
X43788188Y-56199663D01*
X43832027Y-56145262D01*
X43898320Y-56123196D01*
X43966020Y-56140474D01*
X44013631Y-56191611D01*
X44023322Y-56218170D01*
X44063603Y-56385956D01*
X44159980Y-56618631D01*
X44291568Y-56833362D01*
X44292266Y-56834179D01*
X45066212Y-56060233D01*
X45077482Y-56102292D01*
X45149890Y-56227708D01*
X45252292Y-56330110D01*
X45377708Y-56402518D01*
X45419765Y-56413787D01*
X44645819Y-57187732D01*
X44645819Y-57187733D01*
X44646634Y-57188429D01*
X44861368Y-57320019D01*
X45094043Y-57416396D01*
X45338927Y-57475187D01*
X45590000Y-57494947D01*
X45841072Y-57475187D01*
X46085956Y-57416396D01*
X46318631Y-57320019D01*
X46533361Y-57188432D01*
X46533363Y-57188430D01*
X46534180Y-57187732D01*
X45760234Y-56413787D01*
X45802292Y-56402518D01*
X45927708Y-56330110D01*
X46030110Y-56227708D01*
X46102518Y-56102292D01*
X46113787Y-56060234D01*
X46887732Y-56834180D01*
X46888430Y-56833363D01*
X46888432Y-56833361D01*
X47020019Y-56618631D01*
X47116396Y-56385956D01*
X47175187Y-56141072D01*
X47194947Y-55890000D01*
X47175187Y-55638927D01*
X47116396Y-55394043D01*
X47020019Y-55161368D01*
X46939077Y-55029284D01*
X46920832Y-54961839D01*
X46941948Y-54895236D01*
X46970489Y-54865230D01*
X47047546Y-54807546D01*
X47133796Y-54692331D01*
X47184091Y-54557483D01*
X47190500Y-54497873D01*
X47190499Y-52382135D01*
X50069500Y-52382135D01*
X50069500Y-54177870D01*
X50069501Y-54177876D01*
X50075908Y-54237483D01*
X50126202Y-54372328D01*
X50126206Y-54372335D01*
X50212452Y-54487544D01*
X50212455Y-54487547D01*
X50327664Y-54573793D01*
X50327671Y-54573797D01*
X50327674Y-54573798D01*
X50459598Y-54623002D01*
X50515531Y-54664873D01*
X50539949Y-54730337D01*
X50525098Y-54798610D01*
X50503947Y-54826865D01*
X50381886Y-54948926D01*
X50246400Y-55142420D01*
X50246399Y-55142422D01*
X50146570Y-55356507D01*
X50146567Y-55356513D01*
X50089364Y-55569999D01*
X50089364Y-55570000D01*
X50986988Y-55570000D01*
X50954075Y-55627007D01*
X50920000Y-55754174D01*
X50920000Y-55885826D01*
X50954075Y-56012993D01*
X50986988Y-56070000D01*
X50089364Y-56070000D01*
X50146567Y-56283486D01*
X50146570Y-56283492D01*
X50246399Y-56497578D01*
X50381894Y-56691082D01*
X50548917Y-56858105D01*
X50742421Y-56993600D01*
X50956507Y-57093429D01*
X50956516Y-57093433D01*
X51170000Y-57150634D01*
X51170000Y-56253012D01*
X51227007Y-56285925D01*
X51354174Y-56320000D01*
X51485826Y-56320000D01*
X51612993Y-56285925D01*
X51670000Y-56253012D01*
X51670000Y-57150633D01*
X51883483Y-57093433D01*
X51883492Y-57093429D01*
X52097578Y-56993600D01*
X52291082Y-56858105D01*
X52458105Y-56691082D01*
X52593600Y-56497578D01*
X52693429Y-56283492D01*
X52693432Y-56283486D01*
X52750636Y-56070000D01*
X51853012Y-56070000D01*
X51885925Y-56012993D01*
X51920000Y-55885826D01*
X51920000Y-55754174D01*
X51885925Y-55627007D01*
X51853012Y-55570000D01*
X52750636Y-55570000D01*
X52750635Y-55569999D01*
X52693432Y-55356513D01*
X52693429Y-55356507D01*
X52593600Y-55142422D01*
X52593599Y-55142420D01*
X52458113Y-54948926D01*
X52458108Y-54948920D01*
X52336053Y-54826865D01*
X52302568Y-54765542D01*
X52307552Y-54695850D01*
X52349424Y-54639917D01*
X52380400Y-54623002D01*
X52512331Y-54573796D01*
X52627546Y-54487546D01*
X52713796Y-54372331D01*
X52764091Y-54237483D01*
X52770500Y-54177873D01*
X52770499Y-52569996D01*
X88164435Y-52569996D01*
X88164435Y-52570003D01*
X88184630Y-52749249D01*
X88184631Y-52749254D01*
X88244211Y-52919523D01*
X88305407Y-53016915D01*
X88340184Y-53072262D01*
X88467738Y-53199816D01*
X88620478Y-53295789D01*
X88790745Y-53355368D01*
X88790750Y-53355369D01*
X88969996Y-53375565D01*
X88970000Y-53375565D01*
X88970004Y-53375565D01*
X89149249Y-53355369D01*
X89149252Y-53355368D01*
X89149255Y-53355368D01*
X89319522Y-53295789D01*
X89472262Y-53199816D01*
X89599816Y-53072262D01*
X89605506Y-53063205D01*
X89657841Y-53016915D01*
X89726894Y-53006267D01*
X89790743Y-53034642D01*
X89829115Y-53093032D01*
X89834500Y-53129178D01*
X89834500Y-53861611D01*
X89858535Y-53982444D01*
X89858540Y-53982461D01*
X89905685Y-54096280D01*
X89905687Y-54096283D01*
X89905688Y-54096286D01*
X89931029Y-54134211D01*
X89939914Y-54147507D01*
X89939915Y-54147509D01*
X89974140Y-54198731D01*
X89974141Y-54198732D01*
X89974142Y-54198733D01*
X90061267Y-54285858D01*
X90061268Y-54285858D01*
X90068335Y-54292925D01*
X90068334Y-54292925D01*
X90068338Y-54292928D01*
X90693787Y-54918378D01*
X90727272Y-54979701D01*
X90729326Y-54992174D01*
X90734630Y-55039249D01*
X90794210Y-55209521D01*
X90885040Y-55354075D01*
X90890184Y-55362262D01*
X91017738Y-55489816D01*
X91170478Y-55585789D01*
X91322338Y-55638927D01*
X91340745Y-55645368D01*
X91340750Y-55645369D01*
X91519996Y-55665565D01*
X91520000Y-55665565D01*
X91520004Y-55665565D01*
X91699249Y-55645369D01*
X91699252Y-55645368D01*
X91699255Y-55645368D01*
X91869522Y-55585789D01*
X92022262Y-55489816D01*
X92149816Y-55362262D01*
X92245789Y-55209522D01*
X92305368Y-55039255D01*
X92305369Y-55039249D01*
X92325565Y-54860003D01*
X92325565Y-54859996D01*
X92321058Y-54819996D01*
X98894435Y-54819996D01*
X98894435Y-54820003D01*
X98914630Y-54999249D01*
X98914631Y-54999254D01*
X98974211Y-55169523D01*
X98999345Y-55209523D01*
X99070184Y-55322262D01*
X99197738Y-55449816D01*
X99197856Y-55449890D01*
X99298283Y-55512993D01*
X99350478Y-55545789D01*
X99519833Y-55605049D01*
X99520745Y-55605368D01*
X99520750Y-55605369D01*
X99699996Y-55625565D01*
X99700000Y-55625565D01*
X99700004Y-55625565D01*
X99879249Y-55605369D01*
X99879252Y-55605368D01*
X99879255Y-55605368D01*
X100049522Y-55545789D01*
X100178883Y-55464505D01*
X100244855Y-55445500D01*
X113231608Y-55445500D01*
X113231608Y-55445499D01*
X113295978Y-55432696D01*
X113295979Y-55432696D01*
X113310193Y-55429868D01*
X113352452Y-55421463D01*
X113405999Y-55399283D01*
X113406000Y-55399282D01*
X113406003Y-55399282D01*
X113466281Y-55374314D01*
X113466280Y-55374314D01*
X113466286Y-55374312D01*
X113517509Y-55340084D01*
X113568733Y-55305858D01*
X113655858Y-55218733D01*
X113655858Y-55218731D01*
X113666066Y-55208524D01*
X113666067Y-55208521D01*
X114508380Y-54366209D01*
X114569701Y-54332726D01*
X114582158Y-54330674D01*
X114629255Y-54325368D01*
X114799522Y-54265789D01*
X114952262Y-54169816D01*
X115079816Y-54042262D01*
X115175789Y-53889522D01*
X115235368Y-53719255D01*
X115235369Y-53719249D01*
X115255565Y-53540003D01*
X115255565Y-53539996D01*
X115235369Y-53360750D01*
X115235368Y-53360745D01*
X115233487Y-53355369D01*
X115175789Y-53190478D01*
X115079816Y-53037738D01*
X114952262Y-52910184D01*
X114946280Y-52906425D01*
X114799523Y-52814211D01*
X114629254Y-52754631D01*
X114629249Y-52754630D01*
X114450004Y-52734435D01*
X114449996Y-52734435D01*
X114270750Y-52754630D01*
X114270745Y-52754631D01*
X114100476Y-52814211D01*
X113947737Y-52910184D01*
X113820184Y-53037737D01*
X113724210Y-53190478D01*
X113664630Y-53360750D01*
X113659326Y-53407825D01*
X113632258Y-53472238D01*
X113623787Y-53481620D01*
X112947229Y-54158181D01*
X112885906Y-54191666D01*
X112859548Y-54194500D01*
X100244855Y-54194500D01*
X100178883Y-54175494D01*
X100049523Y-54094211D01*
X99879254Y-54034631D01*
X99879249Y-54034630D01*
X99700004Y-54014435D01*
X99699996Y-54014435D01*
X99520750Y-54034630D01*
X99520745Y-54034631D01*
X99350476Y-54094211D01*
X99197737Y-54190184D01*
X99070184Y-54317737D01*
X98974211Y-54470476D01*
X98914631Y-54640745D01*
X98914630Y-54640750D01*
X98894435Y-54819996D01*
X92321058Y-54819996D01*
X92305369Y-54680750D01*
X92305368Y-54680745D01*
X92291082Y-54639917D01*
X92245789Y-54510478D01*
X92231380Y-54487547D01*
X92158985Y-54372331D01*
X92149816Y-54357738D01*
X92022262Y-54230184D01*
X91972205Y-54198731D01*
X91869521Y-54134210D01*
X91699249Y-54074630D01*
X91652174Y-54069326D01*
X91587760Y-54042259D01*
X91578378Y-54033787D01*
X91121819Y-53577228D01*
X91088334Y-53515905D01*
X91085500Y-53489547D01*
X91085500Y-52579996D01*
X91454435Y-52579996D01*
X91454435Y-52580003D01*
X91474630Y-52759249D01*
X91474631Y-52759254D01*
X91534211Y-52929523D01*
X91600262Y-53034642D01*
X91630184Y-53082262D01*
X91757738Y-53209816D01*
X91848080Y-53266582D01*
X91894561Y-53295788D01*
X91910478Y-53305789D01*
X92067533Y-53360745D01*
X92080745Y-53365368D01*
X92080750Y-53365369D01*
X92259996Y-53385565D01*
X92260000Y-53385565D01*
X92260004Y-53385565D01*
X92439249Y-53365369D01*
X92439252Y-53365368D01*
X92439255Y-53365368D01*
X92609522Y-53305789D01*
X92762262Y-53209816D01*
X92889816Y-53082262D01*
X92985789Y-52929522D01*
X93045368Y-52759255D01*
X93050672Y-52712173D01*
X93077737Y-52647763D01*
X93086201Y-52638387D01*
X97935996Y-47788593D01*
X97997317Y-47755110D01*
X98067009Y-47760094D01*
X98089644Y-47771281D01*
X98115741Y-47787678D01*
X98160475Y-47815788D01*
X98330745Y-47875368D01*
X98330750Y-47875369D01*
X98509996Y-47895565D01*
X98510000Y-47895565D01*
X98510004Y-47895565D01*
X98689249Y-47875369D01*
X98689252Y-47875368D01*
X98689255Y-47875368D01*
X98859522Y-47815789D01*
X99012262Y-47719816D01*
X99139816Y-47592262D01*
X99235789Y-47439522D01*
X99295368Y-47269255D01*
X99296138Y-47262420D01*
X99315565Y-47090003D01*
X99315565Y-47089996D01*
X99295369Y-46910750D01*
X99295368Y-46910745D01*
X99286549Y-46885542D01*
X99235789Y-46740478D01*
X99139816Y-46587738D01*
X99012262Y-46460184D01*
X98988883Y-46445494D01*
X98859523Y-46364211D01*
X98689254Y-46304631D01*
X98689249Y-46304630D01*
X98510004Y-46284435D01*
X98509996Y-46284435D01*
X98330750Y-46304630D01*
X98330745Y-46304631D01*
X98160476Y-46364211D01*
X98031117Y-46445494D01*
X97965145Y-46464500D01*
X97688388Y-46464500D01*
X97572515Y-46487549D01*
X97572510Y-46487550D01*
X97567552Y-46488535D01*
X97567547Y-46488537D01*
X97453716Y-46535687D01*
X97375818Y-46587738D01*
X97375817Y-46587739D01*
X97351263Y-46604144D01*
X97351262Y-46604145D01*
X92201621Y-51753787D01*
X92140298Y-51787272D01*
X92127825Y-51789326D01*
X92080750Y-51794630D01*
X91910478Y-51854210D01*
X91757737Y-51950184D01*
X91630184Y-52077737D01*
X91534211Y-52230476D01*
X91474631Y-52400745D01*
X91474630Y-52400750D01*
X91454435Y-52579996D01*
X91085500Y-52579996D01*
X91085500Y-46344854D01*
X91104507Y-46278881D01*
X91185788Y-46149524D01*
X91245368Y-45979254D01*
X91245369Y-45979249D01*
X91246411Y-45969999D01*
X114464341Y-45969999D01*
X114464341Y-45970000D01*
X114484936Y-46205403D01*
X114484938Y-46205413D01*
X114546094Y-46433655D01*
X114546096Y-46433659D01*
X114546097Y-46433663D01*
X114593672Y-46535687D01*
X114645965Y-46647830D01*
X114645967Y-46647834D01*
X114781501Y-46841395D01*
X114781506Y-46841402D01*
X114948597Y-47008493D01*
X114948603Y-47008498D01*
X115134158Y-47138425D01*
X115177783Y-47193002D01*
X115184977Y-47262500D01*
X115153454Y-47324855D01*
X115134158Y-47341575D01*
X114948597Y-47471505D01*
X114781505Y-47638597D01*
X114645965Y-47832169D01*
X114645964Y-47832171D01*
X114546098Y-48046335D01*
X114546094Y-48046344D01*
X114484938Y-48274586D01*
X114484936Y-48274596D01*
X114464341Y-48509999D01*
X114464341Y-48510000D01*
X114484936Y-48745403D01*
X114484938Y-48745413D01*
X114546094Y-48973655D01*
X114546096Y-48973659D01*
X114546097Y-48973663D01*
X114611351Y-49113600D01*
X114645965Y-49187830D01*
X114645967Y-49187834D01*
X114663892Y-49213433D01*
X114781501Y-49381396D01*
X114781506Y-49381402D01*
X114903430Y-49503326D01*
X114936915Y-49564649D01*
X114931931Y-49634341D01*
X114890059Y-49690274D01*
X114859083Y-49707189D01*
X114727669Y-49756203D01*
X114727664Y-49756206D01*
X114612455Y-49842452D01*
X114612452Y-49842455D01*
X114526206Y-49957664D01*
X114526202Y-49957671D01*
X114475908Y-50092517D01*
X114469501Y-50152116D01*
X114469501Y-50152123D01*
X114469500Y-50152135D01*
X114469500Y-51947870D01*
X114469501Y-51947876D01*
X114475908Y-52007483D01*
X114526202Y-52142328D01*
X114526206Y-52142335D01*
X114612452Y-52257544D01*
X114612455Y-52257547D01*
X114727664Y-52343793D01*
X114727671Y-52343797D01*
X114862517Y-52394091D01*
X114862516Y-52394091D01*
X114869444Y-52394835D01*
X114922127Y-52400500D01*
X116717872Y-52400499D01*
X116777483Y-52394091D01*
X116912331Y-52343796D01*
X117027546Y-52257546D01*
X117113796Y-52142331D01*
X117164091Y-52007483D01*
X117170500Y-51947873D01*
X117170499Y-50152128D01*
X117164091Y-50092517D01*
X117113796Y-49957669D01*
X117113795Y-49957668D01*
X117113793Y-49957664D01*
X117027547Y-49842455D01*
X117027544Y-49842452D01*
X116912335Y-49756206D01*
X116912328Y-49756202D01*
X116780917Y-49707189D01*
X116724983Y-49665318D01*
X116700566Y-49599853D01*
X116715418Y-49531580D01*
X116736563Y-49503332D01*
X116858495Y-49381401D01*
X116994035Y-49187830D01*
X117093903Y-48973663D01*
X117155063Y-48745408D01*
X117175659Y-48510000D01*
X117155063Y-48274592D01*
X117093903Y-48046337D01*
X116994035Y-47832171D01*
X116982565Y-47815789D01*
X116858494Y-47638597D01*
X116691402Y-47471506D01*
X116691396Y-47471501D01*
X116505842Y-47341575D01*
X116462217Y-47286998D01*
X116455023Y-47217500D01*
X116486546Y-47155145D01*
X116505842Y-47138425D01*
X116533228Y-47119249D01*
X116691401Y-47008495D01*
X116858495Y-46841401D01*
X116994035Y-46647830D01*
X117093903Y-46433663D01*
X117155063Y-46205408D01*
X117175659Y-45970000D01*
X117155063Y-45734592D01*
X117093903Y-45506337D01*
X116994035Y-45292171D01*
X116908620Y-45170184D01*
X116858494Y-45098597D01*
X116691401Y-44931505D01*
X116505405Y-44801269D01*
X116461781Y-44746692D01*
X116454588Y-44677193D01*
X116486110Y-44614839D01*
X116505405Y-44598119D01*
X116691082Y-44468105D01*
X116858105Y-44301082D01*
X116993600Y-44107578D01*
X117093429Y-43893492D01*
X117093432Y-43893486D01*
X117150636Y-43680000D01*
X116253012Y-43680000D01*
X116285925Y-43622993D01*
X116320000Y-43495826D01*
X116320000Y-43364174D01*
X116285925Y-43237007D01*
X116253012Y-43180000D01*
X117150636Y-43180000D01*
X117150635Y-43179999D01*
X117093432Y-42966513D01*
X117093429Y-42966507D01*
X116993600Y-42752422D01*
X116993599Y-42752420D01*
X116858113Y-42558926D01*
X116858108Y-42558920D01*
X116691082Y-42391894D01*
X116497578Y-42256399D01*
X116283492Y-42156570D01*
X116283486Y-42156567D01*
X116070000Y-42099364D01*
X116070000Y-42996988D01*
X116012993Y-42964075D01*
X115885826Y-42930000D01*
X115754174Y-42930000D01*
X115627007Y-42964075D01*
X115570000Y-42996988D01*
X115570000Y-42099364D01*
X115569999Y-42099364D01*
X115356513Y-42156567D01*
X115356507Y-42156570D01*
X115142422Y-42256399D01*
X115142420Y-42256400D01*
X114948926Y-42391886D01*
X114948920Y-42391891D01*
X114781891Y-42558920D01*
X114781886Y-42558926D01*
X114646400Y-42752420D01*
X114646399Y-42752422D01*
X114546570Y-42966507D01*
X114546567Y-42966513D01*
X114489364Y-43179999D01*
X114489364Y-43180000D01*
X115386988Y-43180000D01*
X115354075Y-43237007D01*
X115320000Y-43364174D01*
X115320000Y-43495826D01*
X115354075Y-43622993D01*
X115386988Y-43680000D01*
X114489364Y-43680000D01*
X114546567Y-43893486D01*
X114546570Y-43893492D01*
X114646399Y-44107578D01*
X114781894Y-44301082D01*
X114948917Y-44468105D01*
X115134595Y-44598119D01*
X115178219Y-44652696D01*
X115185412Y-44722195D01*
X115153890Y-44784549D01*
X115134595Y-44801269D01*
X114948594Y-44931508D01*
X114781505Y-45098597D01*
X114645965Y-45292169D01*
X114645964Y-45292171D01*
X114546098Y-45506335D01*
X114546094Y-45506344D01*
X114484938Y-45734586D01*
X114484936Y-45734596D01*
X114464341Y-45969999D01*
X91246411Y-45969999D01*
X91265565Y-45800003D01*
X91265565Y-45799996D01*
X91245369Y-45620750D01*
X91245368Y-45620745D01*
X91185788Y-45450476D01*
X91089815Y-45297737D01*
X90962262Y-45170184D01*
X90809523Y-45074211D01*
X90639254Y-45014631D01*
X90639250Y-45014630D01*
X90551978Y-45004797D01*
X90487564Y-44977730D01*
X90448009Y-44920135D01*
X90445872Y-44850298D01*
X90478178Y-44793899D01*
X90539816Y-44732262D01*
X90635789Y-44579522D01*
X90695368Y-44409255D01*
X90706814Y-44307669D01*
X90715565Y-44230003D01*
X90715565Y-44229996D01*
X90695369Y-44050750D01*
X90695368Y-44050745D01*
X90640343Y-43893492D01*
X90635789Y-43880478D01*
X90539816Y-43727738D01*
X90412262Y-43600184D01*
X90259523Y-43504211D01*
X90089254Y-43444631D01*
X90089249Y-43444630D01*
X89910004Y-43424435D01*
X89909996Y-43424435D01*
X89730750Y-43444630D01*
X89730745Y-43444631D01*
X89560476Y-43504211D01*
X89407737Y-43600184D01*
X89280184Y-43727737D01*
X89184210Y-43880478D01*
X89124630Y-44050750D01*
X89119326Y-44097825D01*
X89092258Y-44162239D01*
X89083787Y-44171621D01*
X88571270Y-44684139D01*
X88484144Y-44771264D01*
X88484138Y-44771272D01*
X88415690Y-44873708D01*
X88415688Y-44873713D01*
X88391751Y-44931504D01*
X88391751Y-44931505D01*
X88368537Y-44987547D01*
X88368535Y-44987555D01*
X88358985Y-45035563D01*
X88358986Y-45035564D01*
X88344592Y-45107934D01*
X88344546Y-45108164D01*
X88344500Y-45108389D01*
X88344500Y-52025145D01*
X88325494Y-52091117D01*
X88244211Y-52220476D01*
X88184631Y-52390745D01*
X88184630Y-52390750D01*
X88164435Y-52569996D01*
X52770499Y-52569996D01*
X52770499Y-52382128D01*
X52764091Y-52322517D01*
X52739858Y-52257546D01*
X52713797Y-52187671D01*
X52713793Y-52187664D01*
X52627547Y-52072455D01*
X52627544Y-52072452D01*
X52512335Y-51986206D01*
X52512328Y-51986202D01*
X52377482Y-51935908D01*
X52377483Y-51935908D01*
X52317883Y-51929501D01*
X52317881Y-51929500D01*
X52317873Y-51929500D01*
X52317864Y-51929500D01*
X50522129Y-51929500D01*
X50522123Y-51929501D01*
X50462516Y-51935908D01*
X50327671Y-51986202D01*
X50327664Y-51986206D01*
X50212455Y-52072452D01*
X50212452Y-52072455D01*
X50126206Y-52187664D01*
X50126202Y-52187671D01*
X50075908Y-52322517D01*
X50069501Y-52382116D01*
X50069501Y-52382123D01*
X50069500Y-52382135D01*
X47190499Y-52382135D01*
X47190499Y-52202128D01*
X47184091Y-52142517D01*
X47157959Y-52072454D01*
X47133797Y-52007671D01*
X47133793Y-52007664D01*
X47047547Y-51892455D01*
X47047544Y-51892452D01*
X46932335Y-51806206D01*
X46932328Y-51806202D01*
X46797482Y-51755908D01*
X46797483Y-51755908D01*
X46737883Y-51749501D01*
X46737881Y-51749500D01*
X46737873Y-51749500D01*
X46737864Y-51749500D01*
X44442129Y-51749500D01*
X44442123Y-51749501D01*
X44382516Y-51755908D01*
X44247671Y-51806202D01*
X44247664Y-51806206D01*
X44132455Y-51892452D01*
X44132452Y-51892455D01*
X44046206Y-52007664D01*
X44046202Y-52007671D01*
X43995908Y-52142517D01*
X43991055Y-52187664D01*
X43989501Y-52202123D01*
X43989500Y-52202135D01*
X43989500Y-52906425D01*
X43969815Y-52973464D01*
X43917011Y-53019219D01*
X43847853Y-53029163D01*
X43784297Y-53000138D01*
X43762398Y-52975316D01*
X43671789Y-52839711D01*
X43671786Y-52839707D01*
X43560292Y-52728213D01*
X43560288Y-52728210D01*
X43429185Y-52640609D01*
X43429172Y-52640602D01*
X43283501Y-52580264D01*
X43283489Y-52580261D01*
X43128845Y-52549500D01*
X43128842Y-52549500D01*
X42971158Y-52549500D01*
X42971155Y-52549500D01*
X42816510Y-52580261D01*
X42816498Y-52580264D01*
X42670827Y-52640602D01*
X42670814Y-52640609D01*
X42539711Y-52728210D01*
X42539707Y-52728213D01*
X42428213Y-52839707D01*
X42428210Y-52839711D01*
X42340609Y-52970814D01*
X42340602Y-52970827D01*
X42280264Y-53116498D01*
X42280261Y-53116510D01*
X42249500Y-53271153D01*
X42000000Y-53271153D01*
X42000000Y-44502135D01*
X44189500Y-44502135D01*
X44189500Y-46297870D01*
X44189501Y-46297876D01*
X44195908Y-46357483D01*
X44246202Y-46492328D01*
X44246206Y-46492335D01*
X44332452Y-46607544D01*
X44332455Y-46607547D01*
X44447664Y-46693793D01*
X44447671Y-46693797D01*
X44447674Y-46693798D01*
X44579598Y-46743002D01*
X44635531Y-46784873D01*
X44659949Y-46850337D01*
X44645098Y-46918610D01*
X44623947Y-46946865D01*
X44501886Y-47068926D01*
X44366400Y-47262420D01*
X44366399Y-47262422D01*
X44266570Y-47476507D01*
X44266567Y-47476513D01*
X44209364Y-47689999D01*
X44209364Y-47690000D01*
X45106988Y-47690000D01*
X45074075Y-47747007D01*
X45040000Y-47874174D01*
X45040000Y-48005826D01*
X45074075Y-48132993D01*
X45106988Y-48190000D01*
X44209364Y-48190000D01*
X44266567Y-48403486D01*
X44266570Y-48403492D01*
X44366399Y-48617578D01*
X44501894Y-48811082D01*
X44668917Y-48978105D01*
X44862421Y-49113600D01*
X45076507Y-49213429D01*
X45076516Y-49213433D01*
X45290000Y-49270634D01*
X45290000Y-48373012D01*
X45347007Y-48405925D01*
X45474174Y-48440000D01*
X45605826Y-48440000D01*
X45732993Y-48405925D01*
X45790000Y-48373012D01*
X45790000Y-49270633D01*
X46003483Y-49213433D01*
X46003492Y-49213429D01*
X46217578Y-49113600D01*
X46411082Y-48978105D01*
X46578105Y-48811082D01*
X46713600Y-48617578D01*
X46813429Y-48403492D01*
X46813432Y-48403486D01*
X46870636Y-48190000D01*
X45973012Y-48190000D01*
X46005925Y-48132993D01*
X46040000Y-48005826D01*
X46040000Y-47874174D01*
X46005925Y-47747007D01*
X45973012Y-47690000D01*
X46870636Y-47690000D01*
X46870635Y-47689999D01*
X46813432Y-47476513D01*
X46813429Y-47476507D01*
X46713600Y-47262422D01*
X46713599Y-47262420D01*
X46578113Y-47068926D01*
X46578108Y-47068920D01*
X46456053Y-46946865D01*
X46422568Y-46885542D01*
X46427552Y-46815850D01*
X46469424Y-46759917D01*
X46500400Y-46743002D01*
X46632331Y-46693796D01*
X46747546Y-46607546D01*
X46833796Y-46492331D01*
X46884091Y-46357483D01*
X46890500Y-46297873D01*
X46890499Y-44502128D01*
X46884091Y-44442517D01*
X46833796Y-44307669D01*
X46833795Y-44307668D01*
X46833793Y-44307664D01*
X46747547Y-44192455D01*
X46747544Y-44192452D01*
X46632335Y-44106206D01*
X46632328Y-44106202D01*
X46497482Y-44055908D01*
X46497483Y-44055908D01*
X46437883Y-44049501D01*
X46437881Y-44049500D01*
X46437873Y-44049500D01*
X46437864Y-44049500D01*
X44642129Y-44049500D01*
X44642123Y-44049501D01*
X44582516Y-44055908D01*
X44447671Y-44106202D01*
X44447664Y-44106206D01*
X44332455Y-44192452D01*
X44332452Y-44192455D01*
X44246206Y-44307664D01*
X44246202Y-44307671D01*
X44195908Y-44442517D01*
X44189501Y-44502116D01*
X44189501Y-44502123D01*
X44189500Y-44502135D01*
X42000000Y-44502135D01*
X42000000Y-42948389D01*
X71544500Y-42948389D01*
X71544500Y-46731609D01*
X71548257Y-46750496D01*
X71548257Y-46750498D01*
X71566339Y-46841401D01*
X71568537Y-46852452D01*
X71579282Y-46878393D01*
X71615688Y-46966286D01*
X71615689Y-46966288D01*
X71615690Y-46966289D01*
X71615690Y-46966290D01*
X71639289Y-47001607D01*
X71639290Y-47001608D01*
X71684140Y-47068731D01*
X71684141Y-47068732D01*
X71684142Y-47068733D01*
X71771267Y-47155858D01*
X71771268Y-47155858D01*
X71771268Y-47155859D01*
X71855409Y-47240000D01*
X71934141Y-47318732D01*
X71934142Y-47318733D01*
X72021267Y-47405858D01*
X72119511Y-47471502D01*
X72119512Y-47471503D01*
X72123712Y-47474310D01*
X72123716Y-47474312D01*
X72129030Y-47476513D01*
X72237548Y-47521463D01*
X72358388Y-47545499D01*
X72358392Y-47545500D01*
X72358393Y-47545500D01*
X72358394Y-47545500D01*
X76653857Y-47545500D01*
X76720896Y-47565185D01*
X76724629Y-47567862D01*
X76727736Y-47569814D01*
X76727738Y-47569816D01*
X76880478Y-47665789D01*
X77034878Y-47719816D01*
X77050745Y-47725368D01*
X77050750Y-47725369D01*
X77229996Y-47745565D01*
X77230000Y-47745565D01*
X77230004Y-47745565D01*
X77409249Y-47725369D01*
X77409252Y-47725368D01*
X77409255Y-47725368D01*
X77579522Y-47665789D01*
X77732262Y-47569816D01*
X77859816Y-47442262D01*
X77955789Y-47289522D01*
X78015368Y-47119255D01*
X78018664Y-47090003D01*
X78035565Y-46940003D01*
X78035565Y-46939996D01*
X78015369Y-46760750D01*
X78015368Y-46760745D01*
X78011782Y-46750496D01*
X77955789Y-46590478D01*
X77954067Y-46587738D01*
X77916582Y-46528080D01*
X77859816Y-46437738D01*
X77732262Y-46310184D01*
X77723426Y-46304632D01*
X77579523Y-46214211D01*
X77409254Y-46154631D01*
X77409249Y-46154630D01*
X77230004Y-46134435D01*
X77229996Y-46134435D01*
X77050750Y-46154630D01*
X77050745Y-46154631D01*
X76880477Y-46214211D01*
X76868064Y-46222011D01*
X76784028Y-46274815D01*
X76782947Y-46275494D01*
X76716975Y-46294500D01*
X72919500Y-46294500D01*
X72852461Y-46274815D01*
X72806706Y-46222011D01*
X72795500Y-46170500D01*
X72795500Y-43729500D01*
X72815185Y-43662461D01*
X72867989Y-43616706D01*
X72919500Y-43605500D01*
X73495145Y-43605500D01*
X73561116Y-43624505D01*
X73690478Y-43705789D01*
X73779694Y-43737007D01*
X73860745Y-43765368D01*
X73860750Y-43765369D01*
X74039996Y-43785565D01*
X74040000Y-43785565D01*
X74040004Y-43785565D01*
X74219249Y-43765369D01*
X74219252Y-43765368D01*
X74219255Y-43765368D01*
X74389522Y-43705789D01*
X74542262Y-43609816D01*
X74669816Y-43482262D01*
X74765789Y-43329522D01*
X74825368Y-43159255D01*
X74845565Y-42980000D01*
X74844045Y-42966513D01*
X74825369Y-42800750D01*
X74825368Y-42800745D01*
X74823080Y-42794207D01*
X74765789Y-42630478D01*
X74669816Y-42477738D01*
X74542262Y-42350184D01*
X74518883Y-42335494D01*
X74389523Y-42254211D01*
X74219254Y-42194631D01*
X74219249Y-42194630D01*
X74040004Y-42174435D01*
X74039996Y-42174435D01*
X73860750Y-42194630D01*
X73860745Y-42194631D01*
X73690476Y-42254211D01*
X73561117Y-42335494D01*
X73495145Y-42354500D01*
X72138388Y-42354500D01*
X72017555Y-42378535D01*
X72017547Y-42378537D01*
X71903716Y-42425687D01*
X71903707Y-42425692D01*
X71801268Y-42494140D01*
X71786268Y-42509140D01*
X71771267Y-42524142D01*
X71684141Y-42611267D01*
X71676407Y-42622842D01*
X71671306Y-42630478D01*
X71615690Y-42713709D01*
X71615685Y-42713718D01*
X71592366Y-42770019D01*
X71582347Y-42794207D01*
X71579639Y-42800745D01*
X71568537Y-42827545D01*
X71568535Y-42827553D01*
X71544500Y-42948389D01*
X42000000Y-42948389D01*
X42000000Y-38721153D01*
X42309500Y-38721153D01*
X42309500Y-38878846D01*
X42340261Y-39033489D01*
X42340264Y-39033501D01*
X42400602Y-39179172D01*
X42400609Y-39179185D01*
X42488210Y-39310288D01*
X42488213Y-39310292D01*
X42599707Y-39421786D01*
X42599711Y-39421789D01*
X42730814Y-39509390D01*
X42730827Y-39509397D01*
X42876498Y-39569735D01*
X42876503Y-39569737D01*
X43031153Y-39600499D01*
X43031156Y-39600500D01*
X43031158Y-39600500D01*
X43188844Y-39600500D01*
X43188845Y-39600499D01*
X43343497Y-39569737D01*
X43489179Y-39509394D01*
X43620289Y-39421789D01*
X43731789Y-39310289D01*
X43819394Y-39179179D01*
X43819394Y-39179178D01*
X43822398Y-39174683D01*
X43876010Y-39129878D01*
X43945335Y-39121171D01*
X44008362Y-39151325D01*
X44045082Y-39210768D01*
X44049500Y-39243574D01*
X44049500Y-39947870D01*
X44049501Y-39947876D01*
X44055908Y-40007483D01*
X44106202Y-40142328D01*
X44106206Y-40142335D01*
X44192452Y-40257544D01*
X44192455Y-40257547D01*
X44269506Y-40315228D01*
X44311377Y-40371162D01*
X44316361Y-40440853D01*
X44300923Y-40479284D01*
X44219978Y-40611373D01*
X44123603Y-40844043D01*
X44083322Y-41011829D01*
X44048531Y-41072421D01*
X43986505Y-41104585D01*
X43916936Y-41098109D01*
X43861912Y-41055049D01*
X43848189Y-41030341D01*
X43819394Y-40960821D01*
X43819392Y-40960818D01*
X43819390Y-40960814D01*
X43731789Y-40829711D01*
X43731786Y-40829707D01*
X43620292Y-40718213D01*
X43620288Y-40718210D01*
X43489185Y-40630609D01*
X43489172Y-40630602D01*
X43343501Y-40570264D01*
X43343489Y-40570261D01*
X43188845Y-40539500D01*
X43188842Y-40539500D01*
X43031158Y-40539500D01*
X43031155Y-40539500D01*
X42876510Y-40570261D01*
X42876498Y-40570264D01*
X42730827Y-40630602D01*
X42730814Y-40630609D01*
X42599711Y-40718210D01*
X42599707Y-40718213D01*
X42488213Y-40829707D01*
X42488210Y-40829711D01*
X42400609Y-40960814D01*
X42400602Y-40960827D01*
X42340264Y-41106498D01*
X42340261Y-41106510D01*
X42309500Y-41261153D01*
X42309500Y-41418846D01*
X42340261Y-41573489D01*
X42340264Y-41573501D01*
X42400602Y-41719172D01*
X42400609Y-41719185D01*
X42488210Y-41850288D01*
X42488213Y-41850292D01*
X42599707Y-41961786D01*
X42599711Y-41961789D01*
X42730814Y-42049390D01*
X42730827Y-42049397D01*
X42851460Y-42099364D01*
X42876503Y-42109737D01*
X43031153Y-42140499D01*
X43031156Y-42140500D01*
X43031158Y-42140500D01*
X43188844Y-42140500D01*
X43188845Y-42140499D01*
X43343497Y-42109737D01*
X43456166Y-42063067D01*
X43489172Y-42049397D01*
X43489172Y-42049396D01*
X43489179Y-42049394D01*
X43620289Y-41961789D01*
X43731789Y-41850289D01*
X43819394Y-41719179D01*
X43848188Y-41649663D01*
X43892027Y-41595262D01*
X43958320Y-41573196D01*
X44026020Y-41590474D01*
X44073631Y-41641611D01*
X44083322Y-41668170D01*
X44123603Y-41835956D01*
X44219980Y-42068631D01*
X44351568Y-42283362D01*
X44352266Y-42284179D01*
X45126212Y-41510233D01*
X45137482Y-41552292D01*
X45209890Y-41677708D01*
X45312292Y-41780110D01*
X45437708Y-41852518D01*
X45479765Y-41863787D01*
X44705819Y-42637732D01*
X44705819Y-42637733D01*
X44706634Y-42638429D01*
X44921368Y-42770019D01*
X45154043Y-42866396D01*
X45398927Y-42925187D01*
X45650000Y-42944947D01*
X45901072Y-42925187D01*
X46145956Y-42866396D01*
X46378631Y-42770019D01*
X46593361Y-42638432D01*
X46593363Y-42638430D01*
X46594180Y-42637732D01*
X45820234Y-41863787D01*
X45862292Y-41852518D01*
X45987708Y-41780110D01*
X46090110Y-41677708D01*
X46162518Y-41552292D01*
X46173787Y-41510234D01*
X46947732Y-42284180D01*
X46948430Y-42283363D01*
X46948432Y-42283361D01*
X47080019Y-42068631D01*
X47176396Y-41835956D01*
X47235187Y-41591072D01*
X47254947Y-41340000D01*
X47235187Y-41088927D01*
X47176396Y-40844043D01*
X47133298Y-40739996D01*
X61254435Y-40739996D01*
X61254435Y-40740003D01*
X61274630Y-40919249D01*
X61274631Y-40919254D01*
X61334211Y-41089523D01*
X61405499Y-41202976D01*
X61430184Y-41242262D01*
X61557738Y-41369816D01*
X61710478Y-41465789D01*
X61781098Y-41490500D01*
X61880745Y-41525368D01*
X61880750Y-41525369D01*
X62059996Y-41545565D01*
X62060000Y-41545565D01*
X62060004Y-41545565D01*
X62239249Y-41525369D01*
X62239252Y-41525368D01*
X62239255Y-41525368D01*
X62319017Y-41497457D01*
X62359972Y-41490500D01*
X63523919Y-41490500D01*
X63562210Y-41482883D01*
X63586403Y-41480500D01*
X69952871Y-41480500D01*
X69993825Y-41487457D01*
X70022404Y-41497458D01*
X70130745Y-41535368D01*
X70130750Y-41535369D01*
X70309996Y-41555565D01*
X70310000Y-41555565D01*
X70310004Y-41555565D01*
X70337242Y-41552496D01*
X74454435Y-41552496D01*
X74454435Y-41552503D01*
X74474630Y-41731749D01*
X74474631Y-41731754D01*
X74534211Y-41902023D01*
X74571763Y-41961786D01*
X74630184Y-42054762D01*
X74757738Y-42182316D01*
X74910478Y-42278289D01*
X75080745Y-42337868D01*
X75080750Y-42337869D01*
X75259996Y-42358065D01*
X75260000Y-42358065D01*
X75260004Y-42358065D01*
X75439249Y-42337869D01*
X75439252Y-42337868D01*
X75439255Y-42337868D01*
X75609522Y-42278289D01*
X75762262Y-42182316D01*
X75889816Y-42054762D01*
X75985789Y-41902022D01*
X75985790Y-41902018D01*
X75988811Y-41895746D01*
X75990655Y-41896634D01*
X76013305Y-41860561D01*
X78412952Y-39460916D01*
X78462186Y-39387229D01*
X78495084Y-39337995D01*
X78551658Y-39201413D01*
X78574741Y-39085369D01*
X78580500Y-39056420D01*
X78580500Y-37979996D01*
X101094435Y-37979996D01*
X101094435Y-37980003D01*
X101114630Y-38159249D01*
X101114631Y-38159254D01*
X101174211Y-38329523D01*
X101268237Y-38479163D01*
X101270184Y-38482262D01*
X101397738Y-38609816D01*
X101414374Y-38620269D01*
X101544159Y-38701819D01*
X101550478Y-38705789D01*
X101720739Y-38765366D01*
X101720745Y-38765368D01*
X101720750Y-38765369D01*
X101899996Y-38785565D01*
X101900000Y-38785565D01*
X101900004Y-38785565D01*
X102079249Y-38765369D01*
X102079251Y-38765368D01*
X102079255Y-38765368D01*
X102079258Y-38765366D01*
X102079262Y-38765366D01*
X102249520Y-38705790D01*
X102249524Y-38705788D01*
X102278935Y-38687308D01*
X102283395Y-38684506D01*
X102349366Y-38665500D01*
X108299547Y-38665500D01*
X108366586Y-38685185D01*
X108387223Y-38701814D01*
X108450775Y-38765366D01*
X108471268Y-38785859D01*
X108573710Y-38854309D01*
X108573711Y-38854309D01*
X108573715Y-38854312D01*
X108640396Y-38881931D01*
X108640398Y-38881933D01*
X108687543Y-38901461D01*
X108687548Y-38901463D01*
X108707597Y-38905451D01*
X108760334Y-38915940D01*
X108802107Y-38932561D01*
X108869712Y-38975040D01*
X108950475Y-39025788D01*
X109120745Y-39085368D01*
X109120750Y-39085369D01*
X109299996Y-39105565D01*
X109300000Y-39105565D01*
X109300004Y-39105565D01*
X109479249Y-39085369D01*
X109479252Y-39085368D01*
X109479255Y-39085368D01*
X109649522Y-39025789D01*
X109802262Y-38929816D01*
X109929816Y-38802262D01*
X110025789Y-38649522D01*
X110085368Y-38479255D01*
X110085369Y-38479249D01*
X110105565Y-38300003D01*
X110105565Y-38299996D01*
X110085369Y-38120750D01*
X110085368Y-38120745D01*
X110074822Y-38090606D01*
X110025789Y-37950478D01*
X109929816Y-37797738D01*
X109802262Y-37670184D01*
X109773526Y-37652128D01*
X109649523Y-37574211D01*
X109479254Y-37514631D01*
X109479249Y-37514630D01*
X109300004Y-37494435D01*
X109299996Y-37494435D01*
X109120750Y-37514630D01*
X109120742Y-37514632D01*
X109066822Y-37533500D01*
X108997044Y-37537061D01*
X108956979Y-37519561D01*
X108949605Y-37514634D01*
X108949603Y-37514632D01*
X108906290Y-37485690D01*
X108906286Y-37485688D01*
X108818991Y-37449530D01*
X108792452Y-37438537D01*
X108792453Y-37438537D01*
X108779604Y-37435981D01*
X108727854Y-37425688D01*
X108699730Y-37420094D01*
X108671608Y-37414500D01*
X108671607Y-37414500D01*
X108671606Y-37414500D01*
X102517940Y-37414500D01*
X102450901Y-37394815D01*
X102430259Y-37378181D01*
X102402262Y-37350184D01*
X102249523Y-37254211D01*
X102079254Y-37194631D01*
X102079249Y-37194630D01*
X101900004Y-37174435D01*
X101899996Y-37174435D01*
X101720750Y-37194630D01*
X101720745Y-37194631D01*
X101550476Y-37254211D01*
X101397737Y-37350184D01*
X101270184Y-37477737D01*
X101174211Y-37630476D01*
X101114631Y-37800745D01*
X101114630Y-37800750D01*
X101094435Y-37979996D01*
X78580500Y-37979996D01*
X78580500Y-37357836D01*
X78587459Y-37316881D01*
X78628532Y-37199501D01*
X78630368Y-37194255D01*
X78650565Y-37015000D01*
X78630368Y-36835745D01*
X78570789Y-36665478D01*
X78474816Y-36512738D01*
X78347262Y-36385184D01*
X78194523Y-36289211D01*
X78024254Y-36229631D01*
X78024249Y-36229630D01*
X77845004Y-36209435D01*
X77844996Y-36209435D01*
X77665750Y-36229630D01*
X77665745Y-36229631D01*
X77495476Y-36289211D01*
X77342737Y-36385184D01*
X77215184Y-36512737D01*
X77119211Y-36665476D01*
X77059631Y-36835745D01*
X77059630Y-36835750D01*
X77039435Y-37014996D01*
X77039435Y-37015003D01*
X77059630Y-37194246D01*
X77059632Y-37194256D01*
X77072541Y-37231146D01*
X77079500Y-37272101D01*
X77079500Y-38620269D01*
X77059815Y-38687308D01*
X77043181Y-38707950D01*
X74951937Y-40799193D01*
X74915876Y-40821862D01*
X74916756Y-40823688D01*
X74910478Y-40826711D01*
X74757737Y-40922684D01*
X74630184Y-41050237D01*
X74534211Y-41202976D01*
X74474631Y-41373245D01*
X74474630Y-41373250D01*
X74454435Y-41552496D01*
X70337242Y-41552496D01*
X70489249Y-41535369D01*
X70489252Y-41535368D01*
X70489255Y-41535368D01*
X70659522Y-41475789D01*
X70812262Y-41379816D01*
X70939816Y-41252262D01*
X71035789Y-41099522D01*
X71095368Y-40929255D01*
X71095369Y-40929249D01*
X71115565Y-40750003D01*
X71115565Y-40749996D01*
X71095369Y-40570750D01*
X71095368Y-40570745D01*
X71039764Y-40411839D01*
X71035789Y-40400478D01*
X71029504Y-40390476D01*
X70945979Y-40257547D01*
X70939816Y-40247738D01*
X70812262Y-40120184D01*
X70796347Y-40110184D01*
X70659523Y-40024211D01*
X70489254Y-39964631D01*
X70489249Y-39964630D01*
X70310004Y-39944435D01*
X70309996Y-39944435D01*
X70130753Y-39964630D01*
X70130743Y-39964632D01*
X70108143Y-39972541D01*
X70067188Y-39979500D01*
X63386081Y-39979500D01*
X63347790Y-39987117D01*
X63323597Y-39989500D01*
X62359972Y-39989500D01*
X62319017Y-39982542D01*
X62239254Y-39954631D01*
X62239249Y-39954630D01*
X62060004Y-39934435D01*
X62059996Y-39934435D01*
X61880750Y-39954630D01*
X61880745Y-39954631D01*
X61710476Y-40014211D01*
X61557737Y-40110184D01*
X61430184Y-40237737D01*
X61334211Y-40390476D01*
X61274631Y-40560745D01*
X61274630Y-40560750D01*
X61254435Y-40739996D01*
X47133298Y-40739996D01*
X47080019Y-40611368D01*
X46999077Y-40479284D01*
X46980832Y-40411839D01*
X47001948Y-40345236D01*
X47030489Y-40315230D01*
X47107546Y-40257546D01*
X47193796Y-40142331D01*
X47244091Y-40007483D01*
X47250500Y-39947873D01*
X47250499Y-37652128D01*
X47244091Y-37592517D01*
X47237263Y-37574211D01*
X47193797Y-37457671D01*
X47193793Y-37457664D01*
X47107547Y-37342455D01*
X47107544Y-37342452D01*
X46992335Y-37256206D01*
X46992328Y-37256202D01*
X46857482Y-37205908D01*
X46857483Y-37205908D01*
X46797883Y-37199501D01*
X46797881Y-37199500D01*
X46797873Y-37199500D01*
X46797864Y-37199500D01*
X44502129Y-37199500D01*
X44502123Y-37199501D01*
X44442516Y-37205908D01*
X44307671Y-37256202D01*
X44307664Y-37256206D01*
X44192455Y-37342452D01*
X44192452Y-37342455D01*
X44106206Y-37457664D01*
X44106202Y-37457671D01*
X44055908Y-37592517D01*
X44049501Y-37652116D01*
X44049501Y-37652123D01*
X44049500Y-37652135D01*
X44049500Y-38356425D01*
X44029815Y-38423464D01*
X43977011Y-38469219D01*
X43907853Y-38479163D01*
X43844297Y-38450138D01*
X43822398Y-38425316D01*
X43731789Y-38289711D01*
X43731786Y-38289707D01*
X43620292Y-38178213D01*
X43620288Y-38178210D01*
X43489185Y-38090609D01*
X43489172Y-38090602D01*
X43343501Y-38030264D01*
X43343489Y-38030261D01*
X43188845Y-37999500D01*
X43188842Y-37999500D01*
X43031158Y-37999500D01*
X43031155Y-37999500D01*
X42876510Y-38030261D01*
X42876498Y-38030264D01*
X42730827Y-38090602D01*
X42730814Y-38090609D01*
X42599711Y-38178210D01*
X42599707Y-38178213D01*
X42488213Y-38289707D01*
X42488210Y-38289711D01*
X42400609Y-38420814D01*
X42400602Y-38420827D01*
X42340264Y-38566498D01*
X42340261Y-38566510D01*
X42309500Y-38721153D01*
X42000000Y-38721153D01*
X42000000Y-34490000D01*
X109719975Y-34490000D01*
X109740042Y-34744989D01*
X109799752Y-34993702D01*
X109897634Y-35230012D01*
X109897636Y-35230015D01*
X110031275Y-35448095D01*
X110031286Y-35448110D01*
X110034533Y-35451911D01*
X110034535Y-35451911D01*
X110595884Y-34890561D01*
X110596740Y-34892626D01*
X110689762Y-35031844D01*
X110808156Y-35150238D01*
X110947374Y-35243260D01*
X110949437Y-35244114D01*
X110388087Y-35805464D01*
X110388087Y-35805465D01*
X110391888Y-35808712D01*
X110391898Y-35808719D01*
X110609984Y-35942363D01*
X110609987Y-35942365D01*
X110846297Y-36040247D01*
X111095011Y-36099957D01*
X111095010Y-36099957D01*
X111350000Y-36120024D01*
X111604989Y-36099957D01*
X111853702Y-36040247D01*
X112090012Y-35942365D01*
X112090015Y-35942363D01*
X112308103Y-35808719D01*
X112311912Y-35805464D01*
X111750562Y-35244114D01*
X111752626Y-35243260D01*
X111891844Y-35150238D01*
X112010238Y-35031844D01*
X112103260Y-34892626D01*
X112104114Y-34890562D01*
X112665464Y-35451912D01*
X112668719Y-35448103D01*
X112802363Y-35230015D01*
X112802365Y-35230012D01*
X112900247Y-34993702D01*
X112959957Y-34744989D01*
X112980024Y-34490000D01*
X112959957Y-34235010D01*
X112900247Y-33986297D01*
X112802365Y-33749987D01*
X112802363Y-33749984D01*
X112668719Y-33531898D01*
X112668712Y-33531888D01*
X112665465Y-33528087D01*
X112665464Y-33528087D01*
X112104114Y-34089437D01*
X112103260Y-34087374D01*
X112010238Y-33948156D01*
X111891844Y-33829762D01*
X111752626Y-33736740D01*
X111750561Y-33735884D01*
X112311911Y-33174535D01*
X112311911Y-33174533D01*
X112308110Y-33171286D01*
X112308095Y-33171275D01*
X112090015Y-33037636D01*
X112090012Y-33037634D01*
X111853702Y-32939752D01*
X111604988Y-32880042D01*
X111604989Y-32880042D01*
X111350000Y-32859975D01*
X111095010Y-32880042D01*
X110846297Y-32939752D01*
X110609987Y-33037634D01*
X110609984Y-33037636D01*
X110391897Y-33171280D01*
X110388087Y-33174534D01*
X110949438Y-33735884D01*
X110947374Y-33736740D01*
X110808156Y-33829762D01*
X110689762Y-33948156D01*
X110596740Y-34087374D01*
X110595884Y-34089438D01*
X110034533Y-33528087D01*
X110031280Y-33531897D01*
X109897636Y-33749984D01*
X109897634Y-33749987D01*
X109799752Y-33986297D01*
X109740042Y-34235010D01*
X109719975Y-34490000D01*
X42000000Y-34490000D01*
X42000000Y-31949998D01*
X112664838Y-31949998D01*
X112664838Y-31950001D01*
X112683450Y-32162741D01*
X112683452Y-32162752D01*
X112738721Y-32369022D01*
X112738723Y-32369026D01*
X112738724Y-32369030D01*
X112781171Y-32460058D01*
X112828977Y-32562578D01*
X112951472Y-32737521D01*
X113102478Y-32888527D01*
X113102481Y-32888529D01*
X113277419Y-33011021D01*
X113277421Y-33011022D01*
X113277420Y-33011022D01*
X113341936Y-33041106D01*
X113470970Y-33101276D01*
X113677253Y-33156549D01*
X113829215Y-33169844D01*
X113889998Y-33175162D01*
X113890000Y-33175162D01*
X113890002Y-33175162D01*
X113943186Y-33170508D01*
X114102747Y-33156549D01*
X114309030Y-33101276D01*
X114502581Y-33011021D01*
X114677519Y-32888529D01*
X114828529Y-32737519D01*
X114951021Y-32562581D01*
X115041276Y-32369030D01*
X115096549Y-32162747D01*
X115115162Y-31950000D01*
X115096549Y-31737253D01*
X115041276Y-31530970D01*
X114951021Y-31337419D01*
X114828529Y-31162481D01*
X114828527Y-31162478D01*
X114677521Y-31011472D01*
X114502578Y-30888977D01*
X114502579Y-30888977D01*
X114373547Y-30828809D01*
X114309030Y-30798724D01*
X114309026Y-30798723D01*
X114309022Y-30798721D01*
X114102752Y-30743452D01*
X114102748Y-30743451D01*
X114102747Y-30743451D01*
X114102746Y-30743450D01*
X114102741Y-30743450D01*
X113890002Y-30724838D01*
X113889998Y-30724838D01*
X113677258Y-30743450D01*
X113677247Y-30743452D01*
X113470977Y-30798721D01*
X113470968Y-30798725D01*
X113277421Y-30888977D01*
X113102478Y-31011472D01*
X112951472Y-31162478D01*
X112828977Y-31337421D01*
X112738725Y-31530968D01*
X112738721Y-31530977D01*
X112683452Y-31737247D01*
X112683450Y-31737258D01*
X112664838Y-31949998D01*
X42000000Y-31949998D01*
X42000000Y-29410000D01*
X109719975Y-29410000D01*
X109740042Y-29664989D01*
X109799752Y-29913702D01*
X109897634Y-30150012D01*
X109897636Y-30150015D01*
X110031275Y-30368095D01*
X110031286Y-30368110D01*
X110034533Y-30371911D01*
X110034535Y-30371911D01*
X110595884Y-29810561D01*
X110596740Y-29812626D01*
X110689762Y-29951844D01*
X110808156Y-30070238D01*
X110947374Y-30163260D01*
X110949437Y-30164114D01*
X110388087Y-30725464D01*
X110388087Y-30725465D01*
X110391888Y-30728712D01*
X110391898Y-30728719D01*
X110609984Y-30862363D01*
X110609987Y-30862365D01*
X110846297Y-30960247D01*
X111095011Y-31019957D01*
X111095010Y-31019957D01*
X111350000Y-31040024D01*
X111604989Y-31019957D01*
X111853702Y-30960247D01*
X112090012Y-30862365D01*
X112090015Y-30862363D01*
X112308103Y-30728719D01*
X112311912Y-30725464D01*
X111750562Y-30164114D01*
X111752626Y-30163260D01*
X111891844Y-30070238D01*
X112010238Y-29951844D01*
X112103260Y-29812626D01*
X112104114Y-29810562D01*
X112665464Y-30371912D01*
X112668719Y-30368103D01*
X112802363Y-30150015D01*
X112802365Y-30150012D01*
X112900247Y-29913702D01*
X112959957Y-29664989D01*
X112980024Y-29410000D01*
X112959957Y-29155010D01*
X112900247Y-28906297D01*
X112802365Y-28669987D01*
X112802363Y-28669984D01*
X112668719Y-28451898D01*
X112668712Y-28451888D01*
X112665465Y-28448087D01*
X112665464Y-28448087D01*
X112104114Y-29009437D01*
X112103260Y-29007374D01*
X112010238Y-28868156D01*
X111891844Y-28749762D01*
X111752626Y-28656740D01*
X111750561Y-28655884D01*
X112311911Y-28094535D01*
X112311911Y-28094533D01*
X112308110Y-28091286D01*
X112308095Y-28091275D01*
X112090015Y-27957636D01*
X112090012Y-27957634D01*
X111853702Y-27859752D01*
X111604988Y-27800042D01*
X111604989Y-27800042D01*
X111350000Y-27779975D01*
X111095010Y-27800042D01*
X110846297Y-27859752D01*
X110609987Y-27957634D01*
X110609984Y-27957636D01*
X110391897Y-28091280D01*
X110388087Y-28094534D01*
X110949438Y-28655884D01*
X110947374Y-28656740D01*
X110808156Y-28749762D01*
X110689762Y-28868156D01*
X110596740Y-29007374D01*
X110595885Y-29009438D01*
X110034534Y-28448087D01*
X110031280Y-28451897D01*
X109897636Y-28669984D01*
X109897634Y-28669987D01*
X109799752Y-28906297D01*
X109740042Y-29155010D01*
X109719975Y-29410000D01*
X42000000Y-29410000D01*
X42000000Y-23889996D01*
X79714435Y-23889996D01*
X79714435Y-23890003D01*
X79734630Y-24069249D01*
X79734631Y-24069254D01*
X79794211Y-24239523D01*
X79879569Y-24375368D01*
X79890184Y-24392262D01*
X80017738Y-24519816D01*
X80170478Y-24615789D01*
X80241098Y-24640500D01*
X80340745Y-24675368D01*
X80340750Y-24675369D01*
X80519996Y-24695565D01*
X80520000Y-24695565D01*
X80520004Y-24695565D01*
X80699249Y-24675369D01*
X80699252Y-24675368D01*
X80699255Y-24675368D01*
X80779017Y-24647457D01*
X80819972Y-24640500D01*
X88490028Y-24640500D01*
X88530983Y-24647458D01*
X88610745Y-24675368D01*
X88610750Y-24675369D01*
X88789996Y-24695565D01*
X88790000Y-24695565D01*
X88790004Y-24695565D01*
X88969249Y-24675369D01*
X88969252Y-24675368D01*
X88969255Y-24675368D01*
X89139522Y-24615789D01*
X89292262Y-24519816D01*
X89419816Y-24392262D01*
X89515789Y-24239522D01*
X89575368Y-24069255D01*
X89589847Y-23940750D01*
X89595565Y-23890003D01*
X89595565Y-23889996D01*
X89575369Y-23710750D01*
X89575368Y-23710745D01*
X89542823Y-23617737D01*
X89515789Y-23540478D01*
X89419816Y-23387738D01*
X89292262Y-23260184D01*
X89182588Y-23191271D01*
X89139523Y-23164211D01*
X88969254Y-23104631D01*
X88969249Y-23104630D01*
X88790004Y-23084435D01*
X88789996Y-23084435D01*
X88610750Y-23104630D01*
X88610745Y-23104631D01*
X88530983Y-23132542D01*
X88490028Y-23139500D01*
X80819972Y-23139500D01*
X80779017Y-23132542D01*
X80699254Y-23104631D01*
X80699249Y-23104630D01*
X80520004Y-23084435D01*
X80519996Y-23084435D01*
X80340750Y-23104630D01*
X80340745Y-23104631D01*
X80170476Y-23164211D01*
X80017737Y-23260184D01*
X79890184Y-23387737D01*
X79794211Y-23540476D01*
X79734631Y-23710745D01*
X79734630Y-23710750D01*
X79714435Y-23889996D01*
X42000000Y-23889996D01*
X42000000Y-16304000D01*
X42019685Y-16236961D01*
X42072489Y-16191206D01*
X42124000Y-16180000D01*
X84858560Y-16180000D01*
X84925599Y-16199685D01*
G37*
%TD.AperFunction*%
%TD*%
M02*
