%TF.GenerationSoftware,KiCad,Pcbnew,8.0.8*%
%TF.CreationDate,2025-02-24T17:42:22-08:00*%
%TF.ProjectId,all_in_one,616c6c5f-696e-45f6-9f6e-652e6b696361,rev?*%
%TF.SameCoordinates,Original*%
%TF.FileFunction,Paste,Top*%
%TF.FilePolarity,Positive*%
%FSLAX46Y46*%
G04 Gerber Fmt 4.6, Leading zero omitted, Abs format (unit mm)*
G04 Created by KiCad (PCBNEW 8.0.8) date 2025-02-24 17:42:22*
%MOMM*%
%LPD*%
G01*
G04 APERTURE LIST*
G04 Aperture macros list*
%AMRoundRect*
0 Rectangle with rounded corners*
0 $1 Rounding radius*
0 $2 $3 $4 $5 $6 $7 $8 $9 X,Y pos of 4 corners*
0 Add a 4 corners polygon primitive as box body*
4,1,4,$2,$3,$4,$5,$6,$7,$8,$9,$2,$3,0*
0 Add four circle primitives for the rounded corners*
1,1,$1+$1,$2,$3*
1,1,$1+$1,$4,$5*
1,1,$1+$1,$6,$7*
1,1,$1+$1,$8,$9*
0 Add four rect primitives between the rounded corners*
20,1,$1+$1,$2,$3,$4,$5,0*
20,1,$1+$1,$4,$5,$6,$7,0*
20,1,$1+$1,$6,$7,$8,$9,0*
20,1,$1+$1,$8,$9,$2,$3,0*%
G04 Aperture macros list end*
%ADD10C,0.000100*%
%ADD11R,1.700000X1.000000*%
%ADD12RoundRect,0.237500X-0.250000X-0.237500X0.250000X-0.237500X0.250000X0.237500X-0.250000X0.237500X0*%
%ADD13RoundRect,0.150000X0.150000X-0.587500X0.150000X0.587500X-0.150000X0.587500X-0.150000X-0.587500X0*%
%ADD14RoundRect,0.237500X-0.237500X0.250000X-0.237500X-0.250000X0.237500X-0.250000X0.237500X0.250000X0*%
%ADD15RoundRect,0.237500X-0.287500X-0.237500X0.287500X-0.237500X0.287500X0.237500X-0.287500X0.237500X0*%
%ADD16RoundRect,0.250001X-0.924999X0.499999X-0.924999X-0.499999X0.924999X-0.499999X0.924999X0.499999X0*%
%ADD17RoundRect,0.237500X0.237500X-0.300000X0.237500X0.300000X-0.237500X0.300000X-0.237500X-0.300000X0*%
%ADD18RoundRect,0.237500X0.300000X0.237500X-0.300000X0.237500X-0.300000X-0.237500X0.300000X-0.237500X0*%
%ADD19RoundRect,0.237500X0.237500X-0.287500X0.237500X0.287500X-0.237500X0.287500X-0.237500X-0.287500X0*%
%ADD20RoundRect,0.225000X-0.225000X-0.225000X0.225000X-0.225000X0.225000X0.225000X-0.225000X0.225000X0*%
%ADD21RoundRect,0.062500X-0.337500X-0.062500X0.337500X-0.062500X0.337500X0.062500X-0.337500X0.062500X0*%
%ADD22RoundRect,0.062500X-0.062500X-0.337500X0.062500X-0.337500X0.062500X0.337500X-0.062500X0.337500X0*%
%ADD23RoundRect,0.112500X-0.237500X0.112500X-0.237500X-0.112500X0.237500X-0.112500X0.237500X0.112500X0*%
%ADD24R,1.800000X0.700000*%
%ADD25R,0.700000X1.800000*%
%ADD26RoundRect,0.250000X-0.600000X0.400000X-0.600000X-0.400000X0.600000X-0.400000X0.600000X0.400000X0*%
%ADD27RoundRect,0.200000X-0.275000X0.200000X-0.275000X-0.200000X0.275000X-0.200000X0.275000X0.200000X0*%
%ADD28RoundRect,0.225000X0.250000X-0.225000X0.250000X0.225000X-0.250000X0.225000X-0.250000X-0.225000X0*%
%ADD29RoundRect,0.237500X0.287500X0.237500X-0.287500X0.237500X-0.287500X-0.237500X0.287500X-0.237500X0*%
%ADD30RoundRect,0.237500X-0.300000X-0.237500X0.300000X-0.237500X0.300000X0.237500X-0.300000X0.237500X0*%
%ADD31RoundRect,0.237500X-0.237500X0.300000X-0.237500X-0.300000X0.237500X-0.300000X0.237500X0.300000X0*%
%ADD32RoundRect,0.225000X-0.225000X-0.250000X0.225000X-0.250000X0.225000X0.250000X-0.225000X0.250000X0*%
%ADD33R,0.376682X0.351536*%
%ADD34R,0.351536X0.376682*%
%ADD35RoundRect,0.150000X0.150000X-0.512500X0.150000X0.512500X-0.150000X0.512500X-0.150000X-0.512500X0*%
G04 APERTURE END LIST*
D10*
%TO.C,L1*%
X68975000Y-36230000D02*
X68395000Y-36810000D01*
X68395000Y-37975000D01*
X68975000Y-38555000D01*
X68975000Y-39345000D01*
X68075000Y-39345000D01*
X67525000Y-38795000D01*
X67525000Y-36005000D01*
X68075000Y-35455000D01*
X68975000Y-35455000D01*
X68975000Y-36230000D01*
G36*
X68975000Y-36230000D02*
G01*
X68395000Y-36810000D01*
X68395000Y-37975000D01*
X68975000Y-38555000D01*
X68975000Y-39345000D01*
X68075000Y-39345000D01*
X67525000Y-38795000D01*
X67525000Y-36005000D01*
X68075000Y-35455000D01*
X68975000Y-35455000D01*
X68975000Y-36230000D01*
G37*
X71925000Y-36005000D02*
X71925000Y-38795000D01*
X71375000Y-39345000D01*
X70475000Y-39345000D01*
X70475000Y-38555000D01*
X71055000Y-37975000D01*
X71055000Y-36810000D01*
X70475000Y-36230000D01*
X70475000Y-35455000D01*
X71375000Y-35455000D01*
X71925000Y-36005000D01*
G36*
X71925000Y-36005000D02*
G01*
X71925000Y-38795000D01*
X71375000Y-39345000D01*
X70475000Y-39345000D01*
X70475000Y-38555000D01*
X71055000Y-37975000D01*
X71055000Y-36810000D01*
X70475000Y-36230000D01*
X70475000Y-35455000D01*
X71375000Y-35455000D01*
X71925000Y-36005000D01*
G37*
%TD*%
D11*
%TO.C,SW1*%
X74380000Y-26260000D03*
X80680000Y-26260000D03*
X74380000Y-30060000D03*
X80680000Y-30060000D03*
%TD*%
D12*
%TO.C,R9*%
X114957500Y-40120000D03*
X116782500Y-40120000D03*
%TD*%
D13*
%TO.C,Q2*%
X61450000Y-55785000D03*
X63350000Y-55785000D03*
X62400000Y-53910000D03*
%TD*%
D12*
%TO.C,R2*%
X79797500Y-53160000D03*
X81622500Y-53160000D03*
%TD*%
D14*
%TO.C,R8*%
X101200000Y-58325000D03*
X101200000Y-60150000D03*
%TD*%
D15*
%TO.C,L3*%
X106815000Y-31935000D03*
X108565000Y-31935000D03*
%TD*%
D16*
%TO.C,C2*%
X55080000Y-53290000D03*
X55080000Y-56540000D03*
%TD*%
D17*
%TO.C,C12*%
X81450000Y-40902500D03*
X81450000Y-39177500D03*
%TD*%
D18*
%TO.C,C7*%
X66240000Y-42080000D03*
X64515000Y-42080000D03*
%TD*%
D16*
%TO.C,C4*%
X58620000Y-53310000D03*
X58620000Y-56560000D03*
%TD*%
D19*
%TO.C,D2*%
X99470000Y-60107500D03*
X99470000Y-58357500D03*
%TD*%
D20*
%TO.C,U1*%
X69190000Y-43350000D03*
X69190000Y-44470000D03*
X69190000Y-45590000D03*
X70310000Y-43350000D03*
X70310000Y-44470000D03*
X70310000Y-45590000D03*
X71430000Y-43350000D03*
X71430000Y-44470000D03*
X71430000Y-45590000D03*
D21*
X67860000Y-42970000D03*
X67860000Y-43470000D03*
X67860000Y-43970000D03*
X67860000Y-44470000D03*
X67860000Y-44970000D03*
X67860000Y-45470000D03*
X67860000Y-45970000D03*
D22*
X68810000Y-46920000D03*
X69310000Y-46920000D03*
X69810000Y-46920000D03*
X70310000Y-46920000D03*
X70810000Y-46920000D03*
X71310000Y-46920000D03*
X71810000Y-46920000D03*
D21*
X72760000Y-45970000D03*
X72760000Y-45470000D03*
X72760000Y-44970000D03*
X72760000Y-44470000D03*
X72760000Y-43970000D03*
X72760000Y-43470000D03*
X72760000Y-42970000D03*
D22*
X71810000Y-42020000D03*
X71310000Y-42020000D03*
X70810000Y-42020000D03*
X70310000Y-42020000D03*
X69810000Y-42020000D03*
X69310000Y-42020000D03*
X68810000Y-42020000D03*
%TD*%
D23*
%TO.C,Q3*%
X82920000Y-42670000D03*
X82920000Y-43970000D03*
X84920000Y-43320000D03*
%TD*%
D13*
%TO.C,Q1*%
X60150000Y-44120000D03*
X62050000Y-44120000D03*
X61100000Y-42245000D03*
%TD*%
D12*
%TO.C,R5*%
X79907500Y-32730000D03*
X81732500Y-32730000D03*
%TD*%
D16*
%TO.C,C3*%
X57440000Y-41780000D03*
X57440000Y-45030000D03*
%TD*%
D14*
%TO.C,R1*%
X79790000Y-49437500D03*
X79790000Y-51262500D03*
%TD*%
D24*
%TO.C,U3*%
X103745000Y-42955000D03*
X103745000Y-41955000D03*
X103745000Y-40955000D03*
X103745000Y-39955000D03*
X103745000Y-38955000D03*
X103745000Y-37955000D03*
X103745000Y-36955000D03*
X103745000Y-35955000D03*
X103745000Y-34955000D03*
X103745000Y-33955000D03*
X103745000Y-32955000D03*
X103745000Y-31955000D03*
D25*
X95790000Y-29820000D03*
X94790000Y-29820000D03*
X93790000Y-29820000D03*
X92790000Y-29820000D03*
D24*
X88945000Y-31955000D03*
X88945000Y-32955000D03*
X88945000Y-33955000D03*
X88945000Y-38955000D03*
X88945000Y-39955000D03*
X88945000Y-40955000D03*
X88945000Y-41955000D03*
X88945000Y-42955000D03*
D25*
X92790000Y-44620000D03*
X93790000Y-44620000D03*
X94790000Y-44620000D03*
X95790000Y-44620000D03*
X96790000Y-44620000D03*
X97790000Y-44620000D03*
X98790000Y-44620000D03*
X99790000Y-44620000D03*
%TD*%
D26*
%TO.C,D1*%
X50730000Y-41630000D03*
X50730000Y-45130000D03*
%TD*%
D27*
%TO.C,R13*%
X103150000Y-19930000D03*
X103150000Y-21580000D03*
%TD*%
%TO.C,R15*%
X108600000Y-33560000D03*
X108600000Y-35210000D03*
%TD*%
%TO.C,R14*%
X106820000Y-33565000D03*
X106820000Y-35215000D03*
%TD*%
D28*
%TO.C,C6*%
X73905000Y-39535000D03*
X73905000Y-37985000D03*
%TD*%
D12*
%TO.C,R3*%
X79120000Y-44190000D03*
X80945000Y-44190000D03*
%TD*%
D17*
%TO.C,C9*%
X75180000Y-51220000D03*
X75180000Y-49495000D03*
%TD*%
D11*
%TO.C,SW2*%
X74170000Y-18660000D03*
X80470000Y-18660000D03*
X74170000Y-22460000D03*
X80470000Y-22460000D03*
%TD*%
D17*
%TO.C,C8*%
X64310000Y-45472500D03*
X64310000Y-43747500D03*
%TD*%
D29*
%TO.C,D3*%
X116740000Y-38300000D03*
X114990000Y-38300000D03*
%TD*%
D30*
%TO.C,C11*%
X82955000Y-31270000D03*
X84680000Y-31270000D03*
%TD*%
D17*
%TO.C,C13*%
X79790000Y-40902500D03*
X79790000Y-39177500D03*
%TD*%
D31*
%TO.C,C5*%
X77420000Y-51677500D03*
X77420000Y-53402500D03*
%TD*%
D16*
%TO.C,C1*%
X54010000Y-41780000D03*
X54010000Y-45030000D03*
%TD*%
D19*
%TO.C,L2*%
X66000000Y-45480000D03*
X66000000Y-43730000D03*
%TD*%
D27*
%TO.C,R10*%
X101490000Y-19940000D03*
X101490000Y-21590000D03*
%TD*%
D14*
%TO.C,R4*%
X86640000Y-42797500D03*
X86640000Y-44622500D03*
%TD*%
D27*
%TO.C,R11*%
X99740000Y-19930000D03*
X99740000Y-21580000D03*
%TD*%
D32*
%TO.C,C14*%
X115865000Y-17290000D03*
X117415000Y-17290000D03*
%TD*%
D33*
%TO.C,U4*%
X116630002Y-20700002D03*
X116630002Y-20200001D03*
X116630002Y-19700001D03*
X116630002Y-19200000D03*
D34*
X116130001Y-19200000D03*
X115630001Y-19200000D03*
D33*
X115130000Y-19200000D03*
X115130000Y-19700001D03*
X115130000Y-20200001D03*
X115130000Y-20700002D03*
D34*
X115630001Y-20700002D03*
X116130001Y-20700002D03*
%TD*%
D30*
%TO.C,C10*%
X80287500Y-37010000D03*
X82012500Y-37010000D03*
%TD*%
D35*
%TO.C,U2*%
X75260000Y-45320000D03*
X76210000Y-45320000D03*
X77160000Y-45320000D03*
X77160000Y-43045000D03*
X75260000Y-43045000D03*
%TD*%
D27*
%TO.C,R12*%
X104860000Y-19965000D03*
X104860000Y-21615000D03*
%TD*%
M02*
